%TF.GenerationSoftware,KiCad,Pcbnew,9.0.9*%
%TF.CreationDate,2026-10-02T15:23:24+02:00*%
%TF.ProjectId,nest-mini-v2-drop-in-pcb,6e657374-2d6d-4696-9e69-2d76322d6472,v1*%
%TF.SameCoordinates,Original*%
%TF.FileFunction,Soldermask,Top*%
%TF.FilePolarity,Negative*%
%FSLAX46Y46*%
G04 Gerber Fmt 4.6, Leading zero omitted, Abs format (unit mm)*
G04 Created by KiCad (PCBNEW 9.0.9) date 2026-10-02 15:23:24*
%MOMM*%
%LPD*%
G01*
G04 APERTURE LIST*
G04 Aperture macros list*
%AMRoundRect*
0 Rectangle with rounded corners*
0 $1 Rounding radius*
0 $2 $3 $4 $5 $6 $7 $8 $9 X,Y pos of 4 corners*
0 Add a 4 corners polygon primitive as box body*
4,1,4,$2,$3,$4,$5,$6,$7,$8,$9,$2,$3,0*
0 Add four circle primitives for the rounded corners*
1,1,$1+$1,$2,$3*
1,1,$1+$1,$4,$5*
1,1,$1+$1,$6,$7*
1,1,$1+$1,$8,$9*
0 Add four rect primitives between the rounded corners*
20,1,$1+$1,$2,$3,$4,$5,0*
20,1,$1+$1,$4,$5,$6,$7,0*
20,1,$1+$1,$6,$7,$8,$9,0*
20,1,$1+$1,$8,$9,$2,$3,0*%
%AMHorizOval*
0 Thick line with rounded ends*
0 $1 width*
0 $2 $3 position (X,Y) of the first rounded end (center of the circle)*
0 $4 $5 position (X,Y) of the second rounded end (center of the circle)*
0 Add line between two ends*
20,1,$1,$2,$3,$4,$5,0*
0 Add two circle primitives to create the rounded ends*
1,1,$1,$2,$3*
1,1,$1,$4,$5*%
G04 Aperture macros list end*
%ADD10C,0.010000*%
%ADD11C,0.862500*%
%ADD12C,1.060000*%
%ADD13RoundRect,0.155000X-0.185000X0.155000X-0.185000X-0.155000X0.185000X-0.155000X0.185000X0.155000X0*%
%ADD14RoundRect,0.215000X-0.290000X0.215000X-0.290000X-0.215000X0.290000X-0.215000X0.290000X0.215000X0*%
%ADD15RoundRect,0.215000X-0.215000X-0.290000X0.215000X-0.290000X0.215000X0.290000X-0.215000X0.290000X0*%
%ADD16RoundRect,0.102000X-0.400000X0.200000X-0.400000X-0.200000X0.400000X-0.200000X0.400000X0.200000X0*%
%ADD17RoundRect,0.155000X0.155000X0.185000X-0.155000X0.185000X-0.155000X-0.185000X0.155000X-0.185000X0*%
%ADD18RoundRect,0.077500X-0.365000X-0.077500X0.365000X-0.077500X0.365000X0.077500X-0.365000X0.077500X0*%
%ADD19RoundRect,0.077500X-0.077500X-0.365000X0.077500X-0.365000X0.077500X0.365000X-0.077500X0.365000X0*%
%ADD20RoundRect,0.030000X-0.840000X-0.840000X0.840000X-0.840000X0.840000X0.840000X-0.840000X0.840000X0*%
%ADD21RoundRect,0.155000X-0.155000X-0.185000X0.155000X-0.185000X0.155000X0.185000X-0.155000X0.185000X0*%
%ADD22RoundRect,0.077500X-0.077500X0.252500X-0.077500X-0.252500X0.077500X-0.252500X0.077500X0.252500X0*%
%ADD23RoundRect,0.030000X-0.800000X0.450000X-0.800000X-0.450000X0.800000X-0.450000X0.800000X0.450000X0*%
%ADD24RoundRect,0.150000X-0.150000X-0.200000X0.150000X-0.200000X0.150000X0.200000X-0.150000X0.200000X0*%
%ADD25RoundRect,0.240000X0.240000X0.265000X-0.240000X0.265000X-0.240000X-0.265000X0.240000X-0.265000X0*%
%ADD26RoundRect,0.215000X-0.215000X0.265000X-0.215000X-0.265000X0.215000X-0.265000X0.215000X0.265000X0*%
%ADD27RoundRect,0.150000X0.200000X-0.150000X0.200000X0.150000X-0.200000X0.150000X-0.200000X-0.150000X0*%
%ADD28RoundRect,0.150000X0.150000X0.200000X-0.150000X0.200000X-0.150000X-0.200000X0.150000X-0.200000X0*%
%ADD29RoundRect,0.050800X-0.350000X-0.500000X0.350000X-0.500000X0.350000X0.500000X-0.350000X0.500000X0*%
%ADD30RoundRect,0.155000X-0.240416X-0.021213X-0.021213X-0.240416X0.240416X0.021213X0.021213X0.240416X0*%
%ADD31RoundRect,0.265000X0.265000X0.490000X-0.265000X0.490000X-0.265000X-0.490000X0.265000X-0.490000X0*%
%ADD32RoundRect,0.265000X-0.490000X0.265000X-0.490000X-0.265000X0.490000X-0.265000X0.490000X0.265000X0*%
%ADD33RoundRect,0.240000X-0.265000X0.240000X-0.265000X-0.240000X0.265000X-0.240000X0.265000X0.240000X0*%
%ADD34RoundRect,0.155000X0.185000X-0.155000X0.185000X0.155000X-0.185000X0.155000X-0.185000X-0.155000X0*%
%ADD35RoundRect,0.102000X0.200000X-0.585000X0.200000X0.585000X-0.200000X0.585000X-0.200000X-0.585000X0*%
%ADD36RoundRect,0.030000X-0.400000X0.400000X-0.400000X-0.400000X0.400000X-0.400000X0.400000X0.400000X0*%
%ADD37RoundRect,0.162500X0.187500X-0.162500X0.187500X0.162500X-0.187500X0.162500X-0.187500X-0.162500X0*%
%ADD38RoundRect,0.259375X-1.416865X0.609880X0.609880X-1.416865X1.416865X-0.609880X-0.609880X1.416865X0*%
%ADD39RoundRect,0.150000X-0.247487X-0.035355X-0.035355X-0.247487X0.247487X0.035355X0.035355X0.247487X0*%
%ADD40RoundRect,0.162500X0.017678X-0.247487X0.247487X-0.017678X-0.017678X0.247487X-0.247487X0.017678X0*%
%ADD41RoundRect,0.162500X-0.187500X0.162500X-0.187500X-0.162500X0.187500X-0.162500X0.187500X0.162500X0*%
%ADD42RoundRect,0.240000X-0.240000X-0.265000X0.240000X-0.265000X0.240000X0.265000X-0.240000X0.265000X0*%
%ADD43RoundRect,0.260001X0.969999X-0.519999X0.969999X0.519999X-0.969999X0.519999X-0.969999X-0.519999X0*%
%ADD44RoundRect,0.177500X0.665000X0.177500X-0.665000X0.177500X-0.665000X-0.177500X0.665000X-0.177500X0*%
%ADD45RoundRect,0.050000X0.250000X-0.250000X0.250000X0.250000X-0.250000X0.250000X-0.250000X-0.250000X0*%
%ADD46RoundRect,0.050000X0.500000X-0.350000X0.500000X0.350000X-0.500000X0.350000X-0.500000X-0.350000X0*%
%ADD47RoundRect,0.240000X0.265000X-0.240000X0.265000X0.240000X-0.265000X0.240000X-0.265000X-0.240000X0*%
%ADD48RoundRect,0.102000X0.800000X2.050000X-0.800000X2.050000X-0.800000X-2.050000X0.800000X-2.050000X0*%
%ADD49RoundRect,0.150000X0.035355X-0.247487X0.247487X-0.035355X-0.035355X0.247487X-0.247487X0.035355X0*%
%ADD50RoundRect,0.140000X-0.502500X-0.140000X0.502500X-0.140000X0.502500X0.140000X-0.502500X0.140000X0*%
%ADD51RoundRect,0.265000X-0.265000X-0.490000X0.265000X-0.490000X0.265000X0.490000X-0.265000X0.490000X0*%
%ADD52RoundRect,0.053000X0.159000X-0.454000X0.159000X0.454000X-0.159000X0.454000X-0.159000X-0.454000X0*%
%ADD53RoundRect,0.040000X0.415000X-0.120000X0.415000X0.120000X-0.415000X0.120000X-0.415000X-0.120000X0*%
%ADD54RoundRect,0.053000X0.454000X-0.159000X0.454000X0.159000X-0.454000X0.159000X-0.454000X-0.159000X0*%
%ADD55RoundRect,0.102000X2.000000X-2.000000X2.000000X2.000000X-2.000000X2.000000X-2.000000X-2.000000X0*%
%ADD56RoundRect,0.264634X-0.465366X0.277866X-0.465366X-0.277866X0.465366X-0.277866X0.465366X0.277866X0*%
%ADD57RoundRect,0.102000X-0.200000X-0.400000X0.200000X-0.400000X0.200000X0.400000X-0.200000X0.400000X0*%
%ADD58RoundRect,0.265000X0.490000X-0.265000X0.490000X0.265000X-0.490000X0.265000X-0.490000X-0.265000X0*%
%ADD59RoundRect,0.102000X-0.500000X-0.485000X0.500000X-0.485000X0.500000X0.485000X-0.500000X0.485000X0*%
%ADD60RoundRect,0.215000X0.290000X-0.215000X0.290000X0.215000X-0.290000X0.215000X-0.290000X-0.215000X0*%
%ADD61RoundRect,0.150000X0.247487X0.035355X0.035355X0.247487X-0.247487X-0.035355X-0.035355X-0.247487X0*%
%ADD62RoundRect,0.102000X0.485000X-0.500000X0.485000X0.500000X-0.485000X0.500000X-0.485000X-0.500000X0*%
%ADD63RoundRect,0.155000X-0.021213X0.240416X-0.240416X0.021213X0.021213X-0.240416X0.240416X-0.021213X0*%
%ADD64RoundRect,0.152500X-0.677500X0.152500X-0.677500X-0.152500X0.677500X-0.152500X0.677500X0.152500X0*%
%ADD65RoundRect,0.264634X0.465366X-0.277866X0.465366X0.277866X-0.465366X0.277866X-0.465366X-0.277866X0*%
%ADD66RoundRect,0.115000X0.115000X-0.577500X0.115000X0.577500X-0.115000X0.577500X-0.115000X-0.577500X0*%
%ADD67RoundRect,0.165000X0.165000X0.215000X-0.165000X0.215000X-0.165000X-0.215000X0.165000X-0.215000X0*%
%ADD68RoundRect,0.165000X0.165000X-0.527500X0.165000X0.527500X-0.165000X0.527500X-0.165000X-0.527500X0*%
%ADD69RoundRect,0.115000X0.145000X0.115000X-0.145000X0.115000X-0.145000X-0.115000X0.145000X-0.115000X0*%
%ADD70RoundRect,0.050000X-0.250000X0.250000X-0.250000X-0.250000X0.250000X-0.250000X0.250000X0.250000X0*%
%ADD71RoundRect,0.050000X-0.500000X0.350000X-0.500000X-0.350000X0.500000X-0.350000X0.500000X0.350000X0*%
%ADD72RoundRect,0.155000X0.021213X-0.240416X0.240416X-0.021213X-0.021213X0.240416X-0.240416X0.021213X0*%
%ADD73RoundRect,0.262500X0.212132X-0.731856X0.731856X-0.212132X-0.212132X0.731856X-0.731856X0.212132X0*%
%ADD74RoundRect,0.263333X0.641667X-0.329167X0.641667X0.329167X-0.641667X0.329167X-0.641667X-0.329167X0*%
%ADD75RoundRect,0.050800X0.388909X0.176777X0.176777X0.388909X-0.388909X-0.176777X-0.176777X-0.388909X0*%
%ADD76RoundRect,0.050000X0.601041X-0.106066X-0.106066X0.601041X-0.601041X0.106066X0.106066X-0.601041X0*%
%ADD77RoundRect,0.050800X0.353553X0.141421X0.141421X0.353553X-0.353553X-0.141421X-0.141421X-0.353553X0*%
%ADD78HorizOval,1.100000X0.388909X0.388909X-0.388909X-0.388909X0*%
%ADD79HorizOval,1.100000X0.565685X0.565685X-0.565685X-0.565685X0*%
%ADD80C,0.560000*%
%ADD81RoundRect,0.150000X-0.200000X0.150000X-0.200000X-0.150000X0.200000X-0.150000X0.200000X0.150000X0*%
G04 APERTURE END LIST*
D10*
%TO.C,J6*%
X159575000Y-91231000D02*
X158675000Y-91231000D01*
X158675000Y-90831000D01*
X159575000Y-90831000D01*
X159575000Y-91231000D01*
G36*
X159575000Y-91231000D02*
G01*
X158675000Y-91231000D01*
X158675000Y-90831000D01*
X159575000Y-90831000D01*
X159575000Y-91231000D01*
G37*
X159575000Y-91731000D02*
X158675000Y-91731000D01*
X158675000Y-91331000D01*
X159575000Y-91331000D01*
X159575000Y-91731000D01*
G36*
X159575000Y-91731000D02*
G01*
X158675000Y-91731000D01*
X158675000Y-91331000D01*
X159575000Y-91331000D01*
X159575000Y-91731000D01*
G37*
X159575000Y-92231000D02*
X158675000Y-92231000D01*
X158675000Y-91831000D01*
X159575000Y-91831000D01*
X159575000Y-92231000D01*
G36*
X159575000Y-92231000D02*
G01*
X158675000Y-92231000D01*
X158675000Y-91831000D01*
X159575000Y-91831000D01*
X159575000Y-92231000D01*
G37*
X159575000Y-93231000D02*
X158675000Y-93231000D01*
X158675000Y-92831000D01*
X159575000Y-92831000D01*
X159575000Y-93231000D01*
G36*
X159575000Y-93231000D02*
G01*
X158675000Y-93231000D01*
X158675000Y-92831000D01*
X159575000Y-92831000D01*
X159575000Y-93231000D01*
G37*
X159575000Y-93731000D02*
X158675000Y-93731000D01*
X158675000Y-93331000D01*
X159575000Y-93331000D01*
X159575000Y-93731000D01*
G36*
X159575000Y-93731000D02*
G01*
X158675000Y-93731000D01*
X158675000Y-93331000D01*
X159575000Y-93331000D01*
X159575000Y-93731000D01*
G37*
X159575000Y-94231000D02*
X158675000Y-94231000D01*
X158675000Y-93831000D01*
X159575000Y-93831000D01*
X159575000Y-94231000D01*
G36*
X159575000Y-94231000D02*
G01*
X158675000Y-94231000D01*
X158675000Y-93831000D01*
X159575000Y-93831000D01*
X159575000Y-94231000D01*
G37*
X159575000Y-94731000D02*
X158675000Y-94731000D01*
X158675000Y-94331000D01*
X159575000Y-94331000D01*
X159575000Y-94731000D01*
G36*
X159575000Y-94731000D02*
G01*
X158675000Y-94731000D01*
X158675000Y-94331000D01*
X159575000Y-94331000D01*
X159575000Y-94731000D01*
G37*
X159575000Y-95731000D02*
X158675000Y-95731000D01*
X158675000Y-95331000D01*
X159575000Y-95331000D01*
X159575000Y-95731000D01*
G36*
X159575000Y-95731000D02*
G01*
X158675000Y-95731000D01*
X158675000Y-95331000D01*
X159575000Y-95331000D01*
X159575000Y-95731000D01*
G37*
X159575000Y-96231000D02*
X158675000Y-96231000D01*
X158675000Y-95831000D01*
X159575000Y-95831000D01*
X159575000Y-96231000D01*
G36*
X159575000Y-96231000D02*
G01*
X158675000Y-96231000D01*
X158675000Y-95831000D01*
X159575000Y-95831000D01*
X159575000Y-96231000D01*
G37*
X159575000Y-96731000D02*
X158675000Y-96731000D01*
X158675000Y-96331000D01*
X159575000Y-96331000D01*
X159575000Y-96731000D01*
G36*
X159575000Y-96731000D02*
G01*
X158675000Y-96731000D01*
X158675000Y-96331000D01*
X159575000Y-96331000D01*
X159575000Y-96731000D01*
G37*
%TO.C,POWER_IN1*%
X139260362Y-119400999D02*
X138860362Y-119400999D01*
X138860362Y-118500999D01*
X139260362Y-118500999D01*
X139260362Y-119400999D01*
G36*
X139260362Y-119400999D02*
G01*
X138860362Y-119400999D01*
X138860362Y-118500999D01*
X139260362Y-118500999D01*
X139260362Y-119400999D01*
G37*
X139760362Y-119400999D02*
X139360362Y-119400999D01*
X139360362Y-118500999D01*
X139760362Y-118500999D01*
X139760362Y-119400999D01*
G36*
X139760362Y-119400999D02*
G01*
X139360362Y-119400999D01*
X139360362Y-118500999D01*
X139760362Y-118500999D01*
X139760362Y-119400999D01*
G37*
X140260362Y-119400999D02*
X139860362Y-119400999D01*
X139860362Y-118500999D01*
X140260362Y-118500999D01*
X140260362Y-119400999D01*
G36*
X140260362Y-119400999D02*
G01*
X139860362Y-119400999D01*
X139860362Y-118500999D01*
X140260362Y-118500999D01*
X140260362Y-119400999D01*
G37*
X140760362Y-119400999D02*
X140360362Y-119400999D01*
X140360362Y-118500999D01*
X140760362Y-118500999D01*
X140760362Y-119400999D01*
G36*
X140760362Y-119400999D02*
G01*
X140360362Y-119400999D01*
X140360362Y-118500999D01*
X140760362Y-118500999D01*
X140760362Y-119400999D01*
G37*
X141260362Y-119400999D02*
X140860362Y-119400999D01*
X140860362Y-118500999D01*
X141260362Y-118500999D01*
X141260362Y-119400999D01*
G36*
X141260362Y-119400999D02*
G01*
X140860362Y-119400999D01*
X140860362Y-118500999D01*
X141260362Y-118500999D01*
X141260362Y-119400999D01*
G37*
X141760362Y-119400999D02*
X141360362Y-119400999D01*
X141360362Y-118500999D01*
X141760362Y-118500999D01*
X141760362Y-119400999D01*
G36*
X141760362Y-119400999D02*
G01*
X141360362Y-119400999D01*
X141360362Y-118500999D01*
X141760362Y-118500999D01*
X141760362Y-119400999D01*
G37*
X142260362Y-119400999D02*
X141860362Y-119400999D01*
X141860362Y-118500999D01*
X142260362Y-118500999D01*
X142260362Y-119400999D01*
G36*
X142260362Y-119400999D02*
G01*
X141860362Y-119400999D01*
X141860362Y-118500999D01*
X142260362Y-118500999D01*
X142260362Y-119400999D01*
G37*
X142760362Y-119400999D02*
X142360362Y-119400999D01*
X142360362Y-118500999D01*
X142760362Y-118500999D01*
X142760362Y-119400999D01*
G36*
X142760362Y-119400999D02*
G01*
X142360362Y-119400999D01*
X142360362Y-118500999D01*
X142760362Y-118500999D01*
X142760362Y-119400999D01*
G37*
X143260362Y-119400999D02*
X142860362Y-119400999D01*
X142860362Y-118500999D01*
X143260362Y-118500999D01*
X143260362Y-119400999D01*
G36*
X143260362Y-119400999D02*
G01*
X142860362Y-119400999D01*
X142860362Y-118500999D01*
X143260362Y-118500999D01*
X143260362Y-119400999D01*
G37*
X143760362Y-119400999D02*
X143360362Y-119400999D01*
X143360362Y-118500999D01*
X143760362Y-118500999D01*
X143760362Y-119400999D01*
G36*
X143760362Y-119400999D02*
G01*
X143360362Y-119400999D01*
X143360362Y-118500999D01*
X143760362Y-118500999D01*
X143760362Y-119400999D01*
G37*
%TO.C,J5*%
X160209530Y-105911612D02*
X158264987Y-107856156D01*
X157522524Y-107113694D01*
X159467068Y-105169150D01*
X160209530Y-105911612D01*
G36*
X160209530Y-105911612D02*
G01*
X158264987Y-107856156D01*
X157522524Y-107113694D01*
X159467068Y-105169150D01*
X160209530Y-105911612D01*
G37*
X161270190Y-106972272D02*
X159325646Y-108916815D01*
X158583185Y-108174354D01*
X160527728Y-106229810D01*
X161270190Y-106972272D01*
G36*
X161270190Y-106972272D02*
G01*
X159325646Y-108916815D01*
X158583185Y-108174354D01*
X160527728Y-106229810D01*
X161270190Y-106972272D01*
G37*
X163356155Y-102764987D02*
X160775215Y-105345928D01*
X160032753Y-104603464D01*
X162613693Y-102022525D01*
X163356155Y-102764987D01*
G36*
X163356155Y-102764987D02*
G01*
X160775215Y-105345928D01*
X160032753Y-104603464D01*
X162613693Y-102022525D01*
X163356155Y-102764987D01*
G37*
X164416815Y-103825647D02*
X161835876Y-106406587D01*
X161093413Y-105664126D01*
X163674353Y-103083185D01*
X164416815Y-103825647D01*
G36*
X164416815Y-103825647D02*
G01*
X161835876Y-106406587D01*
X161093413Y-105664126D01*
X163674353Y-103083185D01*
X164416815Y-103825647D01*
G37*
%TO.C,U14*%
X134100000Y-99350000D02*
X132500000Y-99350000D01*
X132500000Y-98800000D01*
X134100000Y-98800000D01*
X134100000Y-99350000D01*
G36*
X134100000Y-99350000D02*
G01*
X132500000Y-99350000D01*
X132500000Y-98800000D01*
X134100000Y-98800000D01*
X134100000Y-99350000D01*
G37*
X134100000Y-100000000D02*
X132500000Y-100000000D01*
X132500000Y-99450000D01*
X134100000Y-99450000D01*
X134100000Y-100000000D01*
G36*
X134100000Y-100000000D02*
G01*
X132500000Y-100000000D01*
X132500000Y-99450000D01*
X134100000Y-99450000D01*
X134100000Y-100000000D01*
G37*
X134100000Y-100650000D02*
X132500000Y-100650000D01*
X132500000Y-100100000D01*
X134100000Y-100100000D01*
X134100000Y-100650000D01*
G36*
X134100000Y-100650000D02*
G01*
X132500000Y-100650000D01*
X132500000Y-100100000D01*
X134100000Y-100100000D01*
X134100000Y-100650000D01*
G37*
X134100000Y-101300000D02*
X132500000Y-101300000D01*
X132500000Y-100750000D01*
X134100000Y-100750000D01*
X134100000Y-101300000D01*
G36*
X134100000Y-101300000D02*
G01*
X132500000Y-101300000D01*
X132500000Y-100750000D01*
X134100000Y-100750000D01*
X134100000Y-101300000D01*
G37*
X134100000Y-101950000D02*
X132500000Y-101950000D01*
X132500000Y-101400000D01*
X134100000Y-101400000D01*
X134100000Y-101950000D01*
G36*
X134100000Y-101950000D02*
G01*
X132500000Y-101950000D01*
X132500000Y-101400000D01*
X134100000Y-101400000D01*
X134100000Y-101950000D01*
G37*
X134100000Y-102600000D02*
X132500000Y-102600000D01*
X132500000Y-102050000D01*
X134100000Y-102050000D01*
X134100000Y-102600000D01*
G36*
X134100000Y-102600000D02*
G01*
X132500000Y-102600000D01*
X132500000Y-102050000D01*
X134100000Y-102050000D01*
X134100000Y-102600000D01*
G37*
X134100000Y-103250000D02*
X132500000Y-103250000D01*
X132500000Y-102700000D01*
X134100000Y-102700000D01*
X134100000Y-103250000D01*
G36*
X134100000Y-103250000D02*
G01*
X132500000Y-103250000D01*
X132500000Y-102700000D01*
X134100000Y-102700000D01*
X134100000Y-103250000D01*
G37*
X134100000Y-103900000D02*
X132500000Y-103900000D01*
X132500000Y-103350000D01*
X134100000Y-103350000D01*
X134100000Y-103900000D01*
G36*
X134100000Y-103900000D02*
G01*
X132500000Y-103900000D01*
X132500000Y-103350000D01*
X134100000Y-103350000D01*
X134100000Y-103900000D01*
G37*
X134100000Y-104550000D02*
X132500000Y-104550000D01*
X132500000Y-104000000D01*
X134100000Y-104000000D01*
X134100000Y-104550000D01*
G36*
X134100000Y-104550000D02*
G01*
X132500000Y-104550000D01*
X132500000Y-104000000D01*
X134100000Y-104000000D01*
X134100000Y-104550000D01*
G37*
X134100000Y-105200000D02*
X132500000Y-105200000D01*
X132500000Y-104650000D01*
X134100000Y-104650000D01*
X134100000Y-105200000D01*
G36*
X134100000Y-105200000D02*
G01*
X132500000Y-105200000D01*
X132500000Y-104650000D01*
X134100000Y-104650000D01*
X134100000Y-105200000D01*
G37*
X134100000Y-105850000D02*
X132500000Y-105850000D01*
X132500000Y-105300000D01*
X134100000Y-105300000D01*
X134100000Y-105850000D01*
G36*
X134100000Y-105850000D02*
G01*
X132500000Y-105850000D01*
X132500000Y-105300000D01*
X134100000Y-105300000D01*
X134100000Y-105850000D01*
G37*
X134100000Y-106500000D02*
X132500000Y-106500000D01*
X132500000Y-105950000D01*
X134100000Y-105950000D01*
X134100000Y-106500000D01*
G36*
X134100000Y-106500000D02*
G01*
X132500000Y-106500000D01*
X132500000Y-105950000D01*
X134100000Y-105950000D01*
X134100000Y-106500000D01*
G37*
X134100000Y-107150000D02*
X132500000Y-107150000D01*
X132500000Y-106600000D01*
X134100000Y-106600000D01*
X134100000Y-107150000D01*
G36*
X134100000Y-107150000D02*
G01*
X132500000Y-107150000D01*
X132500000Y-106600000D01*
X134100000Y-106600000D01*
X134100000Y-107150000D01*
G37*
X134100000Y-107800000D02*
X132500000Y-107800000D01*
X132500000Y-107250000D01*
X134100000Y-107250000D01*
X134100000Y-107800000D01*
G36*
X134100000Y-107800000D02*
G01*
X132500000Y-107800000D01*
X132500000Y-107250000D01*
X134100000Y-107250000D01*
X134100000Y-107800000D01*
G37*
X137750000Y-105325000D02*
X134650000Y-105325000D01*
X134650000Y-101275000D01*
X137750000Y-101275000D01*
X137750000Y-105325000D01*
G36*
X137750000Y-105325000D02*
G01*
X134650000Y-105325000D01*
X134650000Y-101275000D01*
X137750000Y-101275000D01*
X137750000Y-105325000D01*
G37*
X139900000Y-99350000D02*
X138300000Y-99350000D01*
X138300000Y-98800000D01*
X139900000Y-98800000D01*
X139900000Y-99350000D01*
G36*
X139900000Y-99350000D02*
G01*
X138300000Y-99350000D01*
X138300000Y-98800000D01*
X139900000Y-98800000D01*
X139900000Y-99350000D01*
G37*
X139900000Y-100000000D02*
X138300000Y-100000000D01*
X138300000Y-99450000D01*
X139900000Y-99450000D01*
X139900000Y-100000000D01*
G36*
X139900000Y-100000000D02*
G01*
X138300000Y-100000000D01*
X138300000Y-99450000D01*
X139900000Y-99450000D01*
X139900000Y-100000000D01*
G37*
X139900000Y-100650000D02*
X138300000Y-100650000D01*
X138300000Y-100100000D01*
X139900000Y-100100000D01*
X139900000Y-100650000D01*
G36*
X139900000Y-100650000D02*
G01*
X138300000Y-100650000D01*
X138300000Y-100100000D01*
X139900000Y-100100000D01*
X139900000Y-100650000D01*
G37*
X139900000Y-101300000D02*
X138300000Y-101300000D01*
X138300000Y-100750000D01*
X139900000Y-100750000D01*
X139900000Y-101300000D01*
G36*
X139900000Y-101300000D02*
G01*
X138300000Y-101300000D01*
X138300000Y-100750000D01*
X139900000Y-100750000D01*
X139900000Y-101300000D01*
G37*
X139900000Y-101950000D02*
X138300000Y-101950000D01*
X138300000Y-101400000D01*
X139900000Y-101400000D01*
X139900000Y-101950000D01*
G36*
X139900000Y-101950000D02*
G01*
X138300000Y-101950000D01*
X138300000Y-101400000D01*
X139900000Y-101400000D01*
X139900000Y-101950000D01*
G37*
X139900000Y-102600000D02*
X138300000Y-102600000D01*
X138300000Y-102050000D01*
X139900000Y-102050000D01*
X139900000Y-102600000D01*
G36*
X139900000Y-102600000D02*
G01*
X138300000Y-102600000D01*
X138300000Y-102050000D01*
X139900000Y-102050000D01*
X139900000Y-102600000D01*
G37*
X139900000Y-103250000D02*
X138300000Y-103250000D01*
X138300000Y-102700000D01*
X139900000Y-102700000D01*
X139900000Y-103250000D01*
G36*
X139900000Y-103250000D02*
G01*
X138300000Y-103250000D01*
X138300000Y-102700000D01*
X139900000Y-102700000D01*
X139900000Y-103250000D01*
G37*
X139900000Y-103900000D02*
X138300000Y-103900000D01*
X138300000Y-103350000D01*
X139900000Y-103350000D01*
X139900000Y-103900000D01*
G36*
X139900000Y-103900000D02*
G01*
X138300000Y-103900000D01*
X138300000Y-103350000D01*
X139900000Y-103350000D01*
X139900000Y-103900000D01*
G37*
X139900000Y-104550000D02*
X138300000Y-104550000D01*
X138300000Y-104000000D01*
X139900000Y-104000000D01*
X139900000Y-104550000D01*
G36*
X139900000Y-104550000D02*
G01*
X138300000Y-104550000D01*
X138300000Y-104000000D01*
X139900000Y-104000000D01*
X139900000Y-104550000D01*
G37*
X139900000Y-105200000D02*
X138300000Y-105200000D01*
X138300000Y-104650000D01*
X139900000Y-104650000D01*
X139900000Y-105200000D01*
G36*
X139900000Y-105200000D02*
G01*
X138300000Y-105200000D01*
X138300000Y-104650000D01*
X139900000Y-104650000D01*
X139900000Y-105200000D01*
G37*
X139900000Y-105850000D02*
X138300000Y-105850000D01*
X138300000Y-105300000D01*
X139900000Y-105300000D01*
X139900000Y-105850000D01*
G36*
X139900000Y-105850000D02*
G01*
X138300000Y-105850000D01*
X138300000Y-105300000D01*
X139900000Y-105300000D01*
X139900000Y-105850000D01*
G37*
X139900000Y-106500000D02*
X138300000Y-106500000D01*
X138300000Y-105950000D01*
X139900000Y-105950000D01*
X139900000Y-106500000D01*
G36*
X139900000Y-106500000D02*
G01*
X138300000Y-106500000D01*
X138300000Y-105950000D01*
X139900000Y-105950000D01*
X139900000Y-106500000D01*
G37*
X139900000Y-107150000D02*
X138300000Y-107150000D01*
X138300000Y-106600000D01*
X139900000Y-106600000D01*
X139900000Y-107150000D01*
G36*
X139900000Y-107150000D02*
G01*
X138300000Y-107150000D01*
X138300000Y-106600000D01*
X139900000Y-106600000D01*
X139900000Y-107150000D01*
G37*
X139900000Y-107800000D02*
X138300000Y-107800000D01*
X138300000Y-107250000D01*
X139900000Y-107250000D01*
X139900000Y-107800000D01*
G36*
X139900000Y-107800000D02*
G01*
X138300000Y-107800000D01*
X138300000Y-107250000D01*
X139900000Y-107250000D01*
X139900000Y-107800000D01*
G37*
D11*
%TO.C,MK1*%
X104051910Y-81844869D02*
G75*
G02*
X103189410Y-81844869I-431250J0D01*
G01*
X103189410Y-81844869D02*
G75*
G02*
X104051910Y-81844869I431250J0D01*
G01*
D10*
X104425348Y-83250597D02*
X103841985Y-83833961D01*
X103402164Y-83394140D01*
X103985527Y-82810777D01*
X104425348Y-83250597D01*
G36*
X104425348Y-83250597D02*
G01*
X103841985Y-83833961D01*
X103402164Y-83394140D01*
X103985527Y-82810777D01*
X104425348Y-83250597D01*
G37*
X105006589Y-83831839D02*
X104423226Y-84415202D01*
X103983406Y-83975382D01*
X104566769Y-83392019D01*
X105006589Y-83831839D01*
G36*
X105006589Y-83831839D02*
G01*
X104423226Y-84415202D01*
X103983406Y-83975382D01*
X104566769Y-83392019D01*
X105006589Y-83831839D01*
G37*
X105609752Y-82066194D02*
X105026388Y-82649557D01*
X104586568Y-82209736D01*
X105169931Y-81626373D01*
X105609752Y-82066194D01*
G36*
X105609752Y-82066194D02*
G01*
X105026388Y-82649557D01*
X104586568Y-82209736D01*
X105169931Y-81626373D01*
X105609752Y-82066194D01*
G37*
X106190993Y-82647435D02*
X105607630Y-83230798D01*
X105167810Y-82790978D01*
X105751173Y-82207615D01*
X106190993Y-82647435D01*
G36*
X106190993Y-82647435D02*
G01*
X105607630Y-83230798D01*
X105167810Y-82790978D01*
X105751173Y-82207615D01*
X106190993Y-82647435D01*
G37*
D11*
%TO.C,MK2*%
X168377137Y-96583055D02*
G75*
G02*
X167514637Y-96583055I-431250J0D01*
G01*
X167514637Y-96583055D02*
G75*
G02*
X168377137Y-96583055I431250J0D01*
G01*
D10*
X166398737Y-95636946D02*
X165815374Y-96220309D01*
X165375554Y-95780489D01*
X165958917Y-95197126D01*
X166398737Y-95636946D01*
G36*
X166398737Y-95636946D02*
G01*
X165815374Y-96220309D01*
X165375554Y-95780489D01*
X165958917Y-95197126D01*
X166398737Y-95636946D01*
G37*
X166979979Y-96218188D02*
X166396616Y-96801551D01*
X165956795Y-96361730D01*
X166540159Y-95778367D01*
X166979979Y-96218188D01*
G36*
X166979979Y-96218188D02*
G01*
X166396616Y-96801551D01*
X165956795Y-96361730D01*
X166540159Y-95778367D01*
X166979979Y-96218188D01*
G37*
X167583141Y-94452542D02*
X166999778Y-95035905D01*
X166559958Y-94596085D01*
X167143321Y-94012722D01*
X167583141Y-94452542D01*
G36*
X167583141Y-94452542D02*
G01*
X166999778Y-95035905D01*
X166559958Y-94596085D01*
X167143321Y-94012722D01*
X167583141Y-94452542D01*
G37*
X168164383Y-95033784D02*
X167581020Y-95617147D01*
X167141199Y-95177327D01*
X167724562Y-94593963D01*
X168164383Y-95033784D01*
G36*
X168164383Y-95033784D02*
G01*
X167581020Y-95617147D01*
X167141199Y-95177327D01*
X167724562Y-94593963D01*
X168164383Y-95033784D01*
G37*
%TD*%
D12*
%TO.C,TP21*%
X120579000Y-64741000D03*
%TD*%
D13*
%TO.C,C97*%
X168560362Y-88620000D03*
X168560362Y-89580000D03*
%TD*%
D14*
%TO.C,R12*%
X117452138Y-113236501D03*
X117452138Y-114886501D03*
%TD*%
D15*
%TO.C,R17*%
X105292500Y-100480000D03*
X106942500Y-100480000D03*
%TD*%
%TO.C,R11*%
X114862500Y-111761501D03*
X116512500Y-111761501D03*
%TD*%
D16*
%TO.C,J6*%
X156625000Y-97531000D03*
X156625000Y-90031000D03*
%TD*%
D17*
%TO.C,C59*%
X135580000Y-67200000D03*
X134620000Y-67200000D03*
%TD*%
D18*
%TO.C,U7*%
X111517500Y-102480000D03*
X111517500Y-102980000D03*
X111517500Y-103480000D03*
X111517500Y-103980000D03*
D19*
X112230000Y-104692500D03*
X112730000Y-104692500D03*
X113230000Y-104692500D03*
X113730000Y-104692500D03*
D18*
X114442500Y-103980000D03*
X114442500Y-103480000D03*
X114442500Y-102980000D03*
X114442500Y-102480000D03*
D19*
X113730000Y-101767500D03*
X113230000Y-101767500D03*
X112730000Y-101767500D03*
X112230000Y-101767500D03*
D20*
X112980000Y-103230000D03*
%TD*%
D21*
%TO.C,C32*%
X118320000Y-73280000D03*
X119280000Y-73280000D03*
%TD*%
%TO.C,C46*%
X140120000Y-62000000D03*
X141080000Y-62000000D03*
%TD*%
D22*
%TO.C,U6*%
X136450000Y-77910000D03*
X135950000Y-77910000D03*
X135450000Y-77910000D03*
X134950000Y-77910000D03*
X134950000Y-79810000D03*
X135450000Y-79810000D03*
X135950000Y-79810000D03*
X136450000Y-79810000D03*
D23*
X135700000Y-78860000D03*
%TD*%
D17*
%TO.C,C5*%
X125512500Y-117312500D03*
X124552500Y-117312500D03*
%TD*%
D24*
%TO.C,R28*%
X130480000Y-68630999D03*
X131500000Y-68630999D03*
%TD*%
D25*
%TO.C,C74*%
X143375000Y-100400000D03*
X141825000Y-100400000D03*
%TD*%
D12*
%TO.C,TP20*%
X121845000Y-81750000D03*
%TD*%
D26*
%TO.C,Y1*%
X117750000Y-68600000D03*
X117750000Y-70000000D03*
X118850000Y-70000000D03*
X118850000Y-68600000D03*
%TD*%
D21*
%TO.C,C67*%
X144120000Y-116300000D03*
X145080000Y-116300000D03*
%TD*%
%TO.C,C109*%
X168120000Y-92200000D03*
X169080000Y-92200000D03*
%TD*%
D27*
%TO.C,R16*%
X110942500Y-108000000D03*
X110942500Y-106980000D03*
%TD*%
D28*
%TO.C,R8*%
X125462138Y-112611501D03*
X124442138Y-112611501D03*
%TD*%
D29*
%TO.C,SW1*%
X116375100Y-83000000D03*
X114224900Y-83000000D03*
X116375100Y-87000000D03*
X114224900Y-87000000D03*
%TD*%
D18*
%TO.C,U3*%
X120587500Y-113812500D03*
X120587500Y-114312500D03*
X120587500Y-114812500D03*
X120587500Y-115312500D03*
D19*
X121300000Y-116025000D03*
X121800000Y-116025000D03*
X122300000Y-116025000D03*
X122800000Y-116025000D03*
D18*
X123512500Y-115312500D03*
X123512500Y-114812500D03*
X123512500Y-114312500D03*
X123512500Y-113812500D03*
D19*
X122800000Y-113100000D03*
X122300000Y-113100000D03*
X121800000Y-113100000D03*
X121300000Y-113100000D03*
D20*
X122050000Y-114562500D03*
%TD*%
D30*
%TO.C,C108*%
X105260589Y-84760589D03*
X105939411Y-85439411D03*
%TD*%
D31*
%TO.C,C10*%
X117912500Y-109312500D03*
X116012500Y-109312500D03*
%TD*%
D21*
%TO.C,C50*%
X139120000Y-68400000D03*
X140080000Y-68400000D03*
%TD*%
%TO.C,C56*%
X142420000Y-64700000D03*
X143380000Y-64700000D03*
%TD*%
D32*
%TO.C,C23*%
X106442500Y-97080000D03*
X106442500Y-98980000D03*
%TD*%
D33*
%TO.C,C13*%
X136150000Y-81162500D03*
X136150000Y-82712500D03*
%TD*%
D34*
%TO.C,C43*%
X139300000Y-59580000D03*
X139300000Y-58620000D03*
%TD*%
D32*
%TO.C,C11*%
X124512500Y-109412500D03*
X124512500Y-111312500D03*
%TD*%
D35*
%TO.C,U5*%
X140350000Y-76935000D03*
X141000000Y-76935000D03*
X141650000Y-76935000D03*
X141650000Y-74995000D03*
X140350000Y-74995000D03*
%TD*%
D36*
%TO.C,J4*%
X139610000Y-56095000D03*
X139610000Y-57365000D03*
X138340000Y-56095000D03*
X138340000Y-57365000D03*
X137070000Y-56095000D03*
X137070000Y-57365000D03*
X135800000Y-56095000D03*
X135800000Y-57365000D03*
X134530000Y-56095000D03*
X134530000Y-57365000D03*
%TD*%
D37*
%TO.C,L4*%
X116000000Y-72785000D03*
X116000000Y-71815000D03*
%TD*%
D32*
%TO.C,C84*%
X137100000Y-109350000D03*
X137100000Y-111250000D03*
%TD*%
D25*
%TO.C,C76*%
X142775000Y-102200000D03*
X141225000Y-102200000D03*
%TD*%
D17*
%TO.C,C47*%
X139680000Y-63000000D03*
X138720000Y-63000000D03*
%TD*%
D28*
%TO.C,R55*%
X144080000Y-117300000D03*
X143060000Y-117300000D03*
%TD*%
D33*
%TO.C,C8*%
X150400000Y-85512500D03*
X150400000Y-87062500D03*
%TD*%
D38*
%TO.C,C89*%
X153799131Y-108799131D03*
X157387697Y-112387697D03*
%TD*%
D12*
%TO.C,TP1*%
X163000000Y-74500000D03*
%TD*%
D39*
%TO.C,R1*%
X151439375Y-70339376D03*
X152160625Y-71060624D03*
%TD*%
D34*
%TO.C,C40*%
X118793650Y-77280000D03*
X118793650Y-76320000D03*
%TD*%
D40*
%TO.C,D4*%
X148917695Y-69175233D03*
X149603589Y-68489341D03*
%TD*%
D12*
%TO.C,TP18*%
X143900000Y-109430000D03*
%TD*%
D28*
%TO.C,R7*%
X123562138Y-117961501D03*
X122542138Y-117961501D03*
%TD*%
D17*
%TO.C,C29*%
X120100000Y-81900000D03*
X119140000Y-81900000D03*
%TD*%
D41*
%TO.C,L3*%
X116100000Y-69915000D03*
X116100000Y-70885000D03*
%TD*%
D28*
%TO.C,R22*%
X131510000Y-67500000D03*
X130490000Y-67500000D03*
%TD*%
D32*
%TO.C,C14*%
X116200000Y-102530000D03*
X116200000Y-104430000D03*
%TD*%
D27*
%TO.C,R74*%
X133900000Y-79010000D03*
X133900000Y-77990000D03*
%TD*%
D21*
%TO.C,C26*%
X118190748Y-71298037D03*
X119150748Y-71298037D03*
%TD*%
D42*
%TO.C,C107*%
X142225000Y-65940000D03*
X143775000Y-65940000D03*
%TD*%
D12*
%TO.C,TP12*%
X140900000Y-116800000D03*
%TD*%
%TO.C,TP4*%
X145700000Y-71500000D03*
%TD*%
D34*
%TO.C,C42*%
X135100000Y-59580000D03*
X135100000Y-58620000D03*
%TD*%
D43*
%TO.C,L1*%
X121012500Y-111411501D03*
X121012500Y-107711501D03*
%TD*%
D24*
%TO.C,R27*%
X130480000Y-69630999D03*
X131500000Y-69630999D03*
%TD*%
D27*
%TO.C,R10*%
X120700000Y-118310000D03*
X120700000Y-117290000D03*
%TD*%
D13*
%TO.C,C28*%
X117200000Y-71420000D03*
X117200000Y-72380000D03*
%TD*%
D21*
%TO.C,C41*%
X123520000Y-63700000D03*
X124480000Y-63700000D03*
%TD*%
D44*
%TO.C,U9*%
X130787500Y-62205000D03*
X130787500Y-60935000D03*
X130787500Y-59665000D03*
X130787500Y-58395000D03*
X123612500Y-58395000D03*
X123612500Y-59665000D03*
X123612500Y-60935000D03*
X123612500Y-62205000D03*
%TD*%
D24*
%TO.C,R80*%
X154190000Y-90690000D03*
X155210000Y-90690000D03*
%TD*%
D29*
%TO.C,SW2*%
X120095100Y-83000000D03*
X117944900Y-83000000D03*
X120095100Y-87000000D03*
X117944900Y-87000000D03*
%TD*%
D45*
%TO.C,LED6*%
X170984987Y-89491692D03*
D46*
X171234987Y-90571792D03*
X171234987Y-87561892D03*
D45*
X170984987Y-88641892D03*
%TD*%
D33*
%TO.C,C82*%
X135300000Y-109325000D03*
X135300000Y-110875000D03*
%TD*%
D25*
%TO.C,C75*%
X142850000Y-105600000D03*
X141300000Y-105600000D03*
%TD*%
D47*
%TO.C,C91*%
X131500000Y-99375000D03*
X131500000Y-97825000D03*
%TD*%
D48*
%TO.C,L6*%
X145250000Y-99100000D03*
X147950000Y-99100000D03*
%TD*%
D49*
%TO.C,R62*%
X103129376Y-85860624D03*
X103850624Y-85139376D03*
%TD*%
D33*
%TO.C,C12*%
X140970000Y-78840000D03*
X140970000Y-80390000D03*
%TD*%
D39*
%TO.C,R60*%
X164339376Y-94139376D03*
X165060624Y-94860624D03*
%TD*%
D24*
%TO.C,R20*%
X114090000Y-80200000D03*
X115110000Y-80200000D03*
%TD*%
D50*
%TO.C,Q4*%
X156062500Y-83250000D03*
X156062500Y-84550000D03*
X157937500Y-83900000D03*
%TD*%
D51*
%TO.C,C19*%
X141245000Y-73115000D03*
X143145000Y-73115000D03*
%TD*%
D32*
%TO.C,C15*%
X118200000Y-102530000D03*
X118200000Y-104430000D03*
%TD*%
D47*
%TO.C,C6*%
X150900000Y-81895000D03*
X150900000Y-80345000D03*
%TD*%
D52*
%TO.C,U8*%
X121800000Y-73445000D03*
X122200000Y-73445000D03*
X122600000Y-73445000D03*
X123000000Y-73445000D03*
X123400000Y-73445000D03*
X123800000Y-73445000D03*
X124200000Y-73445000D03*
X124600000Y-73445000D03*
X125000000Y-73445000D03*
X125400000Y-73445000D03*
X125800000Y-73445000D03*
X126200000Y-73445000D03*
X126600000Y-73445000D03*
X127000000Y-73445000D03*
D53*
X127845000Y-72600000D03*
D54*
X127845000Y-72200000D03*
X127845000Y-71800000D03*
X127845000Y-71400000D03*
X127845000Y-71000000D03*
X127845000Y-70600000D03*
X127845000Y-70200000D03*
X127845000Y-69800000D03*
X127845000Y-69400000D03*
X127845000Y-69000000D03*
X127845000Y-68600000D03*
X127845000Y-68200000D03*
X127845000Y-67800000D03*
X127845000Y-67400000D03*
D52*
X127000000Y-66555000D03*
X126600000Y-66555000D03*
X126200000Y-66555000D03*
X125800000Y-66555000D03*
X125400000Y-66555000D03*
X125000000Y-66555000D03*
X124600000Y-66555000D03*
X124200000Y-66555000D03*
X123800000Y-66555000D03*
X123400000Y-66555000D03*
X123000000Y-66555000D03*
X122600000Y-66555000D03*
X122200000Y-66555000D03*
X121800000Y-66555000D03*
D54*
X120955000Y-67400000D03*
X120955000Y-67800000D03*
X120955000Y-68200000D03*
X120955000Y-68600000D03*
X120955000Y-69000000D03*
X120955000Y-69400000D03*
X120955000Y-69800000D03*
X120955000Y-70200000D03*
X120955000Y-70600000D03*
X120955000Y-71000000D03*
X120955000Y-71400000D03*
X120955000Y-71800000D03*
X120955000Y-72200000D03*
X120955000Y-72600000D03*
D55*
X124400000Y-70000000D03*
%TD*%
D32*
%TO.C,C87*%
X151100000Y-102050000D03*
X151100000Y-103950000D03*
%TD*%
D34*
%TO.C,C83*%
X142200000Y-97280000D03*
X142200000Y-96320000D03*
%TD*%
D24*
%TO.C,R21*%
X119110000Y-80900000D03*
X120130000Y-80900000D03*
%TD*%
%TO.C,R57*%
X144190000Y-115300000D03*
X145210000Y-115300000D03*
%TD*%
D12*
%TO.C,TP5*%
X130400000Y-81600000D03*
%TD*%
D32*
%TO.C,C3*%
X125512500Y-113912500D03*
X125512500Y-115812500D03*
%TD*%
D25*
%TO.C,C17*%
X139745000Y-73115000D03*
X138195000Y-73115000D03*
%TD*%
D28*
%TO.C,R14*%
X115442500Y-106980000D03*
X114422500Y-106980000D03*
%TD*%
D34*
%TO.C,C92*%
X102500000Y-89580000D03*
X102500000Y-88620000D03*
%TD*%
D27*
%TO.C,R32*%
X125100000Y-77010000D03*
X125100000Y-75990000D03*
%TD*%
D24*
%TO.C,R24*%
X130490000Y-72630999D03*
X131510000Y-72630999D03*
%TD*%
D56*
%TO.C,R68*%
X136200000Y-93900000D03*
X136200000Y-95725000D03*
%TD*%
D12*
%TO.C,TP6*%
X107400000Y-94600000D03*
%TD*%
D34*
%TO.C,C39*%
X120793650Y-77300000D03*
X120793650Y-76340000D03*
%TD*%
D24*
%TO.C,R77*%
X156590000Y-80800000D03*
X157610000Y-80800000D03*
%TD*%
%TO.C,R70*%
X129690000Y-100600000D03*
X130710000Y-100600000D03*
%TD*%
D12*
%TO.C,TP13*%
X130700000Y-109100000D03*
%TD*%
D32*
%TO.C,C85*%
X139100000Y-109350000D03*
X139100000Y-111250000D03*
%TD*%
D13*
%TO.C,C44*%
X133900000Y-72920000D03*
X133900000Y-73880000D03*
%TD*%
D21*
%TO.C,C45*%
X143300000Y-61700000D03*
X144260000Y-61700000D03*
%TD*%
D12*
%TO.C,TP17*%
X122423000Y-105550000D03*
%TD*%
D24*
%TO.C,R79*%
X154320000Y-96640000D03*
X155340000Y-96640000D03*
%TD*%
D47*
%TO.C,C90*%
X130000000Y-99375000D03*
X130000000Y-97825000D03*
%TD*%
D57*
%TO.C,POWER_IN1*%
X144560362Y-121450999D03*
X138060362Y-121450999D03*
%TD*%
D58*
%TO.C,C81*%
X140700000Y-97250000D03*
X140700000Y-95350000D03*
%TD*%
D12*
%TO.C,TP23*%
X105100000Y-88350000D03*
%TD*%
D17*
%TO.C,C49*%
X135560000Y-62000000D03*
X134600000Y-62000000D03*
%TD*%
D59*
%TO.C,FB5*%
X136265000Y-60800000D03*
X137735000Y-60800000D03*
%TD*%
D60*
%TO.C,R13*%
X119012500Y-114812500D03*
X119012500Y-113162500D03*
%TD*%
D12*
%TO.C,TP22*%
X128741000Y-104084000D03*
%TD*%
D24*
%TO.C,R75*%
X133090000Y-83400000D03*
X134110000Y-83400000D03*
%TD*%
D17*
%TO.C,C37*%
X119753650Y-75300000D03*
X118793650Y-75300000D03*
%TD*%
D48*
%TO.C,L7*%
X145250000Y-104000000D03*
X147950000Y-104000000D03*
%TD*%
D61*
%TO.C,R59*%
X107360624Y-82460624D03*
X106639376Y-81739376D03*
%TD*%
D41*
%TO.C,L5*%
X119793650Y-76315000D03*
X119793650Y-77285000D03*
%TD*%
D17*
%TO.C,C27*%
X118950999Y-67200000D03*
X117990999Y-67200000D03*
%TD*%
D60*
%TO.C,R19*%
X109942500Y-103480000D03*
X109942500Y-101830000D03*
%TD*%
D28*
%TO.C,R31*%
X131009999Y-74600000D03*
X129990001Y-74600000D03*
%TD*%
D32*
%TO.C,C4*%
X127512500Y-113912500D03*
X127512500Y-115812500D03*
%TD*%
D62*
%TO.C,FB2*%
X132400000Y-79070000D03*
X132400000Y-77600000D03*
%TD*%
D63*
%TO.C,C71*%
X166439411Y-93460589D03*
X165760589Y-94139411D03*
%TD*%
D21*
%TO.C,C60*%
X136120000Y-66100000D03*
X137080000Y-66100000D03*
%TD*%
D64*
%TO.C,L8*%
X138100000Y-77235000D03*
X138100000Y-78685000D03*
%TD*%
D33*
%TO.C,C25*%
X130900000Y-77560000D03*
X130900000Y-79110000D03*
%TD*%
D65*
%TO.C,R69*%
X132100000Y-113012500D03*
X132100000Y-111187500D03*
%TD*%
D66*
%TO.C,U18*%
X124150000Y-107587500D03*
X124800000Y-107587500D03*
X125450000Y-107587500D03*
X125450000Y-105812500D03*
X124800000Y-105812500D03*
X124150000Y-105812500D03*
%TD*%
D33*
%TO.C,C9*%
X115752138Y-113386501D03*
X115752138Y-114936501D03*
%TD*%
D14*
%TO.C,R18*%
X108442500Y-101830000D03*
X108442500Y-103480000D03*
%TD*%
D21*
%TO.C,C55*%
X140120000Y-67200000D03*
X141080000Y-67200000D03*
%TD*%
D25*
%TO.C,C18*%
X135150000Y-75162500D03*
X133600000Y-75162500D03*
%TD*%
D67*
%TO.C,D5*%
X113750200Y-81470999D03*
X115150200Y-81470999D03*
%TD*%
D68*
%TO.C,U4*%
X152450000Y-85837500D03*
X153400000Y-85837500D03*
X154350000Y-85837500D03*
X154350000Y-83562500D03*
X152450000Y-83562500D03*
%TD*%
D69*
%TO.C,C110*%
X119470000Y-74400000D03*
X118830000Y-74400000D03*
%TD*%
D33*
%TO.C,C21*%
X106942500Y-101980000D03*
X106942500Y-103530000D03*
%TD*%
D12*
%TO.C,TP19*%
X118581000Y-79299000D03*
%TD*%
D21*
%TO.C,C51*%
X136140000Y-63100000D03*
X137100000Y-63100000D03*
%TD*%
D58*
%TO.C,C79*%
X138700000Y-97250000D03*
X138700000Y-95350000D03*
%TD*%
D70*
%TO.C,LED1*%
X100645190Y-88661978D03*
D71*
X100395190Y-87581878D03*
X100395190Y-90591778D03*
D70*
X100645190Y-89511778D03*
%TD*%
D34*
%TO.C,C38*%
X121793650Y-77300000D03*
X121793650Y-76340000D03*
%TD*%
D72*
%TO.C,C72*%
X103860589Y-86539411D03*
X104539411Y-85860589D03*
%TD*%
D17*
%TO.C,C53*%
X137680000Y-59600000D03*
X136720000Y-59600000D03*
%TD*%
D21*
%TO.C,C100*%
X133120000Y-82300000D03*
X134080000Y-82300000D03*
%TD*%
D24*
%TO.C,R76*%
X155890000Y-81800000D03*
X156910000Y-81800000D03*
%TD*%
D51*
%TO.C,C20*%
X136639638Y-75111501D03*
X138539638Y-75111501D03*
%TD*%
D47*
%TO.C,C7*%
X152545000Y-81895000D03*
X152545000Y-80345000D03*
%TD*%
D33*
%TO.C,C80*%
X133800000Y-109325000D03*
X133800000Y-110875000D03*
%TD*%
D62*
%TO.C,FB4*%
X143500000Y-78135000D03*
X143500000Y-76665000D03*
%TD*%
D43*
%TO.C,L2*%
X112000000Y-99900000D03*
X112000000Y-96200000D03*
%TD*%
D73*
%TO.C,AE1*%
X112749390Y-67950610D03*
X114800000Y-65900000D03*
%TD*%
D21*
%TO.C,C31*%
X118320000Y-72300000D03*
X119280000Y-72300000D03*
%TD*%
%TO.C,C103*%
X140890000Y-56095000D03*
X141850000Y-56095000D03*
%TD*%
D74*
%TO.C,R66*%
X142100000Y-114362500D03*
X142100000Y-111437500D03*
%TD*%
D17*
%TO.C,C52*%
X133260000Y-64500000D03*
X132300000Y-64500000D03*
%TD*%
D75*
%TO.C,J1*%
X152963640Y-69979001D03*
X152610016Y-69625377D03*
X152256534Y-69271895D03*
X151902909Y-68918270D03*
X151549426Y-68564788D03*
X151195802Y-68211163D03*
X150488695Y-67504057D03*
X150135212Y-67150574D03*
X149781588Y-66796950D03*
X149428106Y-66443467D03*
X149074482Y-66089843D03*
X148720999Y-65736360D03*
D76*
X149604883Y-64710913D03*
D77*
X150206065Y-65312096D03*
X150559477Y-65665508D03*
X150913172Y-66019202D03*
X151266583Y-66372615D03*
X151620278Y-66726310D03*
X151973690Y-67079722D03*
X152327385Y-67433417D03*
X152680797Y-67786829D03*
X153034492Y-68140523D03*
X153387904Y-68493935D03*
D76*
X153989087Y-69095117D03*
D78*
X154222290Y-70587113D03*
D79*
X158012382Y-66797021D03*
D78*
X148112887Y-64477710D03*
D79*
X151902979Y-60687618D03*
%TD*%
D12*
%TO.C,TP3*%
X121400000Y-102000000D03*
%TD*%
D25*
%TO.C,C77*%
X143575000Y-103700000D03*
X142025000Y-103700000D03*
%TD*%
D21*
%TO.C,C88*%
X140600000Y-108100000D03*
X141560000Y-108100000D03*
%TD*%
D80*
%TO.C,MK1*%
X103620660Y-81844869D03*
%TD*%
D28*
%TO.C,R9*%
X154910000Y-82062500D03*
X153890000Y-82062500D03*
%TD*%
D21*
%TO.C,C36*%
X120793650Y-75300000D03*
X121753650Y-75300000D03*
%TD*%
D28*
%TO.C,R15*%
X116452500Y-100480000D03*
X115432500Y-100480000D03*
%TD*%
D27*
%TO.C,R71*%
X131499603Y-107251195D03*
X131499603Y-106231195D03*
%TD*%
D32*
%TO.C,C22*%
X108442500Y-97030000D03*
X108442500Y-98930000D03*
%TD*%
D28*
%TO.C,R33*%
X127310000Y-76800000D03*
X126290000Y-76800000D03*
%TD*%
D17*
%TO.C,C78*%
X131780000Y-101523110D03*
X130820000Y-101523110D03*
%TD*%
D61*
%TO.C,R5*%
X148160625Y-67060624D03*
X147439375Y-66339376D03*
%TD*%
D17*
%TO.C,C16*%
X116442500Y-105980000D03*
X115482500Y-105980000D03*
%TD*%
D81*
%TO.C,R30*%
X127400000Y-74810999D03*
X127400000Y-75830999D03*
%TD*%
D80*
%TO.C,MK2*%
X167945887Y-96583055D03*
%TD*%
D40*
%TO.C,D3*%
X149617695Y-69875233D03*
X150303589Y-69189341D03*
%TD*%
D81*
%TO.C,R29*%
X126400000Y-74820999D03*
X126400000Y-75840999D03*
%TD*%
D39*
%TO.C,R63*%
X167139376Y-92839376D03*
X167860624Y-93560624D03*
%TD*%
D34*
%TO.C,C24*%
X116400000Y-81480000D03*
X116400000Y-80520000D03*
%TD*%
D13*
%TO.C,C57*%
X137600000Y-67840000D03*
X137600000Y-68800000D03*
%TD*%
D58*
%TO.C,C86*%
X151100000Y-100050000D03*
X151100000Y-98150000D03*
%TD*%
M02*
