%TF.GenerationSoftware,KiCad,Pcbnew,9.0.9*%
%TF.CreationDate,2026-10-02T08:41:36+02:00*%
%TF.ProjectId,nest-mini-v2-drop-in-pcb,6e657374-2d6d-4696-9e69-2d76322d6472,v1*%
%TF.SameCoordinates,Original*%
%TF.FileFunction,Profile,NP*%
%FSLAX46Y46*%
G04 Gerber Fmt 4.6, Leading zero omitted, Abs format (unit mm)*
G04 Created by KiCad (PCBNEW 9.0.9) date 2026-10-02 08:41:36*
%MOMM*%
%LPD*%
G01*
G04 APERTURE LIST*
%TA.AperFunction,Profile*%
%ADD10C,0.200000*%
%TD*%
G04 APERTURE END LIST*
D10*
X98565362Y-86950999D02*
X98565362Y-91200999D01*
X98565362Y-91200999D02*
X99449778Y-91200999D01*
X99449778Y-86950999D02*
X98565362Y-86950999D01*
X99449778Y-91200999D02*
G75*
G02*
X101436389Y-92975996I22J-1999201D01*
G01*
X101436240Y-85177073D02*
G75*
G02*
X99449778Y-86950973I-1986440J225273D01*
G01*
X101458362Y-84981998D02*
X101436240Y-85177073D01*
X101458362Y-84981998D02*
G75*
G02*
X103017362Y-78100996I2157038J3128398D01*
G01*
X103017362Y-78100999D02*
G75*
G02*
X170195367Y-85175998I32806568J-10966811D01*
G01*
X110665362Y-89075999D02*
G75*
G02*
X106965362Y-89075999I-1850000J0D01*
G01*
X106965362Y-89075999D02*
G75*
G02*
X110665362Y-89075999I1850000J0D01*
G01*
X124689362Y-121837999D02*
G75*
G02*
X101436367Y-92975998I11126948J32762569D01*
G01*
X131560362Y-123412999D02*
G75*
G02*
X124689400Y-121837993I-3118462J2170499D01*
G01*
X137515362Y-115925999D02*
G75*
G02*
X134115362Y-115925999I-1700000J0D01*
G01*
X134115362Y-115925999D02*
G75*
G02*
X137515362Y-115925999I1700000J0D01*
G01*
X150829362Y-75089999D02*
G75*
G02*
X145929362Y-75089999I-2450000J0D01*
G01*
X145929362Y-75089999D02*
G75*
G02*
X150829362Y-75089999I2450000J0D01*
G01*
X164665362Y-89075999D02*
G75*
G02*
X160965362Y-89075999I-1850000J0D01*
G01*
X160965362Y-89075999D02*
G75*
G02*
X164665362Y-89075999I1850000J0D01*
G01*
X168525362Y-100355999D02*
G75*
G02*
X131560362Y-123413002I-32709392J11280059D01*
G01*
X170132362Y-93491999D02*
G75*
G02*
X168525363Y-100356004I-2185832J-3108371D01*
G01*
X170195362Y-92975999D02*
G75*
G02*
X170132362Y-93491999I-22548062J2491099D01*
G01*
X170195362Y-92975999D02*
G75*
G02*
X172188888Y-91200963I1986638J-224201D01*
G01*
X172181962Y-86950999D02*
G75*
G02*
X170195411Y-85175993I38J1999199D01*
G01*
X172188888Y-91200999D02*
X173065362Y-91200999D01*
X173065362Y-86950999D02*
X172181962Y-86950999D01*
X173065362Y-91200999D02*
X173065362Y-86950999D01*
M02*
