%TF.GenerationSoftware,KiCad,Pcbnew,9.0.9*%
%TF.CreationDate,2026-10-02T15:23:24+02:00*%
%TF.ProjectId,nest-mini-v2-drop-in-pcb,6e657374-2d6d-4696-9e69-2d76322d6472,v1*%
%TF.SameCoordinates,Original*%
%TF.FileFunction,Paste,Bot*%
%TF.FilePolarity,Positive*%
%FSLAX46Y46*%
G04 Gerber Fmt 4.6, Leading zero omitted, Abs format (unit mm)*
G04 Created by KiCad (PCBNEW 9.0.9) date 2026-10-02 15:23:24*
%MOMM*%
%LPD*%
G01*
G04 APERTURE LIST*
G04 Aperture macros list*
%AMRoundRect*
0 Rectangle with rounded corners*
0 $1 Rounding radius*
0 $2 $3 $4 $5 $6 $7 $8 $9 X,Y pos of 4 corners*
0 Add a 4 corners polygon primitive as box body*
4,1,4,$2,$3,$4,$5,$6,$7,$8,$9,$2,$3,0*
0 Add four circle primitives for the rounded corners*
1,1,$1+$1,$2,$3*
1,1,$1+$1,$4,$5*
1,1,$1+$1,$6,$7*
1,1,$1+$1,$8,$9*
0 Add four rect primitives between the rounded corners*
20,1,$1+$1,$2,$3,$4,$5,0*
20,1,$1+$1,$4,$5,$6,$7,0*
20,1,$1+$1,$6,$7,$8,$9,0*
20,1,$1+$1,$8,$9,$2,$3,0*%
%AMRotRect*
0 Rectangle, with rotation*
0 The origin of the aperture is its center*
0 $1 length*
0 $2 width*
0 $3 Rotation angle, in degrees counterclockwise*
0 Add horizontal line*
21,1,$1,$2,0,0,$3*%
G04 Aperture macros list end*
%ADD10RoundRect,0.135000X-0.135000X-0.185000X0.135000X-0.185000X0.135000X0.185000X-0.135000X0.185000X0*%
%ADD11RoundRect,0.135000X-0.185000X0.135000X-0.185000X-0.135000X0.185000X-0.135000X0.185000X0.135000X0*%
%ADD12RoundRect,0.140000X0.170000X-0.140000X0.170000X0.140000X-0.170000X0.140000X-0.170000X-0.140000X0*%
%ADD13RotRect,0.600000X0.500000X315.000000*%
%ADD14RoundRect,0.162500X-0.650000X-0.162500X0.650000X-0.162500X0.650000X0.162500X-0.650000X0.162500X0*%
%ADD15RoundRect,0.105000X0.245000X-0.295000X0.245000X0.295000X-0.245000X0.295000X-0.245000X-0.295000X0*%
%ADD16RoundRect,0.135000X0.185000X-0.135000X0.185000X0.135000X-0.185000X0.135000X-0.185000X-0.135000X0*%
%ADD17R,0.270000X0.790000*%
%ADD18RoundRect,0.140000X-0.170000X0.140000X-0.170000X-0.140000X0.170000X-0.140000X0.170000X0.140000X0*%
%ADD19RoundRect,0.147500X0.457500X0.147500X-0.457500X0.147500X-0.457500X-0.147500X0.457500X-0.147500X0*%
%ADD20O,0.900000X0.250000*%
%ADD21O,0.250000X0.900000*%
%ADD22RoundRect,0.225000X-0.225000X-0.250000X0.225000X-0.250000X0.225000X0.250000X-0.225000X0.250000X0*%
%ADD23RoundRect,0.150000X0.587500X0.150000X-0.587500X0.150000X-0.587500X-0.150000X0.587500X-0.150000X0*%
%ADD24RoundRect,0.031250X0.093750X-0.243750X0.093750X0.243750X-0.093750X0.243750X-0.093750X-0.243750X0*%
%ADD25RoundRect,0.025000X0.075000X-0.250000X0.075000X0.250000X-0.075000X0.250000X-0.075000X-0.250000X0*%
%ADD26RoundRect,0.037500X0.262500X-0.112500X0.262500X0.112500X-0.262500X0.112500X-0.262500X-0.112500X0*%
%ADD27RoundRect,0.135000X-0.226274X-0.035355X-0.035355X-0.226274X0.226274X0.035355X0.035355X0.226274X0*%
%ADD28RoundRect,0.140000X0.140000X0.170000X-0.140000X0.170000X-0.140000X-0.170000X0.140000X-0.170000X0*%
%ADD29RoundRect,0.200000X-0.335876X-0.053033X-0.053033X-0.335876X0.335876X0.053033X0.053033X0.335876X0*%
%ADD30RoundRect,0.140000X-0.140000X-0.170000X0.140000X-0.170000X0.140000X0.170000X-0.140000X0.170000X0*%
%ADD31RoundRect,0.137500X-0.137500X0.237500X-0.137500X-0.237500X0.137500X-0.237500X0.137500X0.237500X0*%
%ADD32RoundRect,0.135000X0.135000X0.185000X-0.135000X0.185000X-0.135000X-0.185000X0.135000X-0.185000X0*%
%ADD33RoundRect,0.200000X-0.200000X-0.275000X0.200000X-0.275000X0.200000X0.275000X-0.200000X0.275000X0*%
%ADD34RoundRect,0.100000X-0.562500X-0.100000X0.562500X-0.100000X0.562500X0.100000X-0.562500X0.100000X0*%
%ADD35R,0.457200X0.254000*%
%ADD36R,0.254000X0.457200*%
%ADD37R,0.660400X3.657600*%
%ADD38R,3.657600X0.660400*%
%ADD39R,3.657600X3.657600*%
%ADD40RoundRect,0.112500X0.112500X0.237500X-0.112500X0.237500X-0.112500X-0.237500X0.112500X-0.237500X0*%
%ADD41RoundRect,0.051250X-0.153750X0.733750X-0.153750X-0.733750X0.153750X-0.733750X0.153750X0.733750X0*%
%ADD42R,0.600000X0.400000*%
G04 APERTURE END LIST*
D10*
%TO.C,R53*%
X141207500Y-93450000D03*
X142227500Y-93450000D03*
%TD*%
D11*
%TO.C,R81*%
X116100000Y-84390000D03*
X116100000Y-85410000D03*
%TD*%
D12*
%TO.C,C35*%
X129900000Y-66280000D03*
X129900000Y-65320000D03*
%TD*%
%TO.C,C34*%
X128900000Y-66280000D03*
X128900000Y-65320000D03*
%TD*%
D13*
%TO.C,D1*%
X151907088Y-63978733D03*
X152614196Y-64685841D03*
%TD*%
D14*
%TO.C,U11*%
X123612500Y-78105000D03*
X123612500Y-76835000D03*
X123612500Y-75565000D03*
X123612500Y-74295000D03*
X130787500Y-74295000D03*
X130787500Y-75565000D03*
X130787500Y-76835000D03*
X130787500Y-78105000D03*
%TD*%
D12*
%TO.C,C33*%
X120200000Y-67780000D03*
X120200000Y-66820000D03*
%TD*%
D15*
%TO.C,LED2*%
X124712358Y-88463546D03*
X125812358Y-88463546D03*
X125812358Y-89763546D03*
X124712358Y-89763546D03*
%TD*%
%TO.C,LED4*%
X138650000Y-88450000D03*
X139750000Y-88450000D03*
X139750000Y-89750000D03*
X138650000Y-89750000D03*
%TD*%
D16*
%TO.C,R65*%
X128217500Y-94450000D03*
X128217500Y-93430000D03*
%TD*%
D10*
%TO.C,R48*%
X122495000Y-65250000D03*
X123515000Y-65250000D03*
%TD*%
D17*
%TO.C,D6*%
X138400000Y-75235000D03*
X138400000Y-77165000D03*
%TD*%
D18*
%TO.C,C106*%
X115750000Y-105950000D03*
X115750000Y-106910000D03*
%TD*%
D19*
%TO.C,U13*%
X134217500Y-93550000D03*
X134217500Y-94500000D03*
X134217500Y-95450000D03*
X131707500Y-95450000D03*
X131707500Y-93550000D03*
%TD*%
D10*
%TO.C,R72*%
X139300000Y-82100000D03*
X140320000Y-82100000D03*
%TD*%
D20*
%TO.C,U15*%
X141450000Y-84400000D03*
X141450000Y-84000000D03*
X141450000Y-83600000D03*
X141450000Y-83200000D03*
X141450000Y-82800000D03*
D21*
X142100000Y-82150000D03*
X142500000Y-82150000D03*
X142900000Y-82150000D03*
X143300000Y-82150000D03*
X143700000Y-82150000D03*
D20*
X144350000Y-82800000D03*
X144350000Y-83200000D03*
X144350000Y-83600000D03*
X144350000Y-84000000D03*
X144350000Y-84400000D03*
D21*
X143700000Y-85050000D03*
X143300000Y-85050000D03*
X142900000Y-85050000D03*
X142500000Y-85050000D03*
X142100000Y-85050000D03*
%TD*%
D18*
%TO.C,C68*%
X130217500Y-93460000D03*
X130217500Y-94420000D03*
%TD*%
D22*
%TO.C,C64*%
X135542500Y-91650000D03*
X137092500Y-91650000D03*
%TD*%
D23*
%TO.C,Q3*%
X139217500Y-93550000D03*
X139217500Y-95450000D03*
X137342500Y-94500000D03*
%TD*%
D11*
%TO.C,R45*%
X143200000Y-68890000D03*
X143200000Y-69910000D03*
%TD*%
%TO.C,R58*%
X138400000Y-78280000D03*
X138400000Y-79300000D03*
%TD*%
D24*
%TO.C,U16*%
X122250000Y-70925000D03*
D25*
X121750000Y-70925000D03*
X121250000Y-70925000D03*
D24*
X120750000Y-70925000D03*
D26*
X120600000Y-70250000D03*
D24*
X120750000Y-69575000D03*
D25*
X121250000Y-69575000D03*
X121750000Y-69575000D03*
D24*
X122250000Y-69575000D03*
D26*
X122400000Y-70250000D03*
%TD*%
D27*
%TO.C,R3*%
X149039376Y-68539376D03*
X149760624Y-69260624D03*
%TD*%
D28*
%TO.C,C66*%
X130680000Y-79600000D03*
X129720000Y-79600000D03*
%TD*%
D29*
%TO.C,FB1*%
X152277279Y-62548924D03*
X153444005Y-63715650D03*
%TD*%
D30*
%TO.C,C98*%
X139320000Y-83100000D03*
X140280000Y-83100000D03*
%TD*%
%TO.C,C58*%
X141220000Y-60200000D03*
X142180000Y-60200000D03*
%TD*%
D10*
%TO.C,R36*%
X139780000Y-56100000D03*
X140800000Y-56100000D03*
%TD*%
D15*
%TO.C,LED3*%
X131700000Y-88450000D03*
X132800000Y-88450000D03*
X132800000Y-89750000D03*
X131700000Y-89750000D03*
%TD*%
D30*
%TO.C,C96*%
X124720000Y-86400000D03*
X125680000Y-86400000D03*
%TD*%
D16*
%TO.C,R35*%
X131600000Y-61110000D03*
X131600000Y-60090000D03*
%TD*%
D10*
%TO.C,R39*%
X143990000Y-65000000D03*
X145010000Y-65000000D03*
%TD*%
D31*
%TO.C,X1*%
X133500000Y-58900000D03*
X133500000Y-60100000D03*
X132500000Y-60100000D03*
X132500000Y-58900000D03*
%TD*%
D30*
%TO.C,C61*%
X164820000Y-79700000D03*
X165780000Y-79700000D03*
%TD*%
%TO.C,C93*%
X145520000Y-86500000D03*
X146480000Y-86500000D03*
%TD*%
D18*
%TO.C,C105*%
X124300000Y-115500000D03*
X124300000Y-116460000D03*
%TD*%
D10*
%TO.C,R43*%
X143990000Y-66000000D03*
X145010000Y-66000000D03*
%TD*%
D15*
%TO.C,LED5*%
X145550000Y-88450000D03*
X146650000Y-88450000D03*
X146650000Y-89750000D03*
X145550000Y-89750000D03*
%TD*%
D16*
%TO.C,R56*%
X135000000Y-81910000D03*
X135000000Y-80890000D03*
%TD*%
D30*
%TO.C,C65*%
X135717500Y-92950000D03*
X136677500Y-92950000D03*
%TD*%
D18*
%TO.C,C69*%
X129217500Y-93460000D03*
X129217500Y-94420000D03*
%TD*%
D10*
%TO.C,R34*%
X132490000Y-61100000D03*
X133510000Y-61100000D03*
%TD*%
%TO.C,R73*%
X145490000Y-85300000D03*
X146510000Y-85300000D03*
%TD*%
D30*
%TO.C,C62*%
X164820000Y-80700000D03*
X165780000Y-80700000D03*
%TD*%
D27*
%TO.C,R2*%
X149739376Y-67839376D03*
X150460624Y-68560624D03*
%TD*%
D28*
%TO.C,C99*%
X142060000Y-86500000D03*
X141100000Y-86500000D03*
%TD*%
%TO.C,C54*%
X131580000Y-59200000D03*
X130620000Y-59200000D03*
%TD*%
D32*
%TO.C,R47*%
X123515000Y-66350000D03*
X122495000Y-66350000D03*
%TD*%
D33*
%TO.C,R67*%
X124075000Y-99400000D03*
X125725000Y-99400000D03*
%TD*%
D16*
%TO.C,R52*%
X136300000Y-82410000D03*
X136300000Y-81390000D03*
%TD*%
D30*
%TO.C,C95*%
X131720000Y-86500000D03*
X132680000Y-86500000D03*
%TD*%
D34*
%TO.C,U19*%
X117562500Y-85100000D03*
X117562500Y-84450000D03*
X117562500Y-83800000D03*
X119337500Y-83800000D03*
X119337500Y-85100000D03*
%TD*%
D35*
%TO.C,U10*%
X134600000Y-67400650D03*
X134600000Y-67000600D03*
X134600000Y-66600550D03*
X134600000Y-66200500D03*
X134600000Y-65800450D03*
X134600000Y-65400400D03*
X134600000Y-65000350D03*
X134600000Y-64600300D03*
X134600000Y-64200250D03*
X134600000Y-63800200D03*
X134600000Y-63400150D03*
X134600000Y-63000100D03*
X134600000Y-62600050D03*
X134600000Y-62200000D03*
X134600000Y-61799950D03*
D36*
X135074599Y-61325300D03*
X135474649Y-61325300D03*
X135874699Y-61325300D03*
X136274749Y-61325300D03*
X136674799Y-61325300D03*
X137074849Y-61325300D03*
X137474899Y-61325300D03*
X137874949Y-61325300D03*
X138274999Y-61325300D03*
X138675049Y-61325300D03*
X139075099Y-61325300D03*
X139475149Y-61325300D03*
X139875199Y-61325300D03*
X140275249Y-61325300D03*
X140675299Y-61325300D03*
D35*
X141149898Y-61799950D03*
X141149898Y-62200000D03*
X141149898Y-62600050D03*
X141149898Y-63000100D03*
X141149898Y-63400150D03*
X141149898Y-63800200D03*
X141149898Y-64200250D03*
X141149898Y-64600300D03*
X141149898Y-65000350D03*
X141149898Y-65400400D03*
X141149898Y-65800450D03*
X141149898Y-66200500D03*
X141149898Y-66600550D03*
X141149898Y-67000600D03*
X141149898Y-67400650D03*
D36*
X140675299Y-67875300D03*
X140275249Y-67875300D03*
X139875199Y-67875300D03*
X139475149Y-67875300D03*
X139075099Y-67875300D03*
X138675049Y-67875300D03*
X138274999Y-67875300D03*
X137874949Y-67875300D03*
X137474899Y-67875300D03*
X137074849Y-67875300D03*
X136674799Y-67875300D03*
X136274749Y-67875300D03*
X135874699Y-67875300D03*
X135474649Y-67875300D03*
X135074599Y-67875300D03*
D37*
X135315899Y-64600300D03*
D38*
X137874949Y-62041250D03*
D37*
X140433999Y-64600300D03*
D38*
X137874949Y-67159350D03*
D39*
X137874949Y-64600300D03*
%TD*%
D40*
%TO.C,Q2*%
X123650000Y-64000000D03*
X122350000Y-64000000D03*
X123000000Y-62000000D03*
%TD*%
D32*
%TO.C,R49*%
X123265000Y-59750000D03*
X122245000Y-59750000D03*
%TD*%
D11*
%TO.C,R46*%
X142200000Y-68890000D03*
X142200000Y-69910000D03*
%TD*%
D32*
%TO.C,R42*%
X131810000Y-66200000D03*
X130790000Y-66200000D03*
%TD*%
D30*
%TO.C,C101*%
X123120000Y-72000000D03*
X124080000Y-72000000D03*
%TD*%
D41*
%TO.C,U12*%
X133050000Y-73630000D03*
X133700000Y-73630000D03*
X134350000Y-73630000D03*
X135000000Y-73630000D03*
X135650000Y-73630000D03*
X136300000Y-73630000D03*
X136950000Y-73630000D03*
X136950000Y-79370000D03*
X136300000Y-79370000D03*
X135650000Y-79370000D03*
X135000000Y-79370000D03*
X134350000Y-79370000D03*
X133700000Y-79370000D03*
X133050000Y-79370000D03*
%TD*%
D10*
%TO.C,R41*%
X133625000Y-56600000D03*
X134645000Y-56600000D03*
%TD*%
D32*
%TO.C,R40*%
X131810000Y-65200000D03*
X130790000Y-65200000D03*
%TD*%
D18*
%TO.C,C70*%
X131700000Y-79320000D03*
X131700000Y-80280000D03*
%TD*%
D30*
%TO.C,C94*%
X138620000Y-86500000D03*
X139580000Y-86500000D03*
%TD*%
D12*
%TO.C,C30*%
X126300000Y-70580000D03*
X126300000Y-69620000D03*
%TD*%
D16*
%TO.C,R54*%
X135717500Y-94960000D03*
X135717500Y-93940000D03*
%TD*%
D12*
%TO.C,C48*%
X134400000Y-58980000D03*
X134400000Y-58020000D03*
%TD*%
D42*
%TO.C,Q1*%
X138210000Y-55950000D03*
X138210000Y-57250000D03*
X136390000Y-56600000D03*
%TD*%
D12*
%TO.C,C104*%
X121188000Y-84330000D03*
X121188000Y-83370000D03*
%TD*%
D10*
%TO.C,R44*%
X145200000Y-67400000D03*
X146220000Y-67400000D03*
%TD*%
%TO.C,R50*%
X122790000Y-79200000D03*
X123810000Y-79200000D03*
%TD*%
D28*
%TO.C,C63*%
X123235000Y-60750000D03*
X122275000Y-60750000D03*
%TD*%
M02*
