M48
; DRILL file {KiCad 9.0.9} date 2026-10-02T15:23:25+0200
; FORMAT={-:-/ absolute / metric / decimal}
; #@! TF.CreationDate,2026-10-02T15:23:25+02:00
; #@! TF.GenerationSoftware,Kicad,Pcbnew,9.0.9
; #@! TF.FileFunction,Plated,1,4,PTH
FMAT,2
METRIC
; #@! TA.AperFunction,Plated,PTH,ViaDrill
T1C0.300
; #@! TA.AperFunction,Plated,PTH,ComponentDrill
T2C0.300
; #@! TA.AperFunction,Plated,PTH,ComponentDrill
T3C0.600
%
G90
G05
T1
X101.5Y-90.6
X101.6Y-89.512
X103.9Y-84.5
X104.6Y-87.1
X105.6Y-81.6
X105.7Y-92.3
X107.0Y-70.8
X107.6Y-71.3
X108.2Y-71.8
X108.8Y-72.2
X109.4Y-72.7
X109.7Y-81.9
X109.7Y-96.7
X110.0Y-73.2
X110.2Y-81.4
X110.6Y-73.6
X110.9Y-104.2
X110.9Y-106.1
X111.1Y-74.1
X111.7Y-74.5
X112.0Y-94.8
X112.3Y-74.9
X112.5Y-82.6
X112.5Y-86.5
X112.5Y-88.6
X112.5Y-89.6
X112.5Y-92.2
X112.6Y-94.8
X112.8Y-74.3
X113.1Y-73.7
X113.5Y-73.1
X114.0Y-72.1
X114.1Y-73.6
X114.3Y-96.7
X114.4Y-71.4
X114.4Y-72.6
X114.4Y-80.8
X114.4Y-105.9
X114.6Y-74.2
X114.8Y-70.7
X114.9Y-73.1
X115.1Y-96.7
X115.2Y-70.0
X115.4Y-73.5
X115.75Y-105.3
X116.0Y-68.7
X116.1Y-69.25
X116.4Y-68.1
X116.55Y-68.9
X116.75Y-70.05
X116.762Y-84.45
X116.8Y-67.6
X117.2Y-82.6
X117.2Y-86.5
X117.2Y-88.6
X117.2Y-92.2
X117.3Y-67.1
X117.45Y-70.8
X117.9Y-66.5
X117.9Y-106.7
X118.35Y-74.4
X118.4Y-66.1
X118.5Y-80.9
X118.8Y-59.6
X118.8Y-78.1
X118.9Y-65.6
X119.2Y-60.2
X119.3Y-66.35
X119.4Y-65.1
X119.6Y-60.8
X119.7Y-104.4
X119.8Y-105.9
X119.8Y-115.6
X119.9Y-64.7
X119.9Y-116.8
X120.0Y-61.4
X120.05Y-74.35
X120.1Y-72.3
X120.138Y-83.9
X120.2Y-68.6
X120.4Y-62.0
X120.4Y-64.2
X120.4Y-105.9
X120.7Y-58.5
X120.8Y-62.6
X120.8Y-66.3
X120.9Y-63.7
X121.0Y-78.8
X121.0Y-108.2
X121.012Y-105.9
X121.05Y-74.2
X121.1Y-66.95
X121.3Y-77.285
X121.3Y-80.9
X121.35Y-85.05
X121.45Y-103.8
X121.75Y-68.5
X121.85Y-80.25
X122.0Y-118.9
X122.2Y-59.2
X122.4Y-82.6
X122.4Y-86.5
X122.4Y-92.2
X122.5Y-63.3
X122.55Y-87.3
X123.1Y-72.65
X123.15Y-105.9
X123.25Y-90.2
X123.287Y-69.131
X123.298Y-70.005
X123.3Y-57.4
X123.313Y-71.02
X123.612Y-63.0
X124.2Y-80.6
X124.3Y-114.81
X124.4Y-70.0
X124.405Y-69.115
X124.405Y-71.03
X124.498Y-96.266
X124.7Y-65.4
X124.8Y-121.3
X124.9Y-72.7
X124.9Y-78.245
X124.95Y-74.45
X124.95Y-75.05
X125.0Y-59.8
X125.095Y-88.158
X125.1Y-77.6
X125.193Y-88.974
X125.3Y-64.2
X125.523Y-70.005
X125.533Y-69.12
X125.549Y-71.03
X125.7Y-56.5
X125.8Y-85.1
X125.9Y-123.3
X126.1Y-72.7
X126.3Y-85.7
X126.3Y-102.7
X126.7Y-62.7
X126.88Y-75.341
X126.9Y-70.6
X126.9Y-107.8
X127.1Y-71.2
X127.281Y-77.481
X127.3Y-95.898
X127.3Y-99.0
X127.45Y-79.3
X127.45Y-95.2
X127.5Y-65.6
X127.6Y-64.2
X127.9Y-66.3
X127.9Y-100.6
X127.931Y-105.573
X128.06Y-75.831
X128.2Y-66.9
X128.3Y-60.2
X128.3Y-73.1
X128.35Y-77.55
X128.6Y-55.8
X128.678Y-102.975
X128.688Y-113.912
X128.7Y-67.6
X128.8Y-66.9
X128.8Y-68.7
X128.85Y-75.55
X128.9Y-79.745
X128.9Y-95.898
X128.9Y-99.0
X128.9Y-124.5
X129.0Y-69.5
X129.1Y-68.1
X129.15Y-72.2
X129.2Y-58.4
X129.2Y-84.0
X129.2Y-86.5
X129.2Y-92.1
X129.3Y-67.5
X129.3Y-104.3
X129.3Y-113.9
X129.4Y-63.7
X129.4Y-74.271
X129.4Y-101.7
X129.5Y-60.9
X129.726Y-94.532
X130.05Y-75.55
X130.1Y-101.6
X130.2Y-84.6
X130.45Y-56.75
X130.6Y-66.8
X130.6Y-85.1
X130.6Y-103.6
X130.7Y-99.375
X131.06Y-80.18
X131.1Y-123.1
X131.2Y-85.7
X131.3Y-65.7
X131.525Y-73.651
X131.7Y-104.3
X131.72Y-87.4
X131.907Y-58.095
X132.0Y-82.4
X132.1Y-56.75
X132.4Y-63.7
X132.4Y-75.935
X132.4Y-76.435
X132.4Y-80.135
X132.4Y-80.635
X132.402Y-71.215
X132.55Y-70.1
X132.6Y-65.4
X132.7Y-62.6
X132.9Y-56.6
X133.0Y-65.0
X133.0Y-66.6
X133.0Y-69.4
X133.1Y-55.1
X133.2Y-78.3
X133.3Y-123.0
X133.6Y-82.8
X133.7Y-80.9
X133.9Y-67.1
X134.0Y-62.7
X134.1Y-89.5
X134.3Y-80.6
X134.4Y-69.5
X134.5Y-72.162
X134.6Y-83.9
X134.6Y-86.5
X135.1Y-60.3
X135.2Y-71.7
X135.316Y-63.104
X135.316Y-64.6
X135.32Y-63.852
X135.324Y-66.079
X135.33Y-82.633
X135.5Y-69.5
X135.542Y-92.5
X135.7Y-68.9
X135.9Y-55.0
X135.9Y-72.162
X136.1Y-58.1
X136.1Y-123.1
X136.397Y-64.588
X136.4Y-76.7
X136.405Y-61.999
X136.413Y-67.184
X136.45Y-55.35
X136.45Y-65.47
X136.65Y-57.8
X137.0Y-58.95
X137.0Y-71.7
X137.1Y-64.97
X137.1Y-65.97
X137.14Y-62.02
X137.144Y-67.17
X137.15Y-63.57
X137.37Y-78.07
X137.396Y-69.321
X137.6Y-58.7
X137.6Y-83.0
X137.636Y-81.164
X137.73Y-79.996
X137.81Y-63.088
X137.85Y-65.32
X137.875Y-62.041
X137.875Y-64.6
X137.875Y-67.159
X137.904Y-66.095
X138.15Y-63.82
X138.2Y-58.6
X138.3Y-59.7
X138.3Y-68.4
X138.4Y-82.5
X138.5Y-55.1
X138.55Y-57.8
X138.6Y-64.97
X138.62Y-87.4
X138.65Y-63.17
X138.7Y-65.97
X138.7Y-123.0
X139.0Y-119.7
X139.226Y-91.352
X139.3Y-60.3
X139.3Y-63.67
X139.3Y-65.42
X139.301Y-61.999
X139.301Y-67.176
X139.325Y-64.572
X139.5Y-119.7
X139.8Y-79.9
X139.9Y-71.7
X140.0Y-119.7
X140.084Y-69.398
X140.35Y-78.22
X140.4Y-99.1
X140.4Y-107.2
X140.414Y-64.611
X140.43Y-63.846
X140.438Y-66.103
X140.446Y-63.08
X140.5Y-119.7
X140.6Y-57.3
X140.675Y-58.825
X140.8Y-68.9
X140.8Y-98.7
X140.8Y-111.4
X140.838Y-114.362
X140.9Y-84.945
X140.9Y-107.2
X141.3Y-71.7
X141.3Y-122.7
X141.303Y-85.702
X141.605Y-78.205
X141.7Y-64.7
X142.098Y-92.5
X142.1Y-85.9
X142.1Y-86.45
X142.1Y-110.5
X142.1Y-115.4
X142.3Y-83.3
X142.4Y-55.6
X142.422Y-70.822
X142.5Y-61.7
X142.5Y-87.5
X142.878Y-60.603
X142.925Y-99.15
X143.125Y-83.05
X143.2Y-70.4
X143.3Y-67.1
X143.4Y-84.1
X143.4Y-87.4
X143.4Y-111.4
X143.4Y-114.4
X143.5Y-75.2
X143.5Y-75.8
X143.6Y-60.2
X143.9Y-122.1
X144.2Y-81.7
X144.2Y-113.3
X144.4Y-68.9
X145.2Y-83.6
X145.2Y-92.2
X145.2Y-113.3
X145.5Y-82.9
X145.52Y-87.4
X145.6Y-64.5
X145.9Y-56.5
X145.935Y-66.175
X146.1Y-78.4
X146.2Y-68.2
X146.2Y-72.9
X146.5Y-77.7
X146.5Y-121.4
X146.7Y-81.9
X146.965Y-85.452
X147.35Y-89.7
X147.6Y-63.7
X147.7Y-59.5
X147.75Y-86.35
X147.9Y-84.0
X148.282Y-87.652
X148.7Y-79.1
X148.741Y-68.2
X148.8Y-57.6
X148.9Y-120.5
X149.1Y-67.2
X149.3Y-81.9
X149.36Y-90.152
X149.4Y-85.9
X150.1Y-71.1
X150.5Y-84.0
X150.802Y-66.788
X150.9Y-67.8
X151.132Y-86.802
X151.2Y-119.4
X151.3Y-85.513
X151.6Y-58.9
X151.7Y-76.7
X151.7Y-81.895
X151.8Y-65.6
X151.8Y-85.513
X151.9Y-106.9
X152.0Y-66.4
X152.3Y-107.3
X152.5Y-110.1
X152.6Y-71.5
X152.8Y-62.0
X152.8Y-70.7
X152.9Y-109.7
X153.1Y-67.0
X153.15Y-86.85
X153.2Y-61.6
X153.3Y-84.0
X153.4Y-74.6
X153.4Y-81.895
X153.4Y-118.2
X153.726Y-92.598
X154.0Y-64.2
X154.1Y-86.9
X154.3Y-117.5
X154.4Y-64.6
X154.45Y-90.7
X154.5Y-60.6
X154.65Y-91.6
X154.7Y-107.9
X155.1Y-107.5
X155.3Y-71.3
X155.35Y-96.65
X155.5Y-85.1
X156.1Y-86.9
X156.8Y-62.3
X157.0Y-91.6
X157.1Y-115.5
X157.6Y-89.5
X157.9Y-104.1
X158.3Y-88.2
X158.35Y-93.9
X158.55Y-104.1
X159.0Y-64.1
X159.1Y-91.55
X159.2Y-86.7
X159.2Y-104.1
X159.7Y-113.2
X159.85Y-97.35
X159.9Y-94.65
X160.0Y-70.1
X160.05Y-96.8
X160.45Y-73.95
X160.45Y-92.9
X160.5Y-93.9
X160.9Y-66.1
X161.0Y-74.5
X161.605Y-107.495
X162.1Y-107.0
X162.1Y-110.5
X162.5Y-68.0
X162.595Y-106.505
X162.8Y-75.9
X163.55Y-94.15
X164.0Y-70.1
X164.2Y-80.7
X164.2Y-107.7
X164.9Y-75.9
X164.9Y-78.1
X164.9Y-82.2
X165.1Y-94.1
X165.15Y-85.75
X165.3Y-72.0
X165.5Y-86.7
X166.0Y-104.5
X166.3Y-73.9
X166.5Y-103.8
X166.9Y-85.9
X167.3Y-75.9
X168.0Y-100.3
X168.1Y-78.1
X168.2Y-94.4
X168.7Y-80.0
X169.0Y-94.9
X169.2Y-82.2
X169.6Y-84.5
X169.8Y-87.4
X169.9Y-88.62
X170.2Y-99.0
X170.4Y-86.7
X170.4Y-91.5
X171.0Y-95.5
X171.0Y-96.6
X172.6Y-89.1
T2
X112.39Y-102.64
X112.39Y-103.82
X113.57Y-102.64
X113.57Y-103.82
X121.46Y-113.972
X121.46Y-115.152
X122.64Y-113.972
X122.64Y-115.152
X135.0Y-99.1
X135.0Y-100.3
X135.0Y-101.5
X135.0Y-102.7
X135.0Y-103.9
X135.0Y-105.1
X135.0Y-106.3
X135.0Y-107.5
X136.2Y-99.1
X136.2Y-100.3
X136.2Y-101.5
X136.2Y-102.7
X136.2Y-103.9
X136.2Y-105.1
X136.2Y-106.3
X136.2Y-107.5
X137.4Y-99.1
X137.4Y-100.3
X137.4Y-101.5
X137.4Y-102.7
X137.4Y-103.9
X137.4Y-105.1
X137.4Y-106.3
X137.4Y-107.5
T3
X147.759Y-64.831G85X148.466Y-64.124
G05
X151.373Y-61.218G85X152.433Y-60.157
G05
X153.869Y-70.941G85X154.576Y-70.234
G05
X157.482Y-67.327G85X158.543Y-66.267
G05
M30
