%TF.GenerationSoftware,KiCad,Pcbnew,9.0.9*%
%TF.CreationDate,2026-10-02T15:23:24+02:00*%
%TF.ProjectId,nest-mini-v2-drop-in-pcb,6e657374-2d6d-4696-9e69-2d76322d6472,v1*%
%TF.SameCoordinates,Original*%
%TF.FileFunction,Legend,Top*%
%TF.FilePolarity,Positive*%
%FSLAX46Y46*%
G04 Gerber Fmt 4.6, Leading zero omitted, Abs format (unit mm)*
G04 Created by KiCad (PCBNEW 9.0.9) date 2026-10-02 15:23:24*
%MOMM*%
%LPD*%
G01*
G04 APERTURE LIST*
G04 Aperture macros list*
%AMRoundRect*
0 Rectangle with rounded corners*
0 $1 Rounding radius*
0 $2 $3 $4 $5 $6 $7 $8 $9 X,Y pos of 4 corners*
0 Add a 4 corners polygon primitive as box body*
4,1,4,$2,$3,$4,$5,$6,$7,$8,$9,$2,$3,0*
0 Add four circle primitives for the rounded corners*
1,1,$1+$1,$2,$3*
1,1,$1+$1,$4,$5*
1,1,$1+$1,$6,$7*
1,1,$1+$1,$8,$9*
0 Add four rect primitives between the rounded corners*
20,1,$1+$1,$2,$3,$4,$5,0*
20,1,$1+$1,$4,$5,$6,$7,0*
20,1,$1+$1,$6,$7,$8,$9,0*
20,1,$1+$1,$8,$9,$2,$3,0*%
%AMHorizOval*
0 Thick line with rounded ends*
0 $1 width*
0 $2 $3 position (X,Y) of the first rounded end (center of the circle)*
0 $4 $5 position (X,Y) of the second rounded end (center of the circle)*
0 Add line between two ends*
20,1,$1,$2,$3,$4,$5,0*
0 Add two circle primitives to create the rounded ends*
1,1,$1,$2,$3*
1,1,$1,$4,$5*%
G04 Aperture macros list end*
%ADD10C,0.120000*%
%ADD11C,0.150000*%
%ADD12C,0.080000*%
%ADD13C,0.127000*%
%ADD14C,0.200000*%
%ADD15C,0.254000*%
%ADD16C,0.210000*%
%ADD17C,0.100000*%
%ADD18C,0.125000*%
%ADD19C,0.300000*%
%ADD20C,0.010000*%
%ADD21C,0.862500*%
%ADD22C,1.060000*%
%ADD23RoundRect,0.155000X-0.185000X0.155000X-0.185000X-0.155000X0.185000X-0.155000X0.185000X0.155000X0*%
%ADD24RoundRect,0.215000X-0.290000X0.215000X-0.290000X-0.215000X0.290000X-0.215000X0.290000X0.215000X0*%
%ADD25RoundRect,0.215000X-0.215000X-0.290000X0.215000X-0.290000X0.215000X0.290000X-0.215000X0.290000X0*%
%ADD26RoundRect,0.102000X-0.400000X0.200000X-0.400000X-0.200000X0.400000X-0.200000X0.400000X0.200000X0*%
%ADD27RoundRect,0.155000X0.155000X0.185000X-0.155000X0.185000X-0.155000X-0.185000X0.155000X-0.185000X0*%
%ADD28RoundRect,0.077500X-0.365000X-0.077500X0.365000X-0.077500X0.365000X0.077500X-0.365000X0.077500X0*%
%ADD29RoundRect,0.077500X-0.077500X-0.365000X0.077500X-0.365000X0.077500X0.365000X-0.077500X0.365000X0*%
%ADD30RoundRect,0.030000X-0.840000X-0.840000X0.840000X-0.840000X0.840000X0.840000X-0.840000X0.840000X0*%
%ADD31RoundRect,0.155000X-0.155000X-0.185000X0.155000X-0.185000X0.155000X0.185000X-0.155000X0.185000X0*%
%ADD32RoundRect,0.077500X-0.077500X0.252500X-0.077500X-0.252500X0.077500X-0.252500X0.077500X0.252500X0*%
%ADD33RoundRect,0.030000X-0.800000X0.450000X-0.800000X-0.450000X0.800000X-0.450000X0.800000X0.450000X0*%
%ADD34RoundRect,0.150000X-0.150000X-0.200000X0.150000X-0.200000X0.150000X0.200000X-0.150000X0.200000X0*%
%ADD35RoundRect,0.240000X0.240000X0.265000X-0.240000X0.265000X-0.240000X-0.265000X0.240000X-0.265000X0*%
%ADD36RoundRect,0.215000X-0.215000X0.265000X-0.215000X-0.265000X0.215000X-0.265000X0.215000X0.265000X0*%
%ADD37RoundRect,0.150000X0.200000X-0.150000X0.200000X0.150000X-0.200000X0.150000X-0.200000X-0.150000X0*%
%ADD38RoundRect,0.150000X0.150000X0.200000X-0.150000X0.200000X-0.150000X-0.200000X0.150000X-0.200000X0*%
%ADD39RoundRect,0.050800X-0.350000X-0.500000X0.350000X-0.500000X0.350000X0.500000X-0.350000X0.500000X0*%
%ADD40RoundRect,0.155000X-0.240416X-0.021213X-0.021213X-0.240416X0.240416X0.021213X0.021213X0.240416X0*%
%ADD41RoundRect,0.265000X0.265000X0.490000X-0.265000X0.490000X-0.265000X-0.490000X0.265000X-0.490000X0*%
%ADD42RoundRect,0.265000X-0.490000X0.265000X-0.490000X-0.265000X0.490000X-0.265000X0.490000X0.265000X0*%
%ADD43RoundRect,0.240000X-0.265000X0.240000X-0.265000X-0.240000X0.265000X-0.240000X0.265000X0.240000X0*%
%ADD44RoundRect,0.155000X0.185000X-0.155000X0.185000X0.155000X-0.185000X0.155000X-0.185000X-0.155000X0*%
%ADD45RoundRect,0.102000X0.200000X-0.585000X0.200000X0.585000X-0.200000X0.585000X-0.200000X-0.585000X0*%
%ADD46RoundRect,0.030000X-0.400000X0.400000X-0.400000X-0.400000X0.400000X-0.400000X0.400000X0.400000X0*%
%ADD47RoundRect,0.162500X0.187500X-0.162500X0.187500X0.162500X-0.187500X0.162500X-0.187500X-0.162500X0*%
%ADD48RoundRect,0.259375X-1.416865X0.609880X0.609880X-1.416865X1.416865X-0.609880X-0.609880X1.416865X0*%
%ADD49RoundRect,0.150000X-0.247487X-0.035355X-0.035355X-0.247487X0.247487X0.035355X0.035355X0.247487X0*%
%ADD50RoundRect,0.162500X0.017678X-0.247487X0.247487X-0.017678X-0.017678X0.247487X-0.247487X0.017678X0*%
%ADD51RoundRect,0.162500X-0.187500X0.162500X-0.187500X-0.162500X0.187500X-0.162500X0.187500X0.162500X0*%
%ADD52RoundRect,0.240000X-0.240000X-0.265000X0.240000X-0.265000X0.240000X0.265000X-0.240000X0.265000X0*%
%ADD53RoundRect,0.260001X0.969999X-0.519999X0.969999X0.519999X-0.969999X0.519999X-0.969999X-0.519999X0*%
%ADD54RoundRect,0.177500X0.665000X0.177500X-0.665000X0.177500X-0.665000X-0.177500X0.665000X-0.177500X0*%
%ADD55RoundRect,0.050000X0.250000X-0.250000X0.250000X0.250000X-0.250000X0.250000X-0.250000X-0.250000X0*%
%ADD56RoundRect,0.050000X0.500000X-0.350000X0.500000X0.350000X-0.500000X0.350000X-0.500000X-0.350000X0*%
%ADD57RoundRect,0.240000X0.265000X-0.240000X0.265000X0.240000X-0.265000X0.240000X-0.265000X-0.240000X0*%
%ADD58RoundRect,0.102000X0.800000X2.050000X-0.800000X2.050000X-0.800000X-2.050000X0.800000X-2.050000X0*%
%ADD59RoundRect,0.150000X0.035355X-0.247487X0.247487X-0.035355X-0.035355X0.247487X-0.247487X0.035355X0*%
%ADD60RoundRect,0.140000X-0.502500X-0.140000X0.502500X-0.140000X0.502500X0.140000X-0.502500X0.140000X0*%
%ADD61RoundRect,0.265000X-0.265000X-0.490000X0.265000X-0.490000X0.265000X0.490000X-0.265000X0.490000X0*%
%ADD62RoundRect,0.053000X0.159000X-0.454000X0.159000X0.454000X-0.159000X0.454000X-0.159000X-0.454000X0*%
%ADD63RoundRect,0.040000X0.415000X-0.120000X0.415000X0.120000X-0.415000X0.120000X-0.415000X-0.120000X0*%
%ADD64RoundRect,0.053000X0.454000X-0.159000X0.454000X0.159000X-0.454000X0.159000X-0.454000X-0.159000X0*%
%ADD65RoundRect,0.102000X2.000000X-2.000000X2.000000X2.000000X-2.000000X2.000000X-2.000000X-2.000000X0*%
%ADD66RoundRect,0.264634X-0.465366X0.277866X-0.465366X-0.277866X0.465366X-0.277866X0.465366X0.277866X0*%
%ADD67RoundRect,0.102000X-0.200000X-0.400000X0.200000X-0.400000X0.200000X0.400000X-0.200000X0.400000X0*%
%ADD68RoundRect,0.265000X0.490000X-0.265000X0.490000X0.265000X-0.490000X0.265000X-0.490000X-0.265000X0*%
%ADD69RoundRect,0.102000X-0.500000X-0.485000X0.500000X-0.485000X0.500000X0.485000X-0.500000X0.485000X0*%
%ADD70RoundRect,0.215000X0.290000X-0.215000X0.290000X0.215000X-0.290000X0.215000X-0.290000X-0.215000X0*%
%ADD71RoundRect,0.150000X0.247487X0.035355X0.035355X0.247487X-0.247487X-0.035355X-0.035355X-0.247487X0*%
%ADD72RoundRect,0.102000X0.485000X-0.500000X0.485000X0.500000X-0.485000X0.500000X-0.485000X-0.500000X0*%
%ADD73RoundRect,0.155000X-0.021213X0.240416X-0.240416X0.021213X0.021213X-0.240416X0.240416X-0.021213X0*%
%ADD74RoundRect,0.152500X-0.677500X0.152500X-0.677500X-0.152500X0.677500X-0.152500X0.677500X0.152500X0*%
%ADD75RoundRect,0.264634X0.465366X-0.277866X0.465366X0.277866X-0.465366X0.277866X-0.465366X-0.277866X0*%
%ADD76RoundRect,0.115000X0.115000X-0.577500X0.115000X0.577500X-0.115000X0.577500X-0.115000X-0.577500X0*%
%ADD77RoundRect,0.165000X0.165000X0.215000X-0.165000X0.215000X-0.165000X-0.215000X0.165000X-0.215000X0*%
%ADD78RoundRect,0.165000X0.165000X-0.527500X0.165000X0.527500X-0.165000X0.527500X-0.165000X-0.527500X0*%
%ADD79RoundRect,0.115000X0.145000X0.115000X-0.145000X0.115000X-0.145000X-0.115000X0.145000X-0.115000X0*%
%ADD80RoundRect,0.050000X-0.250000X0.250000X-0.250000X-0.250000X0.250000X-0.250000X0.250000X0.250000X0*%
%ADD81RoundRect,0.050000X-0.500000X0.350000X-0.500000X-0.350000X0.500000X-0.350000X0.500000X0.350000X0*%
%ADD82RoundRect,0.155000X0.021213X-0.240416X0.240416X-0.021213X-0.021213X0.240416X-0.240416X0.021213X0*%
%ADD83RoundRect,0.262500X0.212132X-0.731856X0.731856X-0.212132X-0.212132X0.731856X-0.731856X0.212132X0*%
%ADD84RoundRect,0.263333X0.641667X-0.329167X0.641667X0.329167X-0.641667X0.329167X-0.641667X-0.329167X0*%
%ADD85RoundRect,0.050800X0.388909X0.176777X0.176777X0.388909X-0.388909X-0.176777X-0.176777X-0.388909X0*%
%ADD86RoundRect,0.050000X0.601041X-0.106066X-0.106066X0.601041X-0.601041X0.106066X0.106066X-0.601041X0*%
%ADD87RoundRect,0.050800X0.353553X0.141421X0.141421X0.353553X-0.353553X-0.141421X-0.141421X-0.353553X0*%
%ADD88HorizOval,1.100000X0.388909X0.388909X-0.388909X-0.388909X0*%
%ADD89HorizOval,1.100000X0.565685X0.565685X-0.565685X-0.565685X0*%
%ADD90C,0.560000*%
%ADD91RoundRect,0.150000X-0.200000X0.150000X-0.200000X-0.150000X0.200000X-0.150000X0.200000X0.150000X0*%
G04 APERTURE END LIST*
D10*
X129726666Y-91077855D02*
X129726666Y-90544521D01*
X129726666Y-90696902D02*
X129764761Y-90620712D01*
X129764761Y-90620712D02*
X129802856Y-90582617D01*
X129802856Y-90582617D02*
X129879047Y-90544521D01*
X129879047Y-90544521D02*
X129955237Y-90544521D01*
X130526666Y-91039760D02*
X130450475Y-91077855D01*
X130450475Y-91077855D02*
X130298094Y-91077855D01*
X130298094Y-91077855D02*
X130221904Y-91039760D01*
X130221904Y-91039760D02*
X130183808Y-90963569D01*
X130183808Y-90963569D02*
X130183808Y-90658807D01*
X130183808Y-90658807D02*
X130221904Y-90582617D01*
X130221904Y-90582617D02*
X130298094Y-90544521D01*
X130298094Y-90544521D02*
X130450475Y-90544521D01*
X130450475Y-90544521D02*
X130526666Y-90582617D01*
X130526666Y-90582617D02*
X130564761Y-90658807D01*
X130564761Y-90658807D02*
X130564761Y-90734998D01*
X130564761Y-90734998D02*
X130183808Y-90811188D01*
X130831427Y-90544521D02*
X131021903Y-91077855D01*
X131021903Y-91077855D02*
X131212380Y-90544521D01*
X131517142Y-90773093D02*
X132126666Y-90773093D01*
X132850475Y-91077855D02*
X132850475Y-90658807D01*
X132850475Y-90658807D02*
X132812380Y-90582617D01*
X132812380Y-90582617D02*
X132736189Y-90544521D01*
X132736189Y-90544521D02*
X132583808Y-90544521D01*
X132583808Y-90544521D02*
X132507618Y-90582617D01*
X132850475Y-91039760D02*
X132774284Y-91077855D01*
X132774284Y-91077855D02*
X132583808Y-91077855D01*
X132583808Y-91077855D02*
X132507618Y-91039760D01*
X132507618Y-91039760D02*
X132469522Y-90963569D01*
X132469522Y-90963569D02*
X132469522Y-90887379D01*
X132469522Y-90887379D02*
X132507618Y-90811188D01*
X132507618Y-90811188D02*
X132583808Y-90773093D01*
X132583808Y-90773093D02*
X132774284Y-90773093D01*
X132774284Y-90773093D02*
X132850475Y-90734998D01*
X133193332Y-90354045D02*
X133231428Y-90315950D01*
X133231428Y-90315950D02*
X133307618Y-90277855D01*
X133307618Y-90277855D02*
X133498094Y-90277855D01*
X133498094Y-90277855D02*
X133574285Y-90315950D01*
X133574285Y-90315950D02*
X133612380Y-90354045D01*
X133612380Y-90354045D02*
X133650475Y-90430236D01*
X133650475Y-90430236D02*
X133650475Y-90506426D01*
X133650475Y-90506426D02*
X133612380Y-90620712D01*
X133612380Y-90620712D02*
X133155237Y-91077855D01*
X133155237Y-91077855D02*
X133650475Y-91077855D01*
X135174285Y-90354045D02*
X135212381Y-90315950D01*
X135212381Y-90315950D02*
X135288571Y-90277855D01*
X135288571Y-90277855D02*
X135479047Y-90277855D01*
X135479047Y-90277855D02*
X135555238Y-90315950D01*
X135555238Y-90315950D02*
X135593333Y-90354045D01*
X135593333Y-90354045D02*
X135631428Y-90430236D01*
X135631428Y-90430236D02*
X135631428Y-90506426D01*
X135631428Y-90506426D02*
X135593333Y-90620712D01*
X135593333Y-90620712D02*
X135136190Y-91077855D01*
X135136190Y-91077855D02*
X135631428Y-91077855D01*
X136126667Y-90277855D02*
X136202857Y-90277855D01*
X136202857Y-90277855D02*
X136279048Y-90315950D01*
X136279048Y-90315950D02*
X136317143Y-90354045D01*
X136317143Y-90354045D02*
X136355238Y-90430236D01*
X136355238Y-90430236D02*
X136393333Y-90582617D01*
X136393333Y-90582617D02*
X136393333Y-90773093D01*
X136393333Y-90773093D02*
X136355238Y-90925474D01*
X136355238Y-90925474D02*
X136317143Y-91001664D01*
X136317143Y-91001664D02*
X136279048Y-91039760D01*
X136279048Y-91039760D02*
X136202857Y-91077855D01*
X136202857Y-91077855D02*
X136126667Y-91077855D01*
X136126667Y-91077855D02*
X136050476Y-91039760D01*
X136050476Y-91039760D02*
X136012381Y-91001664D01*
X136012381Y-91001664D02*
X135974286Y-90925474D01*
X135974286Y-90925474D02*
X135936190Y-90773093D01*
X135936190Y-90773093D02*
X135936190Y-90582617D01*
X135936190Y-90582617D02*
X135974286Y-90430236D01*
X135974286Y-90430236D02*
X136012381Y-90354045D01*
X136012381Y-90354045D02*
X136050476Y-90315950D01*
X136050476Y-90315950D02*
X136126667Y-90277855D01*
X136698095Y-90354045D02*
X136736191Y-90315950D01*
X136736191Y-90315950D02*
X136812381Y-90277855D01*
X136812381Y-90277855D02*
X137002857Y-90277855D01*
X137002857Y-90277855D02*
X137079048Y-90315950D01*
X137079048Y-90315950D02*
X137117143Y-90354045D01*
X137117143Y-90354045D02*
X137155238Y-90430236D01*
X137155238Y-90430236D02*
X137155238Y-90506426D01*
X137155238Y-90506426D02*
X137117143Y-90620712D01*
X137117143Y-90620712D02*
X136660000Y-91077855D01*
X136660000Y-91077855D02*
X137155238Y-91077855D01*
X137840953Y-90277855D02*
X137688572Y-90277855D01*
X137688572Y-90277855D02*
X137612381Y-90315950D01*
X137612381Y-90315950D02*
X137574286Y-90354045D01*
X137574286Y-90354045D02*
X137498096Y-90468331D01*
X137498096Y-90468331D02*
X137460000Y-90620712D01*
X137460000Y-90620712D02*
X137460000Y-90925474D01*
X137460000Y-90925474D02*
X137498096Y-91001664D01*
X137498096Y-91001664D02*
X137536191Y-91039760D01*
X137536191Y-91039760D02*
X137612381Y-91077855D01*
X137612381Y-91077855D02*
X137764762Y-91077855D01*
X137764762Y-91077855D02*
X137840953Y-91039760D01*
X137840953Y-91039760D02*
X137879048Y-91001664D01*
X137879048Y-91001664D02*
X137917143Y-90925474D01*
X137917143Y-90925474D02*
X137917143Y-90734998D01*
X137917143Y-90734998D02*
X137879048Y-90658807D01*
X137879048Y-90658807D02*
X137840953Y-90620712D01*
X137840953Y-90620712D02*
X137764762Y-90582617D01*
X137764762Y-90582617D02*
X137612381Y-90582617D01*
X137612381Y-90582617D02*
X137536191Y-90620712D01*
X137536191Y-90620712D02*
X137498096Y-90658807D01*
X137498096Y-90658807D02*
X137460000Y-90734998D01*
X138260001Y-90773093D02*
X138869525Y-90773093D01*
X139402858Y-90277855D02*
X139479048Y-90277855D01*
X139479048Y-90277855D02*
X139555239Y-90315950D01*
X139555239Y-90315950D02*
X139593334Y-90354045D01*
X139593334Y-90354045D02*
X139631429Y-90430236D01*
X139631429Y-90430236D02*
X139669524Y-90582617D01*
X139669524Y-90582617D02*
X139669524Y-90773093D01*
X139669524Y-90773093D02*
X139631429Y-90925474D01*
X139631429Y-90925474D02*
X139593334Y-91001664D01*
X139593334Y-91001664D02*
X139555239Y-91039760D01*
X139555239Y-91039760D02*
X139479048Y-91077855D01*
X139479048Y-91077855D02*
X139402858Y-91077855D01*
X139402858Y-91077855D02*
X139326667Y-91039760D01*
X139326667Y-91039760D02*
X139288572Y-91001664D01*
X139288572Y-91001664D02*
X139250477Y-90925474D01*
X139250477Y-90925474D02*
X139212381Y-90773093D01*
X139212381Y-90773093D02*
X139212381Y-90582617D01*
X139212381Y-90582617D02*
X139250477Y-90430236D01*
X139250477Y-90430236D02*
X139288572Y-90354045D01*
X139288572Y-90354045D02*
X139326667Y-90315950D01*
X139326667Y-90315950D02*
X139402858Y-90277855D01*
X140050477Y-91077855D02*
X140202858Y-91077855D01*
X140202858Y-91077855D02*
X140279048Y-91039760D01*
X140279048Y-91039760D02*
X140317144Y-91001664D01*
X140317144Y-91001664D02*
X140393334Y-90887379D01*
X140393334Y-90887379D02*
X140431429Y-90734998D01*
X140431429Y-90734998D02*
X140431429Y-90430236D01*
X140431429Y-90430236D02*
X140393334Y-90354045D01*
X140393334Y-90354045D02*
X140355239Y-90315950D01*
X140355239Y-90315950D02*
X140279048Y-90277855D01*
X140279048Y-90277855D02*
X140126667Y-90277855D01*
X140126667Y-90277855D02*
X140050477Y-90315950D01*
X140050477Y-90315950D02*
X140012382Y-90354045D01*
X140012382Y-90354045D02*
X139974286Y-90430236D01*
X139974286Y-90430236D02*
X139974286Y-90620712D01*
X139974286Y-90620712D02*
X140012382Y-90696902D01*
X140012382Y-90696902D02*
X140050477Y-90734998D01*
X140050477Y-90734998D02*
X140126667Y-90773093D01*
X140126667Y-90773093D02*
X140279048Y-90773093D01*
X140279048Y-90773093D02*
X140355239Y-90734998D01*
X140355239Y-90734998D02*
X140393334Y-90696902D01*
X140393334Y-90696902D02*
X140431429Y-90620712D01*
G36*
X134926364Y-91951262D02*
G01*
X134983917Y-92008814D01*
X135016191Y-92137905D01*
X135016191Y-92389803D01*
X134983917Y-92518894D01*
X134926365Y-92576447D01*
X134871550Y-92603855D01*
X134747499Y-92603855D01*
X134692684Y-92576447D01*
X134635131Y-92518894D01*
X134602857Y-92389803D01*
X134602857Y-92137905D01*
X134635131Y-92008813D01*
X134692681Y-91951263D01*
X134747499Y-91923855D01*
X134871550Y-91923855D01*
X134926364Y-91951262D01*
G37*
G36*
X141059697Y-91951262D02*
G01*
X141084020Y-91975585D01*
X141114816Y-92037177D01*
X141149523Y-92176001D01*
X141149523Y-92351708D01*
X141114816Y-92490531D01*
X141084020Y-92552123D01*
X141059695Y-92576448D01*
X141004882Y-92603855D01*
X140957022Y-92603855D01*
X140902207Y-92576448D01*
X140877883Y-92552123D01*
X140847087Y-92490531D01*
X140812380Y-92351708D01*
X140812380Y-92176001D01*
X140847087Y-92037177D01*
X140877883Y-91975585D01*
X140902206Y-91951262D01*
X140957022Y-91923855D01*
X141004882Y-91923855D01*
X141059697Y-91951262D01*
G37*
G36*
X132297794Y-91951262D02*
G01*
X132322118Y-91975587D01*
X132349525Y-92030400D01*
X132349525Y-92116356D01*
X132322118Y-92171169D01*
X132297794Y-92195494D01*
X132242979Y-92222902D01*
X132012382Y-92222902D01*
X132012382Y-91923855D01*
X132242979Y-91923855D01*
X132297794Y-91951262D01*
G37*
G36*
X141358412Y-92812744D02*
G01*
X130241587Y-92812744D01*
X130241587Y-92206712D01*
X130330476Y-92206712D01*
X130330476Y-92320998D01*
X130331910Y-92328209D01*
X130332268Y-92335550D01*
X130370364Y-92487931D01*
X130373169Y-92493870D01*
X130374906Y-92500212D01*
X130413001Y-92576402D01*
X130418896Y-92583998D01*
X130424240Y-92591995D01*
X130500431Y-92668186D01*
X130502928Y-92669854D01*
X130503545Y-92671088D01*
X130511906Y-92675854D01*
X130519896Y-92681193D01*
X130521273Y-92681193D01*
X130523883Y-92682681D01*
X130638170Y-92720776D01*
X130647708Y-92721978D01*
X130657143Y-92723855D01*
X130733334Y-92723855D01*
X130742767Y-92721978D01*
X130752308Y-92720776D01*
X130866593Y-92682681D01*
X130869203Y-92681193D01*
X130870580Y-92681193D01*
X130878575Y-92675850D01*
X130886931Y-92671087D01*
X130887546Y-92669855D01*
X130890045Y-92668186D01*
X130928141Y-92630090D01*
X130941148Y-92610625D01*
X130941148Y-92564703D01*
X130908676Y-92532231D01*
X130862754Y-92532231D01*
X130843289Y-92545238D01*
X130815209Y-92573317D01*
X130723597Y-92603855D01*
X130666880Y-92603855D01*
X130575268Y-92573318D01*
X130515979Y-92514028D01*
X130485183Y-92452436D01*
X130450476Y-92313613D01*
X130450476Y-92214096D01*
X130485183Y-92075272D01*
X130515979Y-92013679D01*
X130575266Y-91954392D01*
X130666880Y-91923855D01*
X130723597Y-91923855D01*
X130815208Y-91954392D01*
X130843289Y-91982472D01*
X130862754Y-91995478D01*
X130908677Y-91995478D01*
X130941148Y-91963005D01*
X130941148Y-91917083D01*
X130928141Y-91897618D01*
X130894377Y-91863855D01*
X131168572Y-91863855D01*
X131168572Y-92663855D01*
X131173139Y-92686815D01*
X131173139Y-92686816D01*
X131205611Y-92719288D01*
X131228572Y-92723855D01*
X131609524Y-92723855D01*
X131632485Y-92719288D01*
X131664957Y-92686816D01*
X131664957Y-92640894D01*
X131632485Y-92608422D01*
X131609524Y-92603855D01*
X131288572Y-92603855D01*
X131288572Y-92304807D01*
X131495238Y-92304807D01*
X131518199Y-92300240D01*
X131550671Y-92267768D01*
X131550671Y-92221846D01*
X131518199Y-92189374D01*
X131495238Y-92184807D01*
X131288572Y-92184807D01*
X131288572Y-91923855D01*
X131609524Y-91923855D01*
X131632485Y-91919288D01*
X131664957Y-91886816D01*
X131664957Y-91863855D01*
X131892382Y-91863855D01*
X131892382Y-92663855D01*
X131896949Y-92686816D01*
X131929421Y-92719288D01*
X131975343Y-92719288D01*
X132007815Y-92686816D01*
X132012382Y-92663855D01*
X132012382Y-92342902D01*
X132111618Y-92342902D01*
X132360371Y-92698262D01*
X132377280Y-92714454D01*
X132422503Y-92722434D01*
X132460124Y-92696100D01*
X132468105Y-92650876D01*
X132458679Y-92629447D01*
X132257981Y-92342735D01*
X132260091Y-92342315D01*
X132261397Y-92342751D01*
X132270672Y-92340211D01*
X132280105Y-92338335D01*
X132281078Y-92337361D01*
X132283977Y-92336568D01*
X132360167Y-92298473D01*
X132367768Y-92292572D01*
X132375760Y-92287233D01*
X132413855Y-92249139D01*
X132419201Y-92241138D01*
X132425094Y-92233545D01*
X132463190Y-92157354D01*
X132463983Y-92154456D01*
X132464958Y-92153482D01*
X132466834Y-92144045D01*
X132469374Y-92134775D01*
X132468938Y-92133468D01*
X132469525Y-92130521D01*
X132469525Y-92016236D01*
X132468938Y-92013288D01*
X132469374Y-92011982D01*
X132466834Y-92002711D01*
X132464958Y-91993275D01*
X132463983Y-91992300D01*
X132463190Y-91989403D01*
X132425094Y-91913212D01*
X132419201Y-91905618D01*
X132413855Y-91897618D01*
X132380091Y-91863855D01*
X132692382Y-91863855D01*
X132692382Y-92663855D01*
X132696949Y-92686816D01*
X132729421Y-92719288D01*
X132775343Y-92719288D01*
X132807815Y-92686816D01*
X132812382Y-92663855D01*
X132812382Y-92089789D01*
X133157430Y-92693623D01*
X133172788Y-92711293D01*
X133180736Y-92713460D01*
X133186564Y-92719288D01*
X133202103Y-92719288D01*
X133217092Y-92723376D01*
X133224246Y-92719288D01*
X133232486Y-92719288D01*
X133243472Y-92708301D01*
X133256963Y-92700593D01*
X133259131Y-92692642D01*
X133264958Y-92686816D01*
X133269525Y-92663855D01*
X133269525Y-92336132D01*
X133535044Y-92336132D01*
X133535044Y-92382054D01*
X133567516Y-92414526D01*
X133590477Y-92419093D01*
X134200001Y-92419093D01*
X134222962Y-92414526D01*
X134255434Y-92382054D01*
X134255434Y-92336132D01*
X134222962Y-92303660D01*
X134200001Y-92299093D01*
X133590477Y-92299093D01*
X133567516Y-92303660D01*
X133535044Y-92336132D01*
X133269525Y-92336132D01*
X133269525Y-92130521D01*
X134482857Y-92130521D01*
X134482857Y-92397188D01*
X134484291Y-92404399D01*
X134484649Y-92411740D01*
X134522745Y-92564121D01*
X134525520Y-92569995D01*
X134525520Y-92572530D01*
X134529604Y-92578643D01*
X134532744Y-92585289D01*
X134534915Y-92586592D01*
X134538526Y-92591995D01*
X134614717Y-92668186D01*
X134622704Y-92673523D01*
X134630310Y-92679426D01*
X134706502Y-92717521D01*
X134709399Y-92718314D01*
X134710373Y-92719288D01*
X134719807Y-92721164D01*
X134729081Y-92723704D01*
X134730386Y-92723268D01*
X134733334Y-92723855D01*
X134885715Y-92723855D01*
X134888662Y-92723268D01*
X134889968Y-92723704D01*
X134899243Y-92721164D01*
X134908676Y-92719288D01*
X134909649Y-92718314D01*
X134912548Y-92717521D01*
X134988738Y-92679426D01*
X134996339Y-92673525D01*
X135004331Y-92668186D01*
X135080522Y-92591996D01*
X135084132Y-92586592D01*
X135086305Y-92585289D01*
X135089445Y-92578641D01*
X135093529Y-92572530D01*
X135093529Y-92569997D01*
X135096305Y-92564121D01*
X135134400Y-92411740D01*
X135134757Y-92404395D01*
X135136191Y-92397188D01*
X135136191Y-92130521D01*
X135134757Y-92123313D01*
X135134400Y-92115969D01*
X135096305Y-91963588D01*
X135093529Y-91957711D01*
X135093529Y-91955179D01*
X135089445Y-91949068D01*
X135086305Y-91942420D01*
X135084131Y-91941116D01*
X135080522Y-91935714D01*
X135008663Y-91863855D01*
X135359048Y-91863855D01*
X135359048Y-92663855D01*
X135363615Y-92686816D01*
X135396087Y-92719288D01*
X135442009Y-92719288D01*
X135474481Y-92686816D01*
X135479048Y-92663855D01*
X135479048Y-92304807D01*
X135816191Y-92304807D01*
X135816191Y-92663855D01*
X135820758Y-92686816D01*
X135853230Y-92719288D01*
X135899152Y-92719288D01*
X135931624Y-92686816D01*
X135936191Y-92663855D01*
X135936191Y-91863855D01*
X136197143Y-91863855D01*
X136197143Y-92663855D01*
X136201710Y-92686815D01*
X136201710Y-92686816D01*
X136234182Y-92719288D01*
X136257143Y-92723855D01*
X136638095Y-92723855D01*
X136661056Y-92719288D01*
X136693528Y-92686816D01*
X136693528Y-92640894D01*
X136661056Y-92608422D01*
X136638095Y-92603855D01*
X136317143Y-92603855D01*
X136317143Y-92336132D01*
X136849329Y-92336132D01*
X136849329Y-92382054D01*
X136881801Y-92414526D01*
X136904762Y-92419093D01*
X137514286Y-92419093D01*
X137537247Y-92414526D01*
X137569719Y-92382054D01*
X137569719Y-92336132D01*
X137537247Y-92303660D01*
X137514286Y-92299093D01*
X136904762Y-92299093D01*
X136881801Y-92303660D01*
X136849329Y-92336132D01*
X136317143Y-92336132D01*
X136317143Y-92016236D01*
X137797142Y-92016236D01*
X137797142Y-92092426D01*
X137797728Y-92095373D01*
X137797293Y-92096680D01*
X137799832Y-92105950D01*
X137801709Y-92115387D01*
X137802683Y-92116361D01*
X137803477Y-92119259D01*
X137841572Y-92195450D01*
X137847472Y-92203051D01*
X137852812Y-92211043D01*
X137890906Y-92249138D01*
X137898904Y-92254482D01*
X137906500Y-92260378D01*
X137982690Y-92298473D01*
X137989028Y-92300208D01*
X137994971Y-92303016D01*
X138140965Y-92339514D01*
X138202553Y-92370308D01*
X138226877Y-92394633D01*
X138254285Y-92449448D01*
X138254285Y-92497309D01*
X138226877Y-92552123D01*
X138202552Y-92576448D01*
X138147739Y-92603855D01*
X137981165Y-92603855D01*
X137876116Y-92568839D01*
X137852889Y-92565911D01*
X137811814Y-92586448D01*
X137797293Y-92630013D01*
X137817830Y-92671088D01*
X137838168Y-92682681D01*
X137952455Y-92720776D01*
X137961993Y-92721978D01*
X137971428Y-92723855D01*
X138161904Y-92723855D01*
X138164851Y-92723268D01*
X138166157Y-92723704D01*
X138175432Y-92721164D01*
X138184865Y-92719288D01*
X138185838Y-92718314D01*
X138188737Y-92717521D01*
X138264928Y-92679426D01*
X138272527Y-92673528D01*
X138280522Y-92668186D01*
X138307813Y-92640894D01*
X139515995Y-92640894D01*
X139515995Y-92686816D01*
X139548467Y-92719288D01*
X139571428Y-92723855D01*
X140066666Y-92723855D01*
X140089627Y-92719288D01*
X140122099Y-92686816D01*
X140122099Y-92640894D01*
X140089627Y-92608422D01*
X140066666Y-92603855D01*
X139716280Y-92603855D01*
X139717336Y-92602799D01*
X140315995Y-92602799D01*
X140315995Y-92602800D01*
X140315995Y-92648722D01*
X140329002Y-92668187D01*
X140367098Y-92706282D01*
X140386563Y-92719288D01*
X140432485Y-92719288D01*
X140432486Y-92719288D01*
X140432488Y-92719285D01*
X140451950Y-92706281D01*
X140490045Y-92668187D01*
X140503052Y-92648722D01*
X140503052Y-92602799D01*
X140490046Y-92583334D01*
X140451951Y-92545238D01*
X140432486Y-92532231D01*
X140432485Y-92532231D01*
X140386563Y-92532231D01*
X140367098Y-92545238D01*
X140329002Y-92583334D01*
X140315995Y-92602799D01*
X139717336Y-92602799D01*
X140070998Y-92249138D01*
X140072667Y-92246639D01*
X140073899Y-92246024D01*
X140078662Y-92237666D01*
X140084004Y-92229673D01*
X140084004Y-92228296D01*
X140085492Y-92225686D01*
X140104515Y-92168617D01*
X140692380Y-92168617D01*
X140692380Y-92359093D01*
X140693814Y-92366304D01*
X140694172Y-92373645D01*
X140732268Y-92526026D01*
X140735073Y-92531965D01*
X140736810Y-92538307D01*
X140774905Y-92614497D01*
X140780802Y-92622095D01*
X140786144Y-92630090D01*
X140824239Y-92668186D01*
X140832233Y-92673528D01*
X140839833Y-92679426D01*
X140916025Y-92717521D01*
X140918922Y-92718314D01*
X140919896Y-92719288D01*
X140929330Y-92721164D01*
X140938604Y-92723704D01*
X140939909Y-92723268D01*
X140942857Y-92723855D01*
X141019047Y-92723855D01*
X141021994Y-92723268D01*
X141023300Y-92723704D01*
X141032575Y-92721164D01*
X141042008Y-92719288D01*
X141042981Y-92718314D01*
X141045880Y-92717521D01*
X141122071Y-92679426D01*
X141129670Y-92673528D01*
X141137665Y-92668186D01*
X141175760Y-92630090D01*
X141181103Y-92622093D01*
X141186999Y-92614497D01*
X141225094Y-92538307D01*
X141226829Y-92531968D01*
X141229637Y-92526026D01*
X141267732Y-92373645D01*
X141268089Y-92366300D01*
X141269523Y-92359093D01*
X141269523Y-92168617D01*
X141268089Y-92161409D01*
X141267732Y-92154065D01*
X141229637Y-92001684D01*
X141226829Y-91995740D01*
X141225094Y-91989404D01*
X141186999Y-91913212D01*
X141181101Y-91905612D01*
X141175759Y-91897618D01*
X141137664Y-91859524D01*
X141129676Y-91854186D01*
X141122071Y-91848284D01*
X141045880Y-91810189D01*
X141042981Y-91809395D01*
X141042008Y-91808422D01*
X141032575Y-91806545D01*
X141023300Y-91804006D01*
X141021994Y-91804441D01*
X141019047Y-91803855D01*
X140942857Y-91803855D01*
X140939909Y-91804441D01*
X140938604Y-91804006D01*
X140929330Y-91806545D01*
X140919896Y-91808422D01*
X140918922Y-91809395D01*
X140916025Y-91810189D01*
X140839833Y-91848284D01*
X140832233Y-91854181D01*
X140824239Y-91859524D01*
X140786145Y-91897619D01*
X140780807Y-91905606D01*
X140774905Y-91913212D01*
X140736810Y-91989403D01*
X140735073Y-91995744D01*
X140732268Y-92001684D01*
X140694172Y-92154065D01*
X140693814Y-92161405D01*
X140692380Y-92168617D01*
X140104515Y-92168617D01*
X140123587Y-92111399D01*
X140124789Y-92101860D01*
X140126666Y-92092426D01*
X140126666Y-92016236D01*
X140126079Y-92013288D01*
X140126515Y-92011983D01*
X140123975Y-92002709D01*
X140122099Y-91993275D01*
X140121125Y-91992301D01*
X140120332Y-91989404D01*
X140082237Y-91913212D01*
X140076339Y-91905612D01*
X140070997Y-91897618D01*
X140032902Y-91859524D01*
X140024914Y-91854186D01*
X140017309Y-91848284D01*
X139941118Y-91810189D01*
X139938219Y-91809395D01*
X139937246Y-91808422D01*
X139927813Y-91806545D01*
X139918538Y-91804006D01*
X139917232Y-91804441D01*
X139914285Y-91803855D01*
X139723809Y-91803855D01*
X139720861Y-91804441D01*
X139719556Y-91804006D01*
X139710280Y-91806545D01*
X139700848Y-91808422D01*
X139699874Y-91809395D01*
X139696976Y-91810189D01*
X139620786Y-91848284D01*
X139613189Y-91854179D01*
X139605193Y-91859523D01*
X139567097Y-91897618D01*
X139554090Y-91917083D01*
X139554090Y-91963005D01*
X139586561Y-91995478D01*
X139632483Y-91995478D01*
X139651949Y-91982472D01*
X139683159Y-91951262D01*
X139737974Y-91923855D01*
X139900120Y-91923855D01*
X139954935Y-91951262D01*
X139979258Y-91975585D01*
X140006666Y-92030400D01*
X140006666Y-92082689D01*
X139976128Y-92174301D01*
X139529002Y-92621429D01*
X139515996Y-92640893D01*
X139515995Y-92640894D01*
X138307813Y-92640894D01*
X138318617Y-92630090D01*
X138323960Y-92622093D01*
X138329856Y-92614497D01*
X138367951Y-92538307D01*
X138368744Y-92535408D01*
X138369718Y-92534435D01*
X138371594Y-92525002D01*
X138374134Y-92515727D01*
X138373698Y-92514421D01*
X138374285Y-92511474D01*
X138374285Y-92435283D01*
X138373698Y-92432335D01*
X138374134Y-92431030D01*
X138371594Y-92421754D01*
X138369718Y-92412322D01*
X138368744Y-92411348D01*
X138367951Y-92408450D01*
X138331792Y-92336132D01*
X138601710Y-92336132D01*
X138601710Y-92382054D01*
X138634182Y-92414526D01*
X138657143Y-92419093D01*
X139266667Y-92419093D01*
X139289628Y-92414526D01*
X139322100Y-92382054D01*
X139322100Y-92336132D01*
X139289628Y-92303660D01*
X139266667Y-92299093D01*
X138657143Y-92299093D01*
X138634182Y-92303660D01*
X138601710Y-92336132D01*
X138331792Y-92336132D01*
X138329856Y-92332260D01*
X138323960Y-92324664D01*
X138318616Y-92316666D01*
X138280521Y-92278572D01*
X138272529Y-92273232D01*
X138264928Y-92267332D01*
X138188737Y-92229237D01*
X138182398Y-92227500D01*
X138176456Y-92224694D01*
X138030465Y-92188195D01*
X137968873Y-92157399D01*
X137944548Y-92133075D01*
X137917142Y-92078262D01*
X137917142Y-92030399D01*
X137944548Y-91975586D01*
X137968873Y-91951262D01*
X138023688Y-91923855D01*
X138190263Y-91923855D01*
X138295311Y-91958871D01*
X138318538Y-91961799D01*
X138359612Y-91941262D01*
X138374134Y-91897697D01*
X138353597Y-91856623D01*
X138333259Y-91845029D01*
X138218974Y-91806934D01*
X138209433Y-91805731D01*
X138200000Y-91803855D01*
X138009523Y-91803855D01*
X138006575Y-91804441D01*
X138005270Y-91804006D01*
X137995994Y-91806545D01*
X137986562Y-91808422D01*
X137985588Y-91809395D01*
X137982690Y-91810189D01*
X137906500Y-91848284D01*
X137898904Y-91854179D01*
X137890906Y-91859524D01*
X137852812Y-91897619D01*
X137847472Y-91905610D01*
X137841572Y-91913212D01*
X137803477Y-91989403D01*
X137802683Y-91992300D01*
X137801709Y-91993275D01*
X137799832Y-92002711D01*
X137797293Y-92011982D01*
X137797728Y-92013288D01*
X137797142Y-92016236D01*
X136317143Y-92016236D01*
X136317143Y-91863855D01*
X136312576Y-91840894D01*
X136280104Y-91808422D01*
X136234182Y-91808422D01*
X136201710Y-91840894D01*
X136197143Y-91863855D01*
X135936191Y-91863855D01*
X135931624Y-91840894D01*
X135899152Y-91808422D01*
X135853230Y-91808422D01*
X135820758Y-91840894D01*
X135816191Y-91863855D01*
X135816191Y-92184807D01*
X135479048Y-92184807D01*
X135479048Y-91863855D01*
X135474481Y-91840894D01*
X135442009Y-91808422D01*
X135396087Y-91808422D01*
X135363615Y-91840894D01*
X135359048Y-91863855D01*
X135008663Y-91863855D01*
X135004331Y-91859523D01*
X134996334Y-91854179D01*
X134988738Y-91848284D01*
X134912548Y-91810189D01*
X134909649Y-91809395D01*
X134908676Y-91808422D01*
X134899243Y-91806545D01*
X134889968Y-91804006D01*
X134888662Y-91804441D01*
X134885715Y-91803855D01*
X134733334Y-91803855D01*
X134730386Y-91804441D01*
X134729081Y-91804006D01*
X134719807Y-91806545D01*
X134710373Y-91808422D01*
X134709399Y-91809395D01*
X134706502Y-91810189D01*
X134630310Y-91848284D01*
X134622704Y-91854186D01*
X134614717Y-91859524D01*
X134538527Y-91935714D01*
X134534917Y-91941116D01*
X134532744Y-91942420D01*
X134529604Y-91949066D01*
X134525520Y-91955179D01*
X134525520Y-91957713D01*
X134522745Y-91963588D01*
X134484649Y-92115969D01*
X134484291Y-92123309D01*
X134482857Y-92130521D01*
X133269525Y-92130521D01*
X133269525Y-91863855D01*
X133264958Y-91840894D01*
X133232486Y-91808422D01*
X133186564Y-91808422D01*
X133154092Y-91840894D01*
X133149525Y-91863855D01*
X133149525Y-92437920D01*
X132804477Y-91834087D01*
X132789119Y-91816417D01*
X132781170Y-91814249D01*
X132775343Y-91808422D01*
X132759804Y-91808422D01*
X132744815Y-91804334D01*
X132737661Y-91808422D01*
X132729421Y-91808422D01*
X132718433Y-91819409D01*
X132704944Y-91827118D01*
X132702776Y-91835066D01*
X132696949Y-91840894D01*
X132692382Y-91863855D01*
X132380091Y-91863855D01*
X132375760Y-91859524D01*
X132367768Y-91854184D01*
X132360167Y-91848284D01*
X132283977Y-91810189D01*
X132281078Y-91809395D01*
X132280105Y-91808422D01*
X132270672Y-91806545D01*
X132261397Y-91804006D01*
X132260091Y-91804441D01*
X132257144Y-91803855D01*
X131952382Y-91803855D01*
X131929421Y-91808422D01*
X131896949Y-91840894D01*
X131892382Y-91863855D01*
X131664957Y-91863855D01*
X131664957Y-91840894D01*
X131632485Y-91808422D01*
X131609524Y-91803855D01*
X131228572Y-91803855D01*
X131205611Y-91808422D01*
X131173139Y-91840894D01*
X131168572Y-91863855D01*
X130894377Y-91863855D01*
X130890045Y-91859523D01*
X130887546Y-91857853D01*
X130886931Y-91856623D01*
X130878575Y-91851860D01*
X130870579Y-91846517D01*
X130869203Y-91846517D01*
X130866593Y-91845029D01*
X130752308Y-91806934D01*
X130742767Y-91805731D01*
X130733334Y-91803855D01*
X130657143Y-91803855D01*
X130647708Y-91805731D01*
X130638170Y-91806934D01*
X130523883Y-91845029D01*
X130521273Y-91846517D01*
X130519896Y-91846517D01*
X130511906Y-91851855D01*
X130503545Y-91856622D01*
X130502928Y-91857855D01*
X130500431Y-91859524D01*
X130424241Y-91935714D01*
X130418903Y-91943701D01*
X130413001Y-91951307D01*
X130374906Y-92027498D01*
X130373169Y-92033839D01*
X130370364Y-92039779D01*
X130332268Y-92192160D01*
X130331910Y-92199500D01*
X130330476Y-92206712D01*
X130241587Y-92206712D01*
X130241587Y-91714966D01*
X141358412Y-91714966D01*
X141358412Y-92812744D01*
G37*
X119636476Y-62777950D02*
X119560286Y-62739855D01*
X119560286Y-62739855D02*
X119446000Y-62739855D01*
X119446000Y-62739855D02*
X119331714Y-62777950D01*
X119331714Y-62777950D02*
X119255524Y-62854140D01*
X119255524Y-62854140D02*
X119217429Y-62930331D01*
X119217429Y-62930331D02*
X119179333Y-63082712D01*
X119179333Y-63082712D02*
X119179333Y-63196998D01*
X119179333Y-63196998D02*
X119217429Y-63349379D01*
X119217429Y-63349379D02*
X119255524Y-63425569D01*
X119255524Y-63425569D02*
X119331714Y-63501760D01*
X119331714Y-63501760D02*
X119446000Y-63539855D01*
X119446000Y-63539855D02*
X119522191Y-63539855D01*
X119522191Y-63539855D02*
X119636476Y-63501760D01*
X119636476Y-63501760D02*
X119674572Y-63463664D01*
X119674572Y-63463664D02*
X119674572Y-63196998D01*
X119674572Y-63196998D02*
X119522191Y-63196998D01*
X120017429Y-63539855D02*
X120017429Y-62739855D01*
X120017429Y-62739855D02*
X120474572Y-63539855D01*
X120474572Y-63539855D02*
X120474572Y-62739855D01*
X120855524Y-63539855D02*
X120855524Y-62739855D01*
X120855524Y-62739855D02*
X121046000Y-62739855D01*
X121046000Y-62739855D02*
X121160286Y-62777950D01*
X121160286Y-62777950D02*
X121236476Y-62854140D01*
X121236476Y-62854140D02*
X121274571Y-62930331D01*
X121274571Y-62930331D02*
X121312667Y-63082712D01*
X121312667Y-63082712D02*
X121312667Y-63196998D01*
X121312667Y-63196998D02*
X121274571Y-63349379D01*
X121274571Y-63349379D02*
X121236476Y-63425569D01*
X121236476Y-63425569D02*
X121160286Y-63501760D01*
X121160286Y-63501760D02*
X121046000Y-63539855D01*
X121046000Y-63539855D02*
X120855524Y-63539855D01*
X157433855Y-95042666D02*
X158005283Y-95042666D01*
X158005283Y-95042666D02*
X158119569Y-95080761D01*
X158119569Y-95080761D02*
X158195760Y-95156952D01*
X158195760Y-95156952D02*
X158233855Y-95271237D01*
X158233855Y-95271237D02*
X158233855Y-95347428D01*
X157433855Y-94318856D02*
X157433855Y-94471237D01*
X157433855Y-94471237D02*
X157471950Y-94547428D01*
X157471950Y-94547428D02*
X157510045Y-94585523D01*
X157510045Y-94585523D02*
X157624331Y-94661713D01*
X157624331Y-94661713D02*
X157776712Y-94699809D01*
X157776712Y-94699809D02*
X158081474Y-94699809D01*
X158081474Y-94699809D02*
X158157664Y-94661713D01*
X158157664Y-94661713D02*
X158195760Y-94623618D01*
X158195760Y-94623618D02*
X158233855Y-94547428D01*
X158233855Y-94547428D02*
X158233855Y-94395047D01*
X158233855Y-94395047D02*
X158195760Y-94318856D01*
X158195760Y-94318856D02*
X158157664Y-94280761D01*
X158157664Y-94280761D02*
X158081474Y-94242666D01*
X158081474Y-94242666D02*
X157890998Y-94242666D01*
X157890998Y-94242666D02*
X157814807Y-94280761D01*
X157814807Y-94280761D02*
X157776712Y-94318856D01*
X157776712Y-94318856D02*
X157738617Y-94395047D01*
X157738617Y-94395047D02*
X157738617Y-94547428D01*
X157738617Y-94547428D02*
X157776712Y-94623618D01*
X157776712Y-94623618D02*
X157814807Y-94661713D01*
X157814807Y-94661713D02*
X157890998Y-94699809D01*
D11*
X137429819Y-82148904D02*
X138239342Y-82148904D01*
X138239342Y-82148904D02*
X138334580Y-82101285D01*
X138334580Y-82101285D02*
X138382200Y-82053666D01*
X138382200Y-82053666D02*
X138429819Y-81958428D01*
X138429819Y-81958428D02*
X138429819Y-81767952D01*
X138429819Y-81767952D02*
X138382200Y-81672714D01*
X138382200Y-81672714D02*
X138334580Y-81625095D01*
X138334580Y-81625095D02*
X138239342Y-81577476D01*
X138239342Y-81577476D02*
X137429819Y-81577476D01*
X137429819Y-80672714D02*
X137429819Y-80863190D01*
X137429819Y-80863190D02*
X137477438Y-80958428D01*
X137477438Y-80958428D02*
X137525057Y-81006047D01*
X137525057Y-81006047D02*
X137667914Y-81101285D01*
X137667914Y-81101285D02*
X137858390Y-81148904D01*
X137858390Y-81148904D02*
X138239342Y-81148904D01*
X138239342Y-81148904D02*
X138334580Y-81101285D01*
X138334580Y-81101285D02*
X138382200Y-81053666D01*
X138382200Y-81053666D02*
X138429819Y-80958428D01*
X138429819Y-80958428D02*
X138429819Y-80767952D01*
X138429819Y-80767952D02*
X138382200Y-80672714D01*
X138382200Y-80672714D02*
X138334580Y-80625095D01*
X138334580Y-80625095D02*
X138239342Y-80577476D01*
X138239342Y-80577476D02*
X138001247Y-80577476D01*
X138001247Y-80577476D02*
X137906009Y-80625095D01*
X137906009Y-80625095D02*
X137858390Y-80672714D01*
X137858390Y-80672714D02*
X137810771Y-80767952D01*
X137810771Y-80767952D02*
X137810771Y-80958428D01*
X137810771Y-80958428D02*
X137858390Y-81053666D01*
X137858390Y-81053666D02*
X137906009Y-81101285D01*
X137906009Y-81101285D02*
X138001247Y-81148904D01*
D10*
X121659285Y-83253807D02*
X121773571Y-83291902D01*
X121773571Y-83291902D02*
X121811666Y-83329998D01*
X121811666Y-83329998D02*
X121849762Y-83406188D01*
X121849762Y-83406188D02*
X121849762Y-83520474D01*
X121849762Y-83520474D02*
X121811666Y-83596664D01*
X121811666Y-83596664D02*
X121773571Y-83634760D01*
X121773571Y-83634760D02*
X121697381Y-83672855D01*
X121697381Y-83672855D02*
X121392619Y-83672855D01*
X121392619Y-83672855D02*
X121392619Y-82872855D01*
X121392619Y-82872855D02*
X121659285Y-82872855D01*
X121659285Y-82872855D02*
X121735476Y-82910950D01*
X121735476Y-82910950D02*
X121773571Y-82949045D01*
X121773571Y-82949045D02*
X121811666Y-83025236D01*
X121811666Y-83025236D02*
X121811666Y-83101426D01*
X121811666Y-83101426D02*
X121773571Y-83177617D01*
X121773571Y-83177617D02*
X121735476Y-83215712D01*
X121735476Y-83215712D02*
X121659285Y-83253807D01*
X121659285Y-83253807D02*
X121392619Y-83253807D01*
X122345000Y-82872855D02*
X122497381Y-82872855D01*
X122497381Y-82872855D02*
X122573571Y-82910950D01*
X122573571Y-82910950D02*
X122649762Y-82987140D01*
X122649762Y-82987140D02*
X122687857Y-83139521D01*
X122687857Y-83139521D02*
X122687857Y-83406188D01*
X122687857Y-83406188D02*
X122649762Y-83558569D01*
X122649762Y-83558569D02*
X122573571Y-83634760D01*
X122573571Y-83634760D02*
X122497381Y-83672855D01*
X122497381Y-83672855D02*
X122345000Y-83672855D01*
X122345000Y-83672855D02*
X122268809Y-83634760D01*
X122268809Y-83634760D02*
X122192619Y-83558569D01*
X122192619Y-83558569D02*
X122154523Y-83406188D01*
X122154523Y-83406188D02*
X122154523Y-83139521D01*
X122154523Y-83139521D02*
X122192619Y-82987140D01*
X122192619Y-82987140D02*
X122268809Y-82910950D01*
X122268809Y-82910950D02*
X122345000Y-82872855D01*
X123183095Y-82872855D02*
X123335476Y-82872855D01*
X123335476Y-82872855D02*
X123411666Y-82910950D01*
X123411666Y-82910950D02*
X123487857Y-82987140D01*
X123487857Y-82987140D02*
X123525952Y-83139521D01*
X123525952Y-83139521D02*
X123525952Y-83406188D01*
X123525952Y-83406188D02*
X123487857Y-83558569D01*
X123487857Y-83558569D02*
X123411666Y-83634760D01*
X123411666Y-83634760D02*
X123335476Y-83672855D01*
X123335476Y-83672855D02*
X123183095Y-83672855D01*
X123183095Y-83672855D02*
X123106904Y-83634760D01*
X123106904Y-83634760D02*
X123030714Y-83558569D01*
X123030714Y-83558569D02*
X122992618Y-83406188D01*
X122992618Y-83406188D02*
X122992618Y-83139521D01*
X122992618Y-83139521D02*
X123030714Y-82987140D01*
X123030714Y-82987140D02*
X123106904Y-82910950D01*
X123106904Y-82910950D02*
X123183095Y-82872855D01*
X123754523Y-82872855D02*
X124211666Y-82872855D01*
X123983094Y-83672855D02*
X123983094Y-82872855D01*
X114209524Y-88563855D02*
X113942857Y-88182902D01*
X113752381Y-88563855D02*
X113752381Y-87763855D01*
X113752381Y-87763855D02*
X114057143Y-87763855D01*
X114057143Y-87763855D02*
X114133333Y-87801950D01*
X114133333Y-87801950D02*
X114171428Y-87840045D01*
X114171428Y-87840045D02*
X114209524Y-87916236D01*
X114209524Y-87916236D02*
X114209524Y-88030521D01*
X114209524Y-88030521D02*
X114171428Y-88106712D01*
X114171428Y-88106712D02*
X114133333Y-88144807D01*
X114133333Y-88144807D02*
X114057143Y-88182902D01*
X114057143Y-88182902D02*
X113752381Y-88182902D01*
X114857143Y-88525760D02*
X114780952Y-88563855D01*
X114780952Y-88563855D02*
X114628571Y-88563855D01*
X114628571Y-88563855D02*
X114552381Y-88525760D01*
X114552381Y-88525760D02*
X114514285Y-88449569D01*
X114514285Y-88449569D02*
X114514285Y-88144807D01*
X114514285Y-88144807D02*
X114552381Y-88068617D01*
X114552381Y-88068617D02*
X114628571Y-88030521D01*
X114628571Y-88030521D02*
X114780952Y-88030521D01*
X114780952Y-88030521D02*
X114857143Y-88068617D01*
X114857143Y-88068617D02*
X114895238Y-88144807D01*
X114895238Y-88144807D02*
X114895238Y-88220998D01*
X114895238Y-88220998D02*
X114514285Y-88297188D01*
X115199999Y-88525760D02*
X115276190Y-88563855D01*
X115276190Y-88563855D02*
X115428571Y-88563855D01*
X115428571Y-88563855D02*
X115504761Y-88525760D01*
X115504761Y-88525760D02*
X115542857Y-88449569D01*
X115542857Y-88449569D02*
X115542857Y-88411474D01*
X115542857Y-88411474D02*
X115504761Y-88335283D01*
X115504761Y-88335283D02*
X115428571Y-88297188D01*
X115428571Y-88297188D02*
X115314285Y-88297188D01*
X115314285Y-88297188D02*
X115238095Y-88259093D01*
X115238095Y-88259093D02*
X115199999Y-88182902D01*
X115199999Y-88182902D02*
X115199999Y-88144807D01*
X115199999Y-88144807D02*
X115238095Y-88068617D01*
X115238095Y-88068617D02*
X115314285Y-88030521D01*
X115314285Y-88030521D02*
X115428571Y-88030521D01*
X115428571Y-88030521D02*
X115504761Y-88068617D01*
X116190476Y-88525760D02*
X116114285Y-88563855D01*
X116114285Y-88563855D02*
X115961904Y-88563855D01*
X115961904Y-88563855D02*
X115885714Y-88525760D01*
X115885714Y-88525760D02*
X115847618Y-88449569D01*
X115847618Y-88449569D02*
X115847618Y-88144807D01*
X115847618Y-88144807D02*
X115885714Y-88068617D01*
X115885714Y-88068617D02*
X115961904Y-88030521D01*
X115961904Y-88030521D02*
X116114285Y-88030521D01*
X116114285Y-88030521D02*
X116190476Y-88068617D01*
X116190476Y-88068617D02*
X116228571Y-88144807D01*
X116228571Y-88144807D02*
X116228571Y-88220998D01*
X116228571Y-88220998D02*
X115847618Y-88297188D01*
X116457142Y-88030521D02*
X116761904Y-88030521D01*
X116571428Y-87763855D02*
X116571428Y-88449569D01*
X116571428Y-88449569D02*
X116609523Y-88525760D01*
X116609523Y-88525760D02*
X116685713Y-88563855D01*
X116685713Y-88563855D02*
X116761904Y-88563855D01*
D12*
X131705935Y-54193333D02*
X132277363Y-54193333D01*
X132277363Y-54193333D02*
X132391649Y-54240952D01*
X132391649Y-54240952D02*
X132467840Y-54336190D01*
X132467840Y-54336190D02*
X132505935Y-54479047D01*
X132505935Y-54479047D02*
X132505935Y-54574285D01*
X131972601Y-53288571D02*
X132505935Y-53288571D01*
X131667840Y-53526666D02*
X132239268Y-53764761D01*
X132239268Y-53764761D02*
X132239268Y-53145714D01*
D10*
X161676523Y-72498855D02*
X162171761Y-72498855D01*
X162171761Y-72498855D02*
X161905095Y-72803617D01*
X161905095Y-72803617D02*
X162019380Y-72803617D01*
X162019380Y-72803617D02*
X162095571Y-72841712D01*
X162095571Y-72841712D02*
X162133666Y-72879807D01*
X162133666Y-72879807D02*
X162171761Y-72955998D01*
X162171761Y-72955998D02*
X162171761Y-73146474D01*
X162171761Y-73146474D02*
X162133666Y-73222664D01*
X162133666Y-73222664D02*
X162095571Y-73260760D01*
X162095571Y-73260760D02*
X162019380Y-73298855D01*
X162019380Y-73298855D02*
X161790809Y-73298855D01*
X161790809Y-73298855D02*
X161714618Y-73260760D01*
X161714618Y-73260760D02*
X161676523Y-73222664D01*
X162400333Y-72498855D02*
X162667000Y-73298855D01*
X162667000Y-73298855D02*
X162933666Y-72498855D01*
X163124142Y-72498855D02*
X163619380Y-72498855D01*
X163619380Y-72498855D02*
X163352714Y-72803617D01*
X163352714Y-72803617D02*
X163466999Y-72803617D01*
X163466999Y-72803617D02*
X163543190Y-72841712D01*
X163543190Y-72841712D02*
X163581285Y-72879807D01*
X163581285Y-72879807D02*
X163619380Y-72955998D01*
X163619380Y-72955998D02*
X163619380Y-73146474D01*
X163619380Y-73146474D02*
X163581285Y-73222664D01*
X163581285Y-73222664D02*
X163543190Y-73260760D01*
X163543190Y-73260760D02*
X163466999Y-73298855D01*
X163466999Y-73298855D02*
X163238428Y-73298855D01*
X163238428Y-73298855D02*
X163162237Y-73260760D01*
X163162237Y-73260760D02*
X163124142Y-73222664D01*
X143071761Y-108228855D02*
X142614618Y-108228855D01*
X142843190Y-108228855D02*
X142843190Y-107428855D01*
X142843190Y-107428855D02*
X142766999Y-107543140D01*
X142766999Y-107543140D02*
X142690809Y-107619331D01*
X142690809Y-107619331D02*
X142614618Y-107657426D01*
X143757476Y-107695521D02*
X143757476Y-108228855D01*
X143567000Y-107390760D02*
X143376523Y-107962188D01*
X143376523Y-107962188D02*
X143871762Y-107962188D01*
X144062238Y-107428855D02*
X144328905Y-108228855D01*
X144328905Y-108228855D02*
X144595571Y-107428855D01*
D11*
X129779818Y-79623857D02*
X129303627Y-79957190D01*
X129779818Y-80195285D02*
X128779818Y-80195285D01*
X128779818Y-80195285D02*
X128779818Y-79814333D01*
X128779818Y-79814333D02*
X128827437Y-79719095D01*
X128827437Y-79719095D02*
X128875056Y-79671476D01*
X128875056Y-79671476D02*
X128970294Y-79623857D01*
X128970294Y-79623857D02*
X129113151Y-79623857D01*
X129113151Y-79623857D02*
X129208389Y-79671476D01*
X129208389Y-79671476D02*
X129256008Y-79719095D01*
X129256008Y-79719095D02*
X129303627Y-79814333D01*
X129303627Y-79814333D02*
X129303627Y-80195285D01*
X128779818Y-79290523D02*
X128779818Y-78623857D01*
X128779818Y-78623857D02*
X129779818Y-79052428D01*
X129113151Y-77814333D02*
X129779818Y-77814333D01*
X128732199Y-78052428D02*
X129446484Y-78290523D01*
X129446484Y-78290523D02*
X129446484Y-77671476D01*
D10*
X137947619Y-114392855D02*
X137947619Y-113592855D01*
X137947619Y-113592855D02*
X138214285Y-114164283D01*
X138214285Y-114164283D02*
X138480952Y-113592855D01*
X138480952Y-113592855D02*
X138480952Y-114392855D01*
X138861905Y-113592855D02*
X138861905Y-114240474D01*
X138861905Y-114240474D02*
X138900000Y-114316664D01*
X138900000Y-114316664D02*
X138938095Y-114354760D01*
X138938095Y-114354760D02*
X139014286Y-114392855D01*
X139014286Y-114392855D02*
X139166667Y-114392855D01*
X139166667Y-114392855D02*
X139242857Y-114354760D01*
X139242857Y-114354760D02*
X139280952Y-114316664D01*
X139280952Y-114316664D02*
X139319048Y-114240474D01*
X139319048Y-114240474D02*
X139319048Y-113592855D01*
X139585714Y-113592855D02*
X140042857Y-113592855D01*
X139814285Y-114392855D02*
X139814285Y-113592855D01*
X140309524Y-113973807D02*
X140576190Y-113973807D01*
X140690476Y-114392855D02*
X140309524Y-114392855D01*
X140309524Y-114392855D02*
X140309524Y-113592855D01*
X140309524Y-113592855D02*
X140690476Y-113592855D01*
X144871761Y-70298855D02*
X144414618Y-70298855D01*
X144643190Y-70298855D02*
X144643190Y-69498855D01*
X144643190Y-69498855D02*
X144566999Y-69613140D01*
X144566999Y-69613140D02*
X144490809Y-69689331D01*
X144490809Y-69689331D02*
X144414618Y-69727426D01*
X145100333Y-69498855D02*
X145367000Y-70298855D01*
X145367000Y-70298855D02*
X145633666Y-69498855D01*
X146014618Y-69841712D02*
X145938428Y-69803617D01*
X145938428Y-69803617D02*
X145900333Y-69765521D01*
X145900333Y-69765521D02*
X145862237Y-69689331D01*
X145862237Y-69689331D02*
X145862237Y-69651236D01*
X145862237Y-69651236D02*
X145900333Y-69575045D01*
X145900333Y-69575045D02*
X145938428Y-69536950D01*
X145938428Y-69536950D02*
X146014618Y-69498855D01*
X146014618Y-69498855D02*
X146166999Y-69498855D01*
X146166999Y-69498855D02*
X146243190Y-69536950D01*
X146243190Y-69536950D02*
X146281285Y-69575045D01*
X146281285Y-69575045D02*
X146319380Y-69651236D01*
X146319380Y-69651236D02*
X146319380Y-69689331D01*
X146319380Y-69689331D02*
X146281285Y-69765521D01*
X146281285Y-69765521D02*
X146243190Y-69803617D01*
X146243190Y-69803617D02*
X146166999Y-69841712D01*
X146166999Y-69841712D02*
X146014618Y-69841712D01*
X146014618Y-69841712D02*
X145938428Y-69879807D01*
X145938428Y-69879807D02*
X145900333Y-69917902D01*
X145900333Y-69917902D02*
X145862237Y-69994093D01*
X145862237Y-69994093D02*
X145862237Y-70146474D01*
X145862237Y-70146474D02*
X145900333Y-70222664D01*
X145900333Y-70222664D02*
X145938428Y-70260760D01*
X145938428Y-70260760D02*
X146014618Y-70298855D01*
X146014618Y-70298855D02*
X146166999Y-70298855D01*
X146166999Y-70298855D02*
X146243190Y-70260760D01*
X146243190Y-70260760D02*
X146281285Y-70222664D01*
X146281285Y-70222664D02*
X146319380Y-70146474D01*
X146319380Y-70146474D02*
X146319380Y-69994093D01*
X146319380Y-69994093D02*
X146281285Y-69917902D01*
X146281285Y-69917902D02*
X146243190Y-69879807D01*
X146243190Y-69879807D02*
X146166999Y-69841712D01*
D11*
X154057142Y-89974819D02*
X153723809Y-89498628D01*
X153485714Y-89974819D02*
X153485714Y-88974819D01*
X153485714Y-88974819D02*
X153866666Y-88974819D01*
X153866666Y-88974819D02*
X153961904Y-89022438D01*
X153961904Y-89022438D02*
X154009523Y-89070057D01*
X154009523Y-89070057D02*
X154057142Y-89165295D01*
X154057142Y-89165295D02*
X154057142Y-89308152D01*
X154057142Y-89308152D02*
X154009523Y-89403390D01*
X154009523Y-89403390D02*
X153961904Y-89451009D01*
X153961904Y-89451009D02*
X153866666Y-89498628D01*
X153866666Y-89498628D02*
X153485714Y-89498628D01*
X154628571Y-89403390D02*
X154533333Y-89355771D01*
X154533333Y-89355771D02*
X154485714Y-89308152D01*
X154485714Y-89308152D02*
X154438095Y-89212914D01*
X154438095Y-89212914D02*
X154438095Y-89165295D01*
X154438095Y-89165295D02*
X154485714Y-89070057D01*
X154485714Y-89070057D02*
X154533333Y-89022438D01*
X154533333Y-89022438D02*
X154628571Y-88974819D01*
X154628571Y-88974819D02*
X154819047Y-88974819D01*
X154819047Y-88974819D02*
X154914285Y-89022438D01*
X154914285Y-89022438D02*
X154961904Y-89070057D01*
X154961904Y-89070057D02*
X155009523Y-89165295D01*
X155009523Y-89165295D02*
X155009523Y-89212914D01*
X155009523Y-89212914D02*
X154961904Y-89308152D01*
X154961904Y-89308152D02*
X154914285Y-89355771D01*
X154914285Y-89355771D02*
X154819047Y-89403390D01*
X154819047Y-89403390D02*
X154628571Y-89403390D01*
X154628571Y-89403390D02*
X154533333Y-89451009D01*
X154533333Y-89451009D02*
X154485714Y-89498628D01*
X154485714Y-89498628D02*
X154438095Y-89593866D01*
X154438095Y-89593866D02*
X154438095Y-89784342D01*
X154438095Y-89784342D02*
X154485714Y-89879580D01*
X154485714Y-89879580D02*
X154533333Y-89927200D01*
X154533333Y-89927200D02*
X154628571Y-89974819D01*
X154628571Y-89974819D02*
X154819047Y-89974819D01*
X154819047Y-89974819D02*
X154914285Y-89927200D01*
X154914285Y-89927200D02*
X154961904Y-89879580D01*
X154961904Y-89879580D02*
X155009523Y-89784342D01*
X155009523Y-89784342D02*
X155009523Y-89593866D01*
X155009523Y-89593866D02*
X154961904Y-89498628D01*
X154961904Y-89498628D02*
X154914285Y-89451009D01*
X154914285Y-89451009D02*
X154819047Y-89403390D01*
X155628571Y-88974819D02*
X155723809Y-88974819D01*
X155723809Y-88974819D02*
X155819047Y-89022438D01*
X155819047Y-89022438D02*
X155866666Y-89070057D01*
X155866666Y-89070057D02*
X155914285Y-89165295D01*
X155914285Y-89165295D02*
X155961904Y-89355771D01*
X155961904Y-89355771D02*
X155961904Y-89593866D01*
X155961904Y-89593866D02*
X155914285Y-89784342D01*
X155914285Y-89784342D02*
X155866666Y-89879580D01*
X155866666Y-89879580D02*
X155819047Y-89927200D01*
X155819047Y-89927200D02*
X155723809Y-89974819D01*
X155723809Y-89974819D02*
X155628571Y-89974819D01*
X155628571Y-89974819D02*
X155533333Y-89927200D01*
X155533333Y-89927200D02*
X155485714Y-89879580D01*
X155485714Y-89879580D02*
X155438095Y-89784342D01*
X155438095Y-89784342D02*
X155390476Y-89593866D01*
X155390476Y-89593866D02*
X155390476Y-89355771D01*
X155390476Y-89355771D02*
X155438095Y-89165295D01*
X155438095Y-89165295D02*
X155485714Y-89070057D01*
X155485714Y-89070057D02*
X155533333Y-89022438D01*
X155533333Y-89022438D02*
X155628571Y-88974819D01*
D10*
X117834285Y-88144807D02*
X117948571Y-88182902D01*
X117948571Y-88182902D02*
X117986666Y-88220998D01*
X117986666Y-88220998D02*
X118024762Y-88297188D01*
X118024762Y-88297188D02*
X118024762Y-88411474D01*
X118024762Y-88411474D02*
X117986666Y-88487664D01*
X117986666Y-88487664D02*
X117948571Y-88525760D01*
X117948571Y-88525760D02*
X117872381Y-88563855D01*
X117872381Y-88563855D02*
X117567619Y-88563855D01*
X117567619Y-88563855D02*
X117567619Y-87763855D01*
X117567619Y-87763855D02*
X117834285Y-87763855D01*
X117834285Y-87763855D02*
X117910476Y-87801950D01*
X117910476Y-87801950D02*
X117948571Y-87840045D01*
X117948571Y-87840045D02*
X117986666Y-87916236D01*
X117986666Y-87916236D02*
X117986666Y-87992426D01*
X117986666Y-87992426D02*
X117948571Y-88068617D01*
X117948571Y-88068617D02*
X117910476Y-88106712D01*
X117910476Y-88106712D02*
X117834285Y-88144807D01*
X117834285Y-88144807D02*
X117567619Y-88144807D01*
X118520000Y-87763855D02*
X118672381Y-87763855D01*
X118672381Y-87763855D02*
X118748571Y-87801950D01*
X118748571Y-87801950D02*
X118824762Y-87878140D01*
X118824762Y-87878140D02*
X118862857Y-88030521D01*
X118862857Y-88030521D02*
X118862857Y-88297188D01*
X118862857Y-88297188D02*
X118824762Y-88449569D01*
X118824762Y-88449569D02*
X118748571Y-88525760D01*
X118748571Y-88525760D02*
X118672381Y-88563855D01*
X118672381Y-88563855D02*
X118520000Y-88563855D01*
X118520000Y-88563855D02*
X118443809Y-88525760D01*
X118443809Y-88525760D02*
X118367619Y-88449569D01*
X118367619Y-88449569D02*
X118329523Y-88297188D01*
X118329523Y-88297188D02*
X118329523Y-88030521D01*
X118329523Y-88030521D02*
X118367619Y-87878140D01*
X118367619Y-87878140D02*
X118443809Y-87801950D01*
X118443809Y-87801950D02*
X118520000Y-87763855D01*
X119358095Y-87763855D02*
X119510476Y-87763855D01*
X119510476Y-87763855D02*
X119586666Y-87801950D01*
X119586666Y-87801950D02*
X119662857Y-87878140D01*
X119662857Y-87878140D02*
X119700952Y-88030521D01*
X119700952Y-88030521D02*
X119700952Y-88297188D01*
X119700952Y-88297188D02*
X119662857Y-88449569D01*
X119662857Y-88449569D02*
X119586666Y-88525760D01*
X119586666Y-88525760D02*
X119510476Y-88563855D01*
X119510476Y-88563855D02*
X119358095Y-88563855D01*
X119358095Y-88563855D02*
X119281904Y-88525760D01*
X119281904Y-88525760D02*
X119205714Y-88449569D01*
X119205714Y-88449569D02*
X119167618Y-88297188D01*
X119167618Y-88297188D02*
X119167618Y-88030521D01*
X119167618Y-88030521D02*
X119205714Y-87878140D01*
X119205714Y-87878140D02*
X119281904Y-87801950D01*
X119281904Y-87801950D02*
X119358095Y-87763855D01*
X119929523Y-87763855D02*
X120386666Y-87763855D01*
X120158094Y-88563855D02*
X120158094Y-87763855D01*
D12*
X170240922Y-89962080D02*
X170240922Y-90343032D01*
X170240922Y-90343032D02*
X169440922Y-90343032D01*
X169821874Y-89695413D02*
X169821874Y-89428747D01*
X170240922Y-89314461D02*
X170240922Y-89695413D01*
X170240922Y-89695413D02*
X169440922Y-89695413D01*
X169440922Y-89695413D02*
X169440922Y-89314461D01*
X170240922Y-88971603D02*
X169440922Y-88971603D01*
X169440922Y-88971603D02*
X169440922Y-88781127D01*
X169440922Y-88781127D02*
X169479017Y-88666841D01*
X169479017Y-88666841D02*
X169555207Y-88590651D01*
X169555207Y-88590651D02*
X169631398Y-88552556D01*
X169631398Y-88552556D02*
X169783779Y-88514460D01*
X169783779Y-88514460D02*
X169898065Y-88514460D01*
X169898065Y-88514460D02*
X170050446Y-88552556D01*
X170050446Y-88552556D02*
X170126636Y-88590651D01*
X170126636Y-88590651D02*
X170202827Y-88666841D01*
X170202827Y-88666841D02*
X170240922Y-88781127D01*
X170240922Y-88781127D02*
X170240922Y-88971603D01*
X169440922Y-87828746D02*
X169440922Y-87981127D01*
X169440922Y-87981127D02*
X169479017Y-88057318D01*
X169479017Y-88057318D02*
X169517112Y-88095413D01*
X169517112Y-88095413D02*
X169631398Y-88171603D01*
X169631398Y-88171603D02*
X169783779Y-88209699D01*
X169783779Y-88209699D02*
X170088541Y-88209699D01*
X170088541Y-88209699D02*
X170164731Y-88171603D01*
X170164731Y-88171603D02*
X170202827Y-88133508D01*
X170202827Y-88133508D02*
X170240922Y-88057318D01*
X170240922Y-88057318D02*
X170240922Y-87904937D01*
X170240922Y-87904937D02*
X170202827Y-87828746D01*
X170202827Y-87828746D02*
X170164731Y-87790651D01*
X170164731Y-87790651D02*
X170088541Y-87752556D01*
X170088541Y-87752556D02*
X169898065Y-87752556D01*
X169898065Y-87752556D02*
X169821874Y-87790651D01*
X169821874Y-87790651D02*
X169783779Y-87828746D01*
X169783779Y-87828746D02*
X169745684Y-87904937D01*
X169745684Y-87904937D02*
X169745684Y-88057318D01*
X169745684Y-88057318D02*
X169783779Y-88133508D01*
X169783779Y-88133508D02*
X169821874Y-88171603D01*
X169821874Y-88171603D02*
X169898065Y-88209699D01*
D11*
X156904761Y-86550057D02*
X156809523Y-86502438D01*
X156809523Y-86502438D02*
X156714285Y-86407200D01*
X156714285Y-86407200D02*
X156571428Y-86264342D01*
X156571428Y-86264342D02*
X156476190Y-86216723D01*
X156476190Y-86216723D02*
X156380952Y-86216723D01*
X156428571Y-86454819D02*
X156333333Y-86407200D01*
X156333333Y-86407200D02*
X156238095Y-86311961D01*
X156238095Y-86311961D02*
X156190476Y-86121485D01*
X156190476Y-86121485D02*
X156190476Y-85788152D01*
X156190476Y-85788152D02*
X156238095Y-85597676D01*
X156238095Y-85597676D02*
X156333333Y-85502438D01*
X156333333Y-85502438D02*
X156428571Y-85454819D01*
X156428571Y-85454819D02*
X156619047Y-85454819D01*
X156619047Y-85454819D02*
X156714285Y-85502438D01*
X156714285Y-85502438D02*
X156809523Y-85597676D01*
X156809523Y-85597676D02*
X156857142Y-85788152D01*
X156857142Y-85788152D02*
X156857142Y-86121485D01*
X156857142Y-86121485D02*
X156809523Y-86311961D01*
X156809523Y-86311961D02*
X156714285Y-86407200D01*
X156714285Y-86407200D02*
X156619047Y-86454819D01*
X156619047Y-86454819D02*
X156428571Y-86454819D01*
X157714285Y-85788152D02*
X157714285Y-86454819D01*
X157476190Y-85407200D02*
X157238095Y-86121485D01*
X157238095Y-86121485D02*
X157857142Y-86121485D01*
D10*
X127133332Y-81163855D02*
X127399999Y-81963855D01*
X127399999Y-81963855D02*
X127666665Y-81163855D01*
X127933332Y-81963855D02*
X127933332Y-81163855D01*
X127933332Y-81163855D02*
X128123808Y-81163855D01*
X128123808Y-81163855D02*
X128238094Y-81201950D01*
X128238094Y-81201950D02*
X128314284Y-81278140D01*
X128314284Y-81278140D02*
X128352379Y-81354331D01*
X128352379Y-81354331D02*
X128390475Y-81506712D01*
X128390475Y-81506712D02*
X128390475Y-81620998D01*
X128390475Y-81620998D02*
X128352379Y-81773379D01*
X128352379Y-81773379D02*
X128314284Y-81849569D01*
X128314284Y-81849569D02*
X128238094Y-81925760D01*
X128238094Y-81925760D02*
X128123808Y-81963855D01*
X128123808Y-81963855D02*
X127933332Y-81963855D01*
X128733332Y-81963855D02*
X128733332Y-81163855D01*
X128733332Y-81163855D02*
X128923808Y-81163855D01*
X128923808Y-81163855D02*
X129038094Y-81201950D01*
X129038094Y-81201950D02*
X129114284Y-81278140D01*
X129114284Y-81278140D02*
X129152379Y-81354331D01*
X129152379Y-81354331D02*
X129190475Y-81506712D01*
X129190475Y-81506712D02*
X129190475Y-81620998D01*
X129190475Y-81620998D02*
X129152379Y-81773379D01*
X129152379Y-81773379D02*
X129114284Y-81849569D01*
X129114284Y-81849569D02*
X129038094Y-81925760D01*
X129038094Y-81925760D02*
X128923808Y-81963855D01*
X128923808Y-81963855D02*
X128733332Y-81963855D01*
X106076523Y-92598855D02*
X106571761Y-92598855D01*
X106571761Y-92598855D02*
X106305095Y-92903617D01*
X106305095Y-92903617D02*
X106419380Y-92903617D01*
X106419380Y-92903617D02*
X106495571Y-92941712D01*
X106495571Y-92941712D02*
X106533666Y-92979807D01*
X106533666Y-92979807D02*
X106571761Y-93055998D01*
X106571761Y-93055998D02*
X106571761Y-93246474D01*
X106571761Y-93246474D02*
X106533666Y-93322664D01*
X106533666Y-93322664D02*
X106495571Y-93360760D01*
X106495571Y-93360760D02*
X106419380Y-93398855D01*
X106419380Y-93398855D02*
X106190809Y-93398855D01*
X106190809Y-93398855D02*
X106114618Y-93360760D01*
X106114618Y-93360760D02*
X106076523Y-93322664D01*
X106800333Y-92598855D02*
X107067000Y-93398855D01*
X107067000Y-93398855D02*
X107333666Y-92598855D01*
X107524142Y-92598855D02*
X108019380Y-92598855D01*
X108019380Y-92598855D02*
X107752714Y-92903617D01*
X107752714Y-92903617D02*
X107866999Y-92903617D01*
X107866999Y-92903617D02*
X107943190Y-92941712D01*
X107943190Y-92941712D02*
X107981285Y-92979807D01*
X107981285Y-92979807D02*
X108019380Y-93055998D01*
X108019380Y-93055998D02*
X108019380Y-93246474D01*
X108019380Y-93246474D02*
X107981285Y-93322664D01*
X107981285Y-93322664D02*
X107943190Y-93360760D01*
X107943190Y-93360760D02*
X107866999Y-93398855D01*
X107866999Y-93398855D02*
X107638428Y-93398855D01*
X107638428Y-93398855D02*
X107562237Y-93360760D01*
X107562237Y-93360760D02*
X107524142Y-93322664D01*
X127277905Y-107857855D02*
X127277905Y-107057855D01*
X127277905Y-107057855D02*
X127582667Y-107057855D01*
X127582667Y-107057855D02*
X127658857Y-107095950D01*
X127658857Y-107095950D02*
X127696952Y-107134045D01*
X127696952Y-107134045D02*
X127735048Y-107210236D01*
X127735048Y-107210236D02*
X127735048Y-107324521D01*
X127735048Y-107324521D02*
X127696952Y-107400712D01*
X127696952Y-107400712D02*
X127658857Y-107438807D01*
X127658857Y-107438807D02*
X127582667Y-107476902D01*
X127582667Y-107476902D02*
X127277905Y-107476902D01*
X128039809Y-107629283D02*
X128420762Y-107629283D01*
X127963619Y-107857855D02*
X128230286Y-107057855D01*
X128230286Y-107057855D02*
X128496952Y-107857855D01*
X128573143Y-107934045D02*
X129182666Y-107934045D01*
X129373143Y-107438807D02*
X129639809Y-107438807D01*
X129754095Y-107857855D02*
X129373143Y-107857855D01*
X129373143Y-107857855D02*
X129373143Y-107057855D01*
X129373143Y-107057855D02*
X129754095Y-107057855D01*
X130096953Y-107857855D02*
X130096953Y-107057855D01*
X130096953Y-107057855D02*
X130554096Y-107857855D01*
X130554096Y-107857855D02*
X130554096Y-107057855D01*
X120558619Y-105669855D02*
X120177667Y-105669855D01*
X120177667Y-105669855D02*
X120139571Y-106050807D01*
X120139571Y-106050807D02*
X120177667Y-106012712D01*
X120177667Y-106012712D02*
X120253857Y-105974617D01*
X120253857Y-105974617D02*
X120444333Y-105974617D01*
X120444333Y-105974617D02*
X120520524Y-106012712D01*
X120520524Y-106012712D02*
X120558619Y-106050807D01*
X120558619Y-106050807D02*
X120596714Y-106126998D01*
X120596714Y-106126998D02*
X120596714Y-106317474D01*
X120596714Y-106317474D02*
X120558619Y-106393664D01*
X120558619Y-106393664D02*
X120520524Y-106431760D01*
X120520524Y-106431760D02*
X120444333Y-106469855D01*
X120444333Y-106469855D02*
X120253857Y-106469855D01*
X120253857Y-106469855D02*
X120177667Y-106431760D01*
X120177667Y-106431760D02*
X120139571Y-106393664D01*
X120825286Y-105669855D02*
X121091953Y-106469855D01*
X121091953Y-106469855D02*
X121358619Y-105669855D01*
D11*
X152657142Y-95924819D02*
X152323809Y-95448628D01*
X152085714Y-95924819D02*
X152085714Y-94924819D01*
X152085714Y-94924819D02*
X152466666Y-94924819D01*
X152466666Y-94924819D02*
X152561904Y-94972438D01*
X152561904Y-94972438D02*
X152609523Y-95020057D01*
X152609523Y-95020057D02*
X152657142Y-95115295D01*
X152657142Y-95115295D02*
X152657142Y-95258152D01*
X152657142Y-95258152D02*
X152609523Y-95353390D01*
X152609523Y-95353390D02*
X152561904Y-95401009D01*
X152561904Y-95401009D02*
X152466666Y-95448628D01*
X152466666Y-95448628D02*
X152085714Y-95448628D01*
X152990476Y-94924819D02*
X153657142Y-94924819D01*
X153657142Y-94924819D02*
X153228571Y-95924819D01*
X154085714Y-95924819D02*
X154276190Y-95924819D01*
X154276190Y-95924819D02*
X154371428Y-95877200D01*
X154371428Y-95877200D02*
X154419047Y-95829580D01*
X154419047Y-95829580D02*
X154514285Y-95686723D01*
X154514285Y-95686723D02*
X154561904Y-95496247D01*
X154561904Y-95496247D02*
X154561904Y-95115295D01*
X154561904Y-95115295D02*
X154514285Y-95020057D01*
X154514285Y-95020057D02*
X154466666Y-94972438D01*
X154466666Y-94972438D02*
X154371428Y-94924819D01*
X154371428Y-94924819D02*
X154180952Y-94924819D01*
X154180952Y-94924819D02*
X154085714Y-94972438D01*
X154085714Y-94972438D02*
X154038095Y-95020057D01*
X154038095Y-95020057D02*
X153990476Y-95115295D01*
X153990476Y-95115295D02*
X153990476Y-95353390D01*
X153990476Y-95353390D02*
X154038095Y-95448628D01*
X154038095Y-95448628D02*
X154085714Y-95496247D01*
X154085714Y-95496247D02*
X154180952Y-95543866D01*
X154180952Y-95543866D02*
X154371428Y-95543866D01*
X154371428Y-95543866D02*
X154466666Y-95496247D01*
X154466666Y-95496247D02*
X154514285Y-95448628D01*
X154514285Y-95448628D02*
X154561904Y-95353390D01*
D12*
X131157143Y-122665935D02*
X131157143Y-121865935D01*
X131157143Y-121865935D02*
X131461905Y-121865935D01*
X131461905Y-121865935D02*
X131538095Y-121904030D01*
X131538095Y-121904030D02*
X131576190Y-121942125D01*
X131576190Y-121942125D02*
X131614286Y-122018316D01*
X131614286Y-122018316D02*
X131614286Y-122132601D01*
X131614286Y-122132601D02*
X131576190Y-122208792D01*
X131576190Y-122208792D02*
X131538095Y-122246887D01*
X131538095Y-122246887D02*
X131461905Y-122284982D01*
X131461905Y-122284982D02*
X131157143Y-122284982D01*
X132109524Y-121865935D02*
X132261905Y-121865935D01*
X132261905Y-121865935D02*
X132338095Y-121904030D01*
X132338095Y-121904030D02*
X132414286Y-121980220D01*
X132414286Y-121980220D02*
X132452381Y-122132601D01*
X132452381Y-122132601D02*
X132452381Y-122399268D01*
X132452381Y-122399268D02*
X132414286Y-122551649D01*
X132414286Y-122551649D02*
X132338095Y-122627840D01*
X132338095Y-122627840D02*
X132261905Y-122665935D01*
X132261905Y-122665935D02*
X132109524Y-122665935D01*
X132109524Y-122665935D02*
X132033333Y-122627840D01*
X132033333Y-122627840D02*
X131957143Y-122551649D01*
X131957143Y-122551649D02*
X131919047Y-122399268D01*
X131919047Y-122399268D02*
X131919047Y-122132601D01*
X131919047Y-122132601D02*
X131957143Y-121980220D01*
X131957143Y-121980220D02*
X132033333Y-121904030D01*
X132033333Y-121904030D02*
X132109524Y-121865935D01*
X132719047Y-121865935D02*
X132909523Y-122665935D01*
X132909523Y-122665935D02*
X133061904Y-122094506D01*
X133061904Y-122094506D02*
X133214285Y-122665935D01*
X133214285Y-122665935D02*
X133404762Y-121865935D01*
X133709524Y-122246887D02*
X133976190Y-122246887D01*
X134090476Y-122665935D02*
X133709524Y-122665935D01*
X133709524Y-122665935D02*
X133709524Y-121865935D01*
X133709524Y-121865935D02*
X134090476Y-121865935D01*
X134890477Y-122665935D02*
X134623810Y-122284982D01*
X134433334Y-122665935D02*
X134433334Y-121865935D01*
X134433334Y-121865935D02*
X134738096Y-121865935D01*
X134738096Y-121865935D02*
X134814286Y-121904030D01*
X134814286Y-121904030D02*
X134852381Y-121942125D01*
X134852381Y-121942125D02*
X134890477Y-122018316D01*
X134890477Y-122018316D02*
X134890477Y-122132601D01*
X134890477Y-122132601D02*
X134852381Y-122208792D01*
X134852381Y-122208792D02*
X134814286Y-122246887D01*
X134814286Y-122246887D02*
X134738096Y-122284982D01*
X134738096Y-122284982D02*
X134433334Y-122284982D01*
X135042858Y-122742125D02*
X135652381Y-122742125D01*
X135842858Y-122665935D02*
X135842858Y-121865935D01*
X136223810Y-122665935D02*
X136223810Y-121865935D01*
X136223810Y-121865935D02*
X136680953Y-122665935D01*
X136680953Y-122665935D02*
X136680953Y-121865935D01*
X137480952Y-122665935D02*
X137023809Y-122665935D01*
X137252381Y-122665935D02*
X137252381Y-121865935D01*
X137252381Y-121865935D02*
X137176190Y-121980220D01*
X137176190Y-121980220D02*
X137100000Y-122056411D01*
X137100000Y-122056411D02*
X137023809Y-122094506D01*
D10*
X103785714Y-89513855D02*
X104052381Y-90313855D01*
X104052381Y-90313855D02*
X104319047Y-89513855D01*
X104585714Y-90313855D02*
X104585714Y-89513855D01*
X104585714Y-89513855D02*
X104852380Y-90085283D01*
X104852380Y-90085283D02*
X105119047Y-89513855D01*
X105119047Y-89513855D02*
X105119047Y-90313855D01*
X105500000Y-90313855D02*
X105500000Y-89513855D01*
X106338095Y-90237664D02*
X106299999Y-90275760D01*
X106299999Y-90275760D02*
X106185714Y-90313855D01*
X106185714Y-90313855D02*
X106109523Y-90313855D01*
X106109523Y-90313855D02*
X105995237Y-90275760D01*
X105995237Y-90275760D02*
X105919047Y-90199569D01*
X105919047Y-90199569D02*
X105880952Y-90123379D01*
X105880952Y-90123379D02*
X105842856Y-89970998D01*
X105842856Y-89970998D02*
X105842856Y-89856712D01*
X105842856Y-89856712D02*
X105880952Y-89704331D01*
X105880952Y-89704331D02*
X105919047Y-89628140D01*
X105919047Y-89628140D02*
X105995237Y-89551950D01*
X105995237Y-89551950D02*
X106109523Y-89513855D01*
X106109523Y-89513855D02*
X106185714Y-89513855D01*
X106185714Y-89513855D02*
X106299999Y-89551950D01*
X106299999Y-89551950D02*
X106338095Y-89590045D01*
X127798475Y-102120950D02*
X127722285Y-102082855D01*
X127722285Y-102082855D02*
X127607999Y-102082855D01*
X127607999Y-102082855D02*
X127493713Y-102120950D01*
X127493713Y-102120950D02*
X127417523Y-102197140D01*
X127417523Y-102197140D02*
X127379428Y-102273331D01*
X127379428Y-102273331D02*
X127341332Y-102425712D01*
X127341332Y-102425712D02*
X127341332Y-102539998D01*
X127341332Y-102539998D02*
X127379428Y-102692379D01*
X127379428Y-102692379D02*
X127417523Y-102768569D01*
X127417523Y-102768569D02*
X127493713Y-102844760D01*
X127493713Y-102844760D02*
X127607999Y-102882855D01*
X127607999Y-102882855D02*
X127684190Y-102882855D01*
X127684190Y-102882855D02*
X127798475Y-102844760D01*
X127798475Y-102844760D02*
X127836571Y-102806664D01*
X127836571Y-102806664D02*
X127836571Y-102539998D01*
X127836571Y-102539998D02*
X127684190Y-102539998D01*
X128179428Y-102882855D02*
X128179428Y-102082855D01*
X128179428Y-102082855D02*
X128636571Y-102882855D01*
X128636571Y-102882855D02*
X128636571Y-102082855D01*
X129017523Y-102882855D02*
X129017523Y-102082855D01*
X129017523Y-102082855D02*
X129207999Y-102082855D01*
X129207999Y-102082855D02*
X129322285Y-102120950D01*
X129322285Y-102120950D02*
X129398475Y-102197140D01*
X129398475Y-102197140D02*
X129436570Y-102273331D01*
X129436570Y-102273331D02*
X129474666Y-102425712D01*
X129474666Y-102425712D02*
X129474666Y-102539998D01*
X129474666Y-102539998D02*
X129436570Y-102692379D01*
X129436570Y-102692379D02*
X129398475Y-102768569D01*
X129398475Y-102768569D02*
X129322285Y-102844760D01*
X129322285Y-102844760D02*
X129207999Y-102882855D01*
X129207999Y-102882855D02*
X129017523Y-102882855D01*
D11*
X133608142Y-85316819D02*
X133274809Y-84840628D01*
X133036714Y-85316819D02*
X133036714Y-84316819D01*
X133036714Y-84316819D02*
X133417666Y-84316819D01*
X133417666Y-84316819D02*
X133512904Y-84364438D01*
X133512904Y-84364438D02*
X133560523Y-84412057D01*
X133560523Y-84412057D02*
X133608142Y-84507295D01*
X133608142Y-84507295D02*
X133608142Y-84650152D01*
X133608142Y-84650152D02*
X133560523Y-84745390D01*
X133560523Y-84745390D02*
X133512904Y-84793009D01*
X133512904Y-84793009D02*
X133417666Y-84840628D01*
X133417666Y-84840628D02*
X133036714Y-84840628D01*
X133941476Y-84316819D02*
X134608142Y-84316819D01*
X134608142Y-84316819D02*
X134179571Y-85316819D01*
X135465285Y-84316819D02*
X134989095Y-84316819D01*
X134989095Y-84316819D02*
X134941476Y-84793009D01*
X134941476Y-84793009D02*
X134989095Y-84745390D01*
X134989095Y-84745390D02*
X135084333Y-84697771D01*
X135084333Y-84697771D02*
X135322428Y-84697771D01*
X135322428Y-84697771D02*
X135417666Y-84745390D01*
X135417666Y-84745390D02*
X135465285Y-84793009D01*
X135465285Y-84793009D02*
X135512904Y-84888247D01*
X135512904Y-84888247D02*
X135512904Y-85126342D01*
X135512904Y-85126342D02*
X135465285Y-85221580D01*
X135465285Y-85221580D02*
X135417666Y-85269200D01*
X135417666Y-85269200D02*
X135322428Y-85316819D01*
X135322428Y-85316819D02*
X135084333Y-85316819D01*
X135084333Y-85316819D02*
X134989095Y-85269200D01*
X134989095Y-85269200D02*
X134941476Y-85221580D01*
X140344819Y-82146666D02*
X140344819Y-82622856D01*
X140344819Y-82622856D02*
X139344819Y-82622856D01*
X139773390Y-81670475D02*
X139725771Y-81765713D01*
X139725771Y-81765713D02*
X139678152Y-81813332D01*
X139678152Y-81813332D02*
X139582914Y-81860951D01*
X139582914Y-81860951D02*
X139535295Y-81860951D01*
X139535295Y-81860951D02*
X139440057Y-81813332D01*
X139440057Y-81813332D02*
X139392438Y-81765713D01*
X139392438Y-81765713D02*
X139344819Y-81670475D01*
X139344819Y-81670475D02*
X139344819Y-81479999D01*
X139344819Y-81479999D02*
X139392438Y-81384761D01*
X139392438Y-81384761D02*
X139440057Y-81337142D01*
X139440057Y-81337142D02*
X139535295Y-81289523D01*
X139535295Y-81289523D02*
X139582914Y-81289523D01*
X139582914Y-81289523D02*
X139678152Y-81337142D01*
X139678152Y-81337142D02*
X139725771Y-81384761D01*
X139725771Y-81384761D02*
X139773390Y-81479999D01*
X139773390Y-81479999D02*
X139773390Y-81670475D01*
X139773390Y-81670475D02*
X139821009Y-81765713D01*
X139821009Y-81765713D02*
X139868628Y-81813332D01*
X139868628Y-81813332D02*
X139963866Y-81860951D01*
X139963866Y-81860951D02*
X140154342Y-81860951D01*
X140154342Y-81860951D02*
X140249580Y-81813332D01*
X140249580Y-81813332D02*
X140297200Y-81765713D01*
X140297200Y-81765713D02*
X140344819Y-81670475D01*
X140344819Y-81670475D02*
X140344819Y-81479999D01*
X140344819Y-81479999D02*
X140297200Y-81384761D01*
X140297200Y-81384761D02*
X140249580Y-81337142D01*
X140249580Y-81337142D02*
X140154342Y-81289523D01*
X140154342Y-81289523D02*
X139963866Y-81289523D01*
X139963866Y-81289523D02*
X139868628Y-81337142D01*
X139868628Y-81337142D02*
X139821009Y-81384761D01*
X139821009Y-81384761D02*
X139773390Y-81479999D01*
X123561905Y-103554819D02*
X123561905Y-104364342D01*
X123561905Y-104364342D02*
X123609524Y-104459580D01*
X123609524Y-104459580D02*
X123657143Y-104507200D01*
X123657143Y-104507200D02*
X123752381Y-104554819D01*
X123752381Y-104554819D02*
X123942857Y-104554819D01*
X123942857Y-104554819D02*
X124038095Y-104507200D01*
X124038095Y-104507200D02*
X124085714Y-104459580D01*
X124085714Y-104459580D02*
X124133333Y-104364342D01*
X124133333Y-104364342D02*
X124133333Y-103554819D01*
X125133333Y-104554819D02*
X124561905Y-104554819D01*
X124847619Y-104554819D02*
X124847619Y-103554819D01*
X124847619Y-103554819D02*
X124752381Y-103697676D01*
X124752381Y-103697676D02*
X124657143Y-103792914D01*
X124657143Y-103792914D02*
X124561905Y-103840533D01*
X125704762Y-103983390D02*
X125609524Y-103935771D01*
X125609524Y-103935771D02*
X125561905Y-103888152D01*
X125561905Y-103888152D02*
X125514286Y-103792914D01*
X125514286Y-103792914D02*
X125514286Y-103745295D01*
X125514286Y-103745295D02*
X125561905Y-103650057D01*
X125561905Y-103650057D02*
X125609524Y-103602438D01*
X125609524Y-103602438D02*
X125704762Y-103554819D01*
X125704762Y-103554819D02*
X125895238Y-103554819D01*
X125895238Y-103554819D02*
X125990476Y-103602438D01*
X125990476Y-103602438D02*
X126038095Y-103650057D01*
X126038095Y-103650057D02*
X126085714Y-103745295D01*
X126085714Y-103745295D02*
X126085714Y-103792914D01*
X126085714Y-103792914D02*
X126038095Y-103888152D01*
X126038095Y-103888152D02*
X125990476Y-103935771D01*
X125990476Y-103935771D02*
X125895238Y-103983390D01*
X125895238Y-103983390D02*
X125704762Y-103983390D01*
X125704762Y-103983390D02*
X125609524Y-104031009D01*
X125609524Y-104031009D02*
X125561905Y-104078628D01*
X125561905Y-104078628D02*
X125514286Y-104173866D01*
X125514286Y-104173866D02*
X125514286Y-104364342D01*
X125514286Y-104364342D02*
X125561905Y-104459580D01*
X125561905Y-104459580D02*
X125609524Y-104507200D01*
X125609524Y-104507200D02*
X125704762Y-104554819D01*
X125704762Y-104554819D02*
X125895238Y-104554819D01*
X125895238Y-104554819D02*
X125990476Y-104507200D01*
X125990476Y-104507200D02*
X126038095Y-104459580D01*
X126038095Y-104459580D02*
X126085714Y-104364342D01*
X126085714Y-104364342D02*
X126085714Y-104173866D01*
X126085714Y-104173866D02*
X126038095Y-104078628D01*
X126038095Y-104078628D02*
X125990476Y-104031009D01*
X125990476Y-104031009D02*
X125895238Y-103983390D01*
D12*
X161504508Y-108881632D02*
X161908569Y-109285693D01*
X161908569Y-109285693D02*
X161962444Y-109393443D01*
X161962444Y-109393443D02*
X161962444Y-109501192D01*
X161962444Y-109501192D02*
X161908569Y-109608942D01*
X161908569Y-109608942D02*
X161854694Y-109662817D01*
X162043256Y-108342884D02*
X161773882Y-108612258D01*
X161773882Y-108612258D02*
X162016319Y-108908569D01*
X162016319Y-108908569D02*
X162016319Y-108854694D01*
X162016319Y-108854694D02*
X162043256Y-108773882D01*
X162043256Y-108773882D02*
X162177943Y-108639195D01*
X162177943Y-108639195D02*
X162258755Y-108612258D01*
X162258755Y-108612258D02*
X162312630Y-108612258D01*
X162312630Y-108612258D02*
X162393442Y-108639195D01*
X162393442Y-108639195D02*
X162528129Y-108773882D01*
X162528129Y-108773882D02*
X162555067Y-108854694D01*
X162555067Y-108854694D02*
X162555067Y-108908569D01*
X162555067Y-108908569D02*
X162528129Y-108989381D01*
X162528129Y-108989381D02*
X162393442Y-109124068D01*
X162393442Y-109124068D02*
X162312630Y-109151006D01*
X162312630Y-109151006D02*
X162258755Y-109151006D01*
D10*
X116402905Y-77730855D02*
X116136238Y-77349902D01*
X115945762Y-77730855D02*
X115945762Y-76930855D01*
X115945762Y-76930855D02*
X116250524Y-76930855D01*
X116250524Y-76930855D02*
X116326714Y-76968950D01*
X116326714Y-76968950D02*
X116364809Y-77007045D01*
X116364809Y-77007045D02*
X116402905Y-77083236D01*
X116402905Y-77083236D02*
X116402905Y-77197521D01*
X116402905Y-77197521D02*
X116364809Y-77273712D01*
X116364809Y-77273712D02*
X116326714Y-77311807D01*
X116326714Y-77311807D02*
X116250524Y-77349902D01*
X116250524Y-77349902D02*
X115945762Y-77349902D01*
X116707666Y-77692760D02*
X116821952Y-77730855D01*
X116821952Y-77730855D02*
X117012428Y-77730855D01*
X117012428Y-77730855D02*
X117088619Y-77692760D01*
X117088619Y-77692760D02*
X117126714Y-77654664D01*
X117126714Y-77654664D02*
X117164809Y-77578474D01*
X117164809Y-77578474D02*
X117164809Y-77502283D01*
X117164809Y-77502283D02*
X117126714Y-77426093D01*
X117126714Y-77426093D02*
X117088619Y-77387998D01*
X117088619Y-77387998D02*
X117012428Y-77349902D01*
X117012428Y-77349902D02*
X116860047Y-77311807D01*
X116860047Y-77311807D02*
X116783857Y-77273712D01*
X116783857Y-77273712D02*
X116745762Y-77235617D01*
X116745762Y-77235617D02*
X116707666Y-77159426D01*
X116707666Y-77159426D02*
X116707666Y-77083236D01*
X116707666Y-77083236D02*
X116745762Y-77007045D01*
X116745762Y-77007045D02*
X116783857Y-76968950D01*
X116783857Y-76968950D02*
X116860047Y-76930855D01*
X116860047Y-76930855D02*
X117050524Y-76930855D01*
X117050524Y-76930855D02*
X117164809Y-76968950D01*
X117393381Y-76930855D02*
X117850524Y-76930855D01*
X117621952Y-77730855D02*
X117621952Y-76930855D01*
D12*
X101965935Y-89995238D02*
X101965935Y-90376190D01*
X101965935Y-90376190D02*
X101165935Y-90376190D01*
X101546887Y-89728571D02*
X101546887Y-89461905D01*
X101965935Y-89347619D02*
X101965935Y-89728571D01*
X101965935Y-89728571D02*
X101165935Y-89728571D01*
X101165935Y-89728571D02*
X101165935Y-89347619D01*
X101965935Y-89004761D02*
X101165935Y-89004761D01*
X101165935Y-89004761D02*
X101165935Y-88814285D01*
X101165935Y-88814285D02*
X101204030Y-88699999D01*
X101204030Y-88699999D02*
X101280220Y-88623809D01*
X101280220Y-88623809D02*
X101356411Y-88585714D01*
X101356411Y-88585714D02*
X101508792Y-88547618D01*
X101508792Y-88547618D02*
X101623078Y-88547618D01*
X101623078Y-88547618D02*
X101775459Y-88585714D01*
X101775459Y-88585714D02*
X101851649Y-88623809D01*
X101851649Y-88623809D02*
X101927840Y-88699999D01*
X101927840Y-88699999D02*
X101965935Y-88814285D01*
X101965935Y-88814285D02*
X101965935Y-89004761D01*
X101965935Y-87785714D02*
X101965935Y-88242857D01*
X101965935Y-88014285D02*
X101165935Y-88014285D01*
X101165935Y-88014285D02*
X101280220Y-88090476D01*
X101280220Y-88090476D02*
X101356411Y-88166666D01*
X101356411Y-88166666D02*
X101394506Y-88242857D01*
D11*
X132480952Y-81499580D02*
X132433333Y-81547200D01*
X132433333Y-81547200D02*
X132290476Y-81594819D01*
X132290476Y-81594819D02*
X132195238Y-81594819D01*
X132195238Y-81594819D02*
X132052381Y-81547200D01*
X132052381Y-81547200D02*
X131957143Y-81451961D01*
X131957143Y-81451961D02*
X131909524Y-81356723D01*
X131909524Y-81356723D02*
X131861905Y-81166247D01*
X131861905Y-81166247D02*
X131861905Y-81023390D01*
X131861905Y-81023390D02*
X131909524Y-80832914D01*
X131909524Y-80832914D02*
X131957143Y-80737676D01*
X131957143Y-80737676D02*
X132052381Y-80642438D01*
X132052381Y-80642438D02*
X132195238Y-80594819D01*
X132195238Y-80594819D02*
X132290476Y-80594819D01*
X132290476Y-80594819D02*
X132433333Y-80642438D01*
X132433333Y-80642438D02*
X132480952Y-80690057D01*
X133433333Y-81594819D02*
X132861905Y-81594819D01*
X133147619Y-81594819D02*
X133147619Y-80594819D01*
X133147619Y-80594819D02*
X133052381Y-80737676D01*
X133052381Y-80737676D02*
X132957143Y-80832914D01*
X132957143Y-80832914D02*
X132861905Y-80880533D01*
X134052381Y-80594819D02*
X134147619Y-80594819D01*
X134147619Y-80594819D02*
X134242857Y-80642438D01*
X134242857Y-80642438D02*
X134290476Y-80690057D01*
X134290476Y-80690057D02*
X134338095Y-80785295D01*
X134338095Y-80785295D02*
X134385714Y-80975771D01*
X134385714Y-80975771D02*
X134385714Y-81213866D01*
X134385714Y-81213866D02*
X134338095Y-81404342D01*
X134338095Y-81404342D02*
X134290476Y-81499580D01*
X134290476Y-81499580D02*
X134242857Y-81547200D01*
X134242857Y-81547200D02*
X134147619Y-81594819D01*
X134147619Y-81594819D02*
X134052381Y-81594819D01*
X134052381Y-81594819D02*
X133957143Y-81547200D01*
X133957143Y-81547200D02*
X133909524Y-81499580D01*
X133909524Y-81499580D02*
X133861905Y-81404342D01*
X133861905Y-81404342D02*
X133814286Y-81213866D01*
X133814286Y-81213866D02*
X133814286Y-80975771D01*
X133814286Y-80975771D02*
X133861905Y-80785295D01*
X133861905Y-80785295D02*
X133909524Y-80690057D01*
X133909524Y-80690057D02*
X133957143Y-80642438D01*
X133957143Y-80642438D02*
X134052381Y-80594819D01*
X135004762Y-80594819D02*
X135100000Y-80594819D01*
X135100000Y-80594819D02*
X135195238Y-80642438D01*
X135195238Y-80642438D02*
X135242857Y-80690057D01*
X135242857Y-80690057D02*
X135290476Y-80785295D01*
X135290476Y-80785295D02*
X135338095Y-80975771D01*
X135338095Y-80975771D02*
X135338095Y-81213866D01*
X135338095Y-81213866D02*
X135290476Y-81404342D01*
X135290476Y-81404342D02*
X135242857Y-81499580D01*
X135242857Y-81499580D02*
X135195238Y-81547200D01*
X135195238Y-81547200D02*
X135100000Y-81594819D01*
X135100000Y-81594819D02*
X135004762Y-81594819D01*
X135004762Y-81594819D02*
X134909524Y-81547200D01*
X134909524Y-81547200D02*
X134861905Y-81499580D01*
X134861905Y-81499580D02*
X134814286Y-81404342D01*
X134814286Y-81404342D02*
X134766667Y-81213866D01*
X134766667Y-81213866D02*
X134766667Y-80975771D01*
X134766667Y-80975771D02*
X134814286Y-80785295D01*
X134814286Y-80785295D02*
X134861905Y-80690057D01*
X134861905Y-80690057D02*
X134909524Y-80642438D01*
X134909524Y-80642438D02*
X135004762Y-80594819D01*
D12*
X111903711Y-66374253D02*
X112173085Y-66104878D01*
X112011461Y-66589752D02*
X111634337Y-65835504D01*
X111634337Y-65835504D02*
X112388584Y-66212628D01*
X112280835Y-65727755D02*
X112469396Y-65539193D01*
X112846520Y-65754692D02*
X112577146Y-66024066D01*
X112577146Y-66024066D02*
X112011461Y-65458381D01*
X112011461Y-65458381D02*
X112280835Y-65189007D01*
X113385268Y-65215944D02*
X113062020Y-65539193D01*
X113223644Y-65377569D02*
X112657959Y-64811883D01*
X112657959Y-64811883D02*
X112684896Y-64946570D01*
X112684896Y-64946570D02*
X112684896Y-65054320D01*
X112684896Y-65054320D02*
X112657959Y-65135132D01*
D10*
X123088761Y-101877855D02*
X122707809Y-101877855D01*
X122707809Y-101877855D02*
X122669713Y-102258807D01*
X122669713Y-102258807D02*
X122707809Y-102220712D01*
X122707809Y-102220712D02*
X122783999Y-102182617D01*
X122783999Y-102182617D02*
X122974475Y-102182617D01*
X122974475Y-102182617D02*
X123050666Y-102220712D01*
X123050666Y-102220712D02*
X123088761Y-102258807D01*
X123088761Y-102258807D02*
X123126856Y-102334998D01*
X123126856Y-102334998D02*
X123126856Y-102525474D01*
X123126856Y-102525474D02*
X123088761Y-102601664D01*
X123088761Y-102601664D02*
X123050666Y-102639760D01*
X123050666Y-102639760D02*
X122974475Y-102677855D01*
X122974475Y-102677855D02*
X122783999Y-102677855D01*
X122783999Y-102677855D02*
X122707809Y-102639760D01*
X122707809Y-102639760D02*
X122669713Y-102601664D01*
X123355428Y-101877855D02*
X123622095Y-102677855D01*
X123622095Y-102677855D02*
X123888761Y-101877855D01*
X123964952Y-102754045D02*
X124574475Y-102754045D01*
X124726856Y-102639760D02*
X124841142Y-102677855D01*
X124841142Y-102677855D02*
X125031618Y-102677855D01*
X125031618Y-102677855D02*
X125107809Y-102639760D01*
X125107809Y-102639760D02*
X125145904Y-102601664D01*
X125145904Y-102601664D02*
X125183999Y-102525474D01*
X125183999Y-102525474D02*
X125183999Y-102449283D01*
X125183999Y-102449283D02*
X125145904Y-102373093D01*
X125145904Y-102373093D02*
X125107809Y-102334998D01*
X125107809Y-102334998D02*
X125031618Y-102296902D01*
X125031618Y-102296902D02*
X124879237Y-102258807D01*
X124879237Y-102258807D02*
X124803047Y-102220712D01*
X124803047Y-102220712D02*
X124764952Y-102182617D01*
X124764952Y-102182617D02*
X124726856Y-102106426D01*
X124726856Y-102106426D02*
X124726856Y-102030236D01*
X124726856Y-102030236D02*
X124764952Y-101954045D01*
X124764952Y-101954045D02*
X124803047Y-101915950D01*
X124803047Y-101915950D02*
X124879237Y-101877855D01*
X124879237Y-101877855D02*
X125069714Y-101877855D01*
X125069714Y-101877855D02*
X125183999Y-101915950D01*
X125450666Y-101877855D02*
X125641142Y-102677855D01*
X125641142Y-102677855D02*
X125793523Y-102106426D01*
X125793523Y-102106426D02*
X125945904Y-102677855D01*
X125945904Y-102677855D02*
X126136381Y-101877855D01*
D12*
X102017976Y-81499532D02*
X101452291Y-80933847D01*
X101452291Y-80933847D02*
X102044914Y-81149346D01*
X102044914Y-81149346D02*
X101829415Y-80556723D01*
X101829415Y-80556723D02*
X102395100Y-81122409D01*
X102664474Y-80853034D02*
X102098789Y-80287349D01*
X102987723Y-80529786D02*
X102422038Y-80448973D01*
X102422038Y-79964100D02*
X102422038Y-80610598D01*
X103526471Y-79991037D02*
X103203222Y-80314286D01*
X103364847Y-80152662D02*
X102799161Y-79586976D01*
X102799161Y-79586976D02*
X102826099Y-79721663D01*
X102826099Y-79721663D02*
X102826099Y-79829413D01*
X102826099Y-79829413D02*
X102799161Y-79910225D01*
X168992311Y-98686159D02*
X168426626Y-98120474D01*
X168426626Y-98120474D02*
X169019249Y-98335973D01*
X169019249Y-98335973D02*
X168803750Y-97743350D01*
X168803750Y-97743350D02*
X169369435Y-98309036D01*
X169638809Y-98039661D02*
X169073124Y-97473976D01*
X169962058Y-97716413D02*
X169396373Y-97635600D01*
X169396373Y-97150727D02*
X169396373Y-97797225D01*
X169665747Y-96989103D02*
X169665747Y-96935228D01*
X169665747Y-96935228D02*
X169692684Y-96854416D01*
X169692684Y-96854416D02*
X169827371Y-96719729D01*
X169827371Y-96719729D02*
X169908183Y-96692791D01*
X169908183Y-96692791D02*
X169962058Y-96692791D01*
X169962058Y-96692791D02*
X170042870Y-96719729D01*
X170042870Y-96719729D02*
X170096745Y-96773603D01*
X170096745Y-96773603D02*
X170150620Y-96881353D01*
X170150620Y-96881353D02*
X170150620Y-97527851D01*
X170150620Y-97527851D02*
X170500806Y-97177664D01*
D10*
%TO.C,TP21*%
X121279000Y-64741000D02*
G75*
G02*
X119879000Y-64741000I-700000J0D01*
G01*
X119879000Y-64741000D02*
G75*
G02*
X121279000Y-64741000I700000J0D01*
G01*
%TO.C,C97*%
X168200362Y-88992164D02*
X168200362Y-89207836D01*
X168920362Y-88992164D02*
X168920362Y-89207836D01*
%TO.C,R12*%
X116929638Y-113824243D02*
X116929638Y-114298759D01*
X117974638Y-113824243D02*
X117974638Y-114298759D01*
%TO.C,R17*%
X105880242Y-99957500D02*
X106354758Y-99957500D01*
X105880242Y-101002500D02*
X106354758Y-101002500D01*
%TO.C,R11*%
X115450242Y-111239001D02*
X115924758Y-111239001D01*
X115450242Y-112284001D02*
X115924758Y-112284001D01*
D13*
%TO.C,J6*%
X156075000Y-90551000D02*
X156075000Y-97011000D01*
X157345000Y-97781000D02*
X159875000Y-97781000D01*
X159875000Y-89781000D02*
X157345000Y-89781000D01*
X159875000Y-97781000D02*
X159875000Y-89781000D01*
D14*
X161025000Y-96031000D02*
G75*
G02*
X159825000Y-96031000I-600000J0D01*
G01*
X159825000Y-96031000D02*
G75*
G02*
X161025000Y-96031000I600000J0D01*
G01*
D10*
%TO.C,C59*%
X135207836Y-66840000D02*
X134992164Y-66840000D01*
X135207836Y-67560000D02*
X134992164Y-67560000D01*
%TO.C,U7*%
X111370000Y-102095000D02*
X111370000Y-101860000D01*
X111370000Y-104840000D02*
X111370000Y-104365000D01*
X111845000Y-101620000D02*
X111670000Y-101620000D01*
X111845000Y-104840000D02*
X111370000Y-104840000D01*
X114115000Y-101620000D02*
X114590000Y-101620000D01*
X114115000Y-104840000D02*
X114590000Y-104840000D01*
X114590000Y-101620000D02*
X114590000Y-102095000D01*
X114590000Y-104840000D02*
X114590000Y-104365000D01*
X111370000Y-101620000D02*
X111130000Y-101290000D01*
X111610000Y-101290000D01*
X111370000Y-101620000D01*
G36*
X111370000Y-101620000D02*
G01*
X111130000Y-101290000D01*
X111610000Y-101290000D01*
X111370000Y-101620000D01*
G37*
%TO.C,C32*%
X118692164Y-72920000D02*
X118907836Y-72920000D01*
X118692164Y-73640000D02*
X118907836Y-73640000D01*
%TO.C,C46*%
X140492164Y-61640000D02*
X140707836Y-61640000D01*
X140492164Y-62360000D02*
X140707836Y-62360000D01*
%TO.C,U6*%
X134565000Y-79970000D02*
X134565000Y-77750000D01*
X136835000Y-78164432D02*
X136835000Y-79970000D01*
X137030000Y-78010000D02*
X136840000Y-77870000D01*
X137030000Y-77730000D01*
X137030000Y-78010000D01*
G36*
X137030000Y-78010000D02*
G01*
X136840000Y-77870000D01*
X137030000Y-77730000D01*
X137030000Y-78010000D01*
G37*
%TO.C,C5*%
X125140336Y-116952500D02*
X124924664Y-116952500D01*
X125140336Y-117672500D02*
X124924664Y-117672500D01*
%TO.C,R28*%
X130836359Y-68250999D02*
X131143641Y-68250999D01*
X130836359Y-69010999D02*
X131143641Y-69010999D01*
%TO.C,C74*%
X142740580Y-99890000D02*
X142459420Y-99890000D01*
X142740580Y-100910000D02*
X142459420Y-100910000D01*
%TO.C,TP20*%
X122545000Y-81750000D02*
G75*
G02*
X121145000Y-81750000I-700000J0D01*
G01*
X121145000Y-81750000D02*
G75*
G02*
X122545000Y-81750000I700000J0D01*
G01*
%TO.C,Y1*%
X117090000Y-67890000D02*
X117090000Y-70710000D01*
X119510000Y-67890000D02*
X117090000Y-67890000D01*
%TO.C,C67*%
X144492164Y-115940000D02*
X144707836Y-115940000D01*
X144492164Y-116660000D02*
X144707836Y-116660000D01*
%TO.C,C109*%
X168492164Y-91840000D02*
X168707836Y-91840000D01*
X168492164Y-92560000D02*
X168707836Y-92560000D01*
%TO.C,R16*%
X110562500Y-107643641D02*
X110562500Y-107336359D01*
X111322500Y-107643641D02*
X111322500Y-107336359D01*
%TO.C,R8*%
X125105779Y-112231501D02*
X124798497Y-112231501D01*
X125105779Y-112991501D02*
X124798497Y-112991501D01*
D15*
%TO.C,SW1*%
X113700000Y-83700000D02*
X113700000Y-86300000D01*
X114157000Y-83730000D02*
X113707600Y-84179500D01*
X114157000Y-86270000D02*
X113739000Y-85851900D01*
X114539000Y-84236800D02*
X114539000Y-85760800D01*
X114806200Y-87100000D02*
X115793900Y-87100000D01*
X115793900Y-82900100D02*
X114806200Y-82900100D01*
X115793900Y-82900100D02*
X115794000Y-82900100D01*
X115794000Y-82900100D02*
X115794600Y-82900700D01*
X116063000Y-84236800D02*
X116062000Y-85762000D01*
X116316000Y-83730000D02*
X116841600Y-84255600D01*
X116443000Y-86270000D02*
X116911900Y-85801100D01*
X116900000Y-83700000D02*
X116900000Y-86300000D01*
X114539000Y-84236800D02*
G75*
G02*
X116063000Y-84236800I762000J0D01*
G01*
X116062000Y-85762000D02*
G75*
G02*
X114539000Y-85760800I-761500J600D01*
G01*
D10*
%TO.C,U3*%
X120440000Y-113427500D02*
X120440000Y-113192500D01*
X120440000Y-116172500D02*
X120440000Y-115697500D01*
X120915000Y-112952500D02*
X120740000Y-112952500D01*
X120915000Y-116172500D02*
X120440000Y-116172500D01*
X123185000Y-112952500D02*
X123660000Y-112952500D01*
X123185000Y-116172500D02*
X123660000Y-116172500D01*
X123660000Y-112952500D02*
X123660000Y-113427500D01*
X123660000Y-116172500D02*
X123660000Y-115697500D01*
X120440000Y-112952500D02*
X120200000Y-112622500D01*
X120680000Y-112622500D01*
X120440000Y-112952500D01*
G36*
X120440000Y-112952500D02*
G01*
X120200000Y-112622500D01*
X120680000Y-112622500D01*
X120440000Y-112952500D01*
G37*
%TO.C,C108*%
X105269190Y-85278307D02*
X105421693Y-85430810D01*
X105778307Y-84769190D02*
X105930810Y-84921693D01*
%TO.C,C10*%
X117223752Y-108577500D02*
X116701248Y-108577500D01*
X117223752Y-110047500D02*
X116701248Y-110047500D01*
%TO.C,C50*%
X139492164Y-68040000D02*
X139707836Y-68040000D01*
X139492164Y-68760000D02*
X139707836Y-68760000D01*
%TO.C,C56*%
X142792164Y-64340000D02*
X143007836Y-64340000D01*
X142792164Y-65060000D02*
X143007836Y-65060000D01*
%TO.C,C23*%
X105707500Y-97768748D02*
X105707500Y-98291252D01*
X107177500Y-97768748D02*
X107177500Y-98291252D01*
%TO.C,C13*%
X135640000Y-81796920D02*
X135640000Y-82078080D01*
X136660000Y-81796920D02*
X136660000Y-82078080D01*
%TO.C,C43*%
X138940000Y-59207836D02*
X138940000Y-58992164D01*
X139660000Y-59207836D02*
X139660000Y-58992164D01*
%TO.C,C11*%
X123777500Y-110101248D02*
X123777500Y-110623752D01*
X125247500Y-110101248D02*
X125247500Y-110623752D01*
D13*
%TO.C,U5*%
X139830000Y-75340000D02*
X139830000Y-76590000D01*
X142170000Y-76590000D02*
X142170000Y-75340000D01*
D14*
X140200000Y-78065000D02*
G75*
G02*
X140000000Y-78065000I-100000J0D01*
G01*
X140000000Y-78065000D02*
G75*
G02*
X140200000Y-78065000I100000J0D01*
G01*
%TO.C,J4*%
D16*
X140465000Y-55095000D02*
G75*
G02*
X140255000Y-55095000I-105000J0D01*
G01*
X140255000Y-55095000D02*
G75*
G02*
X140465000Y-55095000I105000J0D01*
G01*
D10*
%TO.C,C84*%
X136365000Y-110038748D02*
X136365000Y-110561252D01*
X137835000Y-110038748D02*
X137835000Y-110561252D01*
%TO.C,C76*%
X142140580Y-101690000D02*
X141859420Y-101690000D01*
X142140580Y-102710000D02*
X141859420Y-102710000D01*
%TO.C,C47*%
X139307836Y-62640000D02*
X139092164Y-62640000D01*
X139307836Y-63360000D02*
X139092164Y-63360000D01*
%TO.C,R55*%
X143723641Y-116920000D02*
X143416359Y-116920000D01*
X143723641Y-117680000D02*
X143416359Y-117680000D01*
%TO.C,C8*%
X149890000Y-86146920D02*
X149890000Y-86428080D01*
X150910000Y-86146920D02*
X150910000Y-86428080D01*
%TO.C,C89*%
X151523616Y-109840743D02*
X151523616Y-111346085D01*
X151523616Y-109840743D02*
X152432647Y-108931713D01*
X151523616Y-111346085D02*
X155593414Y-115415882D01*
X154840743Y-106523616D02*
X153931713Y-107432647D01*
X154840743Y-106523616D02*
X156346085Y-106523616D01*
X155593414Y-115415882D02*
X157255115Y-113754181D01*
X156346085Y-106523616D02*
X160415882Y-110593414D01*
X160415882Y-110593414D02*
X158754181Y-112255115D01*
%TO.C,TP1*%
X163700000Y-74500000D02*
G75*
G02*
X162300000Y-74500000I-700000J0D01*
G01*
X162300000Y-74500000D02*
G75*
G02*
X163700000Y-74500000I700000J0D01*
G01*
%TO.C,R1*%
X151422659Y-70860060D02*
X151639940Y-71077341D01*
X151960060Y-70322659D02*
X152177341Y-70539940D01*
%TO.C,C40*%
X118433650Y-76907836D02*
X118433650Y-76692164D01*
X119153650Y-76907836D02*
X119153650Y-76692164D01*
D17*
%TO.C,D4*%
X148539895Y-69603033D02*
G75*
G02*
X148439895Y-69603033I-50000J0D01*
G01*
X148439895Y-69603033D02*
G75*
G02*
X148539895Y-69603033I50000J0D01*
G01*
D10*
%TO.C,TP18*%
X144600000Y-109430000D02*
G75*
G02*
X143200000Y-109430000I-700000J0D01*
G01*
X143200000Y-109430000D02*
G75*
G02*
X144600000Y-109430000I700000J0D01*
G01*
%TO.C,R7*%
X123205779Y-117581501D02*
X122898497Y-117581501D01*
X123205779Y-118341501D02*
X122898497Y-118341501D01*
%TO.C,C29*%
X119727836Y-81540000D02*
X119512164Y-81540000D01*
X119727836Y-82260000D02*
X119512164Y-82260000D01*
%TO.C,R22*%
X131153641Y-67120000D02*
X130846359Y-67120000D01*
X131153641Y-67880000D02*
X130846359Y-67880000D01*
%TO.C,C14*%
X115465000Y-103218748D02*
X115465000Y-103741252D01*
X116935000Y-103218748D02*
X116935000Y-103741252D01*
%TO.C,R74*%
X133520000Y-78653641D02*
X133520000Y-78346359D01*
X134280000Y-78653641D02*
X134280000Y-78346359D01*
%TO.C,C26*%
X118562912Y-70938037D02*
X118778584Y-70938037D01*
X118562912Y-71658037D02*
X118778584Y-71658037D01*
%TO.C,C107*%
X142859420Y-65430000D02*
X143140580Y-65430000D01*
X142859420Y-66450000D02*
X143140580Y-66450000D01*
%TO.C,TP12*%
X141600000Y-116800000D02*
G75*
G02*
X140200000Y-116800000I-700000J0D01*
G01*
X140200000Y-116800000D02*
G75*
G02*
X141600000Y-116800000I700000J0D01*
G01*
%TO.C,TP4*%
X146400000Y-71500000D02*
G75*
G02*
X145000000Y-71500000I-700000J0D01*
G01*
X145000000Y-71500000D02*
G75*
G02*
X146400000Y-71500000I700000J0D01*
G01*
%TO.C,C42*%
X134740000Y-59207836D02*
X134740000Y-58992164D01*
X135460000Y-59207836D02*
X135460000Y-58992164D01*
%TO.C,L1*%
X118862500Y-111881501D02*
X118862500Y-107241501D01*
X123162500Y-111881501D02*
X123162500Y-107241501D01*
%TO.C,R27*%
X130836359Y-69250999D02*
X131143641Y-69250999D01*
X130836359Y-70010999D02*
X131143641Y-70010999D01*
%TO.C,R10*%
X120320000Y-117953641D02*
X120320000Y-117646359D01*
X121080000Y-117953641D02*
X121080000Y-117646359D01*
%TO.C,C28*%
X116840000Y-71792164D02*
X116840000Y-72007836D01*
X117560000Y-71792164D02*
X117560000Y-72007836D01*
%TO.C,C41*%
X123892164Y-63340000D02*
X124107836Y-63340000D01*
X123892164Y-64060000D02*
X124107836Y-64060000D01*
%TO.C,U9*%
X124440000Y-57540000D02*
X124440000Y-57810000D01*
X124440000Y-63060000D02*
X124440000Y-62790000D01*
X127200000Y-57540000D02*
X124440000Y-57540000D01*
X127200000Y-57540000D02*
X129960000Y-57540000D01*
X127200000Y-63060000D02*
X124440000Y-63060000D01*
X127200000Y-63060000D02*
X129960000Y-63060000D01*
X129960000Y-57540000D02*
X129960000Y-57810000D01*
X129960000Y-63060000D02*
X129960000Y-62790000D01*
X130965000Y-63120000D02*
X130485000Y-63120000D01*
X130725000Y-62790000D01*
X130965000Y-63120000D01*
G36*
X130965000Y-63120000D02*
G01*
X130485000Y-63120000D01*
X130725000Y-62790000D01*
X130965000Y-63120000D01*
G37*
%TO.C,R80*%
X154546359Y-90310000D02*
X154853641Y-90310000D01*
X154546359Y-91070000D02*
X154853641Y-91070000D01*
D15*
%TO.C,SW2*%
X117420000Y-83700000D02*
X117420000Y-86300000D01*
X117877000Y-83730000D02*
X117427600Y-84179500D01*
X117877000Y-86270000D02*
X117459000Y-85851900D01*
X118259000Y-84236800D02*
X118259000Y-85760800D01*
X118526200Y-87100000D02*
X119513900Y-87100000D01*
X119513900Y-82900100D02*
X118526200Y-82900100D01*
X119513900Y-82900100D02*
X119514000Y-82900100D01*
X119514000Y-82900100D02*
X119514600Y-82900700D01*
X119783000Y-84236800D02*
X119782000Y-85762000D01*
X120036000Y-83730000D02*
X120561600Y-84255600D01*
X120163000Y-86270000D02*
X120631900Y-85801100D01*
X120620000Y-83700000D02*
X120620000Y-86300000D01*
X118259000Y-84236800D02*
G75*
G02*
X119783000Y-84236800I762000J0D01*
G01*
X119782000Y-85762000D02*
G75*
G02*
X118259000Y-85760800I-761500J600D01*
G01*
D18*
%TO.C,LED6*%
X171109887Y-88078392D02*
X171109887Y-88225092D01*
X171109887Y-89058392D02*
X171109887Y-89075092D01*
X171109887Y-89908392D02*
X171109887Y-90055092D01*
X171791387Y-90066692D02*
X171791387Y-88066792D01*
X171791387Y-90066692D02*
X172209887Y-90066692D01*
X172209887Y-88066792D02*
X171791287Y-88066792D01*
X172209887Y-90066692D02*
X172209887Y-88066792D01*
D10*
%TO.C,C82*%
X134790000Y-109959420D02*
X134790000Y-110240580D01*
X135810000Y-109959420D02*
X135810000Y-110240580D01*
%TO.C,C75*%
X142215580Y-105090000D02*
X141934420Y-105090000D01*
X142215580Y-106110000D02*
X141934420Y-106110000D01*
%TO.C,C91*%
X130990000Y-98740580D02*
X130990000Y-98459420D01*
X132010000Y-98740580D02*
X132010000Y-98459420D01*
D13*
%TO.C,L6*%
X144250000Y-101100000D02*
X144250000Y-97100000D01*
X146981500Y-97100000D02*
X146218500Y-97100000D01*
X146981500Y-101100000D02*
X146218500Y-101100000D01*
X148950000Y-97100000D02*
X148950000Y-101100000D01*
D14*
X143863000Y-98497000D02*
G75*
G02*
X143663000Y-98497000I-100000J0D01*
G01*
X143663000Y-98497000D02*
G75*
G02*
X143863000Y-98497000I100000J0D01*
G01*
D10*
%TO.C,R62*%
X103112659Y-85339940D02*
X103329940Y-85122659D01*
X103650060Y-85877341D02*
X103867341Y-85660060D01*
%TO.C,C12*%
X140460000Y-79474420D02*
X140460000Y-79755580D01*
X141480000Y-79474420D02*
X141480000Y-79755580D01*
%TO.C,R60*%
X164322659Y-94660060D02*
X164539940Y-94877341D01*
X164860060Y-94122659D02*
X165077341Y-94339940D01*
%TO.C,R20*%
X114446359Y-79820000D02*
X114753641Y-79820000D01*
X114446359Y-80580000D02*
X114753641Y-80580000D01*
%TO.C,Q4*%
X156265000Y-84040000D02*
X156265000Y-83760000D01*
X156350748Y-82740000D02*
X157735000Y-82740000D01*
X157735000Y-82740000D02*
X157735000Y-83390000D01*
X157735000Y-84410000D02*
X157735000Y-85060000D01*
X157735000Y-85060000D02*
X156265000Y-85060000D01*
X156060000Y-82730000D02*
X155920000Y-82540000D01*
X156200000Y-82540000D01*
X156060000Y-82730000D01*
G36*
X156060000Y-82730000D02*
G01*
X155920000Y-82540000D01*
X156200000Y-82540000D01*
X156060000Y-82730000D01*
G37*
%TO.C,C19*%
X141933748Y-72380000D02*
X142456252Y-72380000D01*
X141933748Y-73850000D02*
X142456252Y-73850000D01*
%TO.C,C15*%
X117465000Y-103218748D02*
X117465000Y-103741252D01*
X118935000Y-103218748D02*
X118935000Y-103741252D01*
%TO.C,C6*%
X150390000Y-81260580D02*
X150390000Y-80979420D01*
X151410000Y-81260580D02*
X151410000Y-80979420D01*
D13*
%TO.C,U8*%
X120900000Y-66500000D02*
X120900000Y-66970000D01*
X120900000Y-66500000D02*
X121370000Y-66500000D01*
X120900000Y-73500000D02*
X120900000Y-73030000D01*
X120900000Y-73500000D02*
X121370000Y-73500000D01*
X127900000Y-66500000D02*
X127430000Y-66500000D01*
X127900000Y-66500000D02*
X127900000Y-66970000D01*
X127900000Y-73500000D02*
X127430000Y-73500000D01*
X127900000Y-73500000D02*
X127900000Y-73030000D01*
D14*
X121900000Y-74455000D02*
G75*
G02*
X121700000Y-74455000I-100000J0D01*
G01*
X121700000Y-74455000D02*
G75*
G02*
X121900000Y-74455000I100000J0D01*
G01*
D10*
%TO.C,C87*%
X150365000Y-102738748D02*
X150365000Y-103261252D01*
X151835000Y-102738748D02*
X151835000Y-103261252D01*
%TO.C,C83*%
X141840000Y-96907836D02*
X141840000Y-96692164D01*
X142560000Y-96907836D02*
X142560000Y-96692164D01*
%TO.C,R21*%
X119466359Y-80520000D02*
X119773641Y-80520000D01*
X119466359Y-81280000D02*
X119773641Y-81280000D01*
%TO.C,R57*%
X144546359Y-114920000D02*
X144853641Y-114920000D01*
X144546359Y-115680000D02*
X144853641Y-115680000D01*
%TO.C,TP5*%
X131100000Y-81600000D02*
G75*
G02*
X129700000Y-81600000I-700000J0D01*
G01*
X129700000Y-81600000D02*
G75*
G02*
X131100000Y-81600000I700000J0D01*
G01*
%TO.C,C3*%
X124777500Y-114601248D02*
X124777500Y-115123752D01*
X126247500Y-114601248D02*
X126247500Y-115123752D01*
%TO.C,C17*%
X139110580Y-72605000D02*
X138829420Y-72605000D01*
X139110580Y-73625000D02*
X138829420Y-73625000D01*
%TO.C,R14*%
X115086141Y-106600000D02*
X114778859Y-106600000D01*
X115086141Y-107360000D02*
X114778859Y-107360000D01*
%TO.C,C92*%
X102140000Y-89207836D02*
X102140000Y-88992164D01*
X102860000Y-89207836D02*
X102860000Y-88992164D01*
%TO.C,R32*%
X124720000Y-76653641D02*
X124720000Y-76346359D01*
X125480000Y-76653641D02*
X125480000Y-76346359D01*
%TO.C,R24*%
X130846359Y-72250999D02*
X131153641Y-72250999D01*
X130846359Y-73010999D02*
X131153641Y-73010999D01*
%TO.C,R68*%
X135465000Y-94585436D02*
X135465000Y-95039564D01*
X136935000Y-94585436D02*
X136935000Y-95039564D01*
%TO.C,TP6*%
X108100000Y-94600000D02*
G75*
G02*
X106700000Y-94600000I-700000J0D01*
G01*
X106700000Y-94600000D02*
G75*
G02*
X108100000Y-94600000I700000J0D01*
G01*
%TO.C,C39*%
X120433650Y-76927836D02*
X120433650Y-76712164D01*
X121153650Y-76927836D02*
X121153650Y-76712164D01*
%TO.C,R77*%
X156946359Y-80420000D02*
X157253641Y-80420000D01*
X156946359Y-81180000D02*
X157253641Y-81180000D01*
%TO.C,R70*%
X130046359Y-100220000D02*
X130353641Y-100220000D01*
X130046359Y-100980000D02*
X130353641Y-100980000D01*
%TO.C,TP13*%
X131400000Y-109100000D02*
G75*
G02*
X130000000Y-109100000I-700000J0D01*
G01*
X130000000Y-109100000D02*
G75*
G02*
X131400000Y-109100000I700000J0D01*
G01*
%TO.C,C85*%
X138365000Y-110038748D02*
X138365000Y-110561252D01*
X139835000Y-110038748D02*
X139835000Y-110561252D01*
%TO.C,C44*%
X133540000Y-73292164D02*
X133540000Y-73507836D01*
X134260000Y-73292164D02*
X134260000Y-73507836D01*
%TO.C,C45*%
X143672164Y-61340000D02*
X143887836Y-61340000D01*
X143672164Y-62060000D02*
X143887836Y-62060000D01*
%TO.C,TP17*%
X123123000Y-105550000D02*
G75*
G02*
X121723000Y-105550000I-700000J0D01*
G01*
X121723000Y-105550000D02*
G75*
G02*
X123123000Y-105550000I700000J0D01*
G01*
%TO.C,R79*%
X154676359Y-96260000D02*
X154983641Y-96260000D01*
X154676359Y-97020000D02*
X154983641Y-97020000D01*
%TO.C,C90*%
X129490000Y-98740580D02*
X129490000Y-98459420D01*
X130510000Y-98740580D02*
X130510000Y-98459420D01*
D13*
%TO.C,POWER_IN1*%
X137810362Y-118200999D02*
X137810362Y-120730999D01*
X138580362Y-122000999D02*
X144040362Y-122000999D01*
X144810362Y-118200999D02*
X137810362Y-118200999D01*
X144810362Y-120730999D02*
X144810362Y-118200999D01*
D14*
X144414000Y-118672000D02*
G75*
G02*
X144214000Y-118672000I-100000J0D01*
G01*
X144214000Y-118672000D02*
G75*
G02*
X144414000Y-118672000I100000J0D01*
G01*
D10*
%TO.C,C81*%
X139965000Y-96561252D02*
X139965000Y-96038748D01*
X141435000Y-96561252D02*
X141435000Y-96038748D01*
%TO.C,TP23*%
X105800000Y-88350000D02*
G75*
G02*
X104400000Y-88350000I-700000J0D01*
G01*
X104400000Y-88350000D02*
G75*
G02*
X105800000Y-88350000I700000J0D01*
G01*
%TO.C,C49*%
X135187836Y-61640000D02*
X134972164Y-61640000D01*
X135187836Y-62360000D02*
X134972164Y-62360000D01*
%TO.C,R13*%
X118490000Y-114224758D02*
X118490000Y-113750242D01*
X119535000Y-114224758D02*
X119535000Y-113750242D01*
%TO.C,TP22*%
X129441000Y-104084000D02*
G75*
G02*
X128041000Y-104084000I-700000J0D01*
G01*
X128041000Y-104084000D02*
G75*
G02*
X129441000Y-104084000I700000J0D01*
G01*
%TO.C,R75*%
X133446359Y-83020000D02*
X133753641Y-83020000D01*
X133446359Y-83780000D02*
X133753641Y-83780000D01*
%TO.C,C37*%
X119381486Y-74940000D02*
X119165814Y-74940000D01*
X119381486Y-75660000D02*
X119165814Y-75660000D01*
D13*
%TO.C,L7*%
X144250000Y-106000000D02*
X144250000Y-102000000D01*
X146981500Y-102000000D02*
X146218500Y-102000000D01*
X146981500Y-106000000D02*
X146218500Y-106000000D01*
X148950000Y-102000000D02*
X148950000Y-106000000D01*
D14*
X143868000Y-102739000D02*
G75*
G02*
X143668000Y-102739000I-100000J0D01*
G01*
X143668000Y-102739000D02*
G75*
G02*
X143868000Y-102739000I100000J0D01*
G01*
D10*
%TO.C,R59*%
X106839940Y-82477341D02*
X106622659Y-82260060D01*
X107377341Y-81939940D02*
X107160060Y-81722659D01*
%TO.C,C27*%
X118578835Y-66840000D02*
X118363163Y-66840000D01*
X118578835Y-67560000D02*
X118363163Y-67560000D01*
%TO.C,R19*%
X109420000Y-102892258D02*
X109420000Y-102417742D01*
X110465000Y-102892258D02*
X110465000Y-102417742D01*
%TO.C,R31*%
X130653641Y-74220000D02*
X130346359Y-74220000D01*
X130653641Y-74980000D02*
X130346359Y-74980000D01*
%TO.C,C4*%
X126777500Y-114601248D02*
X126777500Y-115123752D01*
X128247500Y-114601248D02*
X128247500Y-115123752D01*
%TO.C,C71*%
X165921693Y-93469190D02*
X165769190Y-93621693D01*
X166430810Y-93978307D02*
X166278307Y-94130810D01*
%TO.C,C60*%
X136492164Y-65740000D02*
X136707836Y-65740000D01*
X136492164Y-66460000D02*
X136707836Y-66460000D01*
%TO.C,L8*%
X137040000Y-78270000D02*
X137040000Y-79070000D01*
X139160000Y-76850000D02*
X139160000Y-79070000D01*
%TO.C,C25*%
X130390000Y-78194420D02*
X130390000Y-78475580D01*
X131410000Y-78194420D02*
X131410000Y-78475580D01*
%TO.C,R69*%
X131365000Y-112327064D02*
X131365000Y-111872936D01*
X132835000Y-112327064D02*
X132835000Y-111872936D01*
%TO.C,U18*%
X123690000Y-107299252D02*
X123690000Y-105965000D01*
X125910000Y-105965000D02*
X125910000Y-107435000D01*
X123680000Y-107590000D02*
X123490000Y-107730000D01*
X123490000Y-107450000D01*
X123680000Y-107590000D01*
G36*
X123680000Y-107590000D02*
G01*
X123490000Y-107730000D01*
X123490000Y-107450000D01*
X123680000Y-107590000D01*
G37*
%TO.C,C9*%
X115242138Y-114020921D02*
X115242138Y-114302081D01*
X116262138Y-114020921D02*
X116262138Y-114302081D01*
%TO.C,R18*%
X107920000Y-102417742D02*
X107920000Y-102892258D01*
X108965000Y-102417742D02*
X108965000Y-102892258D01*
%TO.C,C55*%
X140492164Y-66840000D02*
X140707836Y-66840000D01*
X140492164Y-67560000D02*
X140707836Y-67560000D01*
D13*
%TO.C,J5*%
X157363425Y-105893934D02*
X160510050Y-102747309D01*
X157897291Y-106427800D02*
X157363425Y-105893934D01*
X160510050Y-102747309D02*
X161043916Y-103281175D01*
X160545406Y-109075915D02*
X160011540Y-108542049D01*
X163158165Y-105395424D02*
X163692031Y-105929290D01*
X163692031Y-105929290D02*
X160545406Y-109075915D01*
D14*
X162837437Y-107944544D02*
G75*
G02*
X162637437Y-107944544I-100000J0D01*
G01*
X162637437Y-107944544D02*
G75*
G02*
X162837437Y-107944544I100000J0D01*
G01*
D10*
%TO.C,C18*%
X134515580Y-74652500D02*
X134234420Y-74652500D01*
X134515580Y-75672500D02*
X134234420Y-75672500D01*
%TO.C,D5*%
X113190200Y-80870999D02*
X113190200Y-82070999D01*
X115150200Y-80870999D02*
X113190200Y-80870999D01*
X115150200Y-82070999D02*
X113190200Y-82070999D01*
%TO.C,U4*%
X151840000Y-84700000D02*
X151840000Y-83900000D01*
X151840000Y-84700000D02*
X151840000Y-85500000D01*
X154960000Y-84700000D02*
X154960000Y-83900000D01*
X154960000Y-84700000D02*
X154960000Y-85500000D01*
X151890000Y-86000000D02*
X151560000Y-86240000D01*
X151560000Y-85760000D01*
X151890000Y-86000000D01*
G36*
X151890000Y-86000000D02*
G01*
X151560000Y-86240000D01*
X151560000Y-85760000D01*
X151890000Y-86000000D01*
G37*
%TO.C,C21*%
X106432500Y-102614420D02*
X106432500Y-102895580D01*
X107452500Y-102614420D02*
X107452500Y-102895580D01*
%TO.C,TP19*%
X119281000Y-79299000D02*
G75*
G02*
X117881000Y-79299000I-700000J0D01*
G01*
X117881000Y-79299000D02*
G75*
G02*
X119281000Y-79299000I700000J0D01*
G01*
%TO.C,C51*%
X136512164Y-62740000D02*
X136727836Y-62740000D01*
X136512164Y-63460000D02*
X136727836Y-63460000D01*
%TO.C,C79*%
X137965000Y-96561252D02*
X137965000Y-96038748D01*
X139435000Y-96561252D02*
X139435000Y-96038748D01*
D18*
%TO.C,LED1*%
X99420290Y-88086978D02*
X99420290Y-90086878D01*
X99420290Y-90086878D02*
X99838890Y-90086878D01*
X99838790Y-88086978D02*
X99420290Y-88086978D01*
X99838790Y-88086978D02*
X99838790Y-90086878D01*
X100520290Y-88245278D02*
X100520290Y-88098578D01*
X100520290Y-89095278D02*
X100520290Y-89078578D01*
X100520290Y-90075278D02*
X100520290Y-89928578D01*
D10*
%TO.C,C38*%
X121433650Y-76927836D02*
X121433650Y-76712164D01*
X122153650Y-76927836D02*
X122153650Y-76712164D01*
%TO.C,C72*%
X103869190Y-86021693D02*
X104021693Y-85869190D01*
X104378307Y-86530810D02*
X104530810Y-86378307D01*
%TO.C,C53*%
X137307836Y-59240000D02*
X137092164Y-59240000D01*
X137307836Y-59960000D02*
X137092164Y-59960000D01*
%TO.C,C100*%
X133492164Y-81940000D02*
X133707836Y-81940000D01*
X133492164Y-82660000D02*
X133707836Y-82660000D01*
D13*
%TO.C,U14*%
X134000000Y-98130000D02*
X138400000Y-98130000D01*
X134000000Y-108470000D02*
X138400000Y-108470000D01*
D14*
X132858000Y-98403000D02*
G75*
G02*
X132658000Y-98403000I-100000J0D01*
G01*
X132658000Y-98403000D02*
G75*
G02*
X132858000Y-98403000I100000J0D01*
G01*
D10*
%TO.C,R76*%
X156246359Y-81420000D02*
X156553641Y-81420000D01*
X156246359Y-82180000D02*
X156553641Y-82180000D01*
%TO.C,C20*%
X137328386Y-74376501D02*
X137850890Y-74376501D01*
X137328386Y-75846501D02*
X137850890Y-75846501D01*
%TO.C,C7*%
X152035000Y-81260580D02*
X152035000Y-80979420D01*
X153055000Y-81260580D02*
X153055000Y-80979420D01*
%TO.C,C80*%
X133290000Y-109959420D02*
X133290000Y-110240580D01*
X134310000Y-109959420D02*
X134310000Y-110240580D01*
%TO.C,L2*%
X109850000Y-100370000D02*
X109850000Y-95730000D01*
X114150000Y-100370000D02*
X114150000Y-95730000D01*
%TO.C,AE1*%
X111321033Y-67738478D02*
X112961521Y-69378965D01*
X112961521Y-69378965D02*
X115726310Y-66614177D01*
X114085823Y-64973690D02*
X111321033Y-67738478D01*
%TO.C,C31*%
X118692164Y-71940000D02*
X118907836Y-71940000D01*
X118692164Y-72660000D02*
X118907836Y-72660000D01*
%TO.C,C103*%
X141262164Y-55735000D02*
X141477836Y-55735000D01*
X141262164Y-56455000D02*
X141477836Y-56455000D01*
%TO.C,R66*%
X141190000Y-113627064D02*
X141190000Y-112172936D01*
X143010000Y-113627064D02*
X143010000Y-112172936D01*
%TO.C,C52*%
X132887836Y-64140000D02*
X132672164Y-64140000D01*
X132887836Y-64860000D02*
X132672164Y-64860000D01*
D15*
%TO.C,J1*%
X148760950Y-65161129D02*
X148682886Y-65083064D01*
X149054188Y-63536409D02*
X150855613Y-61734985D01*
X151235823Y-67636002D02*
X151061027Y-67461206D01*
X152950275Y-59640323D02*
X153154558Y-59436039D01*
X153154558Y-59436039D02*
X159263961Y-65545442D01*
X153616936Y-70017114D02*
X153537386Y-69937565D01*
X156965015Y-67844387D02*
X155163590Y-69645812D01*
X159263961Y-65545442D02*
X159059679Y-65749724D01*
D19*
X153014814Y-70728463D02*
G75*
G02*
X152714616Y-70728463I-150099J0D01*
G01*
X152714616Y-70728463D02*
G75*
G02*
X153014814Y-70728463I150099J0D01*
G01*
D10*
%TO.C,TP3*%
X122100000Y-102000000D02*
G75*
G02*
X120700000Y-102000000I-700000J0D01*
G01*
X120700000Y-102000000D02*
G75*
G02*
X122100000Y-102000000I700000J0D01*
G01*
%TO.C,C77*%
X142940580Y-103190000D02*
X142659420Y-103190000D01*
X142940580Y-104210000D02*
X142659420Y-104210000D01*
%TO.C,C88*%
X140972164Y-107740000D02*
X141187836Y-107740000D01*
X140972164Y-108460000D02*
X141187836Y-108460000D01*
D13*
%TO.C,MK1*%
X101948353Y-82046395D02*
X102567071Y-81427676D01*
X103161041Y-83259083D02*
X101948353Y-82046395D01*
X103203467Y-80791280D02*
X103822186Y-80172562D01*
X105034874Y-81385250D02*
X103822186Y-80172562D01*
X105473280Y-83471215D02*
X105247006Y-83697489D01*
D14*
X106113000Y-81041000D02*
G75*
G02*
X105913000Y-81041000I-100000J0D01*
G01*
X105913000Y-81041000D02*
G75*
G02*
X106113000Y-81041000I100000J0D01*
G01*
D10*
%TO.C,R9*%
X154553641Y-81682500D02*
X154246359Y-81682500D01*
X154553641Y-82442500D02*
X154246359Y-82442500D01*
%TO.C,C36*%
X121165814Y-74940000D02*
X121381486Y-74940000D01*
X121165814Y-75660000D02*
X121381486Y-75660000D01*
%TO.C,R15*%
X116096141Y-100100000D02*
X115788859Y-100100000D01*
X116096141Y-100860000D02*
X115788859Y-100860000D01*
%TO.C,R71*%
X131119603Y-106894836D02*
X131119603Y-106587554D01*
X131879603Y-106894836D02*
X131879603Y-106587554D01*
%TO.C,C22*%
X107707500Y-97718748D02*
X107707500Y-98241252D01*
X109177500Y-97718748D02*
X109177500Y-98241252D01*
%TO.C,R33*%
X126953641Y-76420000D02*
X126646359Y-76420000D01*
X126953641Y-77180000D02*
X126646359Y-77180000D01*
%TO.C,C78*%
X131407836Y-101163110D02*
X131192164Y-101163110D01*
X131407836Y-101883110D02*
X131192164Y-101883110D01*
%TO.C,R5*%
X147639940Y-67077341D02*
X147422659Y-66860060D01*
X148177341Y-66539940D02*
X147960060Y-66322659D01*
%TO.C,C16*%
X116070336Y-105620000D02*
X115854664Y-105620000D01*
X116070336Y-106340000D02*
X115854664Y-106340000D01*
%TO.C,R30*%
X127020000Y-75167358D02*
X127020000Y-75474640D01*
X127780000Y-75167358D02*
X127780000Y-75474640D01*
D13*
%TO.C,MK2*%
X166093267Y-94956709D02*
X166319541Y-94730435D01*
X166531673Y-97042674D02*
X167744361Y-98255362D01*
X168363080Y-97636644D02*
X167744361Y-98255362D01*
X168405506Y-95168841D02*
X169618194Y-96381529D01*
X169618194Y-96381529D02*
X168999476Y-97000248D01*
D14*
X165272614Y-96426077D02*
G75*
G02*
X165072614Y-96426077I-100000J0D01*
G01*
X165072614Y-96426077D02*
G75*
G02*
X165272614Y-96426077I100000J0D01*
G01*
D17*
%TO.C,D3*%
X149239895Y-70303033D02*
G75*
G02*
X149139895Y-70303033I-50000J0D01*
G01*
X149139895Y-70303033D02*
G75*
G02*
X149239895Y-70303033I50000J0D01*
G01*
D10*
%TO.C,R29*%
X126020000Y-75177358D02*
X126020000Y-75484640D01*
X126780000Y-75177358D02*
X126780000Y-75484640D01*
%TO.C,R63*%
X167122659Y-93360060D02*
X167339940Y-93577341D01*
X167660060Y-92822659D02*
X167877341Y-93039940D01*
%TO.C,C24*%
X116040000Y-81107836D02*
X116040000Y-80892164D01*
X116760000Y-81107836D02*
X116760000Y-80892164D01*
%TO.C,C57*%
X137240000Y-68212164D02*
X137240000Y-68427836D01*
X137960000Y-68212164D02*
X137960000Y-68427836D01*
%TO.C,C86*%
X150365000Y-99361252D02*
X150365000Y-98838748D01*
X151835000Y-99361252D02*
X151835000Y-98838748D01*
%TD*%
%LPC*%
D20*
%TO.C,J6*%
X159575000Y-91231000D02*
X158675000Y-91231000D01*
X158675000Y-90831000D01*
X159575000Y-90831000D01*
X159575000Y-91231000D01*
G36*
X159575000Y-91231000D02*
G01*
X158675000Y-91231000D01*
X158675000Y-90831000D01*
X159575000Y-90831000D01*
X159575000Y-91231000D01*
G37*
X159575000Y-91731000D02*
X158675000Y-91731000D01*
X158675000Y-91331000D01*
X159575000Y-91331000D01*
X159575000Y-91731000D01*
G36*
X159575000Y-91731000D02*
G01*
X158675000Y-91731000D01*
X158675000Y-91331000D01*
X159575000Y-91331000D01*
X159575000Y-91731000D01*
G37*
X159575000Y-92231000D02*
X158675000Y-92231000D01*
X158675000Y-91831000D01*
X159575000Y-91831000D01*
X159575000Y-92231000D01*
G36*
X159575000Y-92231000D02*
G01*
X158675000Y-92231000D01*
X158675000Y-91831000D01*
X159575000Y-91831000D01*
X159575000Y-92231000D01*
G37*
X159575000Y-93231000D02*
X158675000Y-93231000D01*
X158675000Y-92831000D01*
X159575000Y-92831000D01*
X159575000Y-93231000D01*
G36*
X159575000Y-93231000D02*
G01*
X158675000Y-93231000D01*
X158675000Y-92831000D01*
X159575000Y-92831000D01*
X159575000Y-93231000D01*
G37*
X159575000Y-93731000D02*
X158675000Y-93731000D01*
X158675000Y-93331000D01*
X159575000Y-93331000D01*
X159575000Y-93731000D01*
G36*
X159575000Y-93731000D02*
G01*
X158675000Y-93731000D01*
X158675000Y-93331000D01*
X159575000Y-93331000D01*
X159575000Y-93731000D01*
G37*
X159575000Y-94231000D02*
X158675000Y-94231000D01*
X158675000Y-93831000D01*
X159575000Y-93831000D01*
X159575000Y-94231000D01*
G36*
X159575000Y-94231000D02*
G01*
X158675000Y-94231000D01*
X158675000Y-93831000D01*
X159575000Y-93831000D01*
X159575000Y-94231000D01*
G37*
X159575000Y-94731000D02*
X158675000Y-94731000D01*
X158675000Y-94331000D01*
X159575000Y-94331000D01*
X159575000Y-94731000D01*
G36*
X159575000Y-94731000D02*
G01*
X158675000Y-94731000D01*
X158675000Y-94331000D01*
X159575000Y-94331000D01*
X159575000Y-94731000D01*
G37*
X159575000Y-95731000D02*
X158675000Y-95731000D01*
X158675000Y-95331000D01*
X159575000Y-95331000D01*
X159575000Y-95731000D01*
G36*
X159575000Y-95731000D02*
G01*
X158675000Y-95731000D01*
X158675000Y-95331000D01*
X159575000Y-95331000D01*
X159575000Y-95731000D01*
G37*
X159575000Y-96231000D02*
X158675000Y-96231000D01*
X158675000Y-95831000D01*
X159575000Y-95831000D01*
X159575000Y-96231000D01*
G36*
X159575000Y-96231000D02*
G01*
X158675000Y-96231000D01*
X158675000Y-95831000D01*
X159575000Y-95831000D01*
X159575000Y-96231000D01*
G37*
X159575000Y-96731000D02*
X158675000Y-96731000D01*
X158675000Y-96331000D01*
X159575000Y-96331000D01*
X159575000Y-96731000D01*
G36*
X159575000Y-96731000D02*
G01*
X158675000Y-96731000D01*
X158675000Y-96331000D01*
X159575000Y-96331000D01*
X159575000Y-96731000D01*
G37*
%TO.C,POWER_IN1*%
X139260362Y-119400999D02*
X138860362Y-119400999D01*
X138860362Y-118500999D01*
X139260362Y-118500999D01*
X139260362Y-119400999D01*
G36*
X139260362Y-119400999D02*
G01*
X138860362Y-119400999D01*
X138860362Y-118500999D01*
X139260362Y-118500999D01*
X139260362Y-119400999D01*
G37*
X139760362Y-119400999D02*
X139360362Y-119400999D01*
X139360362Y-118500999D01*
X139760362Y-118500999D01*
X139760362Y-119400999D01*
G36*
X139760362Y-119400999D02*
G01*
X139360362Y-119400999D01*
X139360362Y-118500999D01*
X139760362Y-118500999D01*
X139760362Y-119400999D01*
G37*
X140260362Y-119400999D02*
X139860362Y-119400999D01*
X139860362Y-118500999D01*
X140260362Y-118500999D01*
X140260362Y-119400999D01*
G36*
X140260362Y-119400999D02*
G01*
X139860362Y-119400999D01*
X139860362Y-118500999D01*
X140260362Y-118500999D01*
X140260362Y-119400999D01*
G37*
X140760362Y-119400999D02*
X140360362Y-119400999D01*
X140360362Y-118500999D01*
X140760362Y-118500999D01*
X140760362Y-119400999D01*
G36*
X140760362Y-119400999D02*
G01*
X140360362Y-119400999D01*
X140360362Y-118500999D01*
X140760362Y-118500999D01*
X140760362Y-119400999D01*
G37*
X141260362Y-119400999D02*
X140860362Y-119400999D01*
X140860362Y-118500999D01*
X141260362Y-118500999D01*
X141260362Y-119400999D01*
G36*
X141260362Y-119400999D02*
G01*
X140860362Y-119400999D01*
X140860362Y-118500999D01*
X141260362Y-118500999D01*
X141260362Y-119400999D01*
G37*
X141760362Y-119400999D02*
X141360362Y-119400999D01*
X141360362Y-118500999D01*
X141760362Y-118500999D01*
X141760362Y-119400999D01*
G36*
X141760362Y-119400999D02*
G01*
X141360362Y-119400999D01*
X141360362Y-118500999D01*
X141760362Y-118500999D01*
X141760362Y-119400999D01*
G37*
X142260362Y-119400999D02*
X141860362Y-119400999D01*
X141860362Y-118500999D01*
X142260362Y-118500999D01*
X142260362Y-119400999D01*
G36*
X142260362Y-119400999D02*
G01*
X141860362Y-119400999D01*
X141860362Y-118500999D01*
X142260362Y-118500999D01*
X142260362Y-119400999D01*
G37*
X142760362Y-119400999D02*
X142360362Y-119400999D01*
X142360362Y-118500999D01*
X142760362Y-118500999D01*
X142760362Y-119400999D01*
G36*
X142760362Y-119400999D02*
G01*
X142360362Y-119400999D01*
X142360362Y-118500999D01*
X142760362Y-118500999D01*
X142760362Y-119400999D01*
G37*
X143260362Y-119400999D02*
X142860362Y-119400999D01*
X142860362Y-118500999D01*
X143260362Y-118500999D01*
X143260362Y-119400999D01*
G36*
X143260362Y-119400999D02*
G01*
X142860362Y-119400999D01*
X142860362Y-118500999D01*
X143260362Y-118500999D01*
X143260362Y-119400999D01*
G37*
X143760362Y-119400999D02*
X143360362Y-119400999D01*
X143360362Y-118500999D01*
X143760362Y-118500999D01*
X143760362Y-119400999D01*
G36*
X143760362Y-119400999D02*
G01*
X143360362Y-119400999D01*
X143360362Y-118500999D01*
X143760362Y-118500999D01*
X143760362Y-119400999D01*
G37*
%TO.C,J5*%
X160209530Y-105911612D02*
X158264987Y-107856156D01*
X157522524Y-107113694D01*
X159467068Y-105169150D01*
X160209530Y-105911612D01*
G36*
X160209530Y-105911612D02*
G01*
X158264987Y-107856156D01*
X157522524Y-107113694D01*
X159467068Y-105169150D01*
X160209530Y-105911612D01*
G37*
X161270190Y-106972272D02*
X159325646Y-108916815D01*
X158583185Y-108174354D01*
X160527728Y-106229810D01*
X161270190Y-106972272D01*
G36*
X161270190Y-106972272D02*
G01*
X159325646Y-108916815D01*
X158583185Y-108174354D01*
X160527728Y-106229810D01*
X161270190Y-106972272D01*
G37*
X163356155Y-102764987D02*
X160775215Y-105345928D01*
X160032753Y-104603464D01*
X162613693Y-102022525D01*
X163356155Y-102764987D01*
G36*
X163356155Y-102764987D02*
G01*
X160775215Y-105345928D01*
X160032753Y-104603464D01*
X162613693Y-102022525D01*
X163356155Y-102764987D01*
G37*
X164416815Y-103825647D02*
X161835876Y-106406587D01*
X161093413Y-105664126D01*
X163674353Y-103083185D01*
X164416815Y-103825647D01*
G36*
X164416815Y-103825647D02*
G01*
X161835876Y-106406587D01*
X161093413Y-105664126D01*
X163674353Y-103083185D01*
X164416815Y-103825647D01*
G37*
%TO.C,U14*%
X134100000Y-99350000D02*
X132500000Y-99350000D01*
X132500000Y-98800000D01*
X134100000Y-98800000D01*
X134100000Y-99350000D01*
G36*
X134100000Y-99350000D02*
G01*
X132500000Y-99350000D01*
X132500000Y-98800000D01*
X134100000Y-98800000D01*
X134100000Y-99350000D01*
G37*
X134100000Y-100000000D02*
X132500000Y-100000000D01*
X132500000Y-99450000D01*
X134100000Y-99450000D01*
X134100000Y-100000000D01*
G36*
X134100000Y-100000000D02*
G01*
X132500000Y-100000000D01*
X132500000Y-99450000D01*
X134100000Y-99450000D01*
X134100000Y-100000000D01*
G37*
X134100000Y-100650000D02*
X132500000Y-100650000D01*
X132500000Y-100100000D01*
X134100000Y-100100000D01*
X134100000Y-100650000D01*
G36*
X134100000Y-100650000D02*
G01*
X132500000Y-100650000D01*
X132500000Y-100100000D01*
X134100000Y-100100000D01*
X134100000Y-100650000D01*
G37*
X134100000Y-101300000D02*
X132500000Y-101300000D01*
X132500000Y-100750000D01*
X134100000Y-100750000D01*
X134100000Y-101300000D01*
G36*
X134100000Y-101300000D02*
G01*
X132500000Y-101300000D01*
X132500000Y-100750000D01*
X134100000Y-100750000D01*
X134100000Y-101300000D01*
G37*
X134100000Y-101950000D02*
X132500000Y-101950000D01*
X132500000Y-101400000D01*
X134100000Y-101400000D01*
X134100000Y-101950000D01*
G36*
X134100000Y-101950000D02*
G01*
X132500000Y-101950000D01*
X132500000Y-101400000D01*
X134100000Y-101400000D01*
X134100000Y-101950000D01*
G37*
X134100000Y-102600000D02*
X132500000Y-102600000D01*
X132500000Y-102050000D01*
X134100000Y-102050000D01*
X134100000Y-102600000D01*
G36*
X134100000Y-102600000D02*
G01*
X132500000Y-102600000D01*
X132500000Y-102050000D01*
X134100000Y-102050000D01*
X134100000Y-102600000D01*
G37*
X134100000Y-103250000D02*
X132500000Y-103250000D01*
X132500000Y-102700000D01*
X134100000Y-102700000D01*
X134100000Y-103250000D01*
G36*
X134100000Y-103250000D02*
G01*
X132500000Y-103250000D01*
X132500000Y-102700000D01*
X134100000Y-102700000D01*
X134100000Y-103250000D01*
G37*
X134100000Y-103900000D02*
X132500000Y-103900000D01*
X132500000Y-103350000D01*
X134100000Y-103350000D01*
X134100000Y-103900000D01*
G36*
X134100000Y-103900000D02*
G01*
X132500000Y-103900000D01*
X132500000Y-103350000D01*
X134100000Y-103350000D01*
X134100000Y-103900000D01*
G37*
X134100000Y-104550000D02*
X132500000Y-104550000D01*
X132500000Y-104000000D01*
X134100000Y-104000000D01*
X134100000Y-104550000D01*
G36*
X134100000Y-104550000D02*
G01*
X132500000Y-104550000D01*
X132500000Y-104000000D01*
X134100000Y-104000000D01*
X134100000Y-104550000D01*
G37*
X134100000Y-105200000D02*
X132500000Y-105200000D01*
X132500000Y-104650000D01*
X134100000Y-104650000D01*
X134100000Y-105200000D01*
G36*
X134100000Y-105200000D02*
G01*
X132500000Y-105200000D01*
X132500000Y-104650000D01*
X134100000Y-104650000D01*
X134100000Y-105200000D01*
G37*
X134100000Y-105850000D02*
X132500000Y-105850000D01*
X132500000Y-105300000D01*
X134100000Y-105300000D01*
X134100000Y-105850000D01*
G36*
X134100000Y-105850000D02*
G01*
X132500000Y-105850000D01*
X132500000Y-105300000D01*
X134100000Y-105300000D01*
X134100000Y-105850000D01*
G37*
X134100000Y-106500000D02*
X132500000Y-106500000D01*
X132500000Y-105950000D01*
X134100000Y-105950000D01*
X134100000Y-106500000D01*
G36*
X134100000Y-106500000D02*
G01*
X132500000Y-106500000D01*
X132500000Y-105950000D01*
X134100000Y-105950000D01*
X134100000Y-106500000D01*
G37*
X134100000Y-107150000D02*
X132500000Y-107150000D01*
X132500000Y-106600000D01*
X134100000Y-106600000D01*
X134100000Y-107150000D01*
G36*
X134100000Y-107150000D02*
G01*
X132500000Y-107150000D01*
X132500000Y-106600000D01*
X134100000Y-106600000D01*
X134100000Y-107150000D01*
G37*
X134100000Y-107800000D02*
X132500000Y-107800000D01*
X132500000Y-107250000D01*
X134100000Y-107250000D01*
X134100000Y-107800000D01*
G36*
X134100000Y-107800000D02*
G01*
X132500000Y-107800000D01*
X132500000Y-107250000D01*
X134100000Y-107250000D01*
X134100000Y-107800000D01*
G37*
X137750000Y-105325000D02*
X134650000Y-105325000D01*
X134650000Y-101275000D01*
X137750000Y-101275000D01*
X137750000Y-105325000D01*
G36*
X137750000Y-105325000D02*
G01*
X134650000Y-105325000D01*
X134650000Y-101275000D01*
X137750000Y-101275000D01*
X137750000Y-105325000D01*
G37*
X139900000Y-99350000D02*
X138300000Y-99350000D01*
X138300000Y-98800000D01*
X139900000Y-98800000D01*
X139900000Y-99350000D01*
G36*
X139900000Y-99350000D02*
G01*
X138300000Y-99350000D01*
X138300000Y-98800000D01*
X139900000Y-98800000D01*
X139900000Y-99350000D01*
G37*
X139900000Y-100000000D02*
X138300000Y-100000000D01*
X138300000Y-99450000D01*
X139900000Y-99450000D01*
X139900000Y-100000000D01*
G36*
X139900000Y-100000000D02*
G01*
X138300000Y-100000000D01*
X138300000Y-99450000D01*
X139900000Y-99450000D01*
X139900000Y-100000000D01*
G37*
X139900000Y-100650000D02*
X138300000Y-100650000D01*
X138300000Y-100100000D01*
X139900000Y-100100000D01*
X139900000Y-100650000D01*
G36*
X139900000Y-100650000D02*
G01*
X138300000Y-100650000D01*
X138300000Y-100100000D01*
X139900000Y-100100000D01*
X139900000Y-100650000D01*
G37*
X139900000Y-101300000D02*
X138300000Y-101300000D01*
X138300000Y-100750000D01*
X139900000Y-100750000D01*
X139900000Y-101300000D01*
G36*
X139900000Y-101300000D02*
G01*
X138300000Y-101300000D01*
X138300000Y-100750000D01*
X139900000Y-100750000D01*
X139900000Y-101300000D01*
G37*
X139900000Y-101950000D02*
X138300000Y-101950000D01*
X138300000Y-101400000D01*
X139900000Y-101400000D01*
X139900000Y-101950000D01*
G36*
X139900000Y-101950000D02*
G01*
X138300000Y-101950000D01*
X138300000Y-101400000D01*
X139900000Y-101400000D01*
X139900000Y-101950000D01*
G37*
X139900000Y-102600000D02*
X138300000Y-102600000D01*
X138300000Y-102050000D01*
X139900000Y-102050000D01*
X139900000Y-102600000D01*
G36*
X139900000Y-102600000D02*
G01*
X138300000Y-102600000D01*
X138300000Y-102050000D01*
X139900000Y-102050000D01*
X139900000Y-102600000D01*
G37*
X139900000Y-103250000D02*
X138300000Y-103250000D01*
X138300000Y-102700000D01*
X139900000Y-102700000D01*
X139900000Y-103250000D01*
G36*
X139900000Y-103250000D02*
G01*
X138300000Y-103250000D01*
X138300000Y-102700000D01*
X139900000Y-102700000D01*
X139900000Y-103250000D01*
G37*
X139900000Y-103900000D02*
X138300000Y-103900000D01*
X138300000Y-103350000D01*
X139900000Y-103350000D01*
X139900000Y-103900000D01*
G36*
X139900000Y-103900000D02*
G01*
X138300000Y-103900000D01*
X138300000Y-103350000D01*
X139900000Y-103350000D01*
X139900000Y-103900000D01*
G37*
X139900000Y-104550000D02*
X138300000Y-104550000D01*
X138300000Y-104000000D01*
X139900000Y-104000000D01*
X139900000Y-104550000D01*
G36*
X139900000Y-104550000D02*
G01*
X138300000Y-104550000D01*
X138300000Y-104000000D01*
X139900000Y-104000000D01*
X139900000Y-104550000D01*
G37*
X139900000Y-105200000D02*
X138300000Y-105200000D01*
X138300000Y-104650000D01*
X139900000Y-104650000D01*
X139900000Y-105200000D01*
G36*
X139900000Y-105200000D02*
G01*
X138300000Y-105200000D01*
X138300000Y-104650000D01*
X139900000Y-104650000D01*
X139900000Y-105200000D01*
G37*
X139900000Y-105850000D02*
X138300000Y-105850000D01*
X138300000Y-105300000D01*
X139900000Y-105300000D01*
X139900000Y-105850000D01*
G36*
X139900000Y-105850000D02*
G01*
X138300000Y-105850000D01*
X138300000Y-105300000D01*
X139900000Y-105300000D01*
X139900000Y-105850000D01*
G37*
X139900000Y-106500000D02*
X138300000Y-106500000D01*
X138300000Y-105950000D01*
X139900000Y-105950000D01*
X139900000Y-106500000D01*
G36*
X139900000Y-106500000D02*
G01*
X138300000Y-106500000D01*
X138300000Y-105950000D01*
X139900000Y-105950000D01*
X139900000Y-106500000D01*
G37*
X139900000Y-107150000D02*
X138300000Y-107150000D01*
X138300000Y-106600000D01*
X139900000Y-106600000D01*
X139900000Y-107150000D01*
G36*
X139900000Y-107150000D02*
G01*
X138300000Y-107150000D01*
X138300000Y-106600000D01*
X139900000Y-106600000D01*
X139900000Y-107150000D01*
G37*
X139900000Y-107800000D02*
X138300000Y-107800000D01*
X138300000Y-107250000D01*
X139900000Y-107250000D01*
X139900000Y-107800000D01*
G36*
X139900000Y-107800000D02*
G01*
X138300000Y-107800000D01*
X138300000Y-107250000D01*
X139900000Y-107250000D01*
X139900000Y-107800000D01*
G37*
D21*
%TO.C,MK1*%
X104051910Y-81844869D02*
G75*
G02*
X103189410Y-81844869I-431250J0D01*
G01*
X103189410Y-81844869D02*
G75*
G02*
X104051910Y-81844869I431250J0D01*
G01*
D20*
X104425348Y-83250597D02*
X103841985Y-83833961D01*
X103402164Y-83394140D01*
X103985527Y-82810777D01*
X104425348Y-83250597D01*
G36*
X104425348Y-83250597D02*
G01*
X103841985Y-83833961D01*
X103402164Y-83394140D01*
X103985527Y-82810777D01*
X104425348Y-83250597D01*
G37*
X105006589Y-83831839D02*
X104423226Y-84415202D01*
X103983406Y-83975382D01*
X104566769Y-83392019D01*
X105006589Y-83831839D01*
G36*
X105006589Y-83831839D02*
G01*
X104423226Y-84415202D01*
X103983406Y-83975382D01*
X104566769Y-83392019D01*
X105006589Y-83831839D01*
G37*
X105609752Y-82066194D02*
X105026388Y-82649557D01*
X104586568Y-82209736D01*
X105169931Y-81626373D01*
X105609752Y-82066194D01*
G36*
X105609752Y-82066194D02*
G01*
X105026388Y-82649557D01*
X104586568Y-82209736D01*
X105169931Y-81626373D01*
X105609752Y-82066194D01*
G37*
X106190993Y-82647435D02*
X105607630Y-83230798D01*
X105167810Y-82790978D01*
X105751173Y-82207615D01*
X106190993Y-82647435D01*
G36*
X106190993Y-82647435D02*
G01*
X105607630Y-83230798D01*
X105167810Y-82790978D01*
X105751173Y-82207615D01*
X106190993Y-82647435D01*
G37*
D21*
%TO.C,MK2*%
X168377137Y-96583055D02*
G75*
G02*
X167514637Y-96583055I-431250J0D01*
G01*
X167514637Y-96583055D02*
G75*
G02*
X168377137Y-96583055I431250J0D01*
G01*
D20*
X166398737Y-95636946D02*
X165815374Y-96220309D01*
X165375554Y-95780489D01*
X165958917Y-95197126D01*
X166398737Y-95636946D01*
G36*
X166398737Y-95636946D02*
G01*
X165815374Y-96220309D01*
X165375554Y-95780489D01*
X165958917Y-95197126D01*
X166398737Y-95636946D01*
G37*
X166979979Y-96218188D02*
X166396616Y-96801551D01*
X165956795Y-96361730D01*
X166540159Y-95778367D01*
X166979979Y-96218188D01*
G36*
X166979979Y-96218188D02*
G01*
X166396616Y-96801551D01*
X165956795Y-96361730D01*
X166540159Y-95778367D01*
X166979979Y-96218188D01*
G37*
X167583141Y-94452542D02*
X166999778Y-95035905D01*
X166559958Y-94596085D01*
X167143321Y-94012722D01*
X167583141Y-94452542D01*
G36*
X167583141Y-94452542D02*
G01*
X166999778Y-95035905D01*
X166559958Y-94596085D01*
X167143321Y-94012722D01*
X167583141Y-94452542D01*
G37*
X168164383Y-95033784D02*
X167581020Y-95617147D01*
X167141199Y-95177327D01*
X167724562Y-94593963D01*
X168164383Y-95033784D01*
G36*
X168164383Y-95033784D02*
G01*
X167581020Y-95617147D01*
X167141199Y-95177327D01*
X167724562Y-94593963D01*
X168164383Y-95033784D01*
G37*
%TD*%
D22*
%TO.C,TP21*%
X120579000Y-64741000D03*
%TD*%
D23*
%TO.C,C97*%
X168560362Y-88620000D03*
X168560362Y-89580000D03*
%TD*%
D24*
%TO.C,R12*%
X117452138Y-113236501D03*
X117452138Y-114886501D03*
%TD*%
D25*
%TO.C,R17*%
X105292500Y-100480000D03*
X106942500Y-100480000D03*
%TD*%
%TO.C,R11*%
X114862500Y-111761501D03*
X116512500Y-111761501D03*
%TD*%
D26*
%TO.C,J6*%
X156625000Y-97531000D03*
X156625000Y-90031000D03*
%TD*%
D27*
%TO.C,C59*%
X135580000Y-67200000D03*
X134620000Y-67200000D03*
%TD*%
D28*
%TO.C,U7*%
X111517500Y-102480000D03*
X111517500Y-102980000D03*
X111517500Y-103480000D03*
X111517500Y-103980000D03*
D29*
X112230000Y-104692500D03*
X112730000Y-104692500D03*
X113230000Y-104692500D03*
X113730000Y-104692500D03*
D28*
X114442500Y-103980000D03*
X114442500Y-103480000D03*
X114442500Y-102980000D03*
X114442500Y-102480000D03*
D29*
X113730000Y-101767500D03*
X113230000Y-101767500D03*
X112730000Y-101767500D03*
X112230000Y-101767500D03*
D30*
X112980000Y-103230000D03*
%TD*%
D31*
%TO.C,C32*%
X118320000Y-73280000D03*
X119280000Y-73280000D03*
%TD*%
%TO.C,C46*%
X140120000Y-62000000D03*
X141080000Y-62000000D03*
%TD*%
D32*
%TO.C,U6*%
X136450000Y-77910000D03*
X135950000Y-77910000D03*
X135450000Y-77910000D03*
X134950000Y-77910000D03*
X134950000Y-79810000D03*
X135450000Y-79810000D03*
X135950000Y-79810000D03*
X136450000Y-79810000D03*
D33*
X135700000Y-78860000D03*
%TD*%
D27*
%TO.C,C5*%
X125512500Y-117312500D03*
X124552500Y-117312500D03*
%TD*%
D34*
%TO.C,R28*%
X130480000Y-68630999D03*
X131500000Y-68630999D03*
%TD*%
D35*
%TO.C,C74*%
X143375000Y-100400000D03*
X141825000Y-100400000D03*
%TD*%
D22*
%TO.C,TP20*%
X121845000Y-81750000D03*
%TD*%
D36*
%TO.C,Y1*%
X117750000Y-68600000D03*
X117750000Y-70000000D03*
X118850000Y-70000000D03*
X118850000Y-68600000D03*
%TD*%
D31*
%TO.C,C67*%
X144120000Y-116300000D03*
X145080000Y-116300000D03*
%TD*%
%TO.C,C109*%
X168120000Y-92200000D03*
X169080000Y-92200000D03*
%TD*%
D37*
%TO.C,R16*%
X110942500Y-108000000D03*
X110942500Y-106980000D03*
%TD*%
D38*
%TO.C,R8*%
X125462138Y-112611501D03*
X124442138Y-112611501D03*
%TD*%
D39*
%TO.C,SW1*%
X116375100Y-83000000D03*
X114224900Y-83000000D03*
X116375100Y-87000000D03*
X114224900Y-87000000D03*
%TD*%
D28*
%TO.C,U3*%
X120587500Y-113812500D03*
X120587500Y-114312500D03*
X120587500Y-114812500D03*
X120587500Y-115312500D03*
D29*
X121300000Y-116025000D03*
X121800000Y-116025000D03*
X122300000Y-116025000D03*
X122800000Y-116025000D03*
D28*
X123512500Y-115312500D03*
X123512500Y-114812500D03*
X123512500Y-114312500D03*
X123512500Y-113812500D03*
D29*
X122800000Y-113100000D03*
X122300000Y-113100000D03*
X121800000Y-113100000D03*
X121300000Y-113100000D03*
D30*
X122050000Y-114562500D03*
%TD*%
D40*
%TO.C,C108*%
X105260589Y-84760589D03*
X105939411Y-85439411D03*
%TD*%
D41*
%TO.C,C10*%
X117912500Y-109312500D03*
X116012500Y-109312500D03*
%TD*%
D31*
%TO.C,C50*%
X139120000Y-68400000D03*
X140080000Y-68400000D03*
%TD*%
%TO.C,C56*%
X142420000Y-64700000D03*
X143380000Y-64700000D03*
%TD*%
D42*
%TO.C,C23*%
X106442500Y-97080000D03*
X106442500Y-98980000D03*
%TD*%
D43*
%TO.C,C13*%
X136150000Y-81162500D03*
X136150000Y-82712500D03*
%TD*%
D44*
%TO.C,C43*%
X139300000Y-59580000D03*
X139300000Y-58620000D03*
%TD*%
D42*
%TO.C,C11*%
X124512500Y-109412500D03*
X124512500Y-111312500D03*
%TD*%
D45*
%TO.C,U5*%
X140350000Y-76935000D03*
X141000000Y-76935000D03*
X141650000Y-76935000D03*
X141650000Y-74995000D03*
X140350000Y-74995000D03*
%TD*%
D46*
%TO.C,J4*%
X139610000Y-56095000D03*
X139610000Y-57365000D03*
X138340000Y-56095000D03*
X138340000Y-57365000D03*
X137070000Y-56095000D03*
X137070000Y-57365000D03*
X135800000Y-56095000D03*
X135800000Y-57365000D03*
X134530000Y-56095000D03*
X134530000Y-57365000D03*
%TD*%
D47*
%TO.C,L4*%
X116000000Y-72785000D03*
X116000000Y-71815000D03*
%TD*%
D42*
%TO.C,C84*%
X137100000Y-109350000D03*
X137100000Y-111250000D03*
%TD*%
D35*
%TO.C,C76*%
X142775000Y-102200000D03*
X141225000Y-102200000D03*
%TD*%
D27*
%TO.C,C47*%
X139680000Y-63000000D03*
X138720000Y-63000000D03*
%TD*%
D38*
%TO.C,R55*%
X144080000Y-117300000D03*
X143060000Y-117300000D03*
%TD*%
D43*
%TO.C,C8*%
X150400000Y-85512500D03*
X150400000Y-87062500D03*
%TD*%
D48*
%TO.C,C89*%
X153799131Y-108799131D03*
X157387697Y-112387697D03*
%TD*%
D22*
%TO.C,TP1*%
X163000000Y-74500000D03*
%TD*%
D49*
%TO.C,R1*%
X151439375Y-70339376D03*
X152160625Y-71060624D03*
%TD*%
D44*
%TO.C,C40*%
X118793650Y-77280000D03*
X118793650Y-76320000D03*
%TD*%
D50*
%TO.C,D4*%
X148917695Y-69175233D03*
X149603589Y-68489341D03*
%TD*%
D22*
%TO.C,TP18*%
X143900000Y-109430000D03*
%TD*%
D38*
%TO.C,R7*%
X123562138Y-117961501D03*
X122542138Y-117961501D03*
%TD*%
D27*
%TO.C,C29*%
X120100000Y-81900000D03*
X119140000Y-81900000D03*
%TD*%
D51*
%TO.C,L3*%
X116100000Y-69915000D03*
X116100000Y-70885000D03*
%TD*%
D38*
%TO.C,R22*%
X131510000Y-67500000D03*
X130490000Y-67500000D03*
%TD*%
D42*
%TO.C,C14*%
X116200000Y-102530000D03*
X116200000Y-104430000D03*
%TD*%
D37*
%TO.C,R74*%
X133900000Y-79010000D03*
X133900000Y-77990000D03*
%TD*%
D31*
%TO.C,C26*%
X118190748Y-71298037D03*
X119150748Y-71298037D03*
%TD*%
D52*
%TO.C,C107*%
X142225000Y-65940000D03*
X143775000Y-65940000D03*
%TD*%
D22*
%TO.C,TP12*%
X140900000Y-116800000D03*
%TD*%
%TO.C,TP4*%
X145700000Y-71500000D03*
%TD*%
D44*
%TO.C,C42*%
X135100000Y-59580000D03*
X135100000Y-58620000D03*
%TD*%
D53*
%TO.C,L1*%
X121012500Y-111411501D03*
X121012500Y-107711501D03*
%TD*%
D34*
%TO.C,R27*%
X130480000Y-69630999D03*
X131500000Y-69630999D03*
%TD*%
D37*
%TO.C,R10*%
X120700000Y-118310000D03*
X120700000Y-117290000D03*
%TD*%
D23*
%TO.C,C28*%
X117200000Y-71420000D03*
X117200000Y-72380000D03*
%TD*%
D31*
%TO.C,C41*%
X123520000Y-63700000D03*
X124480000Y-63700000D03*
%TD*%
D54*
%TO.C,U9*%
X130787500Y-62205000D03*
X130787500Y-60935000D03*
X130787500Y-59665000D03*
X130787500Y-58395000D03*
X123612500Y-58395000D03*
X123612500Y-59665000D03*
X123612500Y-60935000D03*
X123612500Y-62205000D03*
%TD*%
D34*
%TO.C,R80*%
X154190000Y-90690000D03*
X155210000Y-90690000D03*
%TD*%
D39*
%TO.C,SW2*%
X120095100Y-83000000D03*
X117944900Y-83000000D03*
X120095100Y-87000000D03*
X117944900Y-87000000D03*
%TD*%
D55*
%TO.C,LED6*%
X170984987Y-89491692D03*
D56*
X171234987Y-90571792D03*
X171234987Y-87561892D03*
D55*
X170984987Y-88641892D03*
%TD*%
D43*
%TO.C,C82*%
X135300000Y-109325000D03*
X135300000Y-110875000D03*
%TD*%
D35*
%TO.C,C75*%
X142850000Y-105600000D03*
X141300000Y-105600000D03*
%TD*%
D57*
%TO.C,C91*%
X131500000Y-99375000D03*
X131500000Y-97825000D03*
%TD*%
D58*
%TO.C,L6*%
X145250000Y-99100000D03*
X147950000Y-99100000D03*
%TD*%
D59*
%TO.C,R62*%
X103129376Y-85860624D03*
X103850624Y-85139376D03*
%TD*%
D43*
%TO.C,C12*%
X140970000Y-78840000D03*
X140970000Y-80390000D03*
%TD*%
D49*
%TO.C,R60*%
X164339376Y-94139376D03*
X165060624Y-94860624D03*
%TD*%
D34*
%TO.C,R20*%
X114090000Y-80200000D03*
X115110000Y-80200000D03*
%TD*%
D60*
%TO.C,Q4*%
X156062500Y-83250000D03*
X156062500Y-84550000D03*
X157937500Y-83900000D03*
%TD*%
D61*
%TO.C,C19*%
X141245000Y-73115000D03*
X143145000Y-73115000D03*
%TD*%
D42*
%TO.C,C15*%
X118200000Y-102530000D03*
X118200000Y-104430000D03*
%TD*%
D57*
%TO.C,C6*%
X150900000Y-81895000D03*
X150900000Y-80345000D03*
%TD*%
D62*
%TO.C,U8*%
X121800000Y-73445000D03*
X122200000Y-73445000D03*
X122600000Y-73445000D03*
X123000000Y-73445000D03*
X123400000Y-73445000D03*
X123800000Y-73445000D03*
X124200000Y-73445000D03*
X124600000Y-73445000D03*
X125000000Y-73445000D03*
X125400000Y-73445000D03*
X125800000Y-73445000D03*
X126200000Y-73445000D03*
X126600000Y-73445000D03*
X127000000Y-73445000D03*
D63*
X127845000Y-72600000D03*
D64*
X127845000Y-72200000D03*
X127845000Y-71800000D03*
X127845000Y-71400000D03*
X127845000Y-71000000D03*
X127845000Y-70600000D03*
X127845000Y-70200000D03*
X127845000Y-69800000D03*
X127845000Y-69400000D03*
X127845000Y-69000000D03*
X127845000Y-68600000D03*
X127845000Y-68200000D03*
X127845000Y-67800000D03*
X127845000Y-67400000D03*
D62*
X127000000Y-66555000D03*
X126600000Y-66555000D03*
X126200000Y-66555000D03*
X125800000Y-66555000D03*
X125400000Y-66555000D03*
X125000000Y-66555000D03*
X124600000Y-66555000D03*
X124200000Y-66555000D03*
X123800000Y-66555000D03*
X123400000Y-66555000D03*
X123000000Y-66555000D03*
X122600000Y-66555000D03*
X122200000Y-66555000D03*
X121800000Y-66555000D03*
D64*
X120955000Y-67400000D03*
X120955000Y-67800000D03*
X120955000Y-68200000D03*
X120955000Y-68600000D03*
X120955000Y-69000000D03*
X120955000Y-69400000D03*
X120955000Y-69800000D03*
X120955000Y-70200000D03*
X120955000Y-70600000D03*
X120955000Y-71000000D03*
X120955000Y-71400000D03*
X120955000Y-71800000D03*
X120955000Y-72200000D03*
X120955000Y-72600000D03*
D65*
X124400000Y-70000000D03*
%TD*%
D42*
%TO.C,C87*%
X151100000Y-102050000D03*
X151100000Y-103950000D03*
%TD*%
D44*
%TO.C,C83*%
X142200000Y-97280000D03*
X142200000Y-96320000D03*
%TD*%
D34*
%TO.C,R21*%
X119110000Y-80900000D03*
X120130000Y-80900000D03*
%TD*%
%TO.C,R57*%
X144190000Y-115300000D03*
X145210000Y-115300000D03*
%TD*%
D22*
%TO.C,TP5*%
X130400000Y-81600000D03*
%TD*%
D42*
%TO.C,C3*%
X125512500Y-113912500D03*
X125512500Y-115812500D03*
%TD*%
D35*
%TO.C,C17*%
X139745000Y-73115000D03*
X138195000Y-73115000D03*
%TD*%
D38*
%TO.C,R14*%
X115442500Y-106980000D03*
X114422500Y-106980000D03*
%TD*%
D44*
%TO.C,C92*%
X102500000Y-89580000D03*
X102500000Y-88620000D03*
%TD*%
D37*
%TO.C,R32*%
X125100000Y-77010000D03*
X125100000Y-75990000D03*
%TD*%
D34*
%TO.C,R24*%
X130490000Y-72630999D03*
X131510000Y-72630999D03*
%TD*%
D66*
%TO.C,R68*%
X136200000Y-93900000D03*
X136200000Y-95725000D03*
%TD*%
D22*
%TO.C,TP6*%
X107400000Y-94600000D03*
%TD*%
D44*
%TO.C,C39*%
X120793650Y-77300000D03*
X120793650Y-76340000D03*
%TD*%
D34*
%TO.C,R77*%
X156590000Y-80800000D03*
X157610000Y-80800000D03*
%TD*%
%TO.C,R70*%
X129690000Y-100600000D03*
X130710000Y-100600000D03*
%TD*%
D22*
%TO.C,TP13*%
X130700000Y-109100000D03*
%TD*%
D42*
%TO.C,C85*%
X139100000Y-109350000D03*
X139100000Y-111250000D03*
%TD*%
D23*
%TO.C,C44*%
X133900000Y-72920000D03*
X133900000Y-73880000D03*
%TD*%
D31*
%TO.C,C45*%
X143300000Y-61700000D03*
X144260000Y-61700000D03*
%TD*%
D22*
%TO.C,TP17*%
X122423000Y-105550000D03*
%TD*%
D34*
%TO.C,R79*%
X154320000Y-96640000D03*
X155340000Y-96640000D03*
%TD*%
D57*
%TO.C,C90*%
X130000000Y-99375000D03*
X130000000Y-97825000D03*
%TD*%
D67*
%TO.C,POWER_IN1*%
X144560362Y-121450999D03*
X138060362Y-121450999D03*
%TD*%
D68*
%TO.C,C81*%
X140700000Y-97250000D03*
X140700000Y-95350000D03*
%TD*%
D22*
%TO.C,TP23*%
X105100000Y-88350000D03*
%TD*%
D27*
%TO.C,C49*%
X135560000Y-62000000D03*
X134600000Y-62000000D03*
%TD*%
D69*
%TO.C,FB5*%
X136265000Y-60800000D03*
X137735000Y-60800000D03*
%TD*%
D70*
%TO.C,R13*%
X119012500Y-114812500D03*
X119012500Y-113162500D03*
%TD*%
D22*
%TO.C,TP22*%
X128741000Y-104084000D03*
%TD*%
D34*
%TO.C,R75*%
X133090000Y-83400000D03*
X134110000Y-83400000D03*
%TD*%
D27*
%TO.C,C37*%
X119753650Y-75300000D03*
X118793650Y-75300000D03*
%TD*%
D58*
%TO.C,L7*%
X145250000Y-104000000D03*
X147950000Y-104000000D03*
%TD*%
D71*
%TO.C,R59*%
X107360624Y-82460624D03*
X106639376Y-81739376D03*
%TD*%
D51*
%TO.C,L5*%
X119793650Y-76315000D03*
X119793650Y-77285000D03*
%TD*%
D27*
%TO.C,C27*%
X118950999Y-67200000D03*
X117990999Y-67200000D03*
%TD*%
D70*
%TO.C,R19*%
X109942500Y-103480000D03*
X109942500Y-101830000D03*
%TD*%
D38*
%TO.C,R31*%
X131009999Y-74600000D03*
X129990001Y-74600000D03*
%TD*%
D42*
%TO.C,C4*%
X127512500Y-113912500D03*
X127512500Y-115812500D03*
%TD*%
D72*
%TO.C,FB2*%
X132400000Y-79070000D03*
X132400000Y-77600000D03*
%TD*%
D73*
%TO.C,C71*%
X166439411Y-93460589D03*
X165760589Y-94139411D03*
%TD*%
D31*
%TO.C,C60*%
X136120000Y-66100000D03*
X137080000Y-66100000D03*
%TD*%
D74*
%TO.C,L8*%
X138100000Y-77235000D03*
X138100000Y-78685000D03*
%TD*%
D43*
%TO.C,C25*%
X130900000Y-77560000D03*
X130900000Y-79110000D03*
%TD*%
D75*
%TO.C,R69*%
X132100000Y-113012500D03*
X132100000Y-111187500D03*
%TD*%
D76*
%TO.C,U18*%
X124150000Y-107587500D03*
X124800000Y-107587500D03*
X125450000Y-107587500D03*
X125450000Y-105812500D03*
X124800000Y-105812500D03*
X124150000Y-105812500D03*
%TD*%
D43*
%TO.C,C9*%
X115752138Y-113386501D03*
X115752138Y-114936501D03*
%TD*%
D24*
%TO.C,R18*%
X108442500Y-101830000D03*
X108442500Y-103480000D03*
%TD*%
D31*
%TO.C,C55*%
X140120000Y-67200000D03*
X141080000Y-67200000D03*
%TD*%
D35*
%TO.C,C18*%
X135150000Y-75162500D03*
X133600000Y-75162500D03*
%TD*%
D77*
%TO.C,D5*%
X113750200Y-81470999D03*
X115150200Y-81470999D03*
%TD*%
D78*
%TO.C,U4*%
X152450000Y-85837500D03*
X153400000Y-85837500D03*
X154350000Y-85837500D03*
X154350000Y-83562500D03*
X152450000Y-83562500D03*
%TD*%
D79*
%TO.C,C110*%
X119470000Y-74400000D03*
X118830000Y-74400000D03*
%TD*%
D43*
%TO.C,C21*%
X106942500Y-101980000D03*
X106942500Y-103530000D03*
%TD*%
D22*
%TO.C,TP19*%
X118581000Y-79299000D03*
%TD*%
D31*
%TO.C,C51*%
X136140000Y-63100000D03*
X137100000Y-63100000D03*
%TD*%
D68*
%TO.C,C79*%
X138700000Y-97250000D03*
X138700000Y-95350000D03*
%TD*%
D80*
%TO.C,LED1*%
X100645190Y-88661978D03*
D81*
X100395190Y-87581878D03*
X100395190Y-90591778D03*
D80*
X100645190Y-89511778D03*
%TD*%
D44*
%TO.C,C38*%
X121793650Y-77300000D03*
X121793650Y-76340000D03*
%TD*%
D82*
%TO.C,C72*%
X103860589Y-86539411D03*
X104539411Y-85860589D03*
%TD*%
D27*
%TO.C,C53*%
X137680000Y-59600000D03*
X136720000Y-59600000D03*
%TD*%
D31*
%TO.C,C100*%
X133120000Y-82300000D03*
X134080000Y-82300000D03*
%TD*%
D34*
%TO.C,R76*%
X155890000Y-81800000D03*
X156910000Y-81800000D03*
%TD*%
D61*
%TO.C,C20*%
X136639638Y-75111501D03*
X138539638Y-75111501D03*
%TD*%
D57*
%TO.C,C7*%
X152545000Y-81895000D03*
X152545000Y-80345000D03*
%TD*%
D43*
%TO.C,C80*%
X133800000Y-109325000D03*
X133800000Y-110875000D03*
%TD*%
D72*
%TO.C,FB4*%
X143500000Y-78135000D03*
X143500000Y-76665000D03*
%TD*%
D53*
%TO.C,L2*%
X112000000Y-99900000D03*
X112000000Y-96200000D03*
%TD*%
D83*
%TO.C,AE1*%
X112749390Y-67950610D03*
X114800000Y-65900000D03*
%TD*%
D31*
%TO.C,C31*%
X118320000Y-72300000D03*
X119280000Y-72300000D03*
%TD*%
%TO.C,C103*%
X140890000Y-56095000D03*
X141850000Y-56095000D03*
%TD*%
D84*
%TO.C,R66*%
X142100000Y-114362500D03*
X142100000Y-111437500D03*
%TD*%
D27*
%TO.C,C52*%
X133260000Y-64500000D03*
X132300000Y-64500000D03*
%TD*%
D85*
%TO.C,J1*%
X152963640Y-69979001D03*
X152610016Y-69625377D03*
X152256534Y-69271895D03*
X151902909Y-68918270D03*
X151549426Y-68564788D03*
X151195802Y-68211163D03*
X150488695Y-67504057D03*
X150135212Y-67150574D03*
X149781588Y-66796950D03*
X149428106Y-66443467D03*
X149074482Y-66089843D03*
X148720999Y-65736360D03*
D86*
X149604883Y-64710913D03*
D87*
X150206065Y-65312096D03*
X150559477Y-65665508D03*
X150913172Y-66019202D03*
X151266583Y-66372615D03*
X151620278Y-66726310D03*
X151973690Y-67079722D03*
X152327385Y-67433417D03*
X152680797Y-67786829D03*
X153034492Y-68140523D03*
X153387904Y-68493935D03*
D86*
X153989087Y-69095117D03*
D88*
X154222290Y-70587113D03*
D89*
X158012382Y-66797021D03*
D88*
X148112887Y-64477710D03*
D89*
X151902979Y-60687618D03*
%TD*%
D22*
%TO.C,TP3*%
X121400000Y-102000000D03*
%TD*%
D35*
%TO.C,C77*%
X143575000Y-103700000D03*
X142025000Y-103700000D03*
%TD*%
D31*
%TO.C,C88*%
X140600000Y-108100000D03*
X141560000Y-108100000D03*
%TD*%
D90*
%TO.C,MK1*%
X103620660Y-81844869D03*
%TD*%
D38*
%TO.C,R9*%
X154910000Y-82062500D03*
X153890000Y-82062500D03*
%TD*%
D31*
%TO.C,C36*%
X120793650Y-75300000D03*
X121753650Y-75300000D03*
%TD*%
D38*
%TO.C,R15*%
X116452500Y-100480000D03*
X115432500Y-100480000D03*
%TD*%
D37*
%TO.C,R71*%
X131499603Y-107251195D03*
X131499603Y-106231195D03*
%TD*%
D42*
%TO.C,C22*%
X108442500Y-97030000D03*
X108442500Y-98930000D03*
%TD*%
D38*
%TO.C,R33*%
X127310000Y-76800000D03*
X126290000Y-76800000D03*
%TD*%
D27*
%TO.C,C78*%
X131780000Y-101523110D03*
X130820000Y-101523110D03*
%TD*%
D71*
%TO.C,R5*%
X148160625Y-67060624D03*
X147439375Y-66339376D03*
%TD*%
D27*
%TO.C,C16*%
X116442500Y-105980000D03*
X115482500Y-105980000D03*
%TD*%
D91*
%TO.C,R30*%
X127400000Y-74810999D03*
X127400000Y-75830999D03*
%TD*%
D90*
%TO.C,MK2*%
X167945887Y-96583055D03*
%TD*%
D50*
%TO.C,D3*%
X149617695Y-69875233D03*
X150303589Y-69189341D03*
%TD*%
D91*
%TO.C,R29*%
X126400000Y-74820999D03*
X126400000Y-75840999D03*
%TD*%
D49*
%TO.C,R63*%
X167139376Y-92839376D03*
X167860624Y-93560624D03*
%TD*%
D44*
%TO.C,C24*%
X116400000Y-81480000D03*
X116400000Y-80520000D03*
%TD*%
D23*
%TO.C,C57*%
X137600000Y-67840000D03*
X137600000Y-68800000D03*
%TD*%
D68*
%TO.C,C86*%
X151100000Y-100050000D03*
X151100000Y-98150000D03*
%TD*%
%LPD*%
M02*
