%TF.GenerationSoftware,KiCad,Pcbnew,9.0.9*%
%TF.CreationDate,2026-10-02T15:23:24+02:00*%
%TF.ProjectId,nest-mini-v2-drop-in-pcb,6e657374-2d6d-4696-9e69-2d76322d6472,v1*%
%TF.SameCoordinates,Original*%
%TF.FileFunction,Legend,Bot*%
%TF.FilePolarity,Positive*%
%FSLAX46Y46*%
G04 Gerber Fmt 4.6, Leading zero omitted, Abs format (unit mm)*
G04 Created by KiCad (PCBNEW 9.0.9) date 2026-10-02 15:23:24*
%MOMM*%
%LPD*%
G01*
G04 APERTURE LIST*
G04 Aperture macros list*
%AMRoundRect*
0 Rectangle with rounded corners*
0 $1 Rounding radius*
0 $2 $3 $4 $5 $6 $7 $8 $9 X,Y pos of 4 corners*
0 Add a 4 corners polygon primitive as box body*
4,1,4,$2,$3,$4,$5,$6,$7,$8,$9,$2,$3,0*
0 Add four circle primitives for the rounded corners*
1,1,$1+$1,$2,$3*
1,1,$1+$1,$4,$5*
1,1,$1+$1,$6,$7*
1,1,$1+$1,$8,$9*
0 Add four rect primitives between the rounded corners*
20,1,$1+$1,$2,$3,$4,$5,0*
20,1,$1+$1,$4,$5,$6,$7,0*
20,1,$1+$1,$6,$7,$8,$9,0*
20,1,$1+$1,$8,$9,$2,$3,0*%
%AMHorizOval*
0 Thick line with rounded ends*
0 $1 width*
0 $2 $3 position (X,Y) of the first rounded end (center of the circle)*
0 $4 $5 position (X,Y) of the second rounded end (center of the circle)*
0 Add line between two ends*
20,1,$1,$2,$3,$4,$5,0*
0 Add two circle primitives to create the rounded ends*
1,1,$1,$2,$3*
1,1,$1,$4,$5*%
G04 Aperture macros list end*
%ADD10C,0.120000*%
%ADD11C,0.150000*%
%ADD12C,0.080000*%
%ADD13C,0.100000*%
%ADD14C,0.127000*%
%ADD15C,0.200000*%
%ADD16C,0.152400*%
%ADD17C,1.138000*%
%ADD18C,1.279000*%
%ADD19C,1.115000*%
%ADD20HorizOval,1.100000X0.388909X0.388909X-0.388909X-0.388909X0*%
%ADD21HorizOval,1.100000X0.565685X0.565685X-0.565685X-0.565685X0*%
%ADD22C,0.560000*%
%ADD23RoundRect,0.150000X-0.150000X-0.200000X0.150000X-0.200000X0.150000X0.200000X-0.150000X0.200000X0*%
%ADD24RoundRect,0.150000X-0.200000X0.150000X-0.200000X-0.150000X0.200000X-0.150000X0.200000X0.150000X0*%
%ADD25RoundRect,0.155000X0.185000X-0.155000X0.185000X0.155000X-0.185000X0.155000X-0.185000X-0.155000X0*%
%ADD26RoundRect,0.102000X-0.388909X0.035355X0.035355X-0.388909X0.388909X-0.035355X-0.035355X0.388909X0*%
%ADD27RoundRect,0.177500X-0.665000X-0.177500X0.665000X-0.177500X0.665000X0.177500X-0.665000X0.177500X0*%
%ADD28RoundRect,0.114000X0.266000X-0.316000X0.266000X0.316000X-0.266000X0.316000X-0.266000X-0.316000X0*%
%ADD29RoundRect,0.150000X0.200000X-0.150000X0.200000X0.150000X-0.200000X0.150000X-0.200000X-0.150000X0*%
%ADD30RoundRect,0.030000X-1.250000X-1.250000X1.250000X-1.250000X1.250000X1.250000X-1.250000X1.250000X0*%
%ADD31RoundRect,0.102000X-0.135000X0.395000X-0.135000X-0.395000X0.135000X-0.395000X0.135000X0.395000X0*%
%ADD32RoundRect,0.155000X-0.185000X0.155000X-0.185000X-0.155000X0.185000X-0.155000X0.185000X0.155000X0*%
%ADD33RoundRect,0.198500X0.508500X0.198500X-0.508500X0.198500X-0.508500X-0.198500X0.508500X-0.198500X0*%
%ADD34O,1.104000X0.454000*%
%ADD35O,0.454000X1.104000*%
%ADD36RoundRect,0.240000X-0.240000X-0.265000X0.240000X-0.265000X0.240000X0.265000X-0.240000X0.265000X0*%
%ADD37RoundRect,0.165000X0.602500X0.165000X-0.602500X0.165000X-0.602500X-0.165000X0.602500X-0.165000X0*%
%ADD38RoundRect,0.056750X0.170250X-0.320250X0.170250X0.320250X-0.170250X0.320250X-0.170250X-0.320250X0*%
%ADD39RoundRect,0.050500X0.151500X-0.326500X0.151500X0.326500X-0.151500X0.326500X-0.151500X-0.326500X0*%
%ADD40RoundRect,0.063000X0.339000X-0.189000X0.339000X0.189000X-0.339000X0.189000X-0.339000X-0.189000X0*%
%ADD41RoundRect,0.150000X-0.247487X-0.035355X-0.035355X-0.247487X0.247487X0.035355X0.035355X0.247487X0*%
%ADD42RoundRect,0.155000X0.155000X0.185000X-0.155000X0.185000X-0.155000X-0.185000X0.155000X-0.185000X0*%
%ADD43RoundRect,0.215000X-0.357089X-0.053033X-0.053033X-0.357089X0.357089X0.053033X0.053033X0.357089X0*%
%ADD44RoundRect,0.155000X-0.155000X-0.185000X0.155000X-0.185000X0.155000X0.185000X-0.155000X0.185000X0*%
%ADD45RoundRect,0.152500X-0.152500X0.252500X-0.152500X-0.252500X0.152500X-0.252500X0.152500X0.252500X0*%
%ADD46RoundRect,0.150000X0.150000X0.200000X-0.150000X0.200000X-0.150000X-0.200000X0.150000X-0.200000X0*%
%ADD47RoundRect,0.215000X-0.215000X-0.290000X0.215000X-0.290000X0.215000X0.290000X-0.215000X0.290000X0*%
%ADD48RoundRect,0.115000X-0.577500X-0.115000X0.577500X-0.115000X0.577500X0.115000X-0.577500X0.115000X0*%
%ADD49RoundRect,0.030000X-0.228600X-0.127000X0.228600X-0.127000X0.228600X0.127000X-0.228600X0.127000X0*%
%ADD50RoundRect,0.030000X-0.127000X0.228600X-0.127000X-0.228600X0.127000X-0.228600X0.127000X0.228600X0*%
%ADD51RoundRect,0.030000X0.127000X-0.228600X0.127000X0.228600X-0.127000X0.228600X-0.127000X-0.228600X0*%
%ADD52RoundRect,0.030000X-0.330200X-1.828800X0.330200X-1.828800X0.330200X1.828800X-0.330200X1.828800X0*%
%ADD53RoundRect,0.030000X-1.828800X-0.330200X1.828800X-0.330200X1.828800X0.330200X-1.828800X0.330200X0*%
%ADD54RoundRect,0.030000X-1.828800X-1.828800X1.828800X-1.828800X1.828800X1.828800X-1.828800X1.828800X0*%
%ADD55RoundRect,0.127500X0.127500X0.252500X-0.127500X0.252500X-0.127500X-0.252500X0.127500X-0.252500X0*%
%ADD56RoundRect,0.076750X-0.230250X0.810250X-0.230250X-0.810250X0.230250X-0.810250X0.230250X0.810250X0*%
%ADD57RoundRect,0.050800X-0.300000X-0.200000X0.300000X-0.200000X0.300000X0.200000X-0.300000X0.200000X0*%
%ADD58C,1.060000*%
G04 APERTURE END LIST*
D10*
G36*
X130697792Y-109651262D02*
G01*
X130722115Y-109675585D01*
X130752913Y-109737181D01*
X130787619Y-109876001D01*
X130787619Y-110051708D01*
X130752913Y-110190527D01*
X130722115Y-110252123D01*
X130697790Y-110276448D01*
X130642977Y-110303855D01*
X130595117Y-110303855D01*
X130540302Y-110276448D01*
X130515978Y-110252123D01*
X130485182Y-110190532D01*
X130450476Y-110051705D01*
X130450476Y-109876004D01*
X130485182Y-109737177D01*
X130515978Y-109675585D01*
X130540301Y-109651262D01*
X130595117Y-109623855D01*
X130642977Y-109623855D01*
X130697792Y-109651262D01*
G37*
G36*
X136907316Y-109651262D02*
G01*
X136964868Y-109708814D01*
X136997142Y-109837905D01*
X136997142Y-110089803D01*
X136964868Y-110218894D01*
X136907314Y-110276448D01*
X136852500Y-110303855D01*
X136728449Y-110303855D01*
X136673634Y-110276447D01*
X136616081Y-110218895D01*
X136583808Y-110089800D01*
X136583808Y-109837908D01*
X136616081Y-109708814D01*
X136673633Y-109651263D01*
X136728449Y-109623855D01*
X136852500Y-109623855D01*
X136907316Y-109651262D01*
G37*
G36*
X139587617Y-109922902D02*
G01*
X139357020Y-109922902D01*
X139302205Y-109895494D01*
X139277880Y-109871170D01*
X139250474Y-109816357D01*
X139250474Y-109730399D01*
X139277880Y-109675586D01*
X139302205Y-109651262D01*
X139357020Y-109623855D01*
X139587617Y-109623855D01*
X139587617Y-109922902D01*
G37*
G36*
X141358412Y-110512744D02*
G01*
X130241587Y-110512744D01*
X130241587Y-109868617D01*
X130330476Y-109868617D01*
X130330476Y-110059093D01*
X130331909Y-110066300D01*
X130332267Y-110073645D01*
X130370363Y-110226026D01*
X130373168Y-110231965D01*
X130374905Y-110238307D01*
X130413000Y-110314497D01*
X130418897Y-110322095D01*
X130424239Y-110330090D01*
X130462334Y-110368186D01*
X130470328Y-110373528D01*
X130477928Y-110379426D01*
X130554120Y-110417521D01*
X130557017Y-110418314D01*
X130557991Y-110419288D01*
X130567425Y-110421164D01*
X130576699Y-110423704D01*
X130578004Y-110423268D01*
X130580952Y-110423855D01*
X130657142Y-110423855D01*
X130660089Y-110423268D01*
X130661395Y-110423704D01*
X130670670Y-110421164D01*
X130680103Y-110419288D01*
X130681076Y-110418314D01*
X130683975Y-110417521D01*
X130760166Y-110379426D01*
X130767765Y-110373528D01*
X130775760Y-110368186D01*
X130813855Y-110330090D01*
X130819198Y-110322093D01*
X130825094Y-110314497D01*
X130830943Y-110302799D01*
X131096947Y-110302799D01*
X131096947Y-110302800D01*
X131096947Y-110348722D01*
X131096949Y-110348724D01*
X131109954Y-110368186D01*
X131148048Y-110406281D01*
X131167513Y-110419288D01*
X131167514Y-110419288D01*
X131213436Y-110419288D01*
X131213438Y-110419285D01*
X131232901Y-110406282D01*
X131270997Y-110368187D01*
X131284004Y-110348722D01*
X131284004Y-110302800D01*
X131284004Y-110302799D01*
X131270997Y-110283334D01*
X131232901Y-110245238D01*
X131213436Y-110232231D01*
X131213435Y-110232231D01*
X131167513Y-110232231D01*
X131148048Y-110245238D01*
X131109953Y-110283334D01*
X131096949Y-110302796D01*
X131096947Y-110302799D01*
X130830943Y-110302799D01*
X130863189Y-110238307D01*
X130864925Y-110231965D01*
X130867731Y-110226026D01*
X130905828Y-110073645D01*
X130906185Y-110066300D01*
X130907619Y-110059093D01*
X130907619Y-109868617D01*
X130906185Y-109861409D01*
X130905828Y-109854065D01*
X130871369Y-109716236D01*
X131473333Y-109716236D01*
X131473333Y-109792426D01*
X131475209Y-109801859D01*
X131476412Y-109811400D01*
X131514507Y-109925686D01*
X131515995Y-109928296D01*
X131515995Y-109929673D01*
X131521333Y-109937662D01*
X131526100Y-109946024D01*
X131527333Y-109946640D01*
X131529002Y-109949138D01*
X131883718Y-110303855D01*
X131533333Y-110303855D01*
X131510372Y-110308422D01*
X131477900Y-110340894D01*
X131477900Y-110386816D01*
X131510372Y-110419288D01*
X131533333Y-110423855D01*
X132028571Y-110423855D01*
X132051532Y-110419288D01*
X132084004Y-110386816D01*
X132084004Y-110340894D01*
X132084003Y-110340893D01*
X132070998Y-110321429D01*
X131884851Y-110135283D01*
X133225714Y-110135283D01*
X133225714Y-110211474D01*
X133226300Y-110214421D01*
X133225865Y-110215727D01*
X133228404Y-110225002D01*
X133230281Y-110234435D01*
X133231254Y-110235408D01*
X133232048Y-110238307D01*
X133270143Y-110314497D01*
X133276040Y-110322095D01*
X133281382Y-110330090D01*
X133319477Y-110368186D01*
X133327471Y-110373528D01*
X133335071Y-110379426D01*
X133411263Y-110417521D01*
X133414160Y-110418314D01*
X133415134Y-110419288D01*
X133424568Y-110421164D01*
X133433842Y-110423704D01*
X133435147Y-110423268D01*
X133438095Y-110423855D01*
X133628571Y-110423855D01*
X133638004Y-110421978D01*
X133647545Y-110420776D01*
X133761831Y-110382681D01*
X133782169Y-110371088D01*
X133797266Y-110340894D01*
X134906471Y-110340894D01*
X134906471Y-110386816D01*
X134938943Y-110419288D01*
X134961904Y-110423855D01*
X135342856Y-110423855D01*
X135365817Y-110419288D01*
X135398289Y-110386816D01*
X135398289Y-110386815D01*
X135402856Y-110363855D01*
X135402856Y-109563855D01*
X135663808Y-109563855D01*
X135663808Y-110363855D01*
X135668375Y-110386816D01*
X135700847Y-110419288D01*
X135746769Y-110419288D01*
X135779241Y-110386816D01*
X135783808Y-110363855D01*
X135783808Y-110004807D01*
X136120951Y-110004807D01*
X136120951Y-110363855D01*
X136125518Y-110386816D01*
X136157990Y-110419288D01*
X136203912Y-110419288D01*
X136236384Y-110386816D01*
X136240951Y-110363855D01*
X136240951Y-109830521D01*
X136463808Y-109830521D01*
X136463808Y-110097188D01*
X136465241Y-110104395D01*
X136465599Y-110111740D01*
X136503695Y-110264121D01*
X136506470Y-110269995D01*
X136506470Y-110272530D01*
X136510554Y-110278642D01*
X136513694Y-110285289D01*
X136515867Y-110286592D01*
X136519477Y-110291995D01*
X136595667Y-110368186D01*
X136603662Y-110373528D01*
X136611261Y-110379426D01*
X136687451Y-110417521D01*
X136690349Y-110418314D01*
X136691323Y-110419288D01*
X136700755Y-110421164D01*
X136710031Y-110423704D01*
X136711336Y-110423268D01*
X136714284Y-110423855D01*
X136866665Y-110423855D01*
X136869612Y-110423268D01*
X136870918Y-110423704D01*
X136880193Y-110421164D01*
X136889626Y-110419288D01*
X136890599Y-110418314D01*
X136893498Y-110417521D01*
X136969689Y-110379426D01*
X136977288Y-110373528D01*
X136985283Y-110368186D01*
X137061473Y-110291995D01*
X137065083Y-110286592D01*
X137067255Y-110285289D01*
X137070394Y-110278643D01*
X137074479Y-110272530D01*
X137074479Y-110269995D01*
X137077254Y-110264121D01*
X137115351Y-110111740D01*
X137115708Y-110104395D01*
X137117142Y-110097188D01*
X137117142Y-110036132D01*
X137344566Y-110036132D01*
X137344566Y-110082054D01*
X137377038Y-110114526D01*
X137399999Y-110119093D01*
X138009522Y-110119093D01*
X138032483Y-110114526D01*
X138064955Y-110082054D01*
X138064955Y-110036132D01*
X138032483Y-110003660D01*
X138009522Y-109999093D01*
X137399999Y-109999093D01*
X137377038Y-110003660D01*
X137344566Y-110036132D01*
X137117142Y-110036132D01*
X137117142Y-109830521D01*
X137115708Y-109823313D01*
X137115351Y-109815969D01*
X137077254Y-109663588D01*
X137074479Y-109657713D01*
X137074479Y-109655179D01*
X137070394Y-109649066D01*
X137067255Y-109642420D01*
X137065081Y-109641116D01*
X137061472Y-109635714D01*
X136989613Y-109563855D01*
X138330474Y-109563855D01*
X138330474Y-110363855D01*
X138335041Y-110386816D01*
X138340868Y-110392643D01*
X138343036Y-110400592D01*
X138356525Y-110408300D01*
X138367513Y-110419288D01*
X138375753Y-110419288D01*
X138382907Y-110423376D01*
X138397896Y-110419288D01*
X138413435Y-110419288D01*
X138419262Y-110413460D01*
X138427211Y-110411293D01*
X138442569Y-110393623D01*
X138787617Y-109789789D01*
X138787617Y-110363855D01*
X138792184Y-110386816D01*
X138824656Y-110419288D01*
X138870578Y-110419288D01*
X138903050Y-110386816D01*
X138907617Y-110363855D01*
X138907617Y-109716236D01*
X139130474Y-109716236D01*
X139130474Y-109830521D01*
X139131060Y-109833468D01*
X139130625Y-109834775D01*
X139133164Y-109844045D01*
X139135041Y-109853482D01*
X139136015Y-109854456D01*
X139136809Y-109857354D01*
X139174904Y-109933545D01*
X139180804Y-109941146D01*
X139186144Y-109949138D01*
X139224238Y-109987233D01*
X139232236Y-109992577D01*
X139239832Y-109998473D01*
X139316022Y-110036568D01*
X139318920Y-110037361D01*
X139319894Y-110038335D01*
X139329326Y-110040211D01*
X139338602Y-110042751D01*
X139339907Y-110042315D01*
X139342018Y-110042735D01*
X139141320Y-110329447D01*
X139131894Y-110350877D01*
X139139875Y-110396100D01*
X139177496Y-110422435D01*
X139222719Y-110414454D01*
X139239628Y-110398263D01*
X139488381Y-110042902D01*
X139587617Y-110042902D01*
X139587617Y-110363855D01*
X139592184Y-110386816D01*
X139624656Y-110419288D01*
X139670578Y-110419288D01*
X139703050Y-110386816D01*
X139707617Y-110363855D01*
X139707617Y-109563855D01*
X139703050Y-109540894D01*
X139935042Y-109540894D01*
X139935042Y-109586816D01*
X139967514Y-109619288D01*
X139990475Y-109623855D01*
X140311427Y-109623855D01*
X140311427Y-109884807D01*
X140104761Y-109884807D01*
X140081800Y-109889374D01*
X140049328Y-109921846D01*
X140049328Y-109967768D01*
X140081800Y-110000240D01*
X140104761Y-110004807D01*
X140311427Y-110004807D01*
X140311427Y-110303855D01*
X139990475Y-110303855D01*
X139967514Y-110308422D01*
X139935042Y-110340894D01*
X139935042Y-110386816D01*
X139967514Y-110419288D01*
X139990475Y-110423855D01*
X140371427Y-110423855D01*
X140394388Y-110419288D01*
X140426860Y-110386816D01*
X140426860Y-110386815D01*
X140431427Y-110363855D01*
X140431427Y-109617083D01*
X140658851Y-109617083D01*
X140658851Y-109663005D01*
X140691322Y-109695478D01*
X140737244Y-109695478D01*
X140756710Y-109682472D01*
X140784790Y-109654392D01*
X140876402Y-109623855D01*
X140933119Y-109623855D01*
X141024732Y-109654392D01*
X141084018Y-109713678D01*
X141114817Y-109775276D01*
X141149523Y-109914096D01*
X141149523Y-110013613D01*
X141114817Y-110152432D01*
X141084019Y-110214030D01*
X141024730Y-110273318D01*
X140933119Y-110303855D01*
X140876402Y-110303855D01*
X140784789Y-110273317D01*
X140756710Y-110245238D01*
X140737245Y-110232231D01*
X140691323Y-110232231D01*
X140658851Y-110264703D01*
X140658851Y-110310625D01*
X140671858Y-110330090D01*
X140709954Y-110368186D01*
X140712452Y-110369855D01*
X140713068Y-110371087D01*
X140721423Y-110375850D01*
X140729419Y-110381193D01*
X140730796Y-110381193D01*
X140733406Y-110382681D01*
X140847691Y-110420776D01*
X140857231Y-110421978D01*
X140866665Y-110423855D01*
X140942856Y-110423855D01*
X140952289Y-110421978D01*
X140961830Y-110420776D01*
X141076116Y-110382681D01*
X141078726Y-110381193D01*
X141080104Y-110381193D01*
X141088099Y-110375850D01*
X141096454Y-110371088D01*
X141097070Y-110369855D01*
X141099569Y-110368186D01*
X141175759Y-110291995D01*
X141181102Y-110283998D01*
X141186998Y-110276402D01*
X141225093Y-110200212D01*
X141226829Y-110193870D01*
X141229635Y-110187931D01*
X141267732Y-110035550D01*
X141268089Y-110028205D01*
X141269523Y-110020998D01*
X141269523Y-109906712D01*
X141268089Y-109899504D01*
X141267732Y-109892160D01*
X141229635Y-109739779D01*
X141226829Y-109733838D01*
X141225093Y-109727499D01*
X141186998Y-109651307D01*
X141181095Y-109643701D01*
X141175758Y-109635714D01*
X141099568Y-109559524D01*
X141097070Y-109557855D01*
X141096454Y-109556622D01*
X141088092Y-109551855D01*
X141080103Y-109546517D01*
X141078726Y-109546517D01*
X141076116Y-109545029D01*
X140961830Y-109506934D01*
X140952289Y-109505731D01*
X140942856Y-109503855D01*
X140866665Y-109503855D01*
X140857231Y-109505731D01*
X140847691Y-109506934D01*
X140733406Y-109545029D01*
X140730796Y-109546517D01*
X140729419Y-109546517D01*
X140721419Y-109551862D01*
X140713068Y-109556623D01*
X140712452Y-109557853D01*
X140709954Y-109559523D01*
X140671858Y-109597618D01*
X140658851Y-109617083D01*
X140431427Y-109617083D01*
X140431427Y-109563855D01*
X140426860Y-109540894D01*
X140394388Y-109508422D01*
X140371427Y-109503855D01*
X139990475Y-109503855D01*
X139967514Y-109508422D01*
X139935042Y-109540894D01*
X139703050Y-109540894D01*
X139670578Y-109508422D01*
X139647617Y-109503855D01*
X139342855Y-109503855D01*
X139339907Y-109504441D01*
X139338602Y-109504006D01*
X139329326Y-109506545D01*
X139319894Y-109508422D01*
X139318920Y-109509395D01*
X139316022Y-109510189D01*
X139239832Y-109548284D01*
X139232236Y-109554179D01*
X139224238Y-109559524D01*
X139186144Y-109597619D01*
X139180804Y-109605610D01*
X139174904Y-109613212D01*
X139136809Y-109689403D01*
X139136015Y-109692300D01*
X139135041Y-109693275D01*
X139133164Y-109702711D01*
X139130625Y-109711982D01*
X139131060Y-109713288D01*
X139130474Y-109716236D01*
X138907617Y-109716236D01*
X138907617Y-109563855D01*
X138903050Y-109540894D01*
X138897223Y-109535067D01*
X138895055Y-109527117D01*
X138881564Y-109519408D01*
X138870578Y-109508422D01*
X138862338Y-109508422D01*
X138855184Y-109504334D01*
X138840195Y-109508422D01*
X138824656Y-109508422D01*
X138818828Y-109514249D01*
X138810880Y-109516417D01*
X138795522Y-109534087D01*
X138450474Y-110137920D01*
X138450474Y-109563855D01*
X138445907Y-109540894D01*
X138413435Y-109508422D01*
X138367513Y-109508422D01*
X138335041Y-109540894D01*
X138330474Y-109563855D01*
X136989613Y-109563855D01*
X136985282Y-109559524D01*
X136977294Y-109554186D01*
X136969689Y-109548284D01*
X136893498Y-109510189D01*
X136890599Y-109509395D01*
X136889626Y-109508422D01*
X136880193Y-109506545D01*
X136870918Y-109504006D01*
X136869612Y-109504441D01*
X136866665Y-109503855D01*
X136714284Y-109503855D01*
X136711336Y-109504441D01*
X136710031Y-109504006D01*
X136700755Y-109506545D01*
X136691323Y-109508422D01*
X136690349Y-109509395D01*
X136687451Y-109510189D01*
X136611261Y-109548284D01*
X136603664Y-109554179D01*
X136595668Y-109559523D01*
X136519477Y-109635713D01*
X136515866Y-109641116D01*
X136513694Y-109642420D01*
X136510555Y-109649063D01*
X136506470Y-109655178D01*
X136506470Y-109657713D01*
X136503695Y-109663588D01*
X136465599Y-109815969D01*
X136465241Y-109823313D01*
X136463808Y-109830521D01*
X136240951Y-109830521D01*
X136240951Y-109563855D01*
X136236384Y-109540894D01*
X136203912Y-109508422D01*
X136157990Y-109508422D01*
X136125518Y-109540894D01*
X136120951Y-109563855D01*
X136120951Y-109884807D01*
X135783808Y-109884807D01*
X135783808Y-109563855D01*
X135779241Y-109540894D01*
X135746769Y-109508422D01*
X135700847Y-109508422D01*
X135668375Y-109540894D01*
X135663808Y-109563855D01*
X135402856Y-109563855D01*
X135398289Y-109540894D01*
X135365817Y-109508422D01*
X135319895Y-109508422D01*
X135287423Y-109540894D01*
X135282856Y-109563855D01*
X135282856Y-110303855D01*
X134961904Y-110303855D01*
X134938943Y-110308422D01*
X134906471Y-110340894D01*
X133797266Y-110340894D01*
X133802706Y-110330013D01*
X133788185Y-110286448D01*
X133747111Y-110265911D01*
X133723884Y-110268839D01*
X133618834Y-110303855D01*
X133452260Y-110303855D01*
X133397445Y-110276448D01*
X133373121Y-110252123D01*
X133345714Y-110197309D01*
X133345714Y-110149448D01*
X133373121Y-110094632D01*
X133397446Y-110070308D01*
X133459036Y-110039513D01*
X133472560Y-110036132D01*
X134030281Y-110036132D01*
X134030281Y-110082054D01*
X134062753Y-110114526D01*
X134085714Y-110119093D01*
X134695237Y-110119093D01*
X134718198Y-110114526D01*
X134750670Y-110082054D01*
X134750670Y-110036132D01*
X134718198Y-110003660D01*
X134695237Y-109999093D01*
X134085714Y-109999093D01*
X134062753Y-110003660D01*
X134030281Y-110036132D01*
X133472560Y-110036132D01*
X133605028Y-110003015D01*
X133610967Y-110000209D01*
X133617309Y-109998473D01*
X133693499Y-109960378D01*
X133701100Y-109954477D01*
X133709092Y-109949138D01*
X133747187Y-109911044D01*
X133752533Y-109903043D01*
X133758426Y-109895450D01*
X133796522Y-109819259D01*
X133797315Y-109816361D01*
X133798290Y-109815387D01*
X133800166Y-109805950D01*
X133802706Y-109796680D01*
X133802270Y-109795373D01*
X133802857Y-109792426D01*
X133802857Y-109716236D01*
X133802270Y-109713288D01*
X133802706Y-109711982D01*
X133800166Y-109702711D01*
X133798290Y-109693275D01*
X133797315Y-109692300D01*
X133796522Y-109689403D01*
X133758426Y-109613212D01*
X133752533Y-109605618D01*
X133747187Y-109597618D01*
X133709092Y-109559524D01*
X133701100Y-109554184D01*
X133693499Y-109548284D01*
X133617309Y-109510189D01*
X133614410Y-109509395D01*
X133613437Y-109508422D01*
X133604004Y-109506545D01*
X133594729Y-109504006D01*
X133593423Y-109504441D01*
X133590476Y-109503855D01*
X133399999Y-109503855D01*
X133390565Y-109505731D01*
X133381025Y-109506934D01*
X133266740Y-109545029D01*
X133246402Y-109556623D01*
X133225865Y-109597697D01*
X133240387Y-109641262D01*
X133281461Y-109661799D01*
X133304688Y-109658871D01*
X133409736Y-109623855D01*
X133576311Y-109623855D01*
X133631126Y-109651262D01*
X133655450Y-109675587D01*
X133682857Y-109730400D01*
X133682857Y-109778261D01*
X133655450Y-109833074D01*
X133631126Y-109857399D01*
X133569534Y-109888195D01*
X133423543Y-109924693D01*
X133417597Y-109927501D01*
X133411262Y-109929237D01*
X133335071Y-109967333D01*
X133327477Y-109973225D01*
X133319477Y-109978572D01*
X133281383Y-110016667D01*
X133276043Y-110024658D01*
X133270143Y-110032260D01*
X133232048Y-110108450D01*
X133231254Y-110111348D01*
X133230281Y-110112322D01*
X133228404Y-110121754D01*
X133225865Y-110131030D01*
X133226300Y-110132335D01*
X133225714Y-110135283D01*
X131884851Y-110135283D01*
X131785700Y-110036132D01*
X132277900Y-110036132D01*
X132277900Y-110082054D01*
X132310372Y-110114526D01*
X132333333Y-110119093D01*
X132942856Y-110119093D01*
X132965817Y-110114526D01*
X132998289Y-110082054D01*
X132998289Y-110036132D01*
X132965817Y-110003660D01*
X132942856Y-109999093D01*
X132333333Y-109999093D01*
X132310372Y-110003660D01*
X132277900Y-110036132D01*
X131785700Y-110036132D01*
X131623870Y-109874302D01*
X131593333Y-109782689D01*
X131593333Y-109730400D01*
X131620740Y-109675585D01*
X131645063Y-109651262D01*
X131699879Y-109623855D01*
X131862025Y-109623855D01*
X131916839Y-109651262D01*
X131948050Y-109682472D01*
X131967515Y-109695478D01*
X132013438Y-109695478D01*
X132045909Y-109663005D01*
X132045909Y-109617083D01*
X132032902Y-109597618D01*
X131994806Y-109559523D01*
X131986811Y-109554181D01*
X131979213Y-109548284D01*
X131903023Y-109510189D01*
X131900124Y-109509395D01*
X131899151Y-109508422D01*
X131889718Y-109506545D01*
X131880443Y-109504006D01*
X131879137Y-109504441D01*
X131876190Y-109503855D01*
X131685714Y-109503855D01*
X131682766Y-109504441D01*
X131681461Y-109504006D01*
X131672187Y-109506545D01*
X131662753Y-109508422D01*
X131661779Y-109509395D01*
X131658882Y-109510189D01*
X131582690Y-109548284D01*
X131575090Y-109554181D01*
X131567096Y-109559524D01*
X131529002Y-109597619D01*
X131523664Y-109605606D01*
X131517762Y-109613212D01*
X131479667Y-109689403D01*
X131478873Y-109692301D01*
X131477900Y-109693275D01*
X131476023Y-109702707D01*
X131473484Y-109711983D01*
X131473919Y-109713288D01*
X131473333Y-109716236D01*
X130871369Y-109716236D01*
X130867731Y-109701684D01*
X130864925Y-109695743D01*
X130863189Y-109689404D01*
X130825094Y-109613212D01*
X130819196Y-109605612D01*
X130813854Y-109597618D01*
X130775759Y-109559524D01*
X130767771Y-109554186D01*
X130760166Y-109548284D01*
X130683975Y-109510189D01*
X130681076Y-109509395D01*
X130680103Y-109508422D01*
X130670670Y-109506545D01*
X130661395Y-109504006D01*
X130660089Y-109504441D01*
X130657142Y-109503855D01*
X130580952Y-109503855D01*
X130578004Y-109504441D01*
X130576699Y-109504006D01*
X130567425Y-109506545D01*
X130557991Y-109508422D01*
X130557017Y-109509395D01*
X130554120Y-109510189D01*
X130477928Y-109548284D01*
X130470328Y-109554181D01*
X130462334Y-109559524D01*
X130424240Y-109597619D01*
X130418902Y-109605606D01*
X130413000Y-109613212D01*
X130374905Y-109689403D01*
X130373168Y-109695744D01*
X130370363Y-109701684D01*
X130332267Y-109854065D01*
X130331909Y-109861409D01*
X130330476Y-109868617D01*
X130241587Y-109868617D01*
X130241587Y-109414966D01*
X141358412Y-109414966D01*
X141358412Y-110512744D01*
G37*
X141873333Y-111949855D02*
X141873333Y-111416521D01*
X141873333Y-111568902D02*
X141835238Y-111492712D01*
X141835238Y-111492712D02*
X141797143Y-111454617D01*
X141797143Y-111454617D02*
X141720952Y-111416521D01*
X141720952Y-111416521D02*
X141644762Y-111416521D01*
X141073333Y-111911760D02*
X141149524Y-111949855D01*
X141149524Y-111949855D02*
X141301905Y-111949855D01*
X141301905Y-111949855D02*
X141378095Y-111911760D01*
X141378095Y-111911760D02*
X141416191Y-111835569D01*
X141416191Y-111835569D02*
X141416191Y-111530807D01*
X141416191Y-111530807D02*
X141378095Y-111454617D01*
X141378095Y-111454617D02*
X141301905Y-111416521D01*
X141301905Y-111416521D02*
X141149524Y-111416521D01*
X141149524Y-111416521D02*
X141073333Y-111454617D01*
X141073333Y-111454617D02*
X141035238Y-111530807D01*
X141035238Y-111530807D02*
X141035238Y-111606998D01*
X141035238Y-111606998D02*
X141416191Y-111683188D01*
X140768572Y-111416521D02*
X140578096Y-111949855D01*
X140578096Y-111949855D02*
X140387619Y-111416521D01*
X140082857Y-111645093D02*
X139473334Y-111645093D01*
X138749524Y-111949855D02*
X138749524Y-111530807D01*
X138749524Y-111530807D02*
X138787619Y-111454617D01*
X138787619Y-111454617D02*
X138863810Y-111416521D01*
X138863810Y-111416521D02*
X139016191Y-111416521D01*
X139016191Y-111416521D02*
X139092381Y-111454617D01*
X138749524Y-111911760D02*
X138825715Y-111949855D01*
X138825715Y-111949855D02*
X139016191Y-111949855D01*
X139016191Y-111949855D02*
X139092381Y-111911760D01*
X139092381Y-111911760D02*
X139130477Y-111835569D01*
X139130477Y-111835569D02*
X139130477Y-111759379D01*
X139130477Y-111759379D02*
X139092381Y-111683188D01*
X139092381Y-111683188D02*
X139016191Y-111645093D01*
X139016191Y-111645093D02*
X138825715Y-111645093D01*
X138825715Y-111645093D02*
X138749524Y-111606998D01*
X138406667Y-111226045D02*
X138368571Y-111187950D01*
X138368571Y-111187950D02*
X138292381Y-111149855D01*
X138292381Y-111149855D02*
X138101905Y-111149855D01*
X138101905Y-111149855D02*
X138025714Y-111187950D01*
X138025714Y-111187950D02*
X137987619Y-111226045D01*
X137987619Y-111226045D02*
X137949524Y-111302236D01*
X137949524Y-111302236D02*
X137949524Y-111378426D01*
X137949524Y-111378426D02*
X137987619Y-111492712D01*
X137987619Y-111492712D02*
X138444762Y-111949855D01*
X138444762Y-111949855D02*
X137949524Y-111949855D01*
X136425714Y-111226045D02*
X136387618Y-111187950D01*
X136387618Y-111187950D02*
X136311428Y-111149855D01*
X136311428Y-111149855D02*
X136120952Y-111149855D01*
X136120952Y-111149855D02*
X136044761Y-111187950D01*
X136044761Y-111187950D02*
X136006666Y-111226045D01*
X136006666Y-111226045D02*
X135968571Y-111302236D01*
X135968571Y-111302236D02*
X135968571Y-111378426D01*
X135968571Y-111378426D02*
X136006666Y-111492712D01*
X136006666Y-111492712D02*
X136463809Y-111949855D01*
X136463809Y-111949855D02*
X135968571Y-111949855D01*
X135473332Y-111149855D02*
X135397142Y-111149855D01*
X135397142Y-111149855D02*
X135320951Y-111187950D01*
X135320951Y-111187950D02*
X135282856Y-111226045D01*
X135282856Y-111226045D02*
X135244761Y-111302236D01*
X135244761Y-111302236D02*
X135206666Y-111454617D01*
X135206666Y-111454617D02*
X135206666Y-111645093D01*
X135206666Y-111645093D02*
X135244761Y-111797474D01*
X135244761Y-111797474D02*
X135282856Y-111873664D01*
X135282856Y-111873664D02*
X135320951Y-111911760D01*
X135320951Y-111911760D02*
X135397142Y-111949855D01*
X135397142Y-111949855D02*
X135473332Y-111949855D01*
X135473332Y-111949855D02*
X135549523Y-111911760D01*
X135549523Y-111911760D02*
X135587618Y-111873664D01*
X135587618Y-111873664D02*
X135625713Y-111797474D01*
X135625713Y-111797474D02*
X135663809Y-111645093D01*
X135663809Y-111645093D02*
X135663809Y-111454617D01*
X135663809Y-111454617D02*
X135625713Y-111302236D01*
X135625713Y-111302236D02*
X135587618Y-111226045D01*
X135587618Y-111226045D02*
X135549523Y-111187950D01*
X135549523Y-111187950D02*
X135473332Y-111149855D01*
X134901904Y-111226045D02*
X134863808Y-111187950D01*
X134863808Y-111187950D02*
X134787618Y-111149855D01*
X134787618Y-111149855D02*
X134597142Y-111149855D01*
X134597142Y-111149855D02*
X134520951Y-111187950D01*
X134520951Y-111187950D02*
X134482856Y-111226045D01*
X134482856Y-111226045D02*
X134444761Y-111302236D01*
X134444761Y-111302236D02*
X134444761Y-111378426D01*
X134444761Y-111378426D02*
X134482856Y-111492712D01*
X134482856Y-111492712D02*
X134939999Y-111949855D01*
X134939999Y-111949855D02*
X134444761Y-111949855D01*
X133759046Y-111149855D02*
X133911427Y-111149855D01*
X133911427Y-111149855D02*
X133987618Y-111187950D01*
X133987618Y-111187950D02*
X134025713Y-111226045D01*
X134025713Y-111226045D02*
X134101903Y-111340331D01*
X134101903Y-111340331D02*
X134139999Y-111492712D01*
X134139999Y-111492712D02*
X134139999Y-111797474D01*
X134139999Y-111797474D02*
X134101903Y-111873664D01*
X134101903Y-111873664D02*
X134063808Y-111911760D01*
X134063808Y-111911760D02*
X133987618Y-111949855D01*
X133987618Y-111949855D02*
X133835237Y-111949855D01*
X133835237Y-111949855D02*
X133759046Y-111911760D01*
X133759046Y-111911760D02*
X133720951Y-111873664D01*
X133720951Y-111873664D02*
X133682856Y-111797474D01*
X133682856Y-111797474D02*
X133682856Y-111606998D01*
X133682856Y-111606998D02*
X133720951Y-111530807D01*
X133720951Y-111530807D02*
X133759046Y-111492712D01*
X133759046Y-111492712D02*
X133835237Y-111454617D01*
X133835237Y-111454617D02*
X133987618Y-111454617D01*
X133987618Y-111454617D02*
X134063808Y-111492712D01*
X134063808Y-111492712D02*
X134101903Y-111530807D01*
X134101903Y-111530807D02*
X134139999Y-111606998D01*
X133339998Y-111645093D02*
X132730475Y-111645093D01*
X132197141Y-111149855D02*
X132120951Y-111149855D01*
X132120951Y-111149855D02*
X132044760Y-111187950D01*
X132044760Y-111187950D02*
X132006665Y-111226045D01*
X132006665Y-111226045D02*
X131968570Y-111302236D01*
X131968570Y-111302236D02*
X131930475Y-111454617D01*
X131930475Y-111454617D02*
X131930475Y-111645093D01*
X131930475Y-111645093D02*
X131968570Y-111797474D01*
X131968570Y-111797474D02*
X132006665Y-111873664D01*
X132006665Y-111873664D02*
X132044760Y-111911760D01*
X132044760Y-111911760D02*
X132120951Y-111949855D01*
X132120951Y-111949855D02*
X132197141Y-111949855D01*
X132197141Y-111949855D02*
X132273332Y-111911760D01*
X132273332Y-111911760D02*
X132311427Y-111873664D01*
X132311427Y-111873664D02*
X132349522Y-111797474D01*
X132349522Y-111797474D02*
X132387618Y-111645093D01*
X132387618Y-111645093D02*
X132387618Y-111454617D01*
X132387618Y-111454617D02*
X132349522Y-111302236D01*
X132349522Y-111302236D02*
X132311427Y-111226045D01*
X132311427Y-111226045D02*
X132273332Y-111187950D01*
X132273332Y-111187950D02*
X132197141Y-111149855D01*
X131549522Y-111949855D02*
X131397141Y-111949855D01*
X131397141Y-111949855D02*
X131320951Y-111911760D01*
X131320951Y-111911760D02*
X131282855Y-111873664D01*
X131282855Y-111873664D02*
X131206665Y-111759379D01*
X131206665Y-111759379D02*
X131168570Y-111606998D01*
X131168570Y-111606998D02*
X131168570Y-111302236D01*
X131168570Y-111302236D02*
X131206665Y-111226045D01*
X131206665Y-111226045D02*
X131244760Y-111187950D01*
X131244760Y-111187950D02*
X131320951Y-111149855D01*
X131320951Y-111149855D02*
X131473332Y-111149855D01*
X131473332Y-111149855D02*
X131549522Y-111187950D01*
X131549522Y-111187950D02*
X131587617Y-111226045D01*
X131587617Y-111226045D02*
X131625713Y-111302236D01*
X131625713Y-111302236D02*
X131625713Y-111492712D01*
X131625713Y-111492712D02*
X131587617Y-111568902D01*
X131587617Y-111568902D02*
X131549522Y-111606998D01*
X131549522Y-111606998D02*
X131473332Y-111645093D01*
X131473332Y-111645093D02*
X131320951Y-111645093D01*
X131320951Y-111645093D02*
X131244760Y-111606998D01*
X131244760Y-111606998D02*
X131206665Y-111568902D01*
X131206665Y-111568902D02*
X131168570Y-111492712D01*
D11*
X164323809Y-97954819D02*
X164323809Y-96954819D01*
X164323809Y-97335771D02*
X164228571Y-97288152D01*
X164228571Y-97288152D02*
X164038095Y-97288152D01*
X164038095Y-97288152D02*
X163942857Y-97335771D01*
X163942857Y-97335771D02*
X163895238Y-97383390D01*
X163895238Y-97383390D02*
X163847619Y-97478628D01*
X163847619Y-97478628D02*
X163847619Y-97764342D01*
X163847619Y-97764342D02*
X163895238Y-97859580D01*
X163895238Y-97859580D02*
X163942857Y-97907200D01*
X163942857Y-97907200D02*
X164038095Y-97954819D01*
X164038095Y-97954819D02*
X164228571Y-97954819D01*
X164228571Y-97954819D02*
X164323809Y-97907200D01*
X162990476Y-97954819D02*
X162990476Y-97431009D01*
X162990476Y-97431009D02*
X163038095Y-97335771D01*
X163038095Y-97335771D02*
X163133333Y-97288152D01*
X163133333Y-97288152D02*
X163323809Y-97288152D01*
X163323809Y-97288152D02*
X163419047Y-97335771D01*
X162990476Y-97907200D02*
X163085714Y-97954819D01*
X163085714Y-97954819D02*
X163323809Y-97954819D01*
X163323809Y-97954819D02*
X163419047Y-97907200D01*
X163419047Y-97907200D02*
X163466666Y-97811961D01*
X163466666Y-97811961D02*
X163466666Y-97716723D01*
X163466666Y-97716723D02*
X163419047Y-97621485D01*
X163419047Y-97621485D02*
X163323809Y-97573866D01*
X163323809Y-97573866D02*
X163085714Y-97573866D01*
X163085714Y-97573866D02*
X162990476Y-97526247D01*
X162561904Y-97907200D02*
X162466666Y-97954819D01*
X162466666Y-97954819D02*
X162276190Y-97954819D01*
X162276190Y-97954819D02*
X162180952Y-97907200D01*
X162180952Y-97907200D02*
X162133333Y-97811961D01*
X162133333Y-97811961D02*
X162133333Y-97764342D01*
X162133333Y-97764342D02*
X162180952Y-97669104D01*
X162180952Y-97669104D02*
X162276190Y-97621485D01*
X162276190Y-97621485D02*
X162419047Y-97621485D01*
X162419047Y-97621485D02*
X162514285Y-97573866D01*
X162514285Y-97573866D02*
X162561904Y-97478628D01*
X162561904Y-97478628D02*
X162561904Y-97431009D01*
X162561904Y-97431009D02*
X162514285Y-97335771D01*
X162514285Y-97335771D02*
X162419047Y-97288152D01*
X162419047Y-97288152D02*
X162276190Y-97288152D01*
X162276190Y-97288152D02*
X162180952Y-97335771D01*
X161323809Y-97907200D02*
X161419047Y-97954819D01*
X161419047Y-97954819D02*
X161609523Y-97954819D01*
X161609523Y-97954819D02*
X161704761Y-97907200D01*
X161704761Y-97907200D02*
X161752380Y-97811961D01*
X161752380Y-97811961D02*
X161752380Y-97431009D01*
X161752380Y-97431009D02*
X161704761Y-97335771D01*
X161704761Y-97335771D02*
X161609523Y-97288152D01*
X161609523Y-97288152D02*
X161419047Y-97288152D01*
X161419047Y-97288152D02*
X161323809Y-97335771D01*
X161323809Y-97335771D02*
X161276190Y-97431009D01*
X161276190Y-97431009D02*
X161276190Y-97526247D01*
X161276190Y-97526247D02*
X161752380Y-97621485D01*
X160419047Y-97954819D02*
X160419047Y-96954819D01*
X160419047Y-97907200D02*
X160514285Y-97954819D01*
X160514285Y-97954819D02*
X160704761Y-97954819D01*
X160704761Y-97954819D02*
X160799999Y-97907200D01*
X160799999Y-97907200D02*
X160847618Y-97859580D01*
X160847618Y-97859580D02*
X160895237Y-97764342D01*
X160895237Y-97764342D02*
X160895237Y-97478628D01*
X160895237Y-97478628D02*
X160847618Y-97383390D01*
X160847618Y-97383390D02*
X160799999Y-97335771D01*
X160799999Y-97335771D02*
X160704761Y-97288152D01*
X160704761Y-97288152D02*
X160514285Y-97288152D01*
X160514285Y-97288152D02*
X160419047Y-97335771D01*
X159038094Y-97954819D02*
X159133332Y-97907200D01*
X159133332Y-97907200D02*
X159180951Y-97859580D01*
X159180951Y-97859580D02*
X159228570Y-97764342D01*
X159228570Y-97764342D02*
X159228570Y-97478628D01*
X159228570Y-97478628D02*
X159180951Y-97383390D01*
X159180951Y-97383390D02*
X159133332Y-97335771D01*
X159133332Y-97335771D02*
X159038094Y-97288152D01*
X159038094Y-97288152D02*
X158895237Y-97288152D01*
X158895237Y-97288152D02*
X158799999Y-97335771D01*
X158799999Y-97335771D02*
X158752380Y-97383390D01*
X158752380Y-97383390D02*
X158704761Y-97478628D01*
X158704761Y-97478628D02*
X158704761Y-97764342D01*
X158704761Y-97764342D02*
X158752380Y-97859580D01*
X158752380Y-97859580D02*
X158799999Y-97907200D01*
X158799999Y-97907200D02*
X158895237Y-97954819D01*
X158895237Y-97954819D02*
X159038094Y-97954819D01*
X158276189Y-97288152D02*
X158276189Y-97954819D01*
X158276189Y-97383390D02*
X158228570Y-97335771D01*
X158228570Y-97335771D02*
X158133332Y-97288152D01*
X158133332Y-97288152D02*
X157990475Y-97288152D01*
X157990475Y-97288152D02*
X157895237Y-97335771D01*
X157895237Y-97335771D02*
X157847618Y-97431009D01*
X157847618Y-97431009D02*
X157847618Y-97954819D01*
X156609522Y-97954819D02*
X156609522Y-96954819D01*
X156609522Y-96954819D02*
X156276189Y-97669104D01*
X156276189Y-97669104D02*
X155942856Y-96954819D01*
X155942856Y-96954819D02*
X155942856Y-97954819D01*
X155466665Y-97954819D02*
X155466665Y-97288152D01*
X155466665Y-96954819D02*
X155514284Y-97002438D01*
X155514284Y-97002438D02*
X155466665Y-97050057D01*
X155466665Y-97050057D02*
X155419046Y-97002438D01*
X155419046Y-97002438D02*
X155466665Y-96954819D01*
X155466665Y-96954819D02*
X155466665Y-97050057D01*
X154561904Y-97907200D02*
X154657142Y-97954819D01*
X154657142Y-97954819D02*
X154847618Y-97954819D01*
X154847618Y-97954819D02*
X154942856Y-97907200D01*
X154942856Y-97907200D02*
X154990475Y-97859580D01*
X154990475Y-97859580D02*
X155038094Y-97764342D01*
X155038094Y-97764342D02*
X155038094Y-97478628D01*
X155038094Y-97478628D02*
X154990475Y-97383390D01*
X154990475Y-97383390D02*
X154942856Y-97335771D01*
X154942856Y-97335771D02*
X154847618Y-97288152D01*
X154847618Y-97288152D02*
X154657142Y-97288152D01*
X154657142Y-97288152D02*
X154561904Y-97335771D01*
X154133332Y-97954819D02*
X154133332Y-97288152D01*
X154133332Y-96954819D02*
X154180951Y-97002438D01*
X154180951Y-97002438D02*
X154133332Y-97050057D01*
X154133332Y-97050057D02*
X154085713Y-97002438D01*
X154085713Y-97002438D02*
X154133332Y-96954819D01*
X154133332Y-96954819D02*
X154133332Y-97050057D01*
X153657142Y-97954819D02*
X153657142Y-96954819D01*
X153657142Y-96954819D02*
X153323809Y-97669104D01*
X153323809Y-97669104D02*
X152990476Y-96954819D01*
X152990476Y-96954819D02*
X152990476Y-97954819D01*
X152514285Y-97954819D02*
X152514285Y-97288152D01*
X152514285Y-96954819D02*
X152561904Y-97002438D01*
X152561904Y-97002438D02*
X152514285Y-97050057D01*
X152514285Y-97050057D02*
X152466666Y-97002438D01*
X152466666Y-97002438D02*
X152514285Y-96954819D01*
X152514285Y-96954819D02*
X152514285Y-97050057D01*
X152038095Y-97954819D02*
X152038095Y-96954819D01*
X151942857Y-97573866D02*
X151657143Y-97954819D01*
X151657143Y-97288152D02*
X152038095Y-97669104D01*
X150847619Y-97907200D02*
X150942857Y-97954819D01*
X150942857Y-97954819D02*
X151133333Y-97954819D01*
X151133333Y-97954819D02*
X151228571Y-97907200D01*
X151228571Y-97907200D02*
X151276190Y-97811961D01*
X151276190Y-97811961D02*
X151276190Y-97431009D01*
X151276190Y-97431009D02*
X151228571Y-97335771D01*
X151228571Y-97335771D02*
X151133333Y-97288152D01*
X151133333Y-97288152D02*
X150942857Y-97288152D01*
X150942857Y-97288152D02*
X150847619Y-97335771D01*
X150847619Y-97335771D02*
X150800000Y-97431009D01*
X150800000Y-97431009D02*
X150800000Y-97526247D01*
X150800000Y-97526247D02*
X151276190Y-97621485D01*
X149609523Y-97954819D02*
X149609523Y-96954819D01*
X149609523Y-96954819D02*
X149038095Y-97954819D01*
X149038095Y-97954819D02*
X149038095Y-96954819D01*
X148180952Y-97907200D02*
X148276190Y-97954819D01*
X148276190Y-97954819D02*
X148466666Y-97954819D01*
X148466666Y-97954819D02*
X148561904Y-97907200D01*
X148561904Y-97907200D02*
X148609523Y-97811961D01*
X148609523Y-97811961D02*
X148609523Y-97431009D01*
X148609523Y-97431009D02*
X148561904Y-97335771D01*
X148561904Y-97335771D02*
X148466666Y-97288152D01*
X148466666Y-97288152D02*
X148276190Y-97288152D01*
X148276190Y-97288152D02*
X148180952Y-97335771D01*
X148180952Y-97335771D02*
X148133333Y-97431009D01*
X148133333Y-97431009D02*
X148133333Y-97526247D01*
X148133333Y-97526247D02*
X148609523Y-97621485D01*
X147752380Y-97907200D02*
X147657142Y-97954819D01*
X147657142Y-97954819D02*
X147466666Y-97954819D01*
X147466666Y-97954819D02*
X147371428Y-97907200D01*
X147371428Y-97907200D02*
X147323809Y-97811961D01*
X147323809Y-97811961D02*
X147323809Y-97764342D01*
X147323809Y-97764342D02*
X147371428Y-97669104D01*
X147371428Y-97669104D02*
X147466666Y-97621485D01*
X147466666Y-97621485D02*
X147609523Y-97621485D01*
X147609523Y-97621485D02*
X147704761Y-97573866D01*
X147704761Y-97573866D02*
X147752380Y-97478628D01*
X147752380Y-97478628D02*
X147752380Y-97431009D01*
X147752380Y-97431009D02*
X147704761Y-97335771D01*
X147704761Y-97335771D02*
X147609523Y-97288152D01*
X147609523Y-97288152D02*
X147466666Y-97288152D01*
X147466666Y-97288152D02*
X147371428Y-97335771D01*
X147038094Y-97288152D02*
X146657142Y-97288152D01*
X146895237Y-96954819D02*
X146895237Y-97811961D01*
X146895237Y-97811961D02*
X146847618Y-97907200D01*
X146847618Y-97907200D02*
X146752380Y-97954819D01*
X146752380Y-97954819D02*
X146657142Y-97954819D01*
X145561903Y-97954819D02*
X145561903Y-96954819D01*
X145561903Y-96954819D02*
X145228570Y-97669104D01*
X145228570Y-97669104D02*
X144895237Y-96954819D01*
X144895237Y-96954819D02*
X144895237Y-97954819D01*
X144419046Y-97954819D02*
X144419046Y-97288152D01*
X144419046Y-96954819D02*
X144466665Y-97002438D01*
X144466665Y-97002438D02*
X144419046Y-97050057D01*
X144419046Y-97050057D02*
X144371427Y-97002438D01*
X144371427Y-97002438D02*
X144419046Y-96954819D01*
X144419046Y-96954819D02*
X144419046Y-97050057D01*
X143942856Y-97288152D02*
X143942856Y-97954819D01*
X143942856Y-97383390D02*
X143895237Y-97335771D01*
X143895237Y-97335771D02*
X143799999Y-97288152D01*
X143799999Y-97288152D02*
X143657142Y-97288152D01*
X143657142Y-97288152D02*
X143561904Y-97335771D01*
X143561904Y-97335771D02*
X143514285Y-97431009D01*
X143514285Y-97431009D02*
X143514285Y-97954819D01*
X143038094Y-97954819D02*
X143038094Y-97288152D01*
X143038094Y-96954819D02*
X143085713Y-97002438D01*
X143085713Y-97002438D02*
X143038094Y-97050057D01*
X143038094Y-97050057D02*
X142990475Y-97002438D01*
X142990475Y-97002438D02*
X143038094Y-96954819D01*
X143038094Y-96954819D02*
X143038094Y-97050057D01*
X141895237Y-97288152D02*
X141657142Y-97954819D01*
X141657142Y-97954819D02*
X141419047Y-97288152D01*
X141085713Y-97050057D02*
X141038094Y-97002438D01*
X141038094Y-97002438D02*
X140942856Y-96954819D01*
X140942856Y-96954819D02*
X140704761Y-96954819D01*
X140704761Y-96954819D02*
X140609523Y-97002438D01*
X140609523Y-97002438D02*
X140561904Y-97050057D01*
X140561904Y-97050057D02*
X140514285Y-97145295D01*
X140514285Y-97145295D02*
X140514285Y-97240533D01*
X140514285Y-97240533D02*
X140561904Y-97383390D01*
X140561904Y-97383390D02*
X141133332Y-97954819D01*
X141133332Y-97954819D02*
X140514285Y-97954819D01*
X139323808Y-97954819D02*
X139323808Y-96954819D01*
X139323808Y-97335771D02*
X139228570Y-97288152D01*
X139228570Y-97288152D02*
X139038094Y-97288152D01*
X139038094Y-97288152D02*
X138942856Y-97335771D01*
X138942856Y-97335771D02*
X138895237Y-97383390D01*
X138895237Y-97383390D02*
X138847618Y-97478628D01*
X138847618Y-97478628D02*
X138847618Y-97764342D01*
X138847618Y-97764342D02*
X138895237Y-97859580D01*
X138895237Y-97859580D02*
X138942856Y-97907200D01*
X138942856Y-97907200D02*
X139038094Y-97954819D01*
X139038094Y-97954819D02*
X139228570Y-97954819D01*
X139228570Y-97954819D02*
X139323808Y-97907200D01*
X138514284Y-97288152D02*
X138276189Y-97954819D01*
X138038094Y-97288152D02*
X138276189Y-97954819D01*
X138276189Y-97954819D02*
X138371427Y-98192914D01*
X138371427Y-98192914D02*
X138419046Y-98240533D01*
X138419046Y-98240533D02*
X138514284Y-98288152D01*
X136895236Y-97954819D02*
X136895236Y-97288152D01*
X136895236Y-96954819D02*
X136942855Y-97002438D01*
X136942855Y-97002438D02*
X136895236Y-97050057D01*
X136895236Y-97050057D02*
X136847617Y-97002438D01*
X136847617Y-97002438D02*
X136895236Y-96954819D01*
X136895236Y-96954819D02*
X136895236Y-97050057D01*
X136419046Y-97954819D02*
X136419046Y-96954819D01*
X136419046Y-96954819D02*
X136085713Y-97669104D01*
X136085713Y-97669104D02*
X135752380Y-96954819D01*
X135752380Y-96954819D02*
X135752380Y-97954819D01*
X135276189Y-97954819D02*
X135276189Y-97288152D01*
X135276189Y-96954819D02*
X135323808Y-97002438D01*
X135323808Y-97002438D02*
X135276189Y-97050057D01*
X135276189Y-97050057D02*
X135228570Y-97002438D01*
X135228570Y-97002438D02*
X135276189Y-96954819D01*
X135276189Y-96954819D02*
X135276189Y-97050057D01*
X134799999Y-97954819D02*
X134799999Y-96954819D01*
X134704761Y-97573866D02*
X134419047Y-97954819D01*
X134419047Y-97288152D02*
X134799999Y-97669104D01*
X133609523Y-97907200D02*
X133704761Y-97954819D01*
X133704761Y-97954819D02*
X133895237Y-97954819D01*
X133895237Y-97954819D02*
X133990475Y-97907200D01*
X133990475Y-97907200D02*
X134038094Y-97811961D01*
X134038094Y-97811961D02*
X134038094Y-97431009D01*
X134038094Y-97431009D02*
X133990475Y-97335771D01*
X133990475Y-97335771D02*
X133895237Y-97288152D01*
X133895237Y-97288152D02*
X133704761Y-97288152D01*
X133704761Y-97288152D02*
X133609523Y-97335771D01*
X133609523Y-97335771D02*
X133561904Y-97431009D01*
X133561904Y-97431009D02*
X133561904Y-97526247D01*
X133561904Y-97526247D02*
X134038094Y-97621485D01*
X133228570Y-96954819D02*
X132561904Y-96954819D01*
X132561904Y-96954819D02*
X132990475Y-97954819D01*
X132038094Y-97383390D02*
X132133332Y-97335771D01*
X132133332Y-97335771D02*
X132180951Y-97288152D01*
X132180951Y-97288152D02*
X132228570Y-97192914D01*
X132228570Y-97192914D02*
X132228570Y-97145295D01*
X132228570Y-97145295D02*
X132180951Y-97050057D01*
X132180951Y-97050057D02*
X132133332Y-97002438D01*
X132133332Y-97002438D02*
X132038094Y-96954819D01*
X132038094Y-96954819D02*
X131847618Y-96954819D01*
X131847618Y-96954819D02*
X131752380Y-97002438D01*
X131752380Y-97002438D02*
X131704761Y-97050057D01*
X131704761Y-97050057D02*
X131657142Y-97145295D01*
X131657142Y-97145295D02*
X131657142Y-97192914D01*
X131657142Y-97192914D02*
X131704761Y-97288152D01*
X131704761Y-97288152D02*
X131752380Y-97335771D01*
X131752380Y-97335771D02*
X131847618Y-97383390D01*
X131847618Y-97383390D02*
X132038094Y-97383390D01*
X132038094Y-97383390D02*
X132133332Y-97431009D01*
X132133332Y-97431009D02*
X132180951Y-97478628D01*
X132180951Y-97478628D02*
X132228570Y-97573866D01*
X132228570Y-97573866D02*
X132228570Y-97764342D01*
X132228570Y-97764342D02*
X132180951Y-97859580D01*
X132180951Y-97859580D02*
X132133332Y-97907200D01*
X132133332Y-97907200D02*
X132038094Y-97954819D01*
X132038094Y-97954819D02*
X131847618Y-97954819D01*
X131847618Y-97954819D02*
X131752380Y-97907200D01*
X131752380Y-97907200D02*
X131704761Y-97859580D01*
X131704761Y-97859580D02*
X131657142Y-97764342D01*
X131657142Y-97764342D02*
X131657142Y-97573866D01*
X131657142Y-97573866D02*
X131704761Y-97478628D01*
X131704761Y-97478628D02*
X131752380Y-97431009D01*
X131752380Y-97431009D02*
X131847618Y-97383390D01*
X130323808Y-97526247D02*
X130371427Y-97573866D01*
X130371427Y-97573866D02*
X130323808Y-97621485D01*
X130323808Y-97621485D02*
X130276189Y-97573866D01*
X130276189Y-97573866D02*
X130323808Y-97526247D01*
X130323808Y-97526247D02*
X130323808Y-97621485D01*
X128371427Y-97859580D02*
X128419046Y-97907200D01*
X128419046Y-97907200D02*
X128561903Y-97954819D01*
X128561903Y-97954819D02*
X128657141Y-97954819D01*
X128657141Y-97954819D02*
X128799998Y-97907200D01*
X128799998Y-97907200D02*
X128895236Y-97811961D01*
X128895236Y-97811961D02*
X128942855Y-97716723D01*
X128942855Y-97716723D02*
X128990474Y-97526247D01*
X128990474Y-97526247D02*
X128990474Y-97383390D01*
X128990474Y-97383390D02*
X128942855Y-97192914D01*
X128942855Y-97192914D02*
X128895236Y-97097676D01*
X128895236Y-97097676D02*
X128799998Y-97002438D01*
X128799998Y-97002438D02*
X128657141Y-96954819D01*
X128657141Y-96954819D02*
X128561903Y-96954819D01*
X128561903Y-96954819D02*
X128419046Y-97002438D01*
X128419046Y-97002438D02*
X128371427Y-97050057D01*
X127942855Y-97431009D02*
X127609522Y-97431009D01*
X127466665Y-97954819D02*
X127942855Y-97954819D01*
X127942855Y-97954819D02*
X127942855Y-96954819D01*
X127942855Y-96954819D02*
X127466665Y-96954819D01*
X126466665Y-97954819D02*
X126799998Y-97478628D01*
X127038093Y-97954819D02*
X127038093Y-96954819D01*
X127038093Y-96954819D02*
X126657141Y-96954819D01*
X126657141Y-96954819D02*
X126561903Y-97002438D01*
X126561903Y-97002438D02*
X126514284Y-97050057D01*
X126514284Y-97050057D02*
X126466665Y-97145295D01*
X126466665Y-97145295D02*
X126466665Y-97288152D01*
X126466665Y-97288152D02*
X126514284Y-97383390D01*
X126514284Y-97383390D02*
X126561903Y-97431009D01*
X126561903Y-97431009D02*
X126657141Y-97478628D01*
X126657141Y-97478628D02*
X127038093Y-97478628D01*
X126038093Y-97954819D02*
X126038093Y-96954819D01*
X126038093Y-96954819D02*
X125466665Y-97954819D01*
X125466665Y-97954819D02*
X125466665Y-96954819D01*
X124990474Y-97573866D02*
X124228570Y-97573866D01*
X123561903Y-96954819D02*
X123371427Y-96954819D01*
X123371427Y-96954819D02*
X123276189Y-97002438D01*
X123276189Y-97002438D02*
X123180951Y-97097676D01*
X123180951Y-97097676D02*
X123133332Y-97288152D01*
X123133332Y-97288152D02*
X123133332Y-97621485D01*
X123133332Y-97621485D02*
X123180951Y-97811961D01*
X123180951Y-97811961D02*
X123276189Y-97907200D01*
X123276189Y-97907200D02*
X123371427Y-97954819D01*
X123371427Y-97954819D02*
X123561903Y-97954819D01*
X123561903Y-97954819D02*
X123657141Y-97907200D01*
X123657141Y-97907200D02*
X123752379Y-97811961D01*
X123752379Y-97811961D02*
X123799998Y-97621485D01*
X123799998Y-97621485D02*
X123799998Y-97288152D01*
X123799998Y-97288152D02*
X123752379Y-97097676D01*
X123752379Y-97097676D02*
X123657141Y-97002438D01*
X123657141Y-97002438D02*
X123561903Y-96954819D01*
X122704760Y-97954819D02*
X122704760Y-96954819D01*
X122704760Y-97431009D02*
X122133332Y-97431009D01*
X122133332Y-97954819D02*
X122133332Y-96954819D01*
X121180951Y-97954819D02*
X121657141Y-97954819D01*
X121657141Y-97954819D02*
X121657141Y-96954819D01*
X120847617Y-97573866D02*
X120085713Y-97573866D01*
X119657141Y-97907200D02*
X119514284Y-97954819D01*
X119514284Y-97954819D02*
X119276189Y-97954819D01*
X119276189Y-97954819D02*
X119180951Y-97907200D01*
X119180951Y-97907200D02*
X119133332Y-97859580D01*
X119133332Y-97859580D02*
X119085713Y-97764342D01*
X119085713Y-97764342D02*
X119085713Y-97669104D01*
X119085713Y-97669104D02*
X119133332Y-97573866D01*
X119133332Y-97573866D02*
X119180951Y-97526247D01*
X119180951Y-97526247D02*
X119276189Y-97478628D01*
X119276189Y-97478628D02*
X119466665Y-97431009D01*
X119466665Y-97431009D02*
X119561903Y-97383390D01*
X119561903Y-97383390D02*
X119609522Y-97335771D01*
X119609522Y-97335771D02*
X119657141Y-97240533D01*
X119657141Y-97240533D02*
X119657141Y-97145295D01*
X119657141Y-97145295D02*
X119609522Y-97050057D01*
X119609522Y-97050057D02*
X119561903Y-97002438D01*
X119561903Y-97002438D02*
X119466665Y-96954819D01*
X119466665Y-96954819D02*
X119228570Y-96954819D01*
X119228570Y-96954819D02*
X119085713Y-97002438D01*
X117942855Y-97050057D02*
X117895236Y-97002438D01*
X117895236Y-97002438D02*
X117799998Y-96954819D01*
X117799998Y-96954819D02*
X117561903Y-96954819D01*
X117561903Y-96954819D02*
X117466665Y-97002438D01*
X117466665Y-97002438D02*
X117419046Y-97050057D01*
X117419046Y-97050057D02*
X117371427Y-97145295D01*
X117371427Y-97145295D02*
X117371427Y-97240533D01*
X117371427Y-97240533D02*
X117419046Y-97383390D01*
X117419046Y-97383390D02*
X117990474Y-97954819D01*
X117990474Y-97954819D02*
X117371427Y-97954819D01*
X116942855Y-97859580D02*
X116895236Y-97907200D01*
X116895236Y-97907200D02*
X116942855Y-97954819D01*
X116942855Y-97954819D02*
X116990474Y-97907200D01*
X116990474Y-97907200D02*
X116942855Y-97859580D01*
X116942855Y-97859580D02*
X116942855Y-97954819D01*
X116276189Y-96954819D02*
X116180951Y-96954819D01*
X116180951Y-96954819D02*
X116085713Y-97002438D01*
X116085713Y-97002438D02*
X116038094Y-97050057D01*
X116038094Y-97050057D02*
X115990475Y-97145295D01*
X115990475Y-97145295D02*
X115942856Y-97335771D01*
X115942856Y-97335771D02*
X115942856Y-97573866D01*
X115942856Y-97573866D02*
X115990475Y-97764342D01*
X115990475Y-97764342D02*
X116038094Y-97859580D01*
X116038094Y-97859580D02*
X116085713Y-97907200D01*
X116085713Y-97907200D02*
X116180951Y-97954819D01*
X116180951Y-97954819D02*
X116276189Y-97954819D01*
X116276189Y-97954819D02*
X116371427Y-97907200D01*
X116371427Y-97907200D02*
X116419046Y-97859580D01*
X116419046Y-97859580D02*
X116466665Y-97764342D01*
X116466665Y-97764342D02*
X116514284Y-97573866D01*
X116514284Y-97573866D02*
X116514284Y-97335771D01*
X116514284Y-97335771D02*
X116466665Y-97145295D01*
X116466665Y-97145295D02*
X116419046Y-97050057D01*
X116419046Y-97050057D02*
X116371427Y-97002438D01*
X116371427Y-97002438D02*
X116276189Y-96954819D01*
X114609522Y-97526247D02*
X114657141Y-97573866D01*
X114657141Y-97573866D02*
X114609522Y-97621485D01*
X114609522Y-97621485D02*
X114561903Y-97573866D01*
X114561903Y-97573866D02*
X114609522Y-97526247D01*
X114609522Y-97526247D02*
X114609522Y-97621485D01*
X113228569Y-97954819D02*
X113228569Y-97288152D01*
X113228569Y-97383390D02*
X113180950Y-97335771D01*
X113180950Y-97335771D02*
X113085712Y-97288152D01*
X113085712Y-97288152D02*
X112942855Y-97288152D01*
X112942855Y-97288152D02*
X112847617Y-97335771D01*
X112847617Y-97335771D02*
X112799998Y-97431009D01*
X112799998Y-97431009D02*
X112799998Y-97954819D01*
X112799998Y-97431009D02*
X112752379Y-97335771D01*
X112752379Y-97335771D02*
X112657141Y-97288152D01*
X112657141Y-97288152D02*
X112514284Y-97288152D01*
X112514284Y-97288152D02*
X112419045Y-97335771D01*
X112419045Y-97335771D02*
X112371426Y-97431009D01*
X112371426Y-97431009D02*
X112371426Y-97954819D01*
X111752379Y-97954819D02*
X111847617Y-97907200D01*
X111847617Y-97907200D02*
X111895236Y-97859580D01*
X111895236Y-97859580D02*
X111942855Y-97764342D01*
X111942855Y-97764342D02*
X111942855Y-97478628D01*
X111942855Y-97478628D02*
X111895236Y-97383390D01*
X111895236Y-97383390D02*
X111847617Y-97335771D01*
X111847617Y-97335771D02*
X111752379Y-97288152D01*
X111752379Y-97288152D02*
X111609522Y-97288152D01*
X111609522Y-97288152D02*
X111514284Y-97335771D01*
X111514284Y-97335771D02*
X111466665Y-97383390D01*
X111466665Y-97383390D02*
X111419046Y-97478628D01*
X111419046Y-97478628D02*
X111419046Y-97764342D01*
X111419046Y-97764342D02*
X111466665Y-97859580D01*
X111466665Y-97859580D02*
X111514284Y-97907200D01*
X111514284Y-97907200D02*
X111609522Y-97954819D01*
X111609522Y-97954819D02*
X111752379Y-97954819D01*
X110561903Y-97954819D02*
X110561903Y-96954819D01*
X110561903Y-97907200D02*
X110657141Y-97954819D01*
X110657141Y-97954819D02*
X110847617Y-97954819D01*
X110847617Y-97954819D02*
X110942855Y-97907200D01*
X110942855Y-97907200D02*
X110990474Y-97859580D01*
X110990474Y-97859580D02*
X111038093Y-97764342D01*
X111038093Y-97764342D02*
X111038093Y-97478628D01*
X111038093Y-97478628D02*
X110990474Y-97383390D01*
X110990474Y-97383390D02*
X110942855Y-97335771D01*
X110942855Y-97335771D02*
X110847617Y-97288152D01*
X110847617Y-97288152D02*
X110657141Y-97288152D01*
X110657141Y-97288152D02*
X110561903Y-97335771D01*
X110085712Y-97954819D02*
X110085712Y-97288152D01*
X110085712Y-96954819D02*
X110133331Y-97002438D01*
X110133331Y-97002438D02*
X110085712Y-97050057D01*
X110085712Y-97050057D02*
X110038093Y-97002438D01*
X110038093Y-97002438D02*
X110085712Y-96954819D01*
X110085712Y-96954819D02*
X110085712Y-97050057D01*
X109752379Y-97288152D02*
X109371427Y-97288152D01*
X109609522Y-97954819D02*
X109609522Y-97097676D01*
X109609522Y-97097676D02*
X109561903Y-97002438D01*
X109561903Y-97002438D02*
X109466665Y-96954819D01*
X109466665Y-96954819D02*
X109371427Y-96954819D01*
X109038093Y-97954819D02*
X109038093Y-97288152D01*
X109038093Y-96954819D02*
X109085712Y-97002438D01*
X109085712Y-97002438D02*
X109038093Y-97050057D01*
X109038093Y-97050057D02*
X108990474Y-97002438D01*
X108990474Y-97002438D02*
X109038093Y-96954819D01*
X109038093Y-96954819D02*
X109038093Y-97050057D01*
X108180951Y-97907200D02*
X108276189Y-97954819D01*
X108276189Y-97954819D02*
X108466665Y-97954819D01*
X108466665Y-97954819D02*
X108561903Y-97907200D01*
X108561903Y-97907200D02*
X108609522Y-97811961D01*
X108609522Y-97811961D02*
X108609522Y-97431009D01*
X108609522Y-97431009D02*
X108561903Y-97335771D01*
X108561903Y-97335771D02*
X108466665Y-97288152D01*
X108466665Y-97288152D02*
X108276189Y-97288152D01*
X108276189Y-97288152D02*
X108180951Y-97335771D01*
X108180951Y-97335771D02*
X108133332Y-97431009D01*
X108133332Y-97431009D02*
X108133332Y-97526247D01*
X108133332Y-97526247D02*
X108609522Y-97621485D01*
X107276189Y-97954819D02*
X107276189Y-96954819D01*
X107276189Y-97907200D02*
X107371427Y-97954819D01*
X107371427Y-97954819D02*
X107561903Y-97954819D01*
X107561903Y-97954819D02*
X107657141Y-97907200D01*
X107657141Y-97907200D02*
X107704760Y-97859580D01*
X107704760Y-97859580D02*
X107752379Y-97764342D01*
X107752379Y-97764342D02*
X107752379Y-97478628D01*
X107752379Y-97478628D02*
X107704760Y-97383390D01*
X107704760Y-97383390D02*
X107657141Y-97335771D01*
X107657141Y-97335771D02*
X107561903Y-97288152D01*
X107561903Y-97288152D02*
X107371427Y-97288152D01*
X107371427Y-97288152D02*
X107276189Y-97335771D01*
D12*
X126796422Y-90232593D02*
X126796422Y-90708783D01*
X126796422Y-90708783D02*
X127596422Y-90708783D01*
X127215470Y-89899259D02*
X127215470Y-89565926D01*
X126796422Y-89423069D02*
X126796422Y-89899259D01*
X126796422Y-89899259D02*
X127596422Y-89899259D01*
X127596422Y-89899259D02*
X127596422Y-89423069D01*
X126796422Y-88994497D02*
X127596422Y-88994497D01*
X127596422Y-88994497D02*
X127596422Y-88756402D01*
X127596422Y-88756402D02*
X127558327Y-88613545D01*
X127558327Y-88613545D02*
X127482137Y-88518307D01*
X127482137Y-88518307D02*
X127405946Y-88470688D01*
X127405946Y-88470688D02*
X127253565Y-88423069D01*
X127253565Y-88423069D02*
X127139279Y-88423069D01*
X127139279Y-88423069D02*
X126986898Y-88470688D01*
X126986898Y-88470688D02*
X126910708Y-88518307D01*
X126910708Y-88518307D02*
X126834518Y-88613545D01*
X126834518Y-88613545D02*
X126796422Y-88756402D01*
X126796422Y-88756402D02*
X126796422Y-88994497D01*
X127520232Y-88042116D02*
X127558327Y-87994497D01*
X127558327Y-87994497D02*
X127596422Y-87899259D01*
X127596422Y-87899259D02*
X127596422Y-87661164D01*
X127596422Y-87661164D02*
X127558327Y-87565926D01*
X127558327Y-87565926D02*
X127520232Y-87518307D01*
X127520232Y-87518307D02*
X127444041Y-87470688D01*
X127444041Y-87470688D02*
X127367851Y-87470688D01*
X127367851Y-87470688D02*
X127253565Y-87518307D01*
X127253565Y-87518307D02*
X126796422Y-88089735D01*
X126796422Y-88089735D02*
X126796422Y-87470688D01*
X140734064Y-90219047D02*
X140734064Y-90695237D01*
X140734064Y-90695237D02*
X141534064Y-90695237D01*
X141153112Y-89885713D02*
X141153112Y-89552380D01*
X140734064Y-89409523D02*
X140734064Y-89885713D01*
X140734064Y-89885713D02*
X141534064Y-89885713D01*
X141534064Y-89885713D02*
X141534064Y-89409523D01*
X140734064Y-88980951D02*
X141534064Y-88980951D01*
X141534064Y-88980951D02*
X141534064Y-88742856D01*
X141534064Y-88742856D02*
X141495969Y-88599999D01*
X141495969Y-88599999D02*
X141419779Y-88504761D01*
X141419779Y-88504761D02*
X141343588Y-88457142D01*
X141343588Y-88457142D02*
X141191207Y-88409523D01*
X141191207Y-88409523D02*
X141076921Y-88409523D01*
X141076921Y-88409523D02*
X140924540Y-88457142D01*
X140924540Y-88457142D02*
X140848350Y-88504761D01*
X140848350Y-88504761D02*
X140772160Y-88599999D01*
X140772160Y-88599999D02*
X140734064Y-88742856D01*
X140734064Y-88742856D02*
X140734064Y-88980951D01*
X141267398Y-87552380D02*
X140734064Y-87552380D01*
X141572160Y-87790475D02*
X141000731Y-88028570D01*
X141000731Y-88028570D02*
X141000731Y-87409523D01*
D11*
X143515157Y-80120358D02*
X143515157Y-80930577D01*
X143515157Y-80930577D02*
X143467497Y-81025897D01*
X143467497Y-81025897D02*
X143419837Y-81073557D01*
X143419837Y-81073557D02*
X143324517Y-81121216D01*
X143324517Y-81121216D02*
X143133878Y-81121216D01*
X143133878Y-81121216D02*
X143038558Y-81073557D01*
X143038558Y-81073557D02*
X142990898Y-81025897D01*
X142990898Y-81025897D02*
X142943238Y-80930577D01*
X142943238Y-80930577D02*
X142943238Y-80120358D01*
X141942380Y-81121216D02*
X142514299Y-81121216D01*
X142228339Y-81121216D02*
X142228339Y-80120358D01*
X142228339Y-80120358D02*
X142323659Y-80263338D01*
X142323659Y-80263338D02*
X142418979Y-80358658D01*
X142418979Y-80358658D02*
X142514299Y-80406318D01*
X141036842Y-80120358D02*
X141513441Y-80120358D01*
X141513441Y-80120358D02*
X141561101Y-80596957D01*
X141561101Y-80596957D02*
X141513441Y-80549298D01*
X141513441Y-80549298D02*
X141418121Y-80501638D01*
X141418121Y-80501638D02*
X141179822Y-80501638D01*
X141179822Y-80501638D02*
X141084502Y-80549298D01*
X141084502Y-80549298D02*
X141036842Y-80596957D01*
X141036842Y-80596957D02*
X140989182Y-80692277D01*
X140989182Y-80692277D02*
X140989182Y-80930577D01*
X140989182Y-80930577D02*
X141036842Y-81025897D01*
X141036842Y-81025897D02*
X141084502Y-81073557D01*
X141084502Y-81073557D02*
X141179822Y-81121216D01*
X141179822Y-81121216D02*
X141418121Y-81121216D01*
X141418121Y-81121216D02*
X141513441Y-81073557D01*
X141513441Y-81073557D02*
X141561101Y-81025897D01*
D12*
X133784064Y-90219047D02*
X133784064Y-90695237D01*
X133784064Y-90695237D02*
X134584064Y-90695237D01*
X134203112Y-89885713D02*
X134203112Y-89552380D01*
X133784064Y-89409523D02*
X133784064Y-89885713D01*
X133784064Y-89885713D02*
X134584064Y-89885713D01*
X134584064Y-89885713D02*
X134584064Y-89409523D01*
X133784064Y-88980951D02*
X134584064Y-88980951D01*
X134584064Y-88980951D02*
X134584064Y-88742856D01*
X134584064Y-88742856D02*
X134545969Y-88599999D01*
X134545969Y-88599999D02*
X134469779Y-88504761D01*
X134469779Y-88504761D02*
X134393588Y-88457142D01*
X134393588Y-88457142D02*
X134241207Y-88409523D01*
X134241207Y-88409523D02*
X134126921Y-88409523D01*
X134126921Y-88409523D02*
X133974540Y-88457142D01*
X133974540Y-88457142D02*
X133898350Y-88504761D01*
X133898350Y-88504761D02*
X133822160Y-88599999D01*
X133822160Y-88599999D02*
X133784064Y-88742856D01*
X133784064Y-88742856D02*
X133784064Y-88980951D01*
X134584064Y-88076189D02*
X134584064Y-87457142D01*
X134584064Y-87457142D02*
X134279302Y-87790475D01*
X134279302Y-87790475D02*
X134279302Y-87647618D01*
X134279302Y-87647618D02*
X134241207Y-87552380D01*
X134241207Y-87552380D02*
X134203112Y-87504761D01*
X134203112Y-87504761D02*
X134126921Y-87457142D01*
X134126921Y-87457142D02*
X133936445Y-87457142D01*
X133936445Y-87457142D02*
X133860255Y-87504761D01*
X133860255Y-87504761D02*
X133822160Y-87552380D01*
X133822160Y-87552380D02*
X133784064Y-87647618D01*
X133784064Y-87647618D02*
X133784064Y-87933332D01*
X133784064Y-87933332D02*
X133822160Y-88028570D01*
X133822160Y-88028570D02*
X133860255Y-88076189D01*
X147634064Y-90219047D02*
X147634064Y-90695237D01*
X147634064Y-90695237D02*
X148434064Y-90695237D01*
X148053112Y-89885713D02*
X148053112Y-89552380D01*
X147634064Y-89409523D02*
X147634064Y-89885713D01*
X147634064Y-89885713D02*
X148434064Y-89885713D01*
X148434064Y-89885713D02*
X148434064Y-89409523D01*
X147634064Y-88980951D02*
X148434064Y-88980951D01*
X148434064Y-88980951D02*
X148434064Y-88742856D01*
X148434064Y-88742856D02*
X148395969Y-88599999D01*
X148395969Y-88599999D02*
X148319779Y-88504761D01*
X148319779Y-88504761D02*
X148243588Y-88457142D01*
X148243588Y-88457142D02*
X148091207Y-88409523D01*
X148091207Y-88409523D02*
X147976921Y-88409523D01*
X147976921Y-88409523D02*
X147824540Y-88457142D01*
X147824540Y-88457142D02*
X147748350Y-88504761D01*
X147748350Y-88504761D02*
X147672160Y-88599999D01*
X147672160Y-88599999D02*
X147634064Y-88742856D01*
X147634064Y-88742856D02*
X147634064Y-88980951D01*
X148434064Y-87504761D02*
X148434064Y-87980951D01*
X148434064Y-87980951D02*
X148053112Y-88028570D01*
X148053112Y-88028570D02*
X148091207Y-87980951D01*
X148091207Y-87980951D02*
X148129302Y-87885713D01*
X148129302Y-87885713D02*
X148129302Y-87647618D01*
X148129302Y-87647618D02*
X148091207Y-87552380D01*
X148091207Y-87552380D02*
X148053112Y-87504761D01*
X148053112Y-87504761D02*
X147976921Y-87457142D01*
X147976921Y-87457142D02*
X147786445Y-87457142D01*
X147786445Y-87457142D02*
X147710255Y-87504761D01*
X147710255Y-87504761D02*
X147672160Y-87552380D01*
X147672160Y-87552380D02*
X147634064Y-87647618D01*
X147634064Y-87647618D02*
X147634064Y-87885713D01*
X147634064Y-87885713D02*
X147672160Y-87980951D01*
X147672160Y-87980951D02*
X147710255Y-88028570D01*
D11*
X119688094Y-86354819D02*
X119688094Y-87164342D01*
X119688094Y-87164342D02*
X119640475Y-87259580D01*
X119640475Y-87259580D02*
X119592856Y-87307200D01*
X119592856Y-87307200D02*
X119497618Y-87354819D01*
X119497618Y-87354819D02*
X119307142Y-87354819D01*
X119307142Y-87354819D02*
X119211904Y-87307200D01*
X119211904Y-87307200D02*
X119164285Y-87259580D01*
X119164285Y-87259580D02*
X119116666Y-87164342D01*
X119116666Y-87164342D02*
X119116666Y-86354819D01*
X118116666Y-87354819D02*
X118688094Y-87354819D01*
X118402380Y-87354819D02*
X118402380Y-86354819D01*
X118402380Y-86354819D02*
X118497618Y-86497676D01*
X118497618Y-86497676D02*
X118592856Y-86592914D01*
X118592856Y-86592914D02*
X118688094Y-86640533D01*
X117640475Y-87354819D02*
X117449999Y-87354819D01*
X117449999Y-87354819D02*
X117354761Y-87307200D01*
X117354761Y-87307200D02*
X117307142Y-87259580D01*
X117307142Y-87259580D02*
X117211904Y-87116723D01*
X117211904Y-87116723D02*
X117164285Y-86926247D01*
X117164285Y-86926247D02*
X117164285Y-86545295D01*
X117164285Y-86545295D02*
X117211904Y-86450057D01*
X117211904Y-86450057D02*
X117259523Y-86402438D01*
X117259523Y-86402438D02*
X117354761Y-86354819D01*
X117354761Y-86354819D02*
X117545237Y-86354819D01*
X117545237Y-86354819D02*
X117640475Y-86402438D01*
X117640475Y-86402438D02*
X117688094Y-86450057D01*
X117688094Y-86450057D02*
X117735713Y-86545295D01*
X117735713Y-86545295D02*
X117735713Y-86783390D01*
X117735713Y-86783390D02*
X117688094Y-86878628D01*
X117688094Y-86878628D02*
X117640475Y-86926247D01*
X117640475Y-86926247D02*
X117545237Y-86973866D01*
X117545237Y-86973866D02*
X117354761Y-86973866D01*
X117354761Y-86973866D02*
X117259523Y-86926247D01*
X117259523Y-86926247D02*
X117211904Y-86878628D01*
X117211904Y-86878628D02*
X117164285Y-86783390D01*
X133736400Y-67945830D02*
X133736400Y-67707735D01*
X133498305Y-67802973D02*
X133736400Y-67707735D01*
X133736400Y-67707735D02*
X133974495Y-67802973D01*
X133593543Y-67517259D02*
X133736400Y-67707735D01*
X133736400Y-67707735D02*
X133879257Y-67517259D01*
X133736399Y-66855469D02*
X133736399Y-67093564D01*
X133974494Y-66998326D02*
X133736399Y-67093564D01*
X133736399Y-67093564D02*
X133498304Y-66998326D01*
X133879256Y-67284040D02*
X133736399Y-67093564D01*
X133736399Y-67093564D02*
X133593542Y-67284040D01*
X122707580Y-82730952D02*
X122755200Y-82683333D01*
X122755200Y-82683333D02*
X122802819Y-82540476D01*
X122802819Y-82540476D02*
X122802819Y-82445238D01*
X122802819Y-82445238D02*
X122755200Y-82302381D01*
X122755200Y-82302381D02*
X122659961Y-82207143D01*
X122659961Y-82207143D02*
X122564723Y-82159524D01*
X122564723Y-82159524D02*
X122374247Y-82111905D01*
X122374247Y-82111905D02*
X122231390Y-82111905D01*
X122231390Y-82111905D02*
X122040914Y-82159524D01*
X122040914Y-82159524D02*
X121945676Y-82207143D01*
X121945676Y-82207143D02*
X121850438Y-82302381D01*
X121850438Y-82302381D02*
X121802819Y-82445238D01*
X121802819Y-82445238D02*
X121802819Y-82540476D01*
X121802819Y-82540476D02*
X121850438Y-82683333D01*
X121850438Y-82683333D02*
X121898057Y-82730952D01*
X122802819Y-83683333D02*
X122802819Y-83111905D01*
X122802819Y-83397619D02*
X121802819Y-83397619D01*
X121802819Y-83397619D02*
X121945676Y-83302381D01*
X121945676Y-83302381D02*
X122040914Y-83207143D01*
X122040914Y-83207143D02*
X122088533Y-83111905D01*
X121802819Y-84302381D02*
X121802819Y-84397619D01*
X121802819Y-84397619D02*
X121850438Y-84492857D01*
X121850438Y-84492857D02*
X121898057Y-84540476D01*
X121898057Y-84540476D02*
X121993295Y-84588095D01*
X121993295Y-84588095D02*
X122183771Y-84635714D01*
X122183771Y-84635714D02*
X122421866Y-84635714D01*
X122421866Y-84635714D02*
X122612342Y-84588095D01*
X122612342Y-84588095D02*
X122707580Y-84540476D01*
X122707580Y-84540476D02*
X122755200Y-84492857D01*
X122755200Y-84492857D02*
X122802819Y-84397619D01*
X122802819Y-84397619D02*
X122802819Y-84302381D01*
X122802819Y-84302381D02*
X122755200Y-84207143D01*
X122755200Y-84207143D02*
X122707580Y-84159524D01*
X122707580Y-84159524D02*
X122612342Y-84111905D01*
X122612342Y-84111905D02*
X122421866Y-84064286D01*
X122421866Y-84064286D02*
X122183771Y-84064286D01*
X122183771Y-84064286D02*
X121993295Y-84111905D01*
X121993295Y-84111905D02*
X121898057Y-84159524D01*
X121898057Y-84159524D02*
X121850438Y-84207143D01*
X121850438Y-84207143D02*
X121802819Y-84302381D01*
X122136152Y-85492857D02*
X122802819Y-85492857D01*
X121755200Y-85254762D02*
X122469485Y-85016667D01*
X122469485Y-85016667D02*
X122469485Y-85635714D01*
D10*
X127785381Y-67628855D02*
X127252047Y-68428855D01*
X127252047Y-67628855D02*
X127785381Y-68428855D01*
X126490142Y-68428855D02*
X126756809Y-68047902D01*
X126947285Y-68428855D02*
X126947285Y-67628855D01*
X126947285Y-67628855D02*
X126642523Y-67628855D01*
X126642523Y-67628855D02*
X126566333Y-67666950D01*
X126566333Y-67666950D02*
X126528238Y-67705045D01*
X126528238Y-67705045D02*
X126490142Y-67781236D01*
X126490142Y-67781236D02*
X126490142Y-67895521D01*
X126490142Y-67895521D02*
X126528238Y-67971712D01*
X126528238Y-67971712D02*
X126566333Y-68009807D01*
X126566333Y-68009807D02*
X126642523Y-68047902D01*
X126642523Y-68047902D02*
X126947285Y-68047902D01*
X126185381Y-68390760D02*
X126071095Y-68428855D01*
X126071095Y-68428855D02*
X125880619Y-68428855D01*
X125880619Y-68428855D02*
X125804428Y-68390760D01*
X125804428Y-68390760D02*
X125766333Y-68352664D01*
X125766333Y-68352664D02*
X125728238Y-68276474D01*
X125728238Y-68276474D02*
X125728238Y-68200283D01*
X125728238Y-68200283D02*
X125766333Y-68124093D01*
X125766333Y-68124093D02*
X125804428Y-68085998D01*
X125804428Y-68085998D02*
X125880619Y-68047902D01*
X125880619Y-68047902D02*
X126033000Y-68009807D01*
X126033000Y-68009807D02*
X126109190Y-67971712D01*
X126109190Y-67971712D02*
X126147285Y-67933617D01*
X126147285Y-67933617D02*
X126185381Y-67857426D01*
X126185381Y-67857426D02*
X126185381Y-67781236D01*
X126185381Y-67781236D02*
X126147285Y-67705045D01*
X126147285Y-67705045D02*
X126109190Y-67666950D01*
X126109190Y-67666950D02*
X126033000Y-67628855D01*
X126033000Y-67628855D02*
X125842523Y-67628855D01*
X125842523Y-67628855D02*
X125728238Y-67666950D01*
X125499666Y-67628855D02*
X125042523Y-67628855D01*
X125271095Y-68428855D02*
X125271095Y-67628855D01*
%TO.C,R53*%
X141563859Y-93070000D02*
X141871141Y-93070000D01*
X141563859Y-93830000D02*
X141871141Y-93830000D01*
%TO.C,R81*%
X115720000Y-84746359D02*
X115720000Y-85053641D01*
X116480000Y-84746359D02*
X116480000Y-85053641D01*
%TO.C,C35*%
X129540000Y-65907836D02*
X129540000Y-65692164D01*
X130260000Y-65907836D02*
X130260000Y-65692164D01*
%TO.C,C34*%
X128540000Y-65907836D02*
X128540000Y-65692164D01*
X129260000Y-65907836D02*
X129260000Y-65692164D01*
D11*
%TO.C,D1*%
X151345693Y-63342337D02*
G75*
G02*
X151195691Y-63342337I-75001J0D01*
G01*
X151195691Y-63342337D02*
G75*
G02*
X151345693Y-63342337I75001J0D01*
G01*
D10*
%TO.C,U11*%
X124440000Y-73440000D02*
X124440000Y-73710000D01*
X124440000Y-78960000D02*
X124440000Y-78690000D01*
X127200000Y-73440000D02*
X124440000Y-73440000D01*
X127200000Y-73440000D02*
X129960000Y-73440000D01*
X127200000Y-78960000D02*
X124440000Y-78960000D01*
X127200000Y-78960000D02*
X129960000Y-78960000D01*
X129960000Y-73440000D02*
X129960000Y-73710000D01*
X129960000Y-78960000D02*
X129960000Y-78690000D01*
X124783000Y-79889000D02*
X124303000Y-79889000D01*
X124543000Y-79558999D01*
X124783000Y-79889000D01*
G36*
X124783000Y-79889000D02*
G01*
X124303000Y-79889000D01*
X124543000Y-79558999D01*
X124783000Y-79889000D01*
G37*
%TO.C,C33*%
X119840000Y-67407836D02*
X119840000Y-67192164D01*
X120560000Y-67407836D02*
X120560000Y-67192164D01*
%TO.C,LED2*%
D13*
X126512358Y-90463546D02*
X124012358Y-90463546D01*
X124012358Y-87763546D01*
X126512358Y-87763546D01*
X126512358Y-90463546D01*
%TO.C,LED4*%
X140450000Y-90450000D02*
X137950000Y-90450000D01*
X137950000Y-87750000D01*
X140450000Y-87750000D01*
X140450000Y-90450000D01*
D10*
%TO.C,R65*%
X127837500Y-94093641D02*
X127837500Y-93786359D01*
X128597500Y-94093641D02*
X128597500Y-93786359D01*
%TO.C,R48*%
X122851359Y-64870000D02*
X123158641Y-64870000D01*
X122851359Y-65630000D02*
X123158641Y-65630000D01*
D14*
%TO.C,D6*%
X138000000Y-75950000D02*
X138000000Y-76450000D01*
X138800000Y-75950000D02*
X138800000Y-76450000D01*
D15*
X138500000Y-74340000D02*
G75*
G02*
X138300000Y-74340000I-100000J0D01*
G01*
X138300000Y-74340000D02*
G75*
G02*
X138500000Y-74340000I100000J0D01*
G01*
D10*
%TO.C,C106*%
X115390000Y-106322164D02*
X115390000Y-106537836D01*
X116110000Y-106322164D02*
X116110000Y-106537836D01*
D14*
%TO.C,U13*%
X132162500Y-94165000D02*
X132162500Y-94835000D01*
X132632500Y-95950000D02*
X133292500Y-95950000D01*
X133292500Y-93050000D02*
X132632500Y-93050000D01*
D15*
X135472500Y-93450000D02*
G75*
G02*
X135272500Y-93450000I-100000J0D01*
G01*
X135272500Y-93450000D02*
G75*
G02*
X135472500Y-93450000I100000J0D01*
G01*
D10*
%TO.C,R72*%
X139656359Y-81720000D02*
X139963641Y-81720000D01*
X139656359Y-82480000D02*
X139963641Y-82480000D01*
D15*
%TO.C,U15*%
X141400000Y-82100000D02*
X141400000Y-82400000D01*
X141700000Y-82100000D02*
X141400000Y-82100000D01*
X144100000Y-85100000D02*
X144400000Y-85100000D01*
X144400000Y-82100000D02*
X144100000Y-82100000D01*
X144400000Y-82400000D02*
X144400000Y-82100000D01*
X144400000Y-85100000D02*
X144400000Y-84800000D01*
D13*
X141150000Y-85000000D02*
G75*
G02*
X141050000Y-85000000I-50000J0D01*
G01*
X141050000Y-85000000D02*
G75*
G02*
X141150000Y-85000000I50000J0D01*
G01*
D10*
%TO.C,C68*%
X129857500Y-93832164D02*
X129857500Y-94047836D01*
X130577500Y-93832164D02*
X130577500Y-94047836D01*
%TO.C,C64*%
X136176920Y-91140000D02*
X136458080Y-91140000D01*
X136176920Y-92160000D02*
X136458080Y-92160000D01*
%TO.C,Q3*%
X138280000Y-92940000D02*
X137630000Y-92940000D01*
X138280000Y-92940000D02*
X138930000Y-92940000D01*
X138280000Y-96060000D02*
X137630000Y-96060000D01*
X138280000Y-96060000D02*
X138930000Y-96060000D01*
X139442500Y-92990000D02*
X139202500Y-92660000D01*
X139682500Y-92660000D01*
X139442500Y-92990000D01*
G36*
X139442500Y-92990000D02*
G01*
X139202500Y-92660000D01*
X139682500Y-92660000D01*
X139442500Y-92990000D01*
G37*
%TO.C,R45*%
X142820000Y-69246359D02*
X142820000Y-69553641D01*
X143580000Y-69246359D02*
X143580000Y-69553641D01*
%TO.C,R58*%
X138020000Y-78636359D02*
X138020000Y-78943641D01*
X138780000Y-78636359D02*
X138780000Y-78943641D01*
D14*
%TO.C,U16*%
X120304999Y-69500000D02*
X120304999Y-69820000D01*
X120304999Y-71000000D02*
X120304999Y-70680000D01*
X122695001Y-69500000D02*
X122695001Y-69820000D01*
X122695001Y-71000000D02*
X122695001Y-70680000D01*
D15*
X122350000Y-71935000D02*
G75*
G02*
X122150000Y-71935000I-100000J0D01*
G01*
X122150000Y-71935000D02*
G75*
G02*
X122350000Y-71935000I100000J0D01*
G01*
D10*
%TO.C,R3*%
X149022659Y-69060060D02*
X149239940Y-69277341D01*
X149560060Y-68522659D02*
X149777341Y-68739940D01*
%TO.C,C66*%
X130307836Y-79240000D02*
X130092164Y-79240000D01*
X130307836Y-79960000D02*
X130092164Y-79960000D01*
%TO.C,FB1*%
X152323412Y-63333984D02*
X152658945Y-63669517D01*
X153062339Y-62595057D02*
X153397872Y-62930590D01*
%TO.C,C98*%
X139692164Y-82740000D02*
X139907836Y-82740000D01*
X139692164Y-83460000D02*
X139907836Y-83460000D01*
%TO.C,C58*%
X141592164Y-59840000D02*
X141807836Y-59840000D01*
X141592164Y-60560000D02*
X141807836Y-60560000D01*
%TO.C,R36*%
X140136359Y-55720000D02*
X140443641Y-55720000D01*
X140136359Y-56480000D02*
X140443641Y-56480000D01*
%TO.C,LED3*%
D13*
X133500000Y-90450000D02*
X131000000Y-90450000D01*
X131000000Y-87750000D01*
X133500000Y-87750000D01*
X133500000Y-90450000D01*
D10*
%TO.C,C96*%
X125092164Y-86040000D02*
X125307836Y-86040000D01*
X125092164Y-86760000D02*
X125307836Y-86760000D01*
%TO.C,R35*%
X131220000Y-60753641D02*
X131220000Y-60446359D01*
X131980000Y-60753641D02*
X131980000Y-60446359D01*
%TO.C,R39*%
X144346359Y-64620000D02*
X144653641Y-64620000D01*
X144346359Y-65380000D02*
X144653641Y-65380000D01*
D14*
%TO.C,X1*%
X132200000Y-59611000D02*
X132200000Y-59389000D01*
X133800000Y-59408560D02*
X133800000Y-59611000D01*
D15*
X134325000Y-59591000D02*
G75*
G02*
X134125000Y-59591000I-100000J0D01*
G01*
X134125000Y-59591000D02*
G75*
G02*
X134325000Y-59591000I100000J0D01*
G01*
D10*
%TO.C,C61*%
X165192164Y-79340000D02*
X165407836Y-79340000D01*
X165192164Y-80060000D02*
X165407836Y-80060000D01*
%TO.C,C93*%
X145892164Y-86140000D02*
X146107836Y-86140000D01*
X145892164Y-86860000D02*
X146107836Y-86860000D01*
%TO.C,C105*%
X123940000Y-115872164D02*
X123940000Y-116087836D01*
X124660000Y-115872164D02*
X124660000Y-116087836D01*
%TO.C,R43*%
X144346359Y-65620000D02*
X144653641Y-65620000D01*
X144346359Y-66380000D02*
X144653641Y-66380000D01*
%TO.C,LED5*%
D13*
X147350000Y-90450000D02*
X144850000Y-90450000D01*
X144850000Y-87750000D01*
X147350000Y-87750000D01*
X147350000Y-90450000D01*
D10*
%TO.C,R56*%
X134620000Y-81553641D02*
X134620000Y-81246359D01*
X135380000Y-81553641D02*
X135380000Y-81246359D01*
%TO.C,C65*%
X136089664Y-92590000D02*
X136305336Y-92590000D01*
X136089664Y-93310000D02*
X136305336Y-93310000D01*
%TO.C,C69*%
X128857500Y-93832164D02*
X128857500Y-94047836D01*
X129577500Y-93832164D02*
X129577500Y-94047836D01*
%TO.C,R34*%
X132846359Y-60720000D02*
X133153641Y-60720000D01*
X132846359Y-61480000D02*
X133153641Y-61480000D01*
%TO.C,R73*%
X145846359Y-84920000D02*
X146153641Y-84920000D01*
X145846359Y-85680000D02*
X146153641Y-85680000D01*
%TO.C,C62*%
X165192164Y-80340000D02*
X165407836Y-80340000D01*
X165192164Y-81060000D02*
X165407836Y-81060000D01*
%TO.C,R2*%
X149722659Y-68360060D02*
X149939940Y-68577341D01*
X150260060Y-67822659D02*
X150477341Y-68039940D01*
%TO.C,C99*%
X141687836Y-86140000D02*
X141472164Y-86140000D01*
X141687836Y-86860000D02*
X141472164Y-86860000D01*
%TO.C,C54*%
X131207836Y-58840000D02*
X130992164Y-58840000D01*
X131207836Y-59560000D02*
X130992164Y-59560000D01*
%TO.C,R47*%
X123158641Y-65970000D02*
X122851359Y-65970000D01*
X123158641Y-66730000D02*
X122851359Y-66730000D01*
%TO.C,R67*%
X124662742Y-98877500D02*
X125137258Y-98877500D01*
X124662742Y-99922500D02*
X125137258Y-99922500D01*
%TO.C,R52*%
X135920000Y-82053641D02*
X135920000Y-81746359D01*
X136680000Y-82053641D02*
X136680000Y-81746359D01*
%TO.C,C95*%
X132092164Y-86140000D02*
X132307836Y-86140000D01*
X132092164Y-86860000D02*
X132307836Y-86860000D01*
%TO.C,U19*%
X117850748Y-85560000D02*
X119185000Y-85560000D01*
X119185000Y-83340000D02*
X117715000Y-83340000D01*
X119185000Y-84640000D02*
X119185000Y-84260000D01*
X117700000Y-85760000D02*
X117420000Y-85760000D01*
X117560000Y-85570000D01*
X117700000Y-85760000D01*
G36*
X117700000Y-85760000D02*
G01*
X117420000Y-85760000D01*
X117560000Y-85570000D01*
X117700000Y-85760000D01*
G37*
D16*
%TO.C,U10*%
X134242749Y-60968100D02*
X134640715Y-60968100D01*
X134242749Y-61366087D02*
X134242749Y-60968100D01*
X134242749Y-68232500D02*
X134242749Y-67834513D01*
X134640715Y-68232500D02*
X134242749Y-68232500D01*
X141109183Y-60968100D02*
X141507149Y-60968100D01*
X141507149Y-60968100D02*
X141507149Y-61366087D01*
X141507149Y-67834513D02*
X141507149Y-68232500D01*
X141507149Y-68232500D02*
X141109183Y-68232500D01*
D10*
%TO.C,Q2*%
X121840000Y-63680000D02*
X121840000Y-62270000D01*
X122500000Y-62270000D02*
X121840000Y-62270000D01*
X124160000Y-62270000D02*
X123500000Y-62270000D01*
X124160000Y-63680000D02*
X124160000Y-62270000D01*
X124470000Y-64290000D02*
X124140000Y-64050000D01*
X124470000Y-63810000D01*
X124470000Y-64290000D01*
G36*
X124470000Y-64290000D02*
G01*
X124140000Y-64050000D01*
X124470000Y-63810000D01*
X124470000Y-64290000D01*
G37*
%TO.C,R49*%
X122908641Y-59370000D02*
X122601359Y-59370000D01*
X122908641Y-60130000D02*
X122601359Y-60130000D01*
%TO.C,R46*%
X141820000Y-69246359D02*
X141820000Y-69553641D01*
X142580000Y-69246359D02*
X142580000Y-69553641D01*
%TO.C,R42*%
X131453641Y-65820000D02*
X131146359Y-65820000D01*
X131453641Y-66580000D02*
X131146359Y-66580000D01*
%TO.C,C101*%
X123492164Y-71640000D02*
X123707836Y-71640000D01*
X123492164Y-72360000D02*
X123707836Y-72360000D01*
D14*
%TO.C,U12*%
X132500000Y-74300000D02*
X132500000Y-78700000D01*
X137500000Y-74300000D02*
X137500000Y-78700000D01*
D15*
X132840000Y-72260000D02*
G75*
G02*
X132640000Y-72260000I-100000J0D01*
G01*
X132640000Y-72260000D02*
G75*
G02*
X132840000Y-72260000I100000J0D01*
G01*
D10*
%TO.C,R41*%
X133981359Y-56220000D02*
X134288641Y-56220000D01*
X133981359Y-56980000D02*
X134288641Y-56980000D01*
%TO.C,R40*%
X131453641Y-64820000D02*
X131146359Y-64820000D01*
X131453641Y-65580000D02*
X131146359Y-65580000D01*
%TO.C,C70*%
X131340000Y-79692164D02*
X131340000Y-79907836D01*
X132060000Y-79692164D02*
X132060000Y-79907836D01*
%TO.C,C94*%
X138992164Y-86140000D02*
X139207836Y-86140000D01*
X138992164Y-86860000D02*
X139207836Y-86860000D01*
%TO.C,C30*%
X125940000Y-70207836D02*
X125940000Y-69992164D01*
X126660000Y-70207836D02*
X126660000Y-69992164D01*
%TO.C,R54*%
X135337500Y-94603641D02*
X135337500Y-94296359D01*
X136097500Y-94603641D02*
X136097500Y-94296359D01*
%TO.C,C48*%
X134040000Y-58607836D02*
X134040000Y-58392164D01*
X134760000Y-58607836D02*
X134760000Y-58392164D01*
D16*
%TO.C,Q1*%
X136598700Y-55523800D02*
X136598700Y-56189400D01*
X136598700Y-57676200D02*
X136598700Y-57010600D01*
X138001100Y-55523800D02*
X136598700Y-55523800D01*
X138001100Y-56839300D02*
X138001100Y-56360600D01*
X138001100Y-57676200D02*
X136598700Y-57676200D01*
D10*
%TO.C,C104*%
X120828000Y-83957836D02*
X120828000Y-83742164D01*
X121548000Y-83957836D02*
X121548000Y-83742164D01*
%TO.C,TP11*%
X126800000Y-66500000D02*
G75*
G02*
X125400000Y-66500000I-700000J0D01*
G01*
X125400000Y-66500000D02*
G75*
G02*
X126800000Y-66500000I700000J0D01*
G01*
%TO.C,R44*%
X145556359Y-67020000D02*
X145863641Y-67020000D01*
X145556359Y-67780000D02*
X145863641Y-67780000D01*
%TO.C,R50*%
X123146359Y-78820000D02*
X123453641Y-78820000D01*
X123146359Y-79580000D02*
X123453641Y-79580000D01*
%TO.C,C63*%
X122862836Y-60390000D02*
X122647164Y-60390000D01*
X122862836Y-61110000D02*
X122647164Y-61110000D01*
%TD*%
%LPC*%
D17*
X111496874Y-89077634D02*
G75*
G02*
X106134874Y-89077634I-2681000J0D01*
G01*
X106134874Y-89077634D02*
G75*
G02*
X111496874Y-89077634I2681000J0D01*
G01*
D18*
X138436217Y-115931100D02*
G75*
G02*
X133214217Y-115931100I-2611000J0D01*
G01*
X133214217Y-115931100D02*
G75*
G02*
X138436217Y-115931100I2611000J0D01*
G01*
D19*
X165502174Y-89099999D02*
G75*
G02*
X160118174Y-89099999I-2692000J0D01*
G01*
X160118174Y-89099999D02*
G75*
G02*
X165502174Y-89099999I2692000J0D01*
G01*
D20*
%TO.C,J1*%
X154222290Y-70587113D03*
D21*
X158012382Y-66797021D03*
D20*
X148112887Y-64477710D03*
D21*
X151902979Y-60687618D03*
%TD*%
D22*
%TO.C,MK1*%
X103620660Y-81844869D03*
%TD*%
%TO.C,MK2*%
X167945887Y-96583055D03*
%TD*%
D23*
%TO.C,R53*%
X141207500Y-93450000D03*
X142227500Y-93450000D03*
%TD*%
D24*
%TO.C,R81*%
X116100000Y-84390000D03*
X116100000Y-85410000D03*
%TD*%
D25*
%TO.C,C35*%
X129900000Y-66280000D03*
X129900000Y-65320000D03*
%TD*%
%TO.C,C34*%
X128900000Y-66280000D03*
X128900000Y-65320000D03*
%TD*%
D26*
%TO.C,D1*%
X151907088Y-63978733D03*
X152614196Y-64685841D03*
%TD*%
D27*
%TO.C,U11*%
X123612500Y-78105000D03*
X123612500Y-76835000D03*
X123612500Y-75565000D03*
X123612500Y-74295000D03*
X130787500Y-74295000D03*
X130787500Y-75565000D03*
X130787500Y-76835000D03*
X130787500Y-78105000D03*
%TD*%
D25*
%TO.C,C33*%
X120200000Y-67780000D03*
X120200000Y-66820000D03*
%TD*%
D28*
%TO.C,LED2*%
X124712358Y-88463546D03*
X125812358Y-88463546D03*
X125812358Y-89763546D03*
X124712358Y-89763546D03*
%TD*%
%TO.C,LED4*%
X138650000Y-88450000D03*
X139750000Y-88450000D03*
X139750000Y-89750000D03*
X138650000Y-89750000D03*
%TD*%
D29*
%TO.C,R65*%
X128217500Y-94450000D03*
X128217500Y-93430000D03*
%TD*%
D30*
%TO.C,TP14*%
X159200000Y-89900000D03*
%TD*%
D23*
%TO.C,R48*%
X122495000Y-65250000D03*
X123515000Y-65250000D03*
%TD*%
D31*
%TO.C,D6*%
X138400000Y-75235000D03*
X138400000Y-77165000D03*
%TD*%
D32*
%TO.C,C106*%
X115750000Y-105950000D03*
X115750000Y-106910000D03*
%TD*%
D33*
%TO.C,U13*%
X134217500Y-93550000D03*
X134217500Y-94500000D03*
X134217500Y-95450000D03*
X131707500Y-95450000D03*
X131707500Y-93550000D03*
%TD*%
D23*
%TO.C,R72*%
X139300000Y-82100000D03*
X140320000Y-82100000D03*
%TD*%
D34*
%TO.C,U15*%
X141450000Y-84400000D03*
X141450000Y-84000000D03*
X141450000Y-83600000D03*
X141450000Y-83200000D03*
X141450000Y-82800000D03*
D35*
X142100000Y-82150000D03*
X142500000Y-82150000D03*
X142900000Y-82150000D03*
X143300000Y-82150000D03*
X143700000Y-82150000D03*
D34*
X144350000Y-82800000D03*
X144350000Y-83200000D03*
X144350000Y-83600000D03*
X144350000Y-84000000D03*
X144350000Y-84400000D03*
D35*
X143700000Y-85050000D03*
X143300000Y-85050000D03*
X142900000Y-85050000D03*
X142500000Y-85050000D03*
X142100000Y-85050000D03*
%TD*%
D32*
%TO.C,C68*%
X130217500Y-93460000D03*
X130217500Y-94420000D03*
%TD*%
D36*
%TO.C,C64*%
X135542500Y-91650000D03*
X137092500Y-91650000D03*
%TD*%
D37*
%TO.C,Q3*%
X139217500Y-93550000D03*
X139217500Y-95450000D03*
X137342500Y-94500000D03*
%TD*%
D24*
%TO.C,R45*%
X143200000Y-68890000D03*
X143200000Y-69910000D03*
%TD*%
%TO.C,R58*%
X138400000Y-78280000D03*
X138400000Y-79300000D03*
%TD*%
D38*
%TO.C,U16*%
X122250000Y-70925000D03*
D39*
X121750000Y-70925000D03*
X121250000Y-70925000D03*
D38*
X120750000Y-70925000D03*
D40*
X120600000Y-70250000D03*
D38*
X120750000Y-69575000D03*
D39*
X121250000Y-69575000D03*
X121750000Y-69575000D03*
D38*
X122250000Y-69575000D03*
D40*
X122400000Y-70250000D03*
%TD*%
D41*
%TO.C,R3*%
X149039376Y-68539376D03*
X149760624Y-69260624D03*
%TD*%
D42*
%TO.C,C66*%
X130680000Y-79600000D03*
X129720000Y-79600000D03*
%TD*%
D43*
%TO.C,FB1*%
X152277279Y-62548924D03*
X153444005Y-63715650D03*
%TD*%
D44*
%TO.C,C98*%
X139320000Y-83100000D03*
X140280000Y-83100000D03*
%TD*%
%TO.C,C58*%
X141220000Y-60200000D03*
X142180000Y-60200000D03*
%TD*%
D23*
%TO.C,R36*%
X139780000Y-56100000D03*
X140800000Y-56100000D03*
%TD*%
D28*
%TO.C,LED3*%
X131700000Y-88450000D03*
X132800000Y-88450000D03*
X132800000Y-89750000D03*
X131700000Y-89750000D03*
%TD*%
D44*
%TO.C,C96*%
X124720000Y-86400000D03*
X125680000Y-86400000D03*
%TD*%
D29*
%TO.C,R35*%
X131600000Y-61110000D03*
X131600000Y-60090000D03*
%TD*%
D23*
%TO.C,R39*%
X143990000Y-65000000D03*
X145010000Y-65000000D03*
%TD*%
D45*
%TO.C,X1*%
X133500000Y-58900000D03*
X133500000Y-60100000D03*
X132500000Y-60100000D03*
X132500000Y-58900000D03*
%TD*%
D30*
%TO.C,TP15*%
X135825000Y-119531000D03*
%TD*%
D44*
%TO.C,C61*%
X164820000Y-79700000D03*
X165780000Y-79700000D03*
%TD*%
%TO.C,C93*%
X145520000Y-86500000D03*
X146480000Y-86500000D03*
%TD*%
D32*
%TO.C,C105*%
X124300000Y-115500000D03*
X124300000Y-116460000D03*
%TD*%
D23*
%TO.C,R43*%
X143990000Y-66000000D03*
X145010000Y-66000000D03*
%TD*%
D28*
%TO.C,LED5*%
X145550000Y-88450000D03*
X146650000Y-88450000D03*
X146650000Y-89750000D03*
X145550000Y-89750000D03*
%TD*%
D29*
%TO.C,R56*%
X135000000Y-81910000D03*
X135000000Y-80890000D03*
%TD*%
D44*
%TO.C,C65*%
X135717500Y-92950000D03*
X136677500Y-92950000D03*
%TD*%
D32*
%TO.C,C69*%
X129217500Y-93460000D03*
X129217500Y-94420000D03*
%TD*%
D23*
%TO.C,R34*%
X132490000Y-61100000D03*
X133510000Y-61100000D03*
%TD*%
%TO.C,R73*%
X145490000Y-85300000D03*
X146510000Y-85300000D03*
%TD*%
D44*
%TO.C,C62*%
X164820000Y-80700000D03*
X165780000Y-80700000D03*
%TD*%
D41*
%TO.C,R2*%
X149739376Y-67839376D03*
X150460624Y-68560624D03*
%TD*%
D42*
%TO.C,C99*%
X142060000Y-86500000D03*
X141100000Y-86500000D03*
%TD*%
%TO.C,C54*%
X131580000Y-59200000D03*
X130620000Y-59200000D03*
%TD*%
D46*
%TO.C,R47*%
X123515000Y-66350000D03*
X122495000Y-66350000D03*
%TD*%
D47*
%TO.C,R67*%
X124075000Y-99400000D03*
X125725000Y-99400000D03*
%TD*%
D29*
%TO.C,R52*%
X136300000Y-82410000D03*
X136300000Y-81390000D03*
%TD*%
D30*
%TO.C,TP16*%
X114200000Y-88900000D03*
%TD*%
D44*
%TO.C,C95*%
X131720000Y-86500000D03*
X132680000Y-86500000D03*
%TD*%
D48*
%TO.C,U19*%
X117562500Y-85100000D03*
X117562500Y-84450000D03*
X117562500Y-83800000D03*
X119337500Y-83800000D03*
X119337500Y-85100000D03*
%TD*%
D49*
%TO.C,U10*%
X134600000Y-67400650D03*
X134600000Y-67000600D03*
X134600000Y-66600550D03*
X134600000Y-66200500D03*
X134600000Y-65800450D03*
X134600000Y-65400400D03*
X134600000Y-65000350D03*
X134600000Y-64600300D03*
X134600000Y-64200250D03*
X134600000Y-63800200D03*
X134600000Y-63400150D03*
X134600000Y-63000100D03*
X134600000Y-62600050D03*
X134600000Y-62200000D03*
X134600000Y-61799950D03*
D50*
X135074599Y-61325300D03*
X135474649Y-61325300D03*
X135874699Y-61325300D03*
D51*
X136274749Y-61325300D03*
D50*
X136674799Y-61325300D03*
X137074849Y-61325300D03*
X137474899Y-61325300D03*
X137874949Y-61325300D03*
X138274999Y-61325300D03*
X138675049Y-61325300D03*
X139075099Y-61325300D03*
D51*
X139475149Y-61325300D03*
D50*
X139875199Y-61325300D03*
X140275249Y-61325300D03*
X140675299Y-61325300D03*
D49*
X141149898Y-61799950D03*
X141149898Y-62200000D03*
X141149898Y-62600050D03*
X141149898Y-63000100D03*
X141149898Y-63400150D03*
X141149898Y-63800200D03*
X141149898Y-64200250D03*
X141149898Y-64600300D03*
X141149898Y-65000350D03*
X141149898Y-65400400D03*
X141149898Y-65800450D03*
X141149898Y-66200500D03*
X141149898Y-66600550D03*
X141149898Y-67000600D03*
X141149898Y-67400650D03*
D50*
X140675299Y-67875300D03*
X140275249Y-67875300D03*
X139875199Y-67875300D03*
D51*
X139475149Y-67875300D03*
D50*
X139075099Y-67875300D03*
X138675049Y-67875300D03*
X138274999Y-67875300D03*
X137874949Y-67875300D03*
X137474899Y-67875300D03*
X137074849Y-67875300D03*
X136674799Y-67875300D03*
D51*
X136274749Y-67875300D03*
D50*
X135874699Y-67875300D03*
X135474649Y-67875300D03*
X135074599Y-67875300D03*
D52*
X135315899Y-64600300D03*
D53*
X137874949Y-62041250D03*
D52*
X140433999Y-64600300D03*
D53*
X137874949Y-67159350D03*
D54*
X137874949Y-64600300D03*
%TD*%
D55*
%TO.C,Q2*%
X123650000Y-64000000D03*
X122350000Y-64000000D03*
X123000000Y-62000000D03*
%TD*%
D46*
%TO.C,R49*%
X123265000Y-59750000D03*
X122245000Y-59750000D03*
%TD*%
D24*
%TO.C,R46*%
X142200000Y-68890000D03*
X142200000Y-69910000D03*
%TD*%
D46*
%TO.C,R42*%
X131810000Y-66200000D03*
X130790000Y-66200000D03*
%TD*%
D44*
%TO.C,C101*%
X123120000Y-72000000D03*
X124080000Y-72000000D03*
%TD*%
D56*
%TO.C,U12*%
X133050000Y-73630000D03*
X133700000Y-73630000D03*
X134350000Y-73630000D03*
X135000000Y-73630000D03*
X135650000Y-73630000D03*
X136300000Y-73630000D03*
X136950000Y-73630000D03*
X136950000Y-79370000D03*
X136300000Y-79370000D03*
X135650000Y-79370000D03*
X135000000Y-79370000D03*
X134350000Y-79370000D03*
X133700000Y-79370000D03*
X133050000Y-79370000D03*
%TD*%
D23*
%TO.C,R41*%
X133625000Y-56600000D03*
X134645000Y-56600000D03*
%TD*%
D46*
%TO.C,R40*%
X131810000Y-65200000D03*
X130790000Y-65200000D03*
%TD*%
D32*
%TO.C,C70*%
X131700000Y-79320000D03*
X131700000Y-80280000D03*
%TD*%
D44*
%TO.C,C94*%
X138620000Y-86500000D03*
X139580000Y-86500000D03*
%TD*%
D25*
%TO.C,C30*%
X126300000Y-70580000D03*
X126300000Y-69620000D03*
%TD*%
D29*
%TO.C,R54*%
X135717500Y-94960000D03*
X135717500Y-93940000D03*
%TD*%
D25*
%TO.C,C48*%
X134400000Y-58980000D03*
X134400000Y-58020000D03*
%TD*%
D57*
%TO.C,Q1*%
X138210000Y-55950000D03*
X138210000Y-57250000D03*
X136390000Y-56600000D03*
%TD*%
D25*
%TO.C,C104*%
X121188000Y-84330000D03*
X121188000Y-83370000D03*
%TD*%
D58*
%TO.C,TP11*%
X126100000Y-66500000D03*
%TD*%
D23*
%TO.C,R44*%
X145200000Y-67400000D03*
X146220000Y-67400000D03*
%TD*%
%TO.C,R50*%
X122790000Y-79200000D03*
X123810000Y-79200000D03*
%TD*%
D42*
%TO.C,C63*%
X123235000Y-60750000D03*
X122275000Y-60750000D03*
%TD*%
%LPD*%
M02*
